<svg width="180" height="66" fill="none" xmlns="http://www.w3.org/2000/svg"><path d="M65.789 49.176c-13.438 0-24.373-10.916-24.373-24.33C41.401 11.416 52.336.5 65.789.5c7.653 0 14.703 3.482 19.369 9.55l-4.68 3.57c-3.533-4.598-8.89-7.243-14.69-7.243-10.199 0-18.485 8.287-18.485 18.454 0 10.182 8.301 18.454 18.486 18.454 5.799 0 11.156-2.645 14.688-7.244l4.68 3.57c-4.665 6.083-11.715 9.566-19.368 9.566zm-32.998-7.551V1.764h-5.887v39.86H14.188c-4.577 0-8.3-3.717-8.3-8.3V1.763H0v31.574c0 7.816 6.373 14.164 14.188 14.164h22.445v-5.877H32.79zm92.12 5.862h-5.887v-30.62c0-5.788-4.71-10.49-10.509-10.49s-10.509 4.702-10.509 10.49v30.62H92.12v-30.62C92.104 7.848 99.463.5 108.515.5c9.051 0 16.396 7.346 16.396 16.367v30.62zm30.716 1.689c-13.437 0-24.373-10.916-24.373-24.33C131.24 11.416 142.175.5 155.627.5 169.079.5 180 11.417 180 24.83c0 13.43-10.935 24.346-24.373 24.346zm0-42.799c-10.199 0-18.485 8.287-18.485 18.454 0 10.182 8.3 18.454 18.485 18.454 10.185 0 18.486-8.287 18.486-18.454s-8.286-18.454-18.486-18.454zM5.298 65.383l-3.076-8.184h-.059c.06.676.089 1.528.089 2.512v5.657H1.177v-9.33h1.737l2.885 7.64h.059l2.928-7.64h1.722v9.33H9.346v-5.73c0-.632.03-1.455.088-2.424h-.059l-3.12 8.169h-.957zm16.382-.001h-5.225v-9.33h5.224v1.03h-4.047v2.908h3.812v1.014h-3.812v3.335h4.047v1.043zm7.947-4.804l-3.62-4.525h1.31l3.576 4.51v-4.51h1.133v4.51l3.577-4.51h1.31l-3.621 4.51 3.738 4.805h-1.354l-3.65-4.731v4.73h-1.133v-4.73l-3.665 4.73h-1.354l3.753-4.789zM47.686 58.8c0 .955-.324 1.69-.971 2.19-.648.514-1.575.764-2.753.764h-1.074v3.628H41.71v-9.33h2.473c2.34 0 3.503.912 3.503 2.748zm-4.798 1.94h.942c.927 0 1.604-.147 2.016-.456.412-.294.618-.779.618-1.44 0-.602-.191-1.043-.574-1.351-.382-.294-.986-.441-1.81-.441h-1.192v3.688zm15.365 4.642h-5.225v-9.33h5.225v1.03h-4.047v2.908h3.812v1.014h-3.812v3.335h4.047v1.043zm10.73-9.329v1.043H64.89v8.286h-1.177v-9.33h5.269zm5.004 0h1.104v5.127c0 .368-.015.838-.03 1.44-.015.603-.044.985-.059 1.161h.06l5.136-7.714h1.31v9.33h-1.104V60.3c0-.44.014-.955.044-1.543.03-.587.044-.97.059-1.146h-.059l-5.151 7.758h-1.31v-9.315zm21.591 4.643c0 1.498-.383 2.674-1.133 3.526-.751.852-1.81 1.278-3.18 1.278-1.368 0-2.443-.426-3.193-1.263-.75-.838-1.133-2.028-1.133-3.556 0-1.514.367-2.689 1.118-3.526.75-.838 1.825-1.25 3.209-1.25 1.354 0 2.413.427 3.164 1.279.78.838 1.148 2.013 1.148 3.512zm-7.389 0c0 1.234.265 2.174.78 2.82.53.647 1.296.97 2.297.97 1 0 1.766-.323 2.28-.955.516-.632.78-1.587.78-2.835 0-1.25-.264-2.19-.78-2.821-.514-.632-1.28-.94-2.28-.94-1.016 0-1.781.322-2.311.954-.5.647-.766 1.587-.766 2.806zm20.002 4.686h-1.177v-4.349h-4.798v4.35h-1.178v-9.33h1.178v3.937h4.798v-3.937h1.177v9.33zm11.936-6.582c0 .955-.323 1.69-.971 2.19-.648.514-1.575.764-2.752.764h-1.075v3.628h-1.177v-9.33h2.472c2.341 0 3.503.912 3.503 2.748zm-4.798 1.94h.942c.927 0 1.604-.147 2.017-.456.412-.294.632-.779.632-1.44 0-.602-.191-1.043-.588-1.351-.383-.294-.986-.441-1.811-.441h-1.192v3.688zm15.366 4.642h-5.225v-9.33h5.225v1.03h-4.048v2.908h3.812v1.014h-3.812v3.335h4.048v1.043zm9.463-8.433c-1 0-1.795.338-2.369 1.014-.574.675-.869 1.586-.869 2.762 0 1.205.28 2.13.839 2.791.56.647 1.354.985 2.385.985.662 0 1.413-.118 2.237-.368v1.029a5.08 5.08 0 01-1.148.294c-.368.044-.795.073-1.266.073-1.369 0-2.428-.411-3.179-1.249-.751-.837-1.119-2.012-1.119-3.555 0-.955.177-1.807.53-2.527a3.879 3.879 0 011.546-1.675c.677-.397 1.486-.588 2.399-.588.986 0 1.854.176 2.575.544l-.471.999c-.721-.353-1.427-.53-2.09-.53zm8.272 8.551c-.486 0-.913-.059-1.266-.19v-1.118a2.92 2.92 0 001.236.265c.457 0 .825-.103 1.104-.323.28-.22.545-.603.81-1.161l-3.591-6.935h1.295l2.678 5.187c.104.205.192.426.28.66h.059l.044-.146.191-.53 2.238-5.17h1.251l-2.988 6.67c-.353.793-.677 1.366-.971 1.733-.295.368-.619.632-.987.794-.412.19-.868.264-1.383.264zm16.94-6.7c0 .955-.324 1.69-.971 2.19-.648.514-1.575.764-2.753.764h-1.074v3.628h-1.177v-9.33h2.472c2.34 0 3.503.912 3.503 2.748zm-4.798 1.94h.942c.927 0 1.604-.147 2.016-.456.412-.294.633-.779.633-1.44 0-.602-.191-1.043-.589-1.351-.382-.294-.986-.441-1.81-.441h-1.192v3.688zm14.144-3.791c-1.001 0-1.796.338-2.37 1.014-.574.675-.868 1.586-.868 2.762 0 1.205.28 2.13.839 2.791.559.647 1.354.985 2.384.985.663 0 1.413-.118 2.237-.368v1.029c-.397.147-.78.25-1.148.294-.368.044-.794.073-1.265.073-1.369 0-2.429-.411-3.179-1.249-.751-.837-1.119-2.012-1.119-3.555 0-.955.177-1.807.53-2.527a3.87 3.87 0 011.545-1.675c.677-.397 1.487-.588 2.399-.588.986 0 1.855.176 2.576.544l-.471.999c-.721-.353-1.428-.53-2.09-.53z" fill="#325285"/></svg>