<svg width="133" height="49" fill="none" xmlns="http://www.w3.org/2000/svg"><path d="M48.583 35.946c-9.923 0-17.998-8.062-17.998-17.968C30.573 8.061 38.648 0 48.582 0c5.652 0 10.858 2.571 14.303 7.052L59.43 9.69a13.588 13.588 0 00-10.847-5.35c-7.532 0-13.651 6.12-13.651 13.627 0 7.52 6.13 13.628 13.65 13.628 4.283 0 8.24-1.953 10.848-5.35l3.456 2.637c-3.445 4.492-8.651 7.064-14.303 7.064zm-24.368-5.577V.933h-4.347V30.37h-9.39a6.134 6.134 0 01-6.13-6.13V.933H0V24.25c0 5.772 4.706 10.459 10.477 10.459h16.575v-4.34h-2.837zm68.027 4.329h-4.348V12.087c0-4.275-3.478-7.747-7.76-7.747s-7.76 3.472-7.76 7.747v22.611h-4.348V12.087C68.016 5.425 73.45 0 80.134 0s12.108 5.425 12.108 12.087v22.611zm22.683 1.248c-9.923 0-17.999-8.062-17.999-17.968C96.916 8.061 104.991 0 114.925 0s17.998 8.061 17.998 17.967c0 9.917-8.075 17.979-17.998 17.979zm0-31.606c-7.532 0-13.651 6.12-13.651 13.627 0 7.52 6.13 13.628 13.651 13.628s13.651-6.12 13.651-13.628S122.457 4.34 114.925 4.34zM3.913 47.913L1.64 41.87h-.043c.043.499.065 1.128.065 1.855v4.177H.87v-6.89h1.282l2.13 5.643h.044l2.163-5.642H7.76v6.89h-.858V43.67c0-.467.021-1.074.065-1.79h-.044L4.62 47.913h-.706zm12.097 0h-3.86v-6.89h3.859v.76h-2.99v2.148h2.816v.749H13.02v2.463h2.989v.77zm5.868-3.548l-2.673-3.342h.967l2.641 3.331v-3.33h.837v3.33l2.641-3.33h.967l-2.673 3.33 2.76 3.548h-1L23.65 44.41v3.493h-.837V44.41l-2.706 3.493h-1l2.771-3.537zm13.336-1.313c0 .706-.239 1.248-.717 1.617-.478.38-1.163.564-2.032.564h-.794v2.68h-.87v-6.89h1.827c1.728 0 2.586.673 2.586 2.03zm-3.543 1.433h.696c.685 0 1.184-.109 1.489-.337.304-.217.456-.575.456-1.063 0-.445-.141-.77-.424-.998-.282-.217-.728-.326-1.336-.326h-.88v2.724zm11.347 3.428H39.16v-6.89h3.858v.76h-2.989v2.148h2.815v.749H40.03v2.463h2.989v.77zm7.923-6.89v.77H47.92v6.12h-.87v-6.89h3.891zm3.696 0h.815v3.787c0 .271-.011.618-.022 1.063-.01.445-.032.727-.043.858h.043l3.793-5.697h.968v6.89h-.816v-3.765c0-.325.011-.705.033-1.14.022-.433.033-.715.044-.846h-.044l-3.804 5.73h-.967v-6.88zm15.944 3.429c0 1.107-.282 1.975-.837 2.604-.554.63-1.337.944-2.347.944-1.011 0-1.805-.315-2.359-.933-.554-.618-.837-1.497-.837-2.626 0-1.117.272-1.985.826-2.604.555-.618 1.348-.922 2.37-.922 1 0 1.782.315 2.336.944.576.618.848 1.486.848 2.593zm-5.456 0c0 .912.196 1.606.576 2.083.391.478.957.716 1.696.716s1.304-.238 1.684-.705c.38-.466.576-1.172.576-2.094 0-.922-.195-1.616-.576-2.083-.38-.467-.945-.694-1.684-.694-.75 0-1.316.238-1.707.705-.37.477-.565 1.172-.565 2.072zm14.77 3.461h-.87v-3.211h-3.542v3.211h-.87v-6.89h.87v2.908h3.543v-2.908h.87v6.89zm8.815-4.861c0 .706-.24 1.248-.718 1.617-.478.38-1.163.564-2.032.564h-.794v2.68h-.87v-6.89h1.827c1.728 0 2.587.673 2.587 2.03zm-3.544 1.433h.696c.685 0 1.185-.109 1.489-.337.304-.217.467-.575.467-1.063 0-.445-.141-.77-.434-.998-.283-.217-.729-.326-1.337-.326h-.88v2.724zm11.347 3.428h-3.858v-6.89h3.858v.76h-2.989v2.148h2.815v.749h-2.815v2.463h2.99v.77zm6.989-6.228c-.739 0-1.326.25-1.75.749-.424.499-.641 1.172-.641 2.04 0 .89.206 1.573.619 2.061.413.478 1 .727 1.761.727.489 0 1.043-.087 1.652-.271v.76a3.747 3.747 0 01-.848.216 7.897 7.897 0 01-.934.055c-1.011 0-1.794-.304-2.348-.923-.554-.618-.826-1.486-.826-2.625 0-.706.13-1.335.391-1.867a2.866 2.866 0 011.141-1.236c.5-.293 1.098-.434 1.772-.434.728 0 1.37.13 1.902.401l-.348.738c-.532-.26-1.054-.39-1.543-.39zM109.61 48c-.359 0-.674-.043-.935-.141v-.825c.283.13.587.196.913.196.337 0 .609-.076.815-.239.207-.163.402-.445.598-.857l-2.652-5.121h.957l1.978 3.83c.076.152.141.314.206.488h.044l.032-.109.142-.39 1.652-3.82h.923l-2.206 4.927c-.261.586-.5 1.009-.717 1.28a1.944 1.944 0 01-.728.586c-.305.14-.642.195-1.022.195zm12.51-4.948c0 .706-.239 1.248-.718 1.617-.478.38-1.163.564-2.032.564h-.793v2.68h-.87v-6.89h1.826c1.728 0 2.587.673 2.587 2.03zm-3.543 1.433h.695c.685 0 1.185-.109 1.489-.337.304-.217.467-.575.467-1.063 0-.445-.141-.77-.434-.998-.283-.217-.728-.326-1.337-.326h-.88v2.724zm10.444-2.8c-.739 0-1.326.25-1.749.749-.424.499-.642 1.172-.642 2.04 0 .89.207 1.573.62 2.061.413.478 1 .727 1.761.727.489 0 1.043-.087 1.652-.271v.76a3.76 3.76 0 01-.848.216 7.915 7.915 0 01-.935.055c-1.011 0-1.793-.304-2.347-.923-.555-.618-.826-1.486-.826-2.625 0-.706.13-1.335.391-1.867a2.86 2.86 0 011.141-1.236c.5-.293 1.098-.434 1.772-.434.728 0 1.369.13 1.902.401l-.348.738c-.533-.26-1.054-.39-1.544-.39z" fill="#fff"/></svg>