<svg width="92" height="118" fill="none" xmlns="http://www.w3.org/2000/svg"><path d="M23.79.93l56.66.93c3.14.05 7.25.94 8.15 4.48 1.4 31.77 2 63.57 1.8 95.37-.03 4.76-.47 10.28-4.46 12.89-3.34 1.12-6.93 1.2-10.45 1.27-19.1.39-38.21.78-57.31 1.18-5.05.1-10.66.01-14.45-3.72-1.88-3.5-1.97-7.66-2.01-11.64L.85 14.67c-.03-2.6.29-5.18.92-7.71C3.46.08 16.73.82 23.79.93z" fill="#fff"/><path d="M16.38 117.93c-4.88 0-9.75-.55-13.25-3.99a.951.951 0 01-.15-.2C.95 109.97.91 105.58.87 101.7L0 14.68c-.03-2.61.29-5.27.94-7.92C2.69-.35 14.55-.11 22.41.06l1.39.03 56.66.93c2.87.05 7.85.78 8.96 5.13l.03.17c1.39 31.64 2 63.74 1.8 95.41-.03 5.44-.65 10.86-4.85 13.6-.06.04-.13.07-.2.09-3.49 1.17-7.16 1.24-10.7 1.32l-.58.01-56.73 1.17c-.6 0-1.21.01-1.81.01zm-11.96-5.12c3.46 3.32 8.48 3.5 13.74 3.39l57.31-1.18c3.38-.07 6.87-.14 10.09-1.19 3.45-2.33 3.96-7.2 3.99-12.12.2-31.61-.4-63.65-1.79-95.23-.87-3.18-4.95-3.72-7.31-3.76l-56.68-.93-1.4-.03C15.51 1.62 4.02 1.38 2.6 7.17a29.79 29.79 0 00-.89 7.5l.86 87.02c.04 3.63.08 7.75 1.85 11.12z" fill="#252424"/><path d="M13.28 13.95c-2.23.4-2.11 1.64-2.04 3.32.15 4.03.3 8.06.46 12.09.02.58.05 1.17.41 1.69.72 1.04 2.51 1.4 4.1 1.55 2.36.22 4.75.23 7.14.24 16.91.05 33.88.1 50.67-1.43.83-.08 1.71-.17 2.37-.54.97-.55 1.21-1.52 1.34-2.41.54-3.56.57-7.16.07-10.73-.18-1.29-.51-2.69-1.82-3.56-1.13-.75-2.75-.95-4.28-1.08-3.79-.32-7.61-.42-11.42-.31-4.3.12-36.08-.8-47 1.17z" fill="#fff"/><path d="M32.21 33.7c-2.97 0-5.93-.01-8.87-.02-2.37-.01-4.81-.01-7.22-.24-1.56-.15-3.75-.51-4.72-1.92-.5-.73-.53-1.54-.56-2.14l-.46-12.25c-.06-1.56-.14-3.5 2.75-4.02 8.57-1.54 29.5-1.33 40.75-1.22 3.15.03 5.43.05 6.37.03 3.83-.11 7.7-.01 11.52.31 1.58.13 3.37.35 4.68 1.22 1.57 1.04 1.99 2.69 2.19 4.16.51 3.64.48 7.34-.07 10.97-.11.72-.34 2.22-1.77 3.02-.78.44-1.69.56-2.71.65-13.88 1.26-28.01 1.45-41.88 1.45zM13.44 14.79c-1.43.26-1.41.68-1.35 2.28l.46 12.26c.02.55.05.94.26 1.23.29.42 1.13.97 3.48 1.19 2.33.22 4.73.23 7.06.23 16.63.05 33.82.1 50.59-1.42.67-.06 1.5-.14 2.03-.44.59-.33.79-.93.92-1.8.53-3.48.56-7 .07-10.48-.19-1.33-.5-2.34-1.45-2.97-.97-.65-2.51-.82-3.88-.94-3.75-.31-7.56-.42-11.32-.31-.97.03-3.26.01-6.44-.03-11.2-.11-32.02-.32-40.43 1.2z" fill="#252424"/><path d="M14.67 50.69c.14 3.22.27 6.45.41 9.67.01.36.05.75.36 1 .32.25.81.23 1.24.2 3.27-.23 6.57-.15 9.84.24.62.07 1.42.08 1.64-.42.08-.18.06-.39.03-.58-.38-2.44.1-8.67-1.25-10.09-3.76-.17-7.51-.35-12.27-.02z" fill="#fff"/><path d="M27.05 62.69c-.2 0-.41-.01-.64-.04-3.21-.38-6.46-.47-9.68-.24-.46.03-1.23.09-1.83-.38-.64-.5-.67-1.26-.69-1.63l-.41-9.67a.86.86 0 01.79-.89c4.82-.33 8.65-.15 12.36.02.22.01.43.11.58.27 1.05 1.11 1.2 3.73 1.29 7.33.03 1.27.07 2.47.18 3.22.04.22.1.64-.09 1.07-.27.63-.9.94-1.86.94zm-6.76-2.11c2.11 0 4.23.13 6.32.38.39.05.61.03.73.01v-.03c-.13-.86-.17-2.11-.2-3.44-.05-1.99-.13-4.91-.66-5.95-3.32-.16-6.76-.3-10.93-.06l.37 8.84c.01.21.03.33.05.38.05.02.27.03.64.01 1.22-.09 2.45-.14 3.68-.14z" fill="#252424"/><path d="M38.36 50.75l.48 9.67c.02.36.06.75.37.99.32.25.81.23 1.24.2 3.27-.25 6.57-.19 9.84.17.62.07 1.42.07 1.64-.43.08-.18.06-.39.02-.58-.4-2.44.03-8.67-1.32-10.08-3.76-.15-7.51-.3-12.27.06z" fill="#fff"/><path d="M50.79 62.67c-.19 0-.39-.01-.6-.04-3.21-.36-6.47-.42-9.68-.17-.46.04-1.23.1-1.83-.37-.64-.5-.68-1.26-.7-1.62l-.48-9.67c-.02-.46.33-.86.79-.89 4.82-.37 8.65-.21 12.36-.07.22.01.43.1.58.26 1.06 1.1 1.22 3.73 1.34 7.32.04 1.27.08 2.47.21 3.22.04.23.1.65-.09 1.07-.28.64-.92.96-1.9.96zm-6.35-2.06c1.98 0 3.97.11 5.94.33.39.04.61.02.73 0 0-.01 0-.03-.01-.03-.14-.85-.18-2.11-.23-3.44-.07-1.99-.17-4.91-.7-5.95-3.32-.13-6.76-.25-10.93.02l.44 8.84c.01.26.04.35.05.38.05.02.27.03.64 0 1.36-.1 2.71-.15 4.07-.15z" fill="#252424"/><path d="M62.12 50.75l.48 9.67c.02.36.06.75.37.99.32.25.81.23 1.24.2 3.27-.25 6.57-.19 9.84.17.62.07 1.42.07 1.64-.43.08-.18.05-.39.02-.58-.4-2.44.03-8.67-1.32-10.08-3.75-.15-7.5-.3-12.27.06z" fill="#fff"/><path d="M74.56 62.67c-.19 0-.39-.01-.6-.04-3.21-.36-6.47-.42-9.68-.17-.46.04-1.23.1-1.83-.37-.64-.5-.68-1.26-.7-1.62l-.48-9.67c-.02-.46.33-.86.79-.89 4.82-.37 8.65-.21 12.36-.07.22.01.43.1.58.26 1.06 1.1 1.22 3.73 1.34 7.32.04 1.27.08 2.47.21 3.22.04.23.11.65-.09 1.07-.28.64-.92.96-1.9.96zm-6.35-2.06c1.98 0 3.97.11 5.94.33.39.04.61.02.73 0 0-.01 0-.02-.01-.03-.14-.86-.18-2.11-.23-3.44-.07-1.99-.17-4.91-.7-5.95-3.32-.13-6.76-.25-10.93.02l.44 8.84c.01.26.04.35.05.38.05.02.27.03.64 0 1.35-.1 2.71-.15 4.07-.15z" fill="#252424"/><path d="M15.83 70.34c.14 3.22.27 6.45.41 9.67.01.36.05.75.36 1 .32.25.81.23 1.24.2 3.27-.23 6.57-.15 9.84.24.62.07 1.42.08 1.64-.42.08-.18.06-.39.03-.58-.38-2.44.1-8.67-1.25-10.09-3.75-.17-7.5-.35-12.27-.02z" fill="#fff"/><path d="M28.21 82.34c-.2 0-.41-.01-.64-.04-3.21-.38-6.47-.46-9.68-.24-.46.03-1.23.09-1.83-.38-.64-.5-.67-1.26-.69-1.63l-.41-9.67a.86.86 0 01.79-.89c4.82-.33 8.66-.15 12.36.02.22.01.43.11.58.27 1.05 1.11 1.2 3.73 1.29 7.33.03 1.27.07 2.47.18 3.22.03.22.1.64-.09 1.07-.27.63-.9.94-1.86.94zm-6.76-2.11c2.11 0 4.23.13 6.33.38.39.05.61.03.73.01v-.03c-.13-.86-.17-2.11-.2-3.44-.05-1.99-.13-4.91-.66-5.95-3.31-.15-6.76-.3-10.93-.06l.37 8.84c.01.21.03.33.05.38.05.02.27.03.64.01a49.8 49.8 0 013.67-.14z" fill="#252424"/><path d="M39.52 70.4l.48 9.67c.02.36.06.75.37.99.32.25.81.23 1.24.2 3.27-.25 6.57-.19 9.84.17.62.07 1.42.07 1.64-.43.08-.18.06-.39.02-.58-.4-2.44.03-8.67-1.32-10.08-3.75-.15-7.5-.3-12.27.06z" fill="#fff"/><path d="M51.96 82.32c-.19 0-.39-.01-.6-.04-3.21-.36-6.47-.42-9.68-.17-.46.04-1.23.1-1.83-.37-.64-.5-.68-1.26-.7-1.62l-.48-9.67c-.02-.46.33-.86.79-.89 4.82-.36 8.65-.21 12.36-.07.22.01.43.1.58.26 1.06 1.1 1.22 3.73 1.34 7.32.04 1.27.08 2.47.21 3.22.04.23.11.65-.09 1.07-.28.64-.92.96-1.9.96zm-6.36-2.06c1.98 0 3.97.11 5.94.33.39.04.61.02.73 0 0-.01 0-.03-.01-.03-.14-.86-.18-2.11-.23-3.44-.07-1.99-.17-4.91-.7-5.95-3.32-.13-6.76-.25-10.93.02l.44 8.84c.01.26.04.35.05.38.05.02.27.03.64 0 1.36-.1 2.71-.15 4.07-.15z" fill="#252424"/><path d="M17.42 89.99c.14 3.22.27 6.45.41 9.67.02.36.05.75.36 1 .32.25.81.23 1.24.2 3.27-.23 6.57-.15 9.84.24.62.07 1.42.08 1.64-.42.08-.18.06-.39.03-.58-.38-2.44.1-8.67-1.25-10.09-3.75-.18-7.5-.35-12.27-.02z" fill="#fff"/><path d="M29.8 101.99c-.2 0-.41-.01-.64-.04-3.21-.38-6.47-.46-9.68-.24-.46.03-1.23.09-1.83-.38-.64-.5-.67-1.26-.69-1.63l-.41-9.67a.86.86 0 01.79-.89c4.81-.33 8.64-.15 12.35.02.22.01.44.11.59.27 1.05 1.11 1.2 3.74 1.29 7.33.03 1.27.07 2.47.18 3.22.03.22.1.64-.1 1.07-.25.62-.89.94-1.85.94zm-6.76-2.11c2.11 0 4.23.13 6.32.38.39.05.61.03.73.01v-.03c-.13-.86-.17-2.11-.2-3.44-.05-1.99-.13-4.91-.66-5.95-3.32-.15-6.76-.3-10.93-.06l.37 8.84c.01.21.03.33.05.38.05.02.27.03.64.01 1.23-.09 2.46-.14 3.68-.14z" fill="#252424"/><path d="M41.11 90.05l.48 9.67c.02.36.06.75.37.99.32.25.81.23 1.24.2 3.27-.25 6.57-.19 9.84.17.62.07 1.42.07 1.64-.43.08-.18.05-.39.02-.58-.4-2.44.03-8.67-1.32-10.08-3.75-.15-7.5-.3-12.27.06z" fill="#fff"/><path d="M53.55 101.97c-.19 0-.39-.01-.6-.04-3.21-.36-6.47-.42-9.68-.17-.46.04-1.23.09-1.83-.37-.64-.5-.68-1.26-.7-1.63l-.48-9.67c-.02-.46.33-.86.79-.89 4.82-.36 8.65-.21 12.36-.07.22.01.43.1.58.26 1.06 1.1 1.22 3.73 1.34 7.32.04 1.27.08 2.47.21 3.22.04.23.1.64-.09 1.07-.28.65-.92.97-1.9.97zm-6.35-2.06c1.98 0 3.97.11 5.94.33.39.04.61.03.73 0 0-.01 0-.02-.01-.03-.14-.86-.18-2.11-.23-3.44-.07-1.99-.17-4.91-.7-5.95-3.32-.13-6.76-.25-10.93.02l.44 8.84c.01.21.03.33.05.38.05.02.27.03.64 0 1.35-.1 2.71-.15 4.07-.15z" fill="#252424"/><path d="M63.17 70.48c.36 10.09.42 20.19.7 30.79 3.71-.27 7.44-.26 10.92-.29.35-10.31-.51-18.95-.11-30.83-3.54-.04-7.69-.33-11.51.33z" fill="#6BA8C9"/><path d="M63.87 102.13c-.21 0-.42-.08-.57-.22a.893.893 0 01-.28-.61c-.11-4.34-.19-8.64-.27-12.8-.11-6.19-.22-12.03-.43-17.98-.02-.43.29-.8.71-.87 3.14-.55 6.51-.46 9.49-.38.74.02 1.47.04 2.18.05.23 0 .45.1.61.26.16.17.24.39.24.62-.21 6.12-.08 11.38.05 16.47.12 4.81.23 9.36.06 14.36-.02.46-.39.82-.84.82l-1.54.01c-3.04.03-6.19.05-9.33.28-.04-.01-.06-.01-.08-.01zm.18-30.93c.2 5.71.3 11.32.41 17.26.07 3.87.14 7.87.24 11.9 2.89-.17 5.76-.2 8.54-.22l.72-.01c.13-4.63.02-8.92-.09-13.44-.12-4.87-.24-9.9-.08-15.7l-1.33-.03c-2.78-.07-5.65-.14-8.41.24zM34.7 28.66c-.04 0-.09-.01-.13-.03a.283.283 0 01-.12-.38c2.35-4.4 4.99-8.71 7.85-12.8a.288.288 0 01.47.33c-2.85 4.07-5.48 8.35-7.82 12.74-.05.08-.14.14-.25.14zm6.17.9a.23.23 0 01-.14-.04.292.292 0 01-.11-.39c2.65-4.64 5.54-9.21 8.6-13.59a.288.288 0 01.47.33c-3.05 4.37-5.93 8.93-8.57 13.55-.05.08-.15.14-.25.14zm11.78.23a.25.25 0 01-.14-.04.283.283 0 01-.11-.39l7.01-12.67c.08-.14.25-.19.39-.11s.19.25.11.39L52.9 29.65c-.05.09-.15.14-.25.14z" fill="#252424"/><path d="M77.44 16.51c-.12-1.35-3.12-2.54-4.15-2.69-7.32-1.16-14.76-.68-22.14-.69-2.2-.03-4.39.05-6.58.16-4.17-.09-8.33-.46-12.51-.43-3.96.04-7.91.44-11.87.5-1.79.16-3.6.35-5.33.83-.59.18-1.28.32-1.81.66-.47-.29-1.17-.19-1.46.34-.35.96-.2 2.05-.24 3.06.03 1.55.1 3.11.23 4.66.35 2.86.5 5.82 1.48 8.54.65 1.16 2.2.54 2.07-.74-.11-2.71-.26-5.41-.6-8.1-.11-.77-.19-1.54-.28-2.31.26-.99.55-1.97.88-2.94 8.05-.07 16.09-.91 24.15-.9 7.93-.17 15.84.32 23.76.61 3.93.13 7.84.72 11.77.88.87.01.99.02 1.48.08.03.01.05.01.06.01.28.1.6.09.86-.07.57-.35.57-1.03.23-1.46zm13.46 63.9c.03-3.4-.3-6.79-.53-10.19-.12-7.2-.37-14.4-.5-21.61-.28-10.15-.85-20.29-1.2-30.44-.16-3.39-.26-6.79-.65-10.16-.12-1.15-.32-2.3-.52-3.45a.905.905 0 00-.4-.52.775.775 0 00-.66-.07.138.138 0 00-.04-.03.843.843 0 00-.69-.07c-.64-.63-1.34-1.21-2.1-1.7-.36-.23-.73-.59-1.19-.45-.7.17-.83 1.19-.2 1.53.01.1.04.2.09.29 2.97 3.75 3.25 7.77 3.51 12.39.13 1.7.27 3.4.4 5.11-.01 1.15-.04 2.31-.04 3.46.08 3.39.12 6.77.04 10.16-.06 5.6.44 11.18.6 16.77.2 3.2.25 6.4.22 9.61.02 2.77.12 5.55-.01 8.32-.14 4.27-.01 8.54.02 12.81-.01 3.29-.17 6.58-.01 9.86.03 3.13.57 6.25.42 9.38-.48 4.01-.28 6.93-1.62 10.48-.02.05-.04.11-.06.16.04-.1.08-.16.01-.01 0 .01-.01.02-.01.03-.01.03-.03.07-.04.1l.03-.09c-.11.25-.25.49-.39.72-.05.08-.17.25-.24.35-.04.04-.07.09-.1.13.03-.06-.22.23-.24.36-.35.69.4 1.55 1.14 1.31.48-.14 1.24-.99 1.69-1.97 1.36-2.99 1.39-6.33 1.73-9.54.04-.31.08-.61.11-.92.32-.03.63-.22.8-.5.28-.71.19-1.53.26-2.28.21-2.8-.2-5.59-.18-8.39.02-3.65.53-7.28.55-10.94z" fill="#252424" opacity=".129"/><path d="M85.77 112.06c0 .01-.01.02-.01.03v-.01s.01-.01.01-.02zm-9.36-48.21c-.01 0-.02.01-.03.01.04-.01.06-.01.03-.01z" fill="#252424" opacity=".129"/><path d="M77.43 53.18c-.13-.9-.05-.83-.52-1.66-.11-.13-.2-.34-.44-.49-.01-.02-.03-.03-.04-.05-.02-.02-.04-.05-.06-.07-.06-.07.1.13.08.11a.784.784 0 00-.44-.34c-.68-.2-1.2.64-.77 1.19.02.08.04.15.07.22-.25.18-.42.52-.35.93.43 2.6.96 5.63.76 7.77 0 0 0 .01-.01.02-.05.11-.11.21-.18.31-.01.01-.02.02-.03.04-.05.03-.11.06-.16.09-.02.01-.03.01-.05.02-.05.01-.11.02-.16.04l-.16.03c-.04 0-.06 0-.07.01-.02 0-.05 0-.07.01-.03 0-.07.01-.11.01-.1.01-.2.02-.3.04.16-.02.38-.05.09-.02-.13.01-.2.02-.23.03-.94.01-1.89.22-2.83.21-2.45.22-4.96.02-7.39.25-.35-.33-.59-.84-1.11-.83-.7-.03-1.09.91-.58 1.39.21.25.43.5.68.71.12.42.46.78.99.77.13 0 .27-.01.4-.01 1.06.34 2.41.52 2.68.57 1.95.25 1.77.26 3.91.2 1.95-.01 2.5-.05 4.33-.47.31-.06.61-.16.9-.28h-.01s.01 0 .01-.01c.04-.02.09-.03.13-.05-.02.01-.05.02-.07.03.31-.13.55-.35.74-.62.76-1.67.55-3.61.63-5.41.03-1.57-.12-3.13-.26-4.69zm.01 40.24c-.29-3.47-.19-6.96-.38-10.44-.2-4.05-.16-8.1-.29-12.16-.02-1.36-2.07-1.39-2.09 0 .11 6.66.32 13.32.52 19.99.06 2.27.36 4.52.38 6.78.06 2.03-.15 3.02-.2 3.4-.03.13-.05.26-.06.39.01-.04.01-.09.02-.12.01-.02.01-.02 0 0 0-.04 0-.06-.02.02-.01.03-.02.05-.03.07 0 .01-.01.02-.01.02-.49-.08-.95-.27-1.44-.39-.69-.18-1.4-.12-2.1-.05-1.12.11-2.23.25-3.34.43-.67.08-1.34.12-2.02.13-.25-.02-.53 0-.78.08-.26-.14-.52-.32-1.03-.49-.84-.16-1.27 1.09-.52 1.49.25.18.5.32.77.45.1.22.29.39.55.46 1.17.26 2.32.62 3.52.72 1.18.1 2.37-.02 3.54-.13 1.19-.1 2.35-.37 3.44-.87.41-.19.93-.47 1.05-.94.07-.12.13-.24.18-.37.01-.01.02-.04.05-.11.48-1.1.53-2.32.53-3.5-.02-1.62-.1-3.24-.24-4.86zm-21.45-.47c-.32-.76-.36-1.7-1.49-1.29-.66.56-.36.77-.27 1.4.21.96.22.97.28 1.57.21 1.33.25 2.47.22 4.31.01 1.4-.06 1.78-.3 2.02l-.09.09c-.01.01-.02.01-.01.01-.01 0-.01.01-.02.01h-.01c-.05.02-.1.03-.15.05-.93.18-7.13-.07-8.78-.31-.24-.02-1.51-.16-2.46-.75-.33-.17-.68-.4-1.07-.27-.77.19-.92 1.32-.22 1.7 2.1 1.31 4.63 1.55 7.05 1.65 1.17.03 2.34.12 3.51.08 1.15-.09 1.18-.14 1.82-.26.56-.16.64-.09 1.32-.59-.36.27.08-.03.2-.15.24-.22.44-.49.58-.79.48-1.03.42-2.21.51-3.33.14-1.72-.11-3.48-.62-5.15zm-1.48-17.73c-.18-.63-.07-1.69-.92-1.79-.5-.1-.96.38-.91.87.05 1.28 1.05 4.74.49 6.43l-.02.02c-.04.03-.09.05-.12.07-.11.03-.22.06-.25.07-1.57.27-5.38-.15-7.82-.15-1.03.02-2.06.03-3.08 0-.5.03-1.05-.13-1.52.06-1.04.39-.71 2.03.4 2 3.09.06 6.17.03 9.26.2 2.92 0 4.82-.22 5.01-3.01.15-1.6-.26-3.19-.52-4.77zm-.47-15.64c-.13-1.09-.15-2.18-.24-3.27-.04-.84-.16-1.68-.36-2.51-.2-.64-.08-.43-.3-.76a.74.74 0 00-.57-.33c-.42-.08-.84.22-.96.62-.1.4.11.78.16 1.17.18.97.16.81.22 1.88.06.93-.04 1.86.01 2.8.02.63.13 1.26.07 1.88-.02.1-.05.19-.08.28-.01.03-.03.06-.05.09-.01.01-.01.02-.02.03-.02.03-.05.05-.07.08-.05.03-.09.05-.14.08-.96.33-2.44.21-4.1.19-1.84-.05-3.69.05-5.53-.16-.26-.03.06.01.16.02-1.1-.06-2.35-.79-3.31-.81-1.11.1-1.22 1.77-.14 2.04 2.57 1.04 5.34 1.01 8.06.98 1.94-.04 4.03.35 5.86-.44 1.42-.71 1.55-2.46 1.33-3.86zM30.73 58.4c-.11-1.13-.28-2.25-.53-3.36-.13-.54-.7-2.16-.56-1.75-.32-.69-.38-1.53-1.49-1.14-.64.55-.38.76-.29 1.28.07.27.12.55.25 1.31.25 2 .53 2.57.56 4.84-.02.72-.15 1.2-.41 1.7-.01.02-.03.04-.04.06-.07.09-.15.17-.24.25-.02.01-.03.02-.06.04-.02.01-.05.02-.07.03-.1.03-.32.11-.47.14-2.29.17-6.45.21-7.66-.04-1.43-.16-2.82-.76-4.25-.8-1.11.1-1.22 1.77-.14 2.04 1.74.28 3.42.83 5.19.94 2.41.19 4.86.09 7.26-.1 2.58-.34 3.19-3.26 2.95-5.44zm.88 19.02c-.05-1.71-.5-4.19-1.01-5-.01-.02-.02-.03-.03-.05-.01-.02-.02-.05-.04-.07a1.33 1.33 0 00-.14-.19c-.02-.02-.04-.05-.06-.07.01.01.01.02.02.03a.848.848 0 00-.85-.26c-.83.38-.62.89-.54 1.3 0-.01 0-.03-.01-.05.05.3.23.93.23 1.11.13.96.36 2.84.43 4.95.02 1.12.08.97-.19 1.82-.05.09-.11.22-.17.3-.24.28-.51.65-.99.71-1.48.13-6.55.28-8.11-.06-1.04-.17-1.66-.89-3.12-1.41-1.1-.2-1.64 1.39-.67 1.93 1.14.59 2.25 1.33 3.54 1.55 2.57.39 5.2.16 7.8.14.65-.05 1.32-.1 1.9-.42.83-.49 1.51-1.27 1.84-2.19.45-1.33.19-2.72.17-4.07zm2.15 21.17c-.04-1.31-.06-2.63-.35-3.91-.37-1.19-.34-2.57-1.75-2.35-1.38.47-.42 1.91-.27 2.88.22.84.22 1.87.28 3.35-.03 1.55-.05 1.83-.55 2.39-1.12.29-3.23.35-5.09.37-1.34.01-2.68.17-4.02-.02-.39 0-1.31-.3-1.62-.48-.47-.18-.87-.58-1.37-.66-1.1-.2-1.64 1.39-.67 1.93 1.9 1.26 4.21 1.53 6.45 1.35 2.11-.05 4.22-.05 6.31-.35 2.17-.2 2.75-2.69 2.65-4.5z" fill="#252424" opacity=".129"/></svg>