<svg width="135" height="146" fill="none" xmlns="http://www.w3.org/2000/svg"><path d="M23.012 108.63c-.17 0-.34-.06-.48-.17-7.72-6.28-12.31-15.97-12.27-25.92a.76.76 0 111.52 0c-.04 9.5 4.34 18.74 11.71 24.73.33.27.38.74.11 1.07-.15.19-.37.29-.59.29z" fill="#252424"/><path d="M23.032 109.05c-.05 0-.11-.01-.16-.02-2.84-.61-5.65-1.45-8.35-2.51a.764.764 0 01.56-1.42c2.31.9 4.7 1.65 7.12 2.21-.2-2.25-.68-4.47-1.42-6.61-.14-.4.07-.83.47-.97.4-.13.83.07.97.47.89 2.59 1.42 5.29 1.57 8.03.01.24-.09.47-.27.62-.14.14-.31.2-.49.2zm77.2 14.91c-.29 0-.57-.17-.7-.45-.17-.38 0-.83.39-1.01 9.09-4.06 16.09-12.61 18.26-22.33.09-.41.5-.67.91-.58.41.09.67.5.58.91-2.27 10.18-9.6 19.14-19.12 23.39-.11.04-.21.07-.32.07z" fill="#252424"/><path d="M120.292 107.59a.76.76 0 01-.76-.76c0-1.84-.25-3.66-.76-5.42a34.124 34.124 0 01-4.65 3.27c-.36.21-.83.09-1.04-.27a.763.763 0 01.27-1.04c1.88-1.1 3.66-2.39 5.28-3.85.19-.17.45-.23.7-.17.25.06.44.24.53.48.8 2.26 1.2 4.61 1.2 7.01-.01.41-.35.75-.77.75zM66.031 16.34a.768.768 0 01-.43-1.4c7.84-5.29 18.4-6.04 26.91-1.9.38.18.54.64.35 1.02-.18.38-.64.54-1.02.35-8.03-3.9-17.99-3.2-25.39 1.8-.12.09-.27.13-.42.13z" fill="#252424"/><path d="M72.552 16.77h-.07c-2.26-.21-4.55-.28-6.82-.22a.75.75 0 01-.7-.41.768.768 0 01.07-.81l4.12-5.51c.25-.34.73-.41 1.07-.15.34.25.41.73.15 1.07L67.182 15h.11c1.78 0 3.56.08 5.33.25.42.04.73.41.69.83-.04.39-.37.69-.76.69zm25.16-9.98a.83.83 0 01-.4-.11c-5.39-3.33-11.85-5.16-18.19-5.16h-.02a.76.76 0 01-.76-.76c0-.43.34-.76.79-.76 6.71 0 13.27 1.86 18.99 5.38.36.22.47.69.25 1.05-.16.23-.41.36-.66.36zm7.52 128.06a.76.76 0 01-.36-1.43c5.51-2.98 10.27-7.61 13.39-13.04.21-.37.68-.49 1.04-.28.36.21.49.68.28 1.04a35.733 35.733 0 01-13.99 13.63c-.11.05-.24.08-.36.08zm-98.38-34.52c-.23 0-.45-.1-.6-.3A30.107 30.107 0 01.002 81.4c0-.42.34-.75.76-.75h.01c.42 0 .76.35.75.77a28.675 28.675 0 005.93 17.68c.26.33.2.81-.14 1.07-.13.11-.3.16-.46.16z" fill="#252424"/><path d="M8.102 16.87c1.08 16.45 1.34 32.96.88 49.51 4.7-1.32 9.62-1.81 14.49-1.43.64.05 1.33.14 1.8.58.54.52.59 1.4.34 2.11-.25.71-.73 1.31-1.15 1.94-.62.93-1.14 1.97-1.2 3.09-.14 2.43 1.94 4.53 4.26 5.26 2.32.73 4.82.4 7.42-.38 1.92-.7 3.07-3.04 2.44-4.99-.28-.87-.85-1.62-1.18-2.48-.55-1.42-.31-3.21.86-4.18 1.08-.9 2.61-.93 4.02-.91 4.7.06 9.4.13 13.95.12-.23-6.5-.12-13 .31-19.73-1.02.89-2.41 1.3-3.76 1.25-1.35-.05-2.67-.53-3.82-1.23-.79-.48-1.54-1.09-1.97-1.91-.53-.99-.53-2.18-.4-3.29.17-1.41.6-2.89 1.68-3.82.51-.44 1.12-.73 1.74-.99 1.13-.48 2.32-.9 3.55-.87 1.23.02 2.51.56 3.25 1.77-.26-4.6-.53-9.22-.01-13.8.2-1.74.51-3.48-.02-5.07-1.18-.41-2.46-.35-3.71-.3-12.93.58-25.89.91-38.8.11-1.75-.11-3.46-.23-4.97-.36z" fill="#fff"/><path d="M55.751 18.48c-.01-.55.16-1.21-.29-1.63a.969.969 0 00-.5-.28c-.41 2.36-.82 4.73-1.26 7.08-.66 3.6-1.36 7.19-2.05 10.78.26.36.73.58 1.19.51.4.97 1.87 1.19 2.45.18.11-.23.18-.47.18-.72v-.18c0-.09.01-.18.02-.27.03-.31.08-.82.03-1-.24-3.63-.29-8.27 0-10.96.16-1.17.18-2.34.23-3.51zm-1.179 44.83c0-.04-.01-.07-.01-.11-.2-2.42-.15-4.85-.07-7.28-.05-2.88.28-5.75.47-8.62-.03-1.43-1.57-1.81-2.42-1.16-.61-.25-1.42.19-1.4.92.23 3.36.41 6.72.39 10.09-.06 1.57 0 3.14.04 4.7-.82.43-.55.32-1.24.58-4.63 1.04-6.79.82-12.62 2.1-1.18.34-.7 2.11.5 1.81 3.2-.65 6.57-.65 10.21-1.13 1.08-.11 2.18-.23 3.2-.65.02.08.03.16.06.24.17.48.67.69 1.14.63.62.2 1.38 0 1.71-.62.21-.34.23-.74.14-1.12-.06-.17-.09-.32-.1-.38zM37.532 71c-.11-.47-.1-1.03-.39-1.43-.37-.56-1.3-.48-1.62.1-.16.29-.16.6-.07.91.15.82.1.46.16 1.1.04.15 0 .65-.01.85-.29 1.6-1.42 2.09-3.84 2.6-1.45.32-3.34.15-6.04-.89-2.07-.52-2.91 2.5-.86 3.13 2.22.77 4.61 1.53 6.98 1.15 1.59-.27 3.11-1.1 4.29-2.2 1.33-1.38 1.71-3.46 1.4-5.32z" fill="#252424" opacity=".129"/><path d="M31.382 79.32c-.3 0-.61-.01-.92-.03-2.8-.17-5.06-1.05-6.54-2.54-.58-.59-1.3-1.54-1.42-2.76-.12-1.25.43-2.39.88-3.3l1.38-2.83c.25-.52.46-.98.4-1.36a.58.58 0 00-.23-.34.546.546 0 00-.4-.1c-.07.01-.15.01-.22.01-5-.55-10.19-.23-15.43.95-.23.05-.47 0-.65-.15a.784.784 0 01-.28-.61c.34-15.74.07-31.82-.82-49.18-.01-.21.07-.42.21-.57.15-.15.34-.24.56-.23 15.92.32 32.06.35 47.97.11.34-.01.64.21.74.54.14.44.14.81.02 1.1-.37 5.48-.48 11.31-.34 18.33.01.3-.17.58-.44.71s-.6.08-.82-.12c-1.41-1.23-3.48-1.66-5.27-1.1-1.79.56-3.23 2.1-3.68 3.92-.38 1.55.01 3.18 1 4.16.55.55 1.34.98 2.48 1.34 1.03.33 3.61.94 5.36-.41a.78.78 0 01.83-.07c.27.14.42.43.4.72-.44 6.28-.55 12.71-.33 19.67a.77.77 0 01-.8.79c-4.93-.26-9.93-.27-14.86-.05-1.3.06-2.57.23-3.13 1.07-.58.87-.14 2.21.18 2.92.11.25.23.5.35.74.47.96.95 1.96.99 3.11.06 1.82-1.08 3.63-2.91 4.61-1.18.64-2.58.95-4.26.95zm-6.76-14.79c.42 0 .84.13 1.19.39.46.33.77.82.85 1.34.13.88-.25 1.68-.53 2.26l-1.38 2.83c-.46.94-.8 1.73-.73 2.49.07.77.57 1.42.98 1.83 1.53 1.54 3.86 1.99 5.55 2.09 1.81.11 3.24-.13 4.35-.73 1.3-.7 2.14-1.99 2.11-3.22-.03-.83-.42-1.64-.83-2.5-.13-.26-.25-.52-.37-.79-.78-1.76-.8-3.27-.06-4.39.94-1.4 2.71-1.67 4.33-1.74 4.71-.21 9.47-.21 14.18.01-.17-6.18-.09-11.97.27-17.6-1.97.77-4.16.31-5.43-.09-.87-.28-2.13-.75-3.09-1.71-1.36-1.35-1.91-3.55-1.4-5.61.57-2.32 2.42-4.29 4.7-5.01 1.78-.56 3.79-.35 5.44.52-.1-6.42.02-11.86.37-16.99-15.4.23-31.01.19-46.43-.1.84 16.72 1.1 32.29.8 47.51 5.05-1.04 10.05-1.31 14.89-.79h.24zm30.84-47.39c0 .01 0 .01 0 0 0 .01 0 .01 0 0z" fill="#252424"/><path d="M55.751 18.48c-.01-.55.16-1.21-.29-1.63a.969.969 0 00-.5-.28c-.41 2.36-.82 4.73-1.26 7.08-.66 3.6-1.36 7.19-2.05 10.78.26.36.73.58 1.19.51.4.97 1.87 1.19 2.45.18.11-.23.18-.47.18-.72v-.18c0-.09.01-.18.02-.27.03-.31.08-.82.03-1-.24-3.63-.29-8.27 0-10.96.16-1.17.18-2.34.23-3.51zm-1.179 44.83c0-.04-.01-.07-.01-.11-.2-2.42-.15-4.85-.07-7.28-.05-2.88.28-5.75.47-8.62-.03-1.43-1.57-1.81-2.42-1.16-.61-.25-1.42.19-1.4.92.23 3.36.41 6.72.39 10.09-.06 1.57 0 3.14.04 4.7-.82.43-.55.32-1.24.58-4.63 1.04-6.79.82-12.62 2.1-1.18.34-.7 2.11.5 1.81 3.2-.65 6.57-.65 10.21-1.13 1.08-.11 2.18-.23 3.2-.65.02.08.03.16.06.24.17.48.67.69 1.14.63.62.2 1.38 0 1.71-.62.21-.34.23-.74.14-1.12-.06-.17-.09-.32-.1-.38zM37.532 71c-.11-.47-.1-1.03-.39-1.43-.37-.56-1.3-.48-1.62.1-.16.29-.16.6-.07.91.15.82.1.46.16 1.1.04.15 0 .65-.01.85-.29 1.6-1.42 2.09-3.84 2.6-1.45.32-3.34.15-6.04-.89-2.07-.52-2.91 2.5-.86 3.13 2.22.77 4.61 1.53 6.98 1.15 1.59-.27 3.11-1.1 4.29-2.2 1.33-1.38 1.71-3.46 1.4-5.32z" fill="#252424" opacity=".129"/><path d="M31.382 79.32c-.3 0-.61-.01-.92-.03-2.8-.17-5.06-1.05-6.54-2.54-.58-.59-1.3-1.54-1.42-2.76-.12-1.25.43-2.39.88-3.3l1.38-2.83c.25-.52.46-.98.4-1.36a.58.58 0 00-.23-.34.546.546 0 00-.4-.1c-.07.01-.15.01-.22.01-5-.55-10.19-.23-15.43.95-.23.05-.47 0-.65-.15a.784.784 0 01-.28-.61c.34-15.74.07-31.82-.82-49.18-.01-.21.07-.42.21-.57.15-.15.34-.24.56-.23 15.92.32 32.06.35 47.97.11.34-.01.64.21.74.54.14.44.14.81.02 1.1-.37 5.48-.48 11.31-.34 18.33.01.3-.17.58-.44.71s-.6.08-.82-.12c-1.41-1.23-3.48-1.66-5.27-1.1-1.79.56-3.23 2.1-3.68 3.92-.38 1.55.01 3.18 1 4.16.55.55 1.34.98 2.48 1.34 1.03.33 3.61.94 5.36-.41a.78.78 0 01.83-.07c.27.14.42.43.4.72-.44 6.28-.55 12.71-.33 19.67a.77.77 0 01-.8.79c-4.93-.26-9.93-.27-14.86-.05-1.3.06-2.57.23-3.13 1.07-.58.87-.14 2.21.18 2.92.11.25.23.5.35.74.47.96.95 1.96.99 3.11.06 1.82-1.08 3.63-2.91 4.61-1.18.64-2.58.95-4.26.95zm-6.76-14.79c.42 0 .84.13 1.19.39.46.33.77.82.85 1.34.13.88-.25 1.68-.53 2.26l-1.38 2.83c-.46.94-.8 1.73-.73 2.49.07.77.57 1.42.98 1.83 1.53 1.54 3.86 1.99 5.55 2.09 1.81.11 3.24-.13 4.35-.73 1.3-.7 2.14-1.99 2.11-3.22-.03-.83-.42-1.64-.83-2.5-.13-.26-.25-.52-.37-.79-.78-1.76-.8-3.27-.06-4.39.94-1.4 2.71-1.67 4.33-1.74 4.71-.21 9.47-.21 14.18.01-.17-6.18-.09-11.97.27-17.6-1.97.77-4.16.31-5.43-.09-.87-.28-2.13-.75-3.09-1.71-1.36-1.35-1.91-3.55-1.4-5.61.57-2.32 2.42-4.29 4.7-5.01 1.78-.56 3.79-.35 5.44.52-.1-6.42.02-11.86.37-16.99-15.4.23-31.01.19-46.43-.1.84 16.72 1.1 32.29.8 47.51 5.05-1.04 10.05-1.31 14.89-.79h.24zm30.84-47.39c0 .01 0 .01 0 0 0 .01 0 .01 0 0z" fill="#252424"/><path d="M79.041 67.74c-1.47-5.63-5.15-10.45-6.85-16.2 4.49-2.35 9.09-4.49 13.78-6.4.97-.4 1.94-.78 2.91-1.17.69-.27 1.45-.61 1.77-1.28.27-.58.14-1.29-.19-1.85-.33-.55-.83-.98-1.4-1.49-1.92-1.55-2.53-4.41-1.72-6.74.81-2.33 2.86-4.12 5.19-4.94 1.51-.53 3.34-.65 4.56.38.31.26.57.58.79.92.99 1.5 1.4 3.37 1.11 5.15-.15.9-.47 1.79-.46 2.71.01.92.47 1.92 1.46 2.36 5.39-2.53 10.94-4.71 16.83-6.35 1.59 2.41 2.49 5.2 3.47 7.92 2.75 7.61 6.24 14.92 9.73 22.22 1.07 2.24 2.14 4.48 3.04 6.82.06.52-.4.95-.82 1.26-4.73 3.49-10.45 5.3-15.6 8.12-.45.25-.91.51-1.22.92-.32.4-.46.99-.05 1.36-.13.77.4 1.51 1.02 1.98.62.48 1.35.81 1.91 1.35.94.92 1.26 2.38.94 3.65-.32 1.28-1.22 2.37-2.32 3.08-1.11.71-2.41 1.08-3.72 1.22-1.02.11-2.15.07-2.93-.6-.92-.79-1.03-2.15-1.08-3.36-.05-1.21-.17-2.57-1.1-3.35-.78-.65-2.04-.65-2.74.04-5.47 1.71-10.86 3.68-16.14 5.86-.62-.59-.89-1.46-1.16-2.27-1.52-4.65-3.71-9.04-6.05-13.33 1.62.37 3.38.18 4.84-.63 1.45-.81 2.57-2.24 2.89-3.87.05-.27.09-.56.05-.83-.05-.34-.21-.65-.37-.95-.56-1-1.28-1.93-2.19-2.63-.91-.7-2.02-1.17-3.17-1.21-.72-.03-1.44.11-2.12.33-1.1.34-2.11.89-2.89 1.8z" fill="#fff"/><path d="M78.191 63.86h-.03c-.14-.02-.24-.15-.22-.28.6-4.66 1.08-9.4 1.44-14.08.01-.14.12-.24.27-.23.14.01.24.13.23.27-.36 4.69-.84 9.44-1.44 14.11-.01.12-.12.21-.25.21zm5.79.19h-.01a.256.256 0 01-.24-.27l.83-15.82c.01-.14.13-.26.27-.24.14.01.25.13.24.27l-.83 15.82c-.01.14-.13.24-.26.24zm4.71 1.08h-.02a.248.248 0 01-.23-.27l1.6-19.22c.01-.14.14-.23.27-.23.14.01.24.13.23.27l-1.6 19.22c0 .13-.12.23-.25.23zm2.11-27.41h-.01a.256.256 0 01-.24-.27l.32-6.23c.01-.14.12-.24.25-.24h.01c.14.01.25.13.24.27l-.32 6.23c0 .14-.12.24-.25.24zm2.64 49.36h-.01a.256.256 0 01-.24-.27l3.06-54.87a.25.25 0 01.27-.24c.14.01.25.13.24.27l-3.06 54.87c-.01.13-.12.24-.26.24zm5.04-2.07c-.15 0-.26-.12-.25-.26.38-14.31.99-28.8 1.84-43.07a.25.25 0 01.27-.24c.14.01.25.13.24.27-.84 14.27-1.46 28.75-1.84 43.06-.01.13-.12.24-.26.24zm4.61-2.11c-.15-.01-.26-.12-.25-.26.53-14.38.97-28.94 1.3-43.28 0-.14.11-.24.26-.25.14 0 .25.12.25.26-.33 14.34-.76 28.91-1.3 43.29-.01.14-.12.24-.26.24zm4.67-1.79c-.01 0-.01 0 0 0-.15 0-.26-.12-.25-.26l1.28-43.12c0-.14.11-.24.26-.25.14 0 .25.12.25.26l-1.28 43.12a.27.27 0 01-.26.25zm4.13 10.67c-.13 0-.25-.1-.25-.24-.64-11.48.09-23.15.79-34.44.42-6.81.86-13.85.99-20.78 0-.14.12-.25.25-.25h.01c.14 0 .25.12.25.26-.13 6.94-.57 13.98-1 20.8-.7 11.27-1.42 22.93-.79 34.38.01.14-.1.26-.24.27h-.01zm4.46-15.87c-.01 0 0 0 0 0-.15 0-.26-.12-.25-.26.27-10.64 1.14-21.38 2.59-31.93.02-.14.15-.23.29-.22.14.02.24.15.22.29a288.007 288.007 0 00-2.59 31.87.27.27 0 01-.26.25zm4.22-2.15h-.01a.256.256 0 01-.24-.27c.34-6.83.95-13.74 1.82-20.53.02-.14.15-.24.28-.22.14.02.24.15.22.28-.87 6.78-1.48 13.67-1.81 20.49-.01.15-.12.25-.26.25zm4.771-1.6h-.02a.248.248 0 01-.23-.27c.25-3.35.61-6.74 1.07-10.07.02-.14.15-.23.29-.22.14.02.24.15.22.29-.46 3.32-.82 6.7-1.07 10.04-.02.13-.13.23-.26.23z" fill="#252424"/><path d="M107.711 81.45h.02c.06.01.12.01.18.02-.07 0-.16-.02-.2-.02z" fill="#252424" opacity=".129"/><path d="M109.941 83.68c-.02-.39-.14-.79-.36-1.12-.1-.12-.1-.13-.01-.01.22.27-.48-.6-.28-.32.09.12.08.11-.01-.02-.31-.41-.8-.65-1.3-.73-.01 0-.01 0-.03-.01-.01 0-.03 0-.04-.01.02 0 .03.01.05.01-.08-.01-.15-.03-.23-.03-.57-.07-1.14.03-1.7.15-1.39.26-2.71.75-3.99 1.35-1.08.41-3.1 1.4-6.03 2.41-1.9.56-3.75 1.27-5.59 1.98-.73.32-1.68.4-2.11 1.15-.72 1.15.47 2.71 1.77 2.31 3.74-1.3 7.55-2.41 11.16-4.06.76-.22 4.31-2.03 5.59-2.62.01 0 .01 0 .02-.01.35-.14.74-.17 1.07-.35.04-.02.09-.04.13-.06.24.23.52.42.83.55-.02-.01-.04-.02-.05-.02.04.02.12.05.16.07.05.06.09.13.13.19.13.24.47.33.7.18.52-.34.09-.88.12-.98zm22.54-15.37c-.17-.46-.31-.94-.43-1.41a.98.98 0 00-.57.27c-.28.25-.27.63-.39.96-.4.77-.28.55-.99 1.26-2.52 2.26-7.47 4.19-10.6 5.61-.33.13-1.04.43-1.26.51-.87.46-2.09.49-2.66 1.36-.68 1.08.44 2.54 1.66 2.16 3.77-1.36 7.36-3.16 10.76-5.27 1.77-1.13 3.76-2.23 4.74-4.17.04-.09.08-.19.12-.29-.13-.33-.26-.66-.38-.99z" fill="#252424" opacity=".129"/><path d="M112.891 93.92c-1.51 0-3.01-.52-3.86-1.85-.65-1.03-.7-2.18-.74-3.29-.02-.51-.04-1-.12-1.45-.12-.72-.7-1.5-1.28-1.75-.34-.15-.54-.05-.67.04-.05.04-.11.07-.18.09-3.5 1.23-7.08 2.63-10.53 3.97-2.07.81-4.22 1.64-6.34 2.44-.2.07-.42.06-.61-.03a.789.789 0 01-.39-.47c-1.59-5.72-3.92-10.92-6.92-15.46a.758.758 0 01.75-1.17c1.53.24 2.95.16 4.32-.23 1.06-.3 1.78-.72 2.21-1.29.36-.48.56-1.17.55-1.93-.02-2.08-1.59-4.13-3.67-4.78-2.03-.63-4.46.02-6.03 1.62a.78.78 0 01-.68.22.765.765 0 01-.56-.44c-.68-1.53-1.33-3.04-1.98-4.53-1.69-3.89-3.29-7.57-5.08-11.2a.752.752 0 01.32-1c6.01-3.3 12.31-6.23 18.72-8.69.09-.04.11-.07.13-.12.1-.33-.15-1.09-.55-1.65-.28-.39-.63-.74-1.01-1.11-.34-.34-.7-.69-1.01-1.09-1.67-2.13-1.81-5.34-.35-7.81 1.32-2.23 3.88-3.79 6.67-4.07 1.3-.13 2.41.04 3.29.52 1.26.68 2.18 2.07 2.45 3.72.25 1.49-.01 2.95-.3 4.18l-.05.2c-.15.64-.29 1.24-.23 1.79.04.37.21.8.51 1.01 4.74-1.85 10.92-4.23 17.24-6.48.19-.07.4-.06.58.03.18.09.32.24.39.44 4.64 13.37 10.06 26.13 16.09 37.93.19.37.05.81-.31 1.01-5.4 3-11.13 5.77-16.67 8.45-.61.29-1.17.6-1.35 1.04-.22.56.23 1.3.75 1.76.27.24.58.45.9.68.51.36 1.04.72 1.48 1.23 1.27 1.44 1.52 3.76.59 5.64-.79 1.59-2.35 2.88-4.3 3.54-.66.21-1.41.34-2.17.34zm-6.33-9.95c.3 0 .62.07.92.2 1.06.45 1.98 1.67 2.19 2.9.09.55.12 1.11.14 1.65.04.95.07 1.85.51 2.53.8 1.25 2.76 1.38 4.28.87 1.56-.53 2.81-1.54 3.42-2.77.66-1.34.51-2.97-.37-3.96-.33-.37-.76-.67-1.22-.99-.35-.24-.7-.49-1.04-.79-.87-.77-1.69-2.13-1.16-3.47.38-.95 1.25-1.43 2.1-1.84 5.3-2.56 10.77-5.21 15.95-8.06-5.82-11.46-11.06-23.81-15.58-36.74-6.19 2.21-12.19 4.53-16.78 6.32-.16.06-.34.07-.51.02-.95-.3-1.65-1.25-1.77-2.41-.09-.82.09-1.57.26-2.3l.05-.2c.25-1.09.48-2.36.28-3.59-.2-1.19-.83-2.17-1.68-2.63-.61-.33-1.42-.45-2.42-.35-2.32.23-4.43 1.51-5.51 3.33-1.13 1.91-1.03 4.47.24 6.09.26.33.56.63.89.95.4.4.82.81 1.18 1.31.54.76 1.06 1.99.76 2.97-.16.51-.52.91-1.04 1.1a150.74 150.74 0 00-17.89 8.25c1.68 3.45 3.19 6.94 4.79 10.61.51 1.18 1.03 2.37 1.56 3.58 1.93-1.46 4.52-1.98 6.75-1.29 2.73.85 4.72 3.46 4.74 6.22.01.77-.14 1.9-.85 2.86-.63.84-1.62 1.45-3.01 1.84-1.09.31-2.21.45-3.37.42 2.55 4.13 4.58 8.75 6.04 13.77 1.86-.71 3.73-1.44 5.55-2.14 3.44-1.34 7-2.73 10.5-3.96.33-.19.71-.3 1.1-.3z" fill="#252424"/><path d="M78.191 63.86h-.03c-.14-.02-.24-.15-.22-.28.6-4.66 1.08-9.4 1.44-14.08.01-.14.12-.24.27-.23.14.01.24.13.23.27-.36 4.69-.84 9.44-1.44 14.11-.01.12-.12.21-.25.21zm5.79.19h-.01a.256.256 0 01-.24-.27l.83-15.82c.01-.14.13-.26.27-.24.14.01.25.13.24.27l-.83 15.82c-.01.14-.13.24-.26.24zm4.71 1.08h-.02a.248.248 0 01-.23-.27l1.6-19.22c.01-.14.14-.23.27-.23.14.01.24.13.23.27l-1.6 19.22c0 .13-.12.23-.25.23zm2.11-27.41h-.01a.256.256 0 01-.24-.27l.32-6.23c.01-.14.12-.24.25-.24h.01c.14.01.25.13.24.27l-.32 6.23c0 .14-.12.24-.25.24zm2.64 49.36h-.01a.256.256 0 01-.24-.27l3.06-54.87a.25.25 0 01.27-.24c.14.01.25.13.24.27l-3.06 54.87c-.01.13-.12.24-.26.24zm5.04-2.07c-.15 0-.26-.12-.25-.26.38-14.31.99-28.8 1.84-43.07a.25.25 0 01.27-.24c.14.01.25.13.24.27-.84 14.27-1.46 28.75-1.84 43.06-.01.13-.12.24-.26.24zm4.61-2.11c-.15-.01-.26-.12-.25-.26.53-14.38.97-28.94 1.3-43.28 0-.14.11-.24.26-.25.14 0 .25.12.25.26-.33 14.34-.76 28.91-1.3 43.29-.01.14-.12.24-.26.24zm4.67-1.79c-.01 0-.01 0 0 0-.15 0-.26-.12-.25-.26l1.28-43.12c0-.14.11-.24.26-.25.14 0 .25.12.25.26l-1.28 43.12a.27.27 0 01-.26.25zm4.13 10.67c-.13 0-.25-.1-.25-.24-.64-11.48.09-23.15.79-34.44.42-6.81.86-13.85.99-20.78 0-.14.12-.25.25-.25h.01c.14 0 .25.12.25.26-.13 6.94-.57 13.98-1 20.8-.7 11.27-1.42 22.93-.79 34.38.01.14-.1.26-.24.27h-.01zm4.46-15.87c-.01 0 0 0 0 0-.15 0-.26-.12-.25-.26.27-10.64 1.14-21.38 2.59-31.93.02-.14.15-.23.29-.22.14.02.24.15.22.29a288.007 288.007 0 00-2.59 31.87.27.27 0 01-.26.25zm4.22-2.15h-.01a.256.256 0 01-.24-.27c.34-6.83.95-13.74 1.82-20.53.02-.14.15-.24.28-.22.14.02.24.15.22.28-.87 6.78-1.48 13.67-1.81 20.49-.01.15-.12.25-.26.25zm4.771-1.6h-.02a.248.248 0 01-.23-.27c.25-3.35.61-6.74 1.07-10.07.02-.14.15-.23.29-.22.14.02.24.15.22.29-.46 3.32-.82 6.7-1.07 10.04-.02.13-.13.23-.26.23z" fill="#252424"/><path d="M107.711 81.45h.02c.06.01.12.01.18.02-.07 0-.16-.02-.2-.02z" fill="#252424" opacity=".129"/><path d="M109.941 83.68c-.02-.39-.14-.79-.36-1.12-.1-.12-.1-.13-.01-.01.22.27-.48-.6-.28-.32.09.12.08.11-.01-.02-.31-.41-.8-.65-1.3-.73-.01 0-.01 0-.03-.01-.01 0-.03 0-.04-.01.02 0 .03.01.05.01-.08-.01-.15-.03-.23-.03-.57-.07-1.14.03-1.7.15-1.39.26-2.71.75-3.99 1.35-1.08.41-3.1 1.4-6.03 2.41-1.9.56-3.75 1.27-5.59 1.98-.73.32-1.68.4-2.11 1.15-.72 1.15.47 2.71 1.77 2.31 3.74-1.3 7.55-2.41 11.16-4.06.76-.22 4.31-2.03 5.59-2.62.01 0 .01 0 .02-.01.35-.14.74-.17 1.07-.35.04-.02.09-.04.13-.06.24.23.52.42.83.55-.02-.01-.04-.02-.05-.02.04.02.12.05.16.07.05.06.09.13.13.19.13.24.47.33.7.18.52-.34.09-.88.12-.98zm22.54-15.37c-.17-.46-.31-.94-.43-1.41a.98.98 0 00-.57.27c-.28.25-.27.63-.39.96-.4.77-.28.55-.99 1.26-2.52 2.26-7.47 4.19-10.6 5.61-.33.13-1.04.43-1.26.51-.87.46-2.09.49-2.66 1.36-.68 1.08.44 2.54 1.66 2.16 3.77-1.36 7.36-3.16 10.76-5.27 1.77-1.13 3.76-2.23 4.74-4.17.04-.09.08-.19.12-.29-.13-.33-.26-.66-.38-.99z" fill="#252424" opacity=".129"/><path d="M112.891 93.92c-1.51 0-3.01-.52-3.86-1.85-.65-1.03-.7-2.18-.74-3.29-.02-.51-.04-1-.12-1.45-.12-.72-.7-1.5-1.28-1.75-.34-.15-.54-.05-.67.04-.05.04-.11.07-.18.09-3.5 1.23-7.08 2.63-10.53 3.97-2.07.81-4.22 1.64-6.34 2.44-.2.07-.42.06-.61-.03a.789.789 0 01-.39-.47c-1.59-5.72-3.92-10.92-6.92-15.46a.758.758 0 01.75-1.17c1.53.24 2.95.16 4.32-.23 1.06-.3 1.78-.72 2.21-1.29.36-.48.56-1.17.55-1.93-.02-2.08-1.59-4.13-3.67-4.78-2.03-.63-4.46.02-6.03 1.62a.78.78 0 01-.68.22.765.765 0 01-.56-.44c-.68-1.53-1.33-3.04-1.98-4.53-1.69-3.89-3.29-7.57-5.08-11.2a.752.752 0 01.32-1c6.01-3.3 12.31-6.23 18.72-8.69.09-.04.11-.07.13-.12.1-.33-.15-1.09-.55-1.65-.28-.39-.63-.74-1.01-1.11-.34-.34-.7-.69-1.01-1.09-1.67-2.13-1.81-5.34-.35-7.81 1.32-2.23 3.88-3.79 6.67-4.07 1.3-.13 2.41.04 3.29.52 1.26.68 2.18 2.07 2.45 3.72.25 1.49-.01 2.95-.3 4.18l-.05.2c-.15.64-.29 1.24-.23 1.79.04.37.21.8.51 1.01 4.74-1.85 10.92-4.23 17.24-6.48.19-.07.4-.06.58.03.18.09.32.24.39.44 4.64 13.37 10.06 26.13 16.09 37.93.19.37.05.81-.31 1.01-5.4 3-11.13 5.77-16.67 8.45-.61.29-1.17.6-1.35 1.04-.22.56.23 1.3.75 1.76.27.24.58.45.9.68.51.36 1.04.72 1.48 1.23 1.27 1.44 1.52 3.76.59 5.64-.79 1.59-2.35 2.88-4.3 3.54-.66.21-1.41.34-2.17.34zm-6.33-9.95c.3 0 .62.07.92.2 1.06.45 1.98 1.67 2.19 2.9.09.55.12 1.11.14 1.65.04.95.07 1.85.51 2.53.8 1.25 2.76 1.38 4.28.87 1.56-.53 2.81-1.54 3.42-2.77.66-1.34.51-2.97-.37-3.96-.33-.37-.76-.67-1.22-.99-.35-.24-.7-.49-1.04-.79-.87-.77-1.69-2.13-1.16-3.47.38-.95 1.25-1.43 2.1-1.84 5.3-2.56 10.77-5.21 15.95-8.06-5.82-11.46-11.06-23.81-15.58-36.74-6.19 2.21-12.19 4.53-16.78 6.32-.16.06-.34.07-.51.02-.95-.3-1.65-1.25-1.77-2.41-.09-.82.09-1.57.26-2.3l.05-.2c.25-1.09.48-2.36.28-3.59-.2-1.19-.83-2.17-1.68-2.63-.61-.33-1.42-.45-2.42-.35-2.32.23-4.43 1.51-5.51 3.33-1.13 1.91-1.03 4.47.24 6.09.26.33.56.63.89.95.4.4.82.81 1.18 1.31.54.76 1.06 1.99.76 2.97-.16.51-.52.91-1.04 1.1a150.74 150.74 0 00-17.89 8.25c1.68 3.45 3.19 6.94 4.79 10.61.51 1.18 1.03 2.37 1.56 3.58 1.93-1.46 4.52-1.98 6.75-1.29 2.73.85 4.72 3.46 4.74 6.22.01.77-.14 1.9-.85 2.86-.63.84-1.62 1.45-3.01 1.84-1.09.31-2.21.45-3.37.42 2.55 4.13 4.58 8.75 6.04 13.77 1.86-.71 3.73-1.44 5.55-2.14 3.44-1.34 7-2.73 10.5-3.96.33-.19.71-.3 1.1-.3z" fill="#252424"/><path d="M57.462 96.03c1.27-1.43.51-3.64.58-5.54.17-4.18 5.51-7.02 9.25-5.12 3.73 1.9 4.78 7.43 2.3 10.8-.52.71-1.19 1.63-.69 2.36.22.32.62.47.99.6 5.88 2.05 11.75 4.11 17.63 6.16-1.78 5.2-3.83 10.31-6.14 15.31-2.33-2.35-6.23-3.38-9.05-1.64-2.82 1.73-3.34 6.54-.53 8.28 1.92 1.19 4.4.65 6.67.83-.65 5.91-2.53 11.68-5.89 16.31-5.01-2.15-10.03-4.31-15.04-6.46-.31-.13-.63-.27-.87-.52-.6-.61-.46-1.66 0-2.38s1.16-1.26 1.68-1.94c1.72-2.22 1.05-5.79-1.22-7.44-2.26-1.65-5.66-1.33-7.76.52-2.11 1.85-2.89 4.97-2.19 7.68-5.4-3.06-11.26-5.3-18.28-6.44 3.91-12.25 7.82-24.5 11.61-36.82 5.72 1.85 11.43 3.72 16.95 5.45z" fill="#6BA8C9"/><path d="M86.522 104.58c-.64-.28-1.28-.58-1.9-.9-.68.28-1.21.91-1.2 1.8-.08 1.05-.44 3.1-1.11 5.37-.86 2.52-1.09 2.79-1.96 4.93-.19.59-.38 1.18-.59 1.76-.12.35-.27.71-.17 1.08.06.96 1.15 1.64 2.05 1.37 1.35-.58 1.06-1.27 1.43-1.77 1.07-1.95 1.81-4.07 2.5-6.18.49-1.71 1.37-3.3 1.63-5.08.07-.66.3-1.37.12-2.02-.27-.12-.53-.24-.8-.36zm-8.91 22.66c-.52.01-1.05.01-1.56.01-.07 0-.14-.01-.21-.03-.37.25-.63.65-.63 1.19-.08 1.64-.14 1.75-.65 3.69-1.04 4.18-1.38 4.77-3.15 8.07-.04.08-.08.17-.13.25-1.22-.58-2.56-.88-3.86-1.24-2.94-.86-5.94-1.52-8.89-2.38-.29-.09-.62-.25-.91-.06-.49.27-.39 1.07.16 1.2 1.08.42 2.6.73 3.17 1.04 3.77 1.67 6.12 2.74 8.94 3.77.08.03.15.06.23.09.45.23.95.35 1.43.52 0 0 .01 0 .01.01.48.31 1.15.49 1.61.06.38-.26.52-.75.43-1.18.38-.46.66-1.03.96-1.52 1.76-2.76 2.34-6.03 3.19-9.14.2-.79.31-1.61.38-2.42.01-.44.15-.93-.08-1.34-.11-.25-.26-.45-.44-.59z" fill="#252424" opacity=".129"/><path d="M72.592 145.12c-.1 0-.2-.02-.3-.06l-15.04-6.46c-.34-.15-.77-.33-1.12-.68-.92-.94-.69-2.38-.1-3.32.31-.48.68-.87 1.05-1.25.25-.25.48-.49.67-.75.66-.85.93-1.98.76-3.19-.18-1.3-.85-2.46-1.82-3.17-1.92-1.4-4.91-1.2-6.81.47-1.82 1.6-2.61 4.38-1.95 6.92.08.3-.03.61-.27.8-.24.19-.57.21-.84.06-5.78-3.27-11.51-5.29-18.02-6.35a.78.78 0 01-.53-.35.776.776 0 01-.08-.63c3.84-12.03 7.8-24.46 11.61-36.81.06-.2.2-.36.38-.45.18-.09.39-.11.59-.05 5.42 1.78 11.01 3.61 16.38 5.3.38-.75.3-1.78.21-2.86-.05-.6-.1-1.22-.08-1.83.09-2.13 1.39-4.14 3.47-5.36 2.2-1.29 4.84-1.45 6.88-.41 1.89.96 3.28 2.82 3.82 5.1.58 2.42.11 4.98-1.25 6.83-.31.42-.87 1.19-.68 1.47.09.13.41.24.62.32l17.63 6.16c.4.14.6.57.47.97-1.78 5.21-3.86 10.39-6.17 15.38-.1.23-.31.39-.56.43-.25.04-.5-.04-.67-.21-1.94-1.97-5.45-3.17-8.11-1.53-1.23.76-2.03 2.3-2.03 3.94 0 1.35.55 2.46 1.51 3.05 1.17.73 2.67.7 4.25.68.68-.01 1.39-.02 2.08.03.21.02.4.11.53.27.13.16.19.36.17.57-.72 6.46-2.8 12.22-6.03 16.67-.15.19-.38.3-.62.3zm-18.9-21.32c1.41 0 2.79.4 3.9 1.21 1.3.95 2.19 2.48 2.43 4.18.23 1.62-.15 3.16-1.06 4.34-.25.32-.52.6-.78.87-.33.34-.63.65-.86 1-.29.46-.41 1.13-.1 1.44.14.14.39.25.63.35l14.47 6.22c2.74-3.98 4.57-9.01 5.3-14.64-.37-.01-.75 0-1.14 0-1.73.02-3.52.05-5.07-.91-1.42-.88-2.23-2.46-2.23-4.35 0-2.15 1.09-4.2 2.76-5.23 2.98-1.83 6.74-.89 9.19 1.04 2.01-4.43 3.83-8.99 5.43-13.58l-16.91-5.91c-.4-.14-.99-.35-1.37-.89-.81-1.18.13-2.47.7-3.24 1.1-1.49 1.47-3.58 1-5.57-.44-1.85-1.54-3.34-3.03-4.1-1.58-.8-3.66-.66-5.42.37-1.64.96-2.65 2.49-2.72 4.1-.02.51.02 1.06.07 1.64.12 1.47.26 3.13-.85 4.38-.2.22-.51.31-.8.22-5.31-1.66-10.83-3.47-16.2-5.23-3.65 11.83-7.44 23.72-11.12 35.25a54.796 54.796 0 0116.29 5.63c-.17-2.6.82-5.2 2.68-6.84 1.33-1.15 3.09-1.75 4.81-1.75z" fill="#252424"/><path d="M57.462 96.03c1.27-1.43.51-3.64.58-5.54.17-4.18 5.51-7.02 9.25-5.12 3.73 1.9 4.78 7.43 2.3 10.8-.52.71-1.19 1.63-.69 2.36.22.32.62.47.99.6 5.88 2.05 11.75 4.11 17.63 6.16-1.78 5.2-3.83 10.31-6.14 15.31-2.33-2.35-6.23-3.38-9.05-1.64-2.82 1.73-3.34 6.54-.53 8.28 1.92 1.19 4.4.65 6.67.83-.65 5.91-2.53 11.68-5.89 16.31-5.01-2.15-10.03-4.31-15.04-6.46-.31-.13-.63-.27-.87-.52-.6-.61-.46-1.66 0-2.38s1.16-1.26 1.68-1.94c1.72-2.22 1.05-5.79-1.22-7.44-2.26-1.65-5.66-1.33-7.76.52-2.11 1.85-2.89 4.97-2.19 7.68-5.4-3.06-11.26-5.3-18.28-6.44 3.91-12.25 7.82-24.5 11.61-36.82 5.72 1.85 11.43 3.72 16.95 5.45z" fill="#6BA8C9"/><path d="M86.522 104.58c-.64-.28-1.28-.58-1.9-.9-.68.28-1.21.91-1.2 1.8-.08 1.05-.44 3.1-1.11 5.37-.86 2.52-1.09 2.79-1.96 4.93-.19.59-.38 1.18-.59 1.76-.12.35-.27.71-.17 1.08.06.96 1.15 1.64 2.05 1.37 1.35-.58 1.06-1.27 1.43-1.77 1.07-1.95 1.81-4.07 2.5-6.18.49-1.71 1.37-3.3 1.63-5.08.07-.66.3-1.37.12-2.02-.27-.12-.53-.24-.8-.36zm-8.91 22.66c-.52.01-1.05.01-1.56.01-.07 0-.14-.01-.21-.03-.37.25-.63.65-.63 1.19-.08 1.64-.14 1.75-.65 3.69-1.04 4.18-1.38 4.77-3.15 8.07-.04.08-.08.17-.13.25-1.22-.58-2.56-.88-3.86-1.24-2.94-.86-5.94-1.52-8.89-2.38-.29-.09-.62-.25-.91-.06-.49.27-.39 1.07.16 1.2 1.08.42 2.6.73 3.17 1.04 3.77 1.67 6.12 2.74 8.94 3.77.08.03.15.06.23.09.45.23.95.35 1.43.52 0 0 .01 0 .01.01.48.31 1.15.49 1.61.06.38-.26.52-.75.43-1.18.38-.46.66-1.03.96-1.52 1.76-2.76 2.34-6.03 3.19-9.14.2-.79.31-1.61.38-2.42.01-.44.15-.93-.08-1.34-.11-.25-.26-.45-.44-.59z" fill="#252424" opacity=".129"/><path d="M72.592 145.12c-.1 0-.2-.02-.3-.06l-15.04-6.46c-.34-.15-.77-.33-1.12-.68-.92-.94-.69-2.38-.1-3.32.31-.48.68-.87 1.05-1.25.25-.25.48-.49.67-.75.66-.85.93-1.98.76-3.19-.18-1.3-.85-2.46-1.82-3.17-1.92-1.4-4.91-1.2-6.81.47-1.82 1.6-2.61 4.38-1.95 6.92.08.3-.03.61-.27.8-.24.19-.57.21-.84.06-5.78-3.27-11.51-5.29-18.02-6.35a.78.78 0 01-.53-.35.776.776 0 01-.08-.63c3.84-12.03 7.8-24.46 11.61-36.81.06-.2.2-.36.38-.45.18-.09.39-.11.59-.05 5.42 1.78 11.01 3.61 16.38 5.3.38-.75.3-1.78.21-2.86-.05-.6-.1-1.22-.08-1.83.09-2.13 1.39-4.14 3.47-5.36 2.2-1.29 4.84-1.45 6.88-.41 1.89.96 3.28 2.82 3.82 5.1.58 2.42.11 4.98-1.25 6.83-.31.42-.87 1.19-.68 1.47.09.13.41.24.62.32l17.63 6.16c.4.14.6.57.47.97-1.78 5.21-3.86 10.39-6.17 15.38-.1.23-.31.39-.56.43-.25.04-.5-.04-.67-.21-1.94-1.97-5.45-3.17-8.11-1.53-1.23.76-2.03 2.3-2.03 3.94 0 1.35.55 2.46 1.51 3.05 1.17.73 2.67.7 4.25.68.68-.01 1.39-.02 2.08.03.21.02.4.11.53.27.13.16.19.36.17.57-.72 6.46-2.8 12.22-6.03 16.67-.15.19-.38.3-.62.3zm-18.9-21.32c1.41 0 2.79.4 3.9 1.21 1.3.95 2.19 2.48 2.43 4.18.23 1.62-.15 3.16-1.06 4.34-.25.32-.52.6-.78.87-.33.34-.63.65-.86 1-.29.46-.41 1.13-.1 1.44.14.14.39.25.63.35l14.47 6.22c2.74-3.98 4.57-9.01 5.3-14.64-.37-.01-.75 0-1.14 0-1.73.02-3.52.05-5.07-.91-1.42-.88-2.23-2.46-2.23-4.35 0-2.15 1.09-4.2 2.76-5.23 2.98-1.83 6.74-.89 9.19 1.04 2.01-4.43 3.83-8.99 5.43-13.58l-16.91-5.91c-.4-.14-.99-.35-1.37-.89-.81-1.18.13-2.47.7-3.24 1.1-1.49 1.47-3.58 1-5.57-.44-1.85-1.54-3.34-3.03-4.1-1.58-.8-3.66-.66-5.42.37-1.64.96-2.65 2.49-2.72 4.1-.02.51.02 1.06.07 1.64.12 1.47.26 3.13-.85 4.38-.2.22-.51.31-.8.22-5.31-1.66-10.83-3.47-16.2-5.23-3.65 11.83-7.44 23.72-11.12 35.25a54.796 54.796 0 0116.29 5.63c-.17-2.6.82-5.2 2.68-6.84 1.33-1.15 3.09-1.75 4.81-1.75zm-30.68-15.17c-.17 0-.34-.06-.48-.17-7.72-6.28-12.31-15.97-12.27-25.92a.76.76 0 111.52 0c-.04 9.5 4.34 18.74 11.71 24.73.33.27.38.74.11 1.07-.15.19-.37.29-.59.29z" fill="#252424"/><path d="M23.032 109.05c-.05 0-.11-.01-.16-.02-2.84-.61-5.65-1.45-8.35-2.51a.764.764 0 01.56-1.42c2.31.9 4.7 1.65 7.12 2.21-.2-2.25-.68-4.47-1.42-6.61-.14-.4.07-.83.47-.97.4-.13.83.07.97.47.89 2.59 1.42 5.29 1.57 8.03.01.24-.09.47-.27.62-.14.14-.31.2-.49.2zm77.2 14.91c-.29 0-.57-.17-.7-.45-.17-.38 0-.83.39-1.01 9.09-4.06 16.09-12.61 18.26-22.33.09-.41.5-.67.91-.58.41.09.67.5.58.91-2.27 10.18-9.6 19.14-19.12 23.39-.11.04-.21.07-.32.07z" fill="#252424"/><path d="M120.292 107.59a.76.76 0 01-.76-.76c0-1.84-.25-3.66-.76-5.42a34.124 34.124 0 01-4.65 3.27c-.36.21-.83.09-1.04-.27a.763.763 0 01.27-1.04c1.88-1.1 3.66-2.39 5.28-3.85.19-.17.45-.23.7-.17.25.06.44.24.53.48.8 2.26 1.2 4.61 1.2 7.01-.01.41-.35.75-.77.75zM66.031 16.34a.768.768 0 01-.43-1.4c7.84-5.29 18.4-6.04 26.91-1.9.38.18.54.64.35 1.02-.18.38-.64.54-1.02.35-8.03-3.9-17.99-3.2-25.39 1.8-.12.09-.27.13-.42.13z" fill="#252424"/><path d="M72.552 16.77h-.07c-2.26-.21-4.55-.28-6.82-.22a.75.75 0 01-.7-.41.768.768 0 01.07-.81l4.12-5.51c.25-.34.73-.41 1.07-.15.34.25.41.73.15 1.07L67.182 15h.11c1.78 0 3.56.08 5.33.25.42.04.73.41.69.83-.04.39-.37.69-.76.69zm25.16-9.98a.83.83 0 01-.4-.11c-5.39-3.33-11.85-5.16-18.19-5.16h-.02a.76.76 0 01-.76-.76c0-.43.34-.76.79-.76 6.71 0 13.27 1.86 18.99 5.38.36.22.47.69.25 1.05-.16.23-.41.36-.66.36zm7.52 128.06a.76.76 0 01-.36-1.43c5.51-2.98 10.27-7.61 13.39-13.04.21-.37.68-.49 1.04-.28.36.21.49.68.28 1.04a35.733 35.733 0 01-13.99 13.63c-.11.05-.24.08-.36.08zm-98.38-34.52c-.23 0-.45-.1-.6-.3A30.107 30.107 0 01.002 81.4c0-.42.34-.75.76-.75h.01c.42 0 .76.35.75.77a28.675 28.675 0 005.93 17.68c.26.33.2.81-.14 1.07-.13.11-.3.16-.46.16z" fill="#252424"/></svg>