<svg width="135" height="146" viewBox="0 0 135 146" fill="none" xmlns="http://www.w3.org/2000/svg">
<path d="M23.012 108.63C22.842 108.63 22.672 108.57 22.532 108.46C14.812 102.18 10.222 92.49 10.262 82.54C10.262 82.12 10.602 81.78 11.022 81.78C11.442 81.78 11.782 82.12 11.782 82.54C11.742 92.04 16.122 101.28 23.492 107.27C23.822 107.54 23.872 108.01 23.602 108.34C23.452 108.53 23.232 108.63 23.012 108.63Z" fill="#252424"/>
<path d="M23.0315 109.05C22.9815 109.05 22.9215 109.04 22.8715 109.03C20.0315 108.42 17.2215 107.58 14.5215 106.52C14.1315 106.37 13.9315 105.92 14.0915 105.53C14.2415 105.14 14.6815 104.95 15.0815 105.1C17.3915 106 19.7815 106.75 22.2015 107.31C22.0015 105.06 21.5215 102.84 20.7815 100.7C20.6415 100.3 20.8515 99.87 21.2515 99.73C21.6515 99.6 22.0815 99.8 22.2215 100.2C23.1115 102.79 23.6415 105.49 23.7915 108.23C23.8015 108.47 23.7015 108.7 23.5215 108.85C23.3815 108.99 23.2115 109.05 23.0315 109.05Z" fill="#252424"/>
<path d="M100.232 123.96C99.9416 123.96 99.6616 123.79 99.5316 123.51C99.3616 123.13 99.5316 122.68 99.9216 122.5C109.012 118.44 116.012 109.89 118.182 100.17C118.272 99.7601 118.682 99.5001 119.092 99.5901C119.502 99.6801 119.762 100.09 119.672 100.5C117.402 110.68 110.072 119.64 100.552 123.89C100.442 123.93 100.342 123.96 100.232 123.96Z" fill="#252424"/>
<path d="M120.292 107.59C119.872 107.59 119.532 107.25 119.532 106.83C119.532 104.99 119.282 103.17 118.772 101.41C117.322 102.63 115.752 103.72 114.122 104.68C113.762 104.89 113.292 104.77 113.082 104.41C112.872 104.05 112.992 103.58 113.352 103.37C115.232 102.27 117.012 100.98 118.632 99.52C118.822 99.35 119.082 99.2901 119.332 99.3501C119.582 99.4101 119.772 99.5901 119.862 99.8301C120.662 102.09 121.062 104.44 121.062 106.84C121.052 107.25 120.712 107.59 120.292 107.59Z" fill="#252424"/>
<path d="M66.0314 16.34C65.7914 16.34 65.5514 16.22 65.4014 16C65.1614 15.65 65.2614 15.18 65.6014 14.94C73.4414 9.64998 84.0014 8.89998 92.5114 13.04C92.8914 13.22 93.0514 13.68 92.8614 14.06C92.6814 14.44 92.2214 14.6 91.8414 14.41C83.8114 10.51 73.8514 11.21 66.4514 16.21C66.3314 16.3 66.1814 16.34 66.0314 16.34Z" fill="#252424"/>
<path d="M72.5516 16.77C72.5316 16.77 72.5016 16.77 72.4816 16.77C70.2216 16.56 67.9316 16.49 65.6616 16.55C65.3716 16.57 65.1016 16.4 64.9616 16.14C64.8316 15.88 64.8516 15.57 65.0316 15.33L69.1516 9.81997C69.4016 9.47997 69.8816 9.40997 70.2216 9.66997C70.5616 9.91997 70.6316 10.4 70.3716 10.74L67.1816 15C67.2216 15 67.2616 15 67.2916 15C69.0716 15 70.8516 15.08 72.6216 15.25C73.0416 15.29 73.3516 15.66 73.3116 16.08C73.2716 16.47 72.9416 16.77 72.5516 16.77Z" fill="#252424"/>
<path d="M97.7118 6.79C97.5718 6.79 97.4418 6.75 97.3118 6.68C91.9218 3.35 85.4618 1.52 79.1218 1.52C79.1118 1.52 79.1118 1.52 79.1018 1.52C78.6818 1.52 78.3418 1.18 78.3418 0.76C78.3418 0.33 78.6818 0 79.1318 0C85.8418 0 92.4018 1.86 98.1218 5.38C98.4818 5.6 98.5918 6.07 98.3718 6.43C98.2118 6.66 97.9618 6.79 97.7118 6.79Z" fill="#252424"/>
<path d="M105.232 134.85C104.962 134.85 104.702 134.71 104.562 134.45C104.362 134.08 104.502 133.62 104.872 133.42C110.382 130.44 115.142 125.81 118.262 120.38C118.472 120.01 118.942 119.89 119.302 120.1C119.662 120.31 119.792 120.78 119.582 121.14C116.272 126.9 111.432 131.61 105.592 134.77C105.482 134.82 105.352 134.85 105.232 134.85Z" fill="#252424"/>
<path d="M6.85161 100.33C6.62161 100.33 6.40161 100.23 6.25161 100.03C2.15161 94.72 -0.0683937 88.1 0.00160627 81.4C0.00160627 80.98 0.341606 80.65 0.761606 80.65C0.761606 80.65 0.761606 80.65 0.771606 80.65C1.19161 80.65 1.53161 81 1.52161 81.42C1.46161 87.78 3.57161 94.06 7.45161 99.1C7.71161 99.43 7.65161 99.91 7.31161 100.17C7.18161 100.28 7.01161 100.33 6.85161 100.33Z" fill="#252424"/>
<path d="M8.10156 16.87C9.18156 33.32 9.44156 49.83 8.98156 66.38C13.6816 65.06 18.6016 64.57 23.4716 64.95C24.1116 65 24.8016 65.09 25.2716 65.53C25.8116 66.05 25.8616 66.93 25.6116 67.64C25.3616 68.35 24.8816 68.95 24.4616 69.58C23.8416 70.51 23.3216 71.55 23.2616 72.67C23.1216 75.1 25.2016 77.2 27.5216 77.93C29.8416 78.66 32.3416 78.33 34.9416 77.55C36.8616 76.85 38.0116 74.51 37.3816 72.56C37.1016 71.69 36.5316 70.94 36.2016 70.08C35.6516 68.66 35.8916 66.87 37.0616 65.9C38.1416 65 39.6716 64.97 41.0816 64.99C45.7816 65.05 50.4816 65.12 55.0316 65.11C54.8016 58.61 54.9116 52.11 55.3416 45.38C54.3216 46.27 52.9316 46.68 51.5816 46.63C50.2316 46.58 48.9116 46.1 47.7616 45.4C46.9716 44.92 46.2216 44.31 45.7916 43.49C45.2616 42.5 45.2616 41.31 45.3916 40.2C45.5616 38.79 45.9916 37.31 47.0716 36.38C47.5816 35.94 48.1916 35.65 48.8116 35.39C49.9416 34.91 51.1316 34.49 52.3616 34.52C53.5916 34.54 54.8716 35.08 55.6116 36.29C55.3516 31.69 55.0816 27.07 55.6016 22.49C55.8016 20.75 56.1116 19.01 55.5816 17.42C54.4016 17.01 53.1216 17.07 51.8716 17.12C38.9416 17.7 25.9816 18.03 13.0716 17.23C11.3216 17.12 9.61156 17 8.10156 16.87Z" fill="white"/>
<g opacity="0.1294">
<path d="M55.7514 18.4801C55.7414 17.9301 55.9114 17.2701 55.4614 16.8501C55.3214 16.7001 55.1414 16.6101 54.9614 16.5701C54.5514 18.9301 54.1414 21.3001 53.7014 23.6501C53.0414 27.2501 52.3414 30.8401 51.6514 34.4301C51.9114 34.7901 52.3814 35.0101 52.8414 34.9401C53.2414 35.9101 54.7114 36.1301 55.2914 35.1201C55.4014 34.8901 55.4714 34.6501 55.4714 34.4001C55.4714 34.4101 55.4714 34.4101 55.4714 34.4201C55.4714 34.4101 55.4714 34.4001 55.4714 34.3901C55.4714 34.3601 55.4714 34.3401 55.4714 34.3101C55.4714 34.2801 55.4714 34.2501 55.4714 34.2201C55.4714 34.1301 55.4814 34.0401 55.4914 33.9501C55.5214 33.6401 55.5714 33.1301 55.5214 32.9501C55.2814 29.3201 55.2314 24.6801 55.5214 21.9901C55.6814 20.8201 55.7014 19.6501 55.7514 18.4801Z" fill="#252424"/>
</g>
<g opacity="0.1294">
<path d="M54.5716 63.31C54.5716 63.27 54.5616 63.24 54.5616 63.2C54.3616 60.78 54.4116 58.35 54.4916 55.92C54.4416 53.04 54.7716 50.17 54.9616 47.3C54.9316 45.87 53.3916 45.49 52.5416 46.14C51.9316 45.89 51.1216 46.33 51.1416 47.06C51.3716 50.42 51.5516 53.78 51.5316 57.15C51.4716 58.72 51.5316 60.29 51.5716 61.85C50.7516 62.28 51.0216 62.17 50.3316 62.43C45.7016 63.47 43.5416 63.25 37.7116 64.53C36.5316 64.87 37.0116 66.64 38.2116 66.34C41.4116 65.69 44.7816 65.69 48.4216 65.21C49.5016 65.1 50.6016 64.98 51.6216 64.56C51.6416 64.64 51.6516 64.72 51.6816 64.8C51.8516 65.28 52.3516 65.49 52.8216 65.43C53.4416 65.63 54.2016 65.43 54.5316 64.81C54.7416 64.47 54.7616 64.07 54.6716 63.69C54.6116 63.52 54.5816 63.37 54.5716 63.31Z" fill="#252424"/>
</g>
<g opacity="0.1294">
<path d="M37.5317 71.0001C37.4217 70.5301 37.4317 69.9701 37.1417 69.5701C36.7717 69.0101 35.8417 69.0901 35.5217 69.6701C35.3617 69.9601 35.3617 70.2701 35.4517 70.5801C35.6017 71.4001 35.5517 71.0401 35.6117 71.6801C35.6517 71.8301 35.6117 72.3301 35.6017 72.5301C35.3117 74.1301 34.1817 74.6201 31.7617 75.1301C30.3117 75.4501 28.4217 75.2801 25.7217 74.2401C23.6517 73.7201 22.8117 76.7401 24.8617 77.3701C27.0817 78.1401 29.4717 78.9001 31.8417 78.5201C33.4317 78.2501 34.9517 77.4201 36.1317 76.3201C37.4617 74.9401 37.8417 72.8601 37.5317 71.0001Z" fill="#252424"/>
</g>
<path d="M31.3817 79.32C31.0817 79.32 30.7717 79.3101 30.4617 79.2901C27.6617 79.1201 25.4017 78.2401 23.9217 76.75C23.3417 76.16 22.6217 75.21 22.5017 73.99C22.3817 72.74 22.9317 71.6001 23.3817 70.6901L24.7617 67.8601C25.0117 67.34 25.2217 66.8801 25.1617 66.5C25.1417 66.3801 25.0517 66.2501 24.9317 66.1601C24.8417 66.1001 24.7017 66.03 24.5317 66.06C24.4617 66.07 24.3817 66.07 24.3117 66.07C19.3117 65.5201 14.1217 65.84 8.8817 67.02C8.6517 67.07 8.4117 67.0201 8.2317 66.8701C8.0517 66.7201 7.9517 66.5001 7.9517 66.2601C8.2917 50.5201 8.0217 34.4401 7.1317 17.0801C7.1217 16.8701 7.2017 16.6601 7.3417 16.5101C7.4917 16.3601 7.6817 16.2701 7.9017 16.2801C23.8217 16.6001 39.9617 16.6301 55.8717 16.3901C56.2117 16.3801 56.5117 16.6001 56.6117 16.9301C56.7517 17.3701 56.7517 17.7401 56.6317 18.0301C56.2617 23.5101 56.1517 29.3401 56.2917 36.3601C56.3017 36.6601 56.1217 36.9401 55.8517 37.0701C55.5817 37.2001 55.2517 37.1501 55.0317 36.9501C53.6217 35.7201 51.5517 35.2901 49.7617 35.85C47.9717 36.41 46.5317 37.9501 46.0817 39.7701C45.7017 41.3201 46.0917 42.9501 47.0817 43.9301C47.6317 44.4801 48.4217 44.9101 49.5617 45.2701C50.5917 45.6001 53.1717 46.2101 54.9217 44.8601C55.1617 44.6801 55.4817 44.6501 55.7517 44.7901C56.0217 44.9301 56.1717 45.22 56.1517 45.51C55.7117 51.7901 55.6017 58.2201 55.8217 65.18C55.8317 65.39 55.7417 65.6 55.5917 65.75C55.4417 65.9001 55.2417 65.98 55.0217 65.9701C50.0917 65.7101 45.0917 65.7 40.1617 65.92C38.8617 65.98 37.5917 66.15 37.0317 66.99C36.4517 67.86 36.8917 69.2001 37.2117 69.9101C37.3217 70.1601 37.4417 70.41 37.5617 70.6501C38.0317 71.6101 38.5117 72.6101 38.5517 73.7601C38.6117 75.5801 37.4717 77.3901 35.6417 78.3701C34.4617 79.0101 33.0617 79.32 31.3817 79.32ZM24.6217 64.53C25.0417 64.53 25.4617 64.66 25.8117 64.92C26.2717 65.25 26.5817 65.7401 26.6617 66.2601C26.7917 67.1401 26.4117 67.94 26.1317 68.52L24.7517 71.35C24.2917 72.29 23.9517 73.08 24.0217 73.84C24.0917 74.61 24.5917 75.26 25.0017 75.67C26.5317 77.21 28.8617 77.6601 30.5517 77.7601C32.3617 77.8701 33.7917 77.63 34.9017 77.03C36.2017 76.33 37.0417 75.04 37.0117 73.81C36.9817 72.98 36.5917 72.17 36.1817 71.31C36.0517 71.05 35.9317 70.79 35.8117 70.52C35.0317 68.76 35.0117 67.25 35.7517 66.13C36.6917 64.73 38.4617 64.46 40.0817 64.39C44.7917 64.18 49.5517 64.18 54.2617 64.4001C54.0917 58.2201 54.1717 52.43 54.5317 46.8001C52.5617 47.5701 50.3717 47.1101 49.1017 46.7101C48.2317 46.43 46.9717 45.9601 46.0117 45.0001C44.6517 43.6501 44.1017 41.4501 44.6117 39.3901C45.1817 37.0701 47.0317 35.1001 49.3117 34.3801C51.0917 33.8201 53.1017 34.0301 54.7517 34.9001C54.6517 28.4801 54.7717 23.0401 55.1217 17.9101C39.7217 18.1401 24.1117 18.1001 8.6917 17.8101C9.5317 34.5301 9.7917 50.1 9.4917 65.32C14.5417 64.28 19.5417 64.01 24.3817 64.53C24.4617 64.53 24.5417 64.53 24.6217 64.53ZM55.4617 17.1401C55.4617 17.1501 55.4617 17.1501 55.4617 17.1401C55.4617 17.1501 55.4617 17.1501 55.4617 17.1401Z" fill="#252424"/>
<g opacity="0.1294">
<path d="M55.7514 18.4801C55.7414 17.9301 55.9114 17.2701 55.4614 16.8501C55.3214 16.7001 55.1414 16.6101 54.9614 16.5701C54.5514 18.9301 54.1414 21.3001 53.7014 23.6501C53.0414 27.2501 52.3414 30.8401 51.6514 34.4301C51.9114 34.7901 52.3814 35.0101 52.8414 34.9401C53.2414 35.9101 54.7114 36.1301 55.2914 35.1201C55.4014 34.8901 55.4714 34.6501 55.4714 34.4001C55.4714 34.4101 55.4714 34.4101 55.4714 34.4201C55.4714 34.4101 55.4714 34.4001 55.4714 34.3901C55.4714 34.3601 55.4714 34.3401 55.4714 34.3101C55.4714 34.2801 55.4714 34.2501 55.4714 34.2201C55.4714 34.1301 55.4814 34.0401 55.4914 33.9501C55.5214 33.6401 55.5714 33.1301 55.5214 32.9501C55.2814 29.3201 55.2314 24.6801 55.5214 21.9901C55.6814 20.8201 55.7014 19.6501 55.7514 18.4801Z" fill="#252424"/>
</g>
<g opacity="0.1294">
<path d="M54.5716 63.31C54.5716 63.27 54.5616 63.24 54.5616 63.2C54.3616 60.78 54.4116 58.35 54.4916 55.92C54.4416 53.04 54.7716 50.17 54.9616 47.3C54.9316 45.87 53.3916 45.49 52.5416 46.14C51.9316 45.89 51.1216 46.33 51.1416 47.06C51.3716 50.42 51.5516 53.78 51.5316 57.15C51.4716 58.72 51.5316 60.29 51.5716 61.85C50.7516 62.28 51.0216 62.17 50.3316 62.43C45.7016 63.47 43.5416 63.25 37.7116 64.53C36.5316 64.87 37.0116 66.64 38.2116 66.34C41.4116 65.69 44.7816 65.69 48.4216 65.21C49.5016 65.1 50.6016 64.98 51.6216 64.56C51.6416 64.64 51.6516 64.72 51.6816 64.8C51.8516 65.28 52.3516 65.49 52.8216 65.43C53.4416 65.63 54.2016 65.43 54.5316 64.81C54.7416 64.47 54.7616 64.07 54.6716 63.69C54.6116 63.52 54.5816 63.37 54.5716 63.31Z" fill="#252424"/>
</g>
<g opacity="0.1294">
<path d="M37.5317 71.0001C37.4217 70.5301 37.4317 69.9701 37.1417 69.5701C36.7717 69.0101 35.8417 69.0901 35.5217 69.6701C35.3617 69.9601 35.3617 70.2701 35.4517 70.5801C35.6017 71.4001 35.5517 71.0401 35.6117 71.6801C35.6517 71.8301 35.6117 72.3301 35.6017 72.5301C35.3117 74.1301 34.1817 74.6201 31.7617 75.1301C30.3117 75.4501 28.4217 75.2801 25.7217 74.2401C23.6517 73.7201 22.8117 76.7401 24.8617 77.3701C27.0817 78.1401 29.4717 78.9001 31.8417 78.5201C33.4317 78.2501 34.9517 77.4201 36.1317 76.3201C37.4617 74.9401 37.8417 72.8601 37.5317 71.0001Z" fill="#252424"/>
</g>
<path d="M31.3817 79.32C31.0817 79.32 30.7717 79.3101 30.4617 79.2901C27.6617 79.1201 25.4017 78.2401 23.9217 76.75C23.3417 76.16 22.6217 75.21 22.5017 73.99C22.3817 72.74 22.9317 71.6001 23.3817 70.6901L24.7617 67.8601C25.0117 67.34 25.2217 66.8801 25.1617 66.5C25.1417 66.3801 25.0517 66.2501 24.9317 66.1601C24.8417 66.1001 24.7017 66.03 24.5317 66.06C24.4617 66.07 24.3817 66.07 24.3117 66.07C19.3117 65.5201 14.1217 65.84 8.8817 67.02C8.6517 67.07 8.4117 67.0201 8.2317 66.8701C8.0517 66.7201 7.9517 66.5001 7.9517 66.2601C8.2917 50.5201 8.0217 34.4401 7.1317 17.0801C7.1217 16.8701 7.2017 16.6601 7.3417 16.5101C7.4917 16.3601 7.6817 16.2701 7.9017 16.2801C23.8217 16.6001 39.9617 16.6301 55.8717 16.3901C56.2117 16.3801 56.5117 16.6001 56.6117 16.9301C56.7517 17.3701 56.7517 17.7401 56.6317 18.0301C56.2617 23.5101 56.1517 29.3401 56.2917 36.3601C56.3017 36.6601 56.1217 36.9401 55.8517 37.0701C55.5817 37.2001 55.2517 37.1501 55.0317 36.9501C53.6217 35.7201 51.5517 35.2901 49.7617 35.85C47.9717 36.41 46.5317 37.9501 46.0817 39.7701C45.7017 41.3201 46.0917 42.9501 47.0817 43.9301C47.6317 44.4801 48.4217 44.9101 49.5617 45.2701C50.5917 45.6001 53.1717 46.2101 54.9217 44.8601C55.1617 44.6801 55.4817 44.6501 55.7517 44.7901C56.0217 44.9301 56.1717 45.22 56.1517 45.51C55.7117 51.7901 55.6017 58.2201 55.8217 65.18C55.8317 65.39 55.7417 65.6 55.5917 65.75C55.4417 65.9001 55.2417 65.98 55.0217 65.9701C50.0917 65.7101 45.0917 65.7 40.1617 65.92C38.8617 65.98 37.5917 66.15 37.0317 66.99C36.4517 67.86 36.8917 69.2001 37.2117 69.9101C37.3217 70.1601 37.4417 70.41 37.5617 70.6501C38.0317 71.6101 38.5117 72.6101 38.5517 73.7601C38.6117 75.5801 37.4717 77.3901 35.6417 78.3701C34.4617 79.0101 33.0617 79.32 31.3817 79.32ZM24.6217 64.53C25.0417 64.53 25.4617 64.66 25.8117 64.92C26.2717 65.25 26.5817 65.7401 26.6617 66.2601C26.7917 67.1401 26.4117 67.94 26.1317 68.52L24.7517 71.35C24.2917 72.29 23.9517 73.08 24.0217 73.84C24.0917 74.61 24.5917 75.26 25.0017 75.67C26.5317 77.21 28.8617 77.6601 30.5517 77.7601C32.3617 77.8701 33.7917 77.63 34.9017 77.03C36.2017 76.33 37.0417 75.04 37.0117 73.81C36.9817 72.98 36.5917 72.17 36.1817 71.31C36.0517 71.05 35.9317 70.79 35.8117 70.52C35.0317 68.76 35.0117 67.25 35.7517 66.13C36.6917 64.73 38.4617 64.46 40.0817 64.39C44.7917 64.18 49.5517 64.18 54.2617 64.4001C54.0917 58.2201 54.1717 52.43 54.5317 46.8001C52.5617 47.5701 50.3717 47.1101 49.1017 46.7101C48.2317 46.43 46.9717 45.9601 46.0117 45.0001C44.6517 43.6501 44.1017 41.4501 44.6117 39.3901C45.1817 37.0701 47.0317 35.1001 49.3117 34.3801C51.0917 33.8201 53.1017 34.0301 54.7517 34.9001C54.6517 28.4801 54.7717 23.0401 55.1217 17.9101C39.7217 18.1401 24.1117 18.1001 8.6917 17.8101C9.5317 34.5301 9.7917 50.1 9.4917 65.32C14.5417 64.28 19.5417 64.01 24.3817 64.53C24.4617 64.53 24.5417 64.53 24.6217 64.53ZM55.4617 17.1401C55.4617 17.1501 55.4617 17.1501 55.4617 17.1401C55.4617 17.1501 55.4617 17.1501 55.4617 17.1401Z" fill="#252424"/>
<path d="M79.0414 67.74C77.5714 62.11 73.8914 57.29 72.1914 51.54C76.6814 49.19 81.2814 47.05 85.9714 45.14C86.9414 44.74 87.9114 44.36 88.8814 43.97C89.5714 43.7 90.3314 43.36 90.6514 42.69C90.9214 42.11 90.7914 41.4 90.4614 40.84C90.1314 40.29 89.6314 39.86 89.0614 39.35C87.1414 37.8 86.5314 34.94 87.3414 32.61C88.1514 30.28 90.2014 28.49 92.5314 27.67C94.0414 27.14 95.8714 27.02 97.0914 28.05C97.4014 28.31 97.6614 28.63 97.8814 28.97C98.8714 30.47 99.2814 32.34 98.9914 34.12C98.8414 35.02 98.5214 35.91 98.5314 36.83C98.5414 37.75 99.0014 38.75 99.9914 39.19C105.381 36.66 110.931 34.48 116.821 32.84C118.411 35.25 119.311 38.04 120.291 40.76C123.041 48.37 126.531 55.68 130.021 62.98C131.091 65.22 132.161 67.46 133.061 69.8C133.121 70.32 132.661 70.75 132.241 71.06C127.511 74.55 121.791 76.36 116.641 79.18C116.191 79.43 115.731 79.69 115.421 80.1C115.101 80.5 114.961 81.09 115.371 81.46C115.241 82.23 115.771 82.97 116.391 83.44C117.011 83.92 117.741 84.25 118.301 84.79C119.241 85.71 119.561 87.17 119.241 88.44C118.921 89.72 118.021 90.81 116.921 91.52C115.811 92.23 114.511 92.6 113.201 92.74C112.181 92.85 111.051 92.81 110.271 92.14C109.351 91.35 109.241 89.99 109.191 88.78C109.141 87.57 109.021 86.21 108.091 85.43C107.311 84.78 106.051 84.78 105.351 85.47C99.8814 87.18 94.4914 89.15 89.2114 91.33C88.5914 90.74 88.3214 89.87 88.0514 89.06C86.5314 84.41 84.3414 80.02 82.0014 75.73C83.6214 76.1 85.3814 75.91 86.8414 75.1C88.2914 74.29 89.4114 72.86 89.7314 71.23C89.7814 70.96 89.8214 70.67 89.7814 70.4C89.7314 70.06 89.5714 69.75 89.4114 69.45C88.8514 68.45 88.1314 67.52 87.2214 66.82C86.3114 66.12 85.2014 65.65 84.0514 65.61C83.3314 65.58 82.6114 65.72 81.9314 65.94C80.8314 66.28 79.8214 66.83 79.0414 67.74Z" fill="white"/>
<path d="M78.191 63.8601C78.181 63.8601 78.171 63.8601 78.161 63.8601C78.021 63.8401 77.921 63.7101 77.941 63.5801C78.541 58.9201 79.021 54.1801 79.381 49.5001C79.391 49.3601 79.501 49.2601 79.651 49.2701C79.791 49.2801 79.891 49.4001 79.881 49.5401C79.521 54.2301 79.041 58.9801 78.441 63.6501C78.431 63.7701 78.321 63.8601 78.191 63.8601Z" fill="#252424"/>
<path d="M83.9811 64.0501H83.9711C83.8311 64.0401 83.7211 63.9201 83.7311 63.7801L84.5611 47.9601C84.5711 47.8201 84.6911 47.7001 84.8311 47.7201C84.9711 47.7301 85.0811 47.8501 85.0711 47.9901L84.2411 63.8101C84.2311 63.9501 84.1111 64.0501 83.9811 64.0501Z" fill="#252424"/>
<path d="M88.6911 65.13C88.6811 65.13 88.6811 65.13 88.6711 65.13C88.5311 65.12 88.4311 65 88.4411 64.86L90.0411 45.64C90.0511 45.5 90.1811 45.41 90.3111 45.41C90.4511 45.42 90.5511 45.54 90.5411 45.68L88.9411 64.9C88.9411 65.03 88.8211 65.13 88.6911 65.13Z" fill="#252424"/>
<path d="M90.8014 37.7201H90.7914C90.6514 37.7101 90.5414 37.5901 90.5514 37.4501L90.8714 31.2201C90.8814 31.0801 90.9914 30.9801 91.1214 30.9801H91.1314C91.2714 30.9901 91.3814 31.1101 91.3714 31.2501L91.0514 37.4801C91.0514 37.6201 90.9314 37.7201 90.8014 37.7201Z" fill="#252424"/>
<path d="M93.4411 87.0801H93.4311C93.2911 87.0701 93.1811 86.9501 93.1911 86.8101L96.2511 31.9401C96.2611 31.8001 96.3711 31.6901 96.5211 31.7001C96.6611 31.7101 96.7711 31.8301 96.7611 31.9701L93.7011 86.8401C93.6911 86.9701 93.5811 87.0801 93.4411 87.0801Z" fill="#252424"/>
<path d="M98.4811 85.0101C98.3311 85.0101 98.2211 84.8901 98.2311 84.7501C98.6111 70.4401 99.2211 55.9501 100.071 41.6801C100.081 41.5401 100.191 41.4301 100.341 41.4401C100.481 41.4501 100.591 41.5701 100.581 41.7101C99.7411 55.9801 99.1211 70.4601 98.7411 84.7701C98.7311 84.9001 98.6211 85.0101 98.4811 85.0101Z" fill="#252424"/>
<path d="M103.091 82.9001C102.941 82.8901 102.831 82.7801 102.841 82.6401C103.371 68.2601 103.811 53.7001 104.141 39.3601C104.141 39.2201 104.251 39.1201 104.401 39.1101C104.541 39.1101 104.651 39.2301 104.651 39.3701C104.321 53.7101 103.891 68.2801 103.351 82.6601C103.341 82.8001 103.231 82.9001 103.091 82.9001Z" fill="#252424"/>
<path d="M107.761 81.1101C107.751 81.1101 107.751 81.1101 107.761 81.1101C107.611 81.1101 107.501 80.9901 107.511 80.8501L108.791 37.7301C108.791 37.5901 108.901 37.4901 109.051 37.4801C109.191 37.4801 109.301 37.6001 109.301 37.7401L108.021 80.8601C108.011 81.0001 107.891 81.1101 107.761 81.1101Z" fill="#252424"/>
<path d="M111.891 91.7801C111.761 91.7801 111.641 91.6801 111.641 91.5401C111.001 80.0601 111.731 68.3901 112.431 57.1001C112.851 50.2901 113.291 43.2501 113.421 36.3201C113.421 36.1801 113.541 36.0701 113.671 36.0701C113.671 36.0701 113.671 36.0701 113.681 36.0701C113.821 36.0701 113.931 36.1901 113.931 36.3301C113.801 43.2701 113.361 50.3101 112.931 57.1301C112.231 68.4001 111.511 80.0601 112.141 91.5101C112.151 91.6501 112.041 91.7701 111.901 91.7801H111.891Z" fill="#252424"/>
<path d="M116.351 75.91C116.341 75.91 116.351 75.91 116.351 75.91C116.201 75.91 116.091 75.79 116.101 75.65C116.371 65.01 117.241 54.27 118.691 43.72C118.711 43.58 118.841 43.49 118.981 43.5C119.121 43.52 119.221 43.65 119.201 43.79C117.751 54.31 116.881 65.04 116.611 75.66C116.601 75.8 116.481 75.91 116.351 75.91Z" fill="#252424"/>
<path d="M120.571 73.7601H120.561C120.421 73.7501 120.311 73.6301 120.321 73.4901C120.661 66.6601 121.271 59.7501 122.141 52.9601C122.161 52.8201 122.291 52.7201 122.421 52.7401C122.561 52.7601 122.661 52.8901 122.641 53.0201C121.771 59.8001 121.161 66.6901 120.831 73.5101C120.821 73.6601 120.711 73.7601 120.571 73.7601Z" fill="#252424"/>
<path d="M125.342 72.16C125.332 72.16 125.332 72.16 125.322 72.16C125.182 72.15 125.082 72.03 125.092 71.89C125.342 68.54 125.702 65.15 126.162 61.82C126.182 61.68 126.312 61.59 126.452 61.6C126.592 61.62 126.692 61.75 126.672 61.89C126.212 65.21 125.852 68.59 125.602 71.93C125.582 72.06 125.472 72.16 125.342 72.16Z" fill="#252424"/>
<g opacity="0.1294">
<path d="M107.711 81.45C107.721 81.45 107.721 81.45 107.731 81.45C107.791 81.46 107.851 81.46 107.911 81.47C107.841 81.47 107.751 81.45 107.711 81.45Z" fill="#252424"/>
</g>
<g opacity="0.1294">
<path d="M109.941 83.68C109.921 83.29 109.801 82.89 109.581 82.56C109.481 82.44 109.481 82.43 109.571 82.55C109.791 82.82 109.091 81.95 109.291 82.23C109.381 82.35 109.371 82.34 109.281 82.21C108.971 81.8 108.481 81.56 107.981 81.48C107.971 81.48 107.971 81.48 107.951 81.47C107.941 81.47 107.921 81.47 107.911 81.46C107.931 81.46 107.941 81.47 107.961 81.47C107.881 81.46 107.811 81.44 107.731 81.44C107.161 81.37 106.591 81.47 106.031 81.59C104.641 81.85 103.321 82.34 102.041 82.94C100.961 83.35 98.9413 84.34 96.0113 85.35C94.1113 85.91 92.2613 86.62 90.4213 87.33C89.6913 87.65 88.7413 87.73 88.3113 88.48C87.5913 89.63 88.7813 91.19 90.0813 90.79C93.8213 89.49 97.6313 88.38 101.241 86.73C102.001 86.51 105.551 84.7 106.831 84.11C106.841 84.11 106.841 84.11 106.851 84.1C107.201 83.96 107.591 83.93 107.921 83.75C107.961 83.73 108.011 83.71 108.051 83.69C108.291 83.92 108.571 84.11 108.881 84.24C108.861 84.23 108.841 84.22 108.831 84.22C108.871 84.24 108.951 84.27 108.991 84.29C109.041 84.35 109.081 84.42 109.121 84.48C109.251 84.72 109.591 84.81 109.821 84.66C110.341 84.32 109.911 83.78 109.941 83.68Z" fill="#252424"/>
</g>
<g opacity="0.1294">
<path d="M132.481 68.31C132.311 67.85 132.171 67.37 132.051 66.9C131.841 66.93 131.641 67.01 131.481 67.17C131.201 67.42 131.211 67.8 131.091 68.13C130.691 68.9 130.811 68.68 130.101 69.39C127.581 71.65 122.631 73.58 119.501 75C119.171 75.13 118.461 75.43 118.241 75.51C117.371 75.97 116.151 76 115.581 76.87C114.901 77.95 116.021 79.41 117.241 79.03C121.011 77.67 124.601 75.87 128.001 73.76C129.771 72.63 131.761 71.53 132.741 69.59C132.781 69.5 132.821 69.4 132.861 69.3C132.731 68.97 132.601 68.64 132.481 68.31Z" fill="#252424"/>
</g>
<path d="M112.891 93.9201C111.381 93.9201 109.881 93.4001 109.031 92.0701C108.381 91.0401 108.331 89.89 108.291 88.78C108.271 88.2701 108.251 87.7801 108.171 87.3301C108.051 86.6101 107.471 85.8301 106.891 85.5801C106.551 85.43 106.351 85.5301 106.221 85.6201C106.171 85.6601 106.111 85.69 106.041 85.71C102.541 86.94 98.9613 88.34 95.5113 89.68C93.4413 90.4901 91.2912 91.3201 89.1712 92.1201C88.9712 92.1901 88.7512 92.18 88.5612 92.09C88.3712 91.9901 88.2312 91.8201 88.1712 91.6201C86.5812 85.9001 84.2513 80.7001 81.2513 76.1601C81.0813 75.9101 81.0812 75.5801 81.2412 75.3301C81.4012 75.0801 81.7013 74.94 82.0013 74.99C83.5313 75.23 84.9513 75.1501 86.3213 74.7601C87.3813 74.4601 88.1012 74.0401 88.5312 73.4701C88.8913 72.9901 89.0913 72.3 89.0813 71.5401C89.0613 69.4601 87.4913 67.4101 85.4113 66.7601C83.3813 66.1301 80.9512 66.78 79.3812 68.38C79.2012 68.56 78.9512 68.64 78.7012 68.6C78.4512 68.55 78.2413 68.3901 78.1413 68.1601C77.4613 66.6301 76.8113 65.1201 76.1613 63.6301C74.4713 59.7401 72.8713 56.0601 71.0813 52.43C70.9013 52.06 71.0413 51.6201 71.4013 51.43C77.4113 48.1301 83.7113 45.2001 90.1213 42.7401C90.2113 42.7001 90.2313 42.67 90.2513 42.62C90.3513 42.29 90.1012 41.5301 89.7012 40.9701C89.4212 40.5801 89.0713 40.2301 88.6913 39.8601C88.3513 39.5201 87.9913 39.17 87.6813 38.7701C86.0113 36.64 85.8713 33.43 87.3313 30.96C88.6513 28.73 91.2113 27.17 94.0013 26.89C95.3013 26.76 96.4113 26.93 97.2913 27.41C98.5513 28.09 99.4712 29.48 99.7412 31.13C99.9912 32.62 99.7313 34.0801 99.4413 35.3101L99.3913 35.51C99.2413 36.15 99.1013 36.75 99.1613 37.3C99.2013 37.67 99.3713 38.1001 99.6712 38.3101C104.411 36.4601 110.591 34.08 116.911 31.83C117.101 31.76 117.311 31.7701 117.491 31.8601C117.671 31.9501 117.811 32.1 117.881 32.3C122.521 45.67 127.941 58.4301 133.971 70.2301C134.161 70.6001 134.021 71.04 133.661 71.24C128.261 74.24 122.531 77.0101 116.991 79.6901C116.381 79.9801 115.821 80.2901 115.641 80.7301C115.421 81.2901 115.871 82.03 116.391 82.49C116.661 82.73 116.971 82.94 117.291 83.17C117.801 83.53 118.331 83.8901 118.771 84.4001C120.041 85.84 120.291 88.16 119.361 90.0401C118.571 91.6301 117.011 92.9201 115.061 93.5801C114.401 93.7901 113.651 93.9201 112.891 93.9201ZM106.561 83.9701C106.861 83.9701 107.181 84.04 107.481 84.17C108.541 84.62 109.461 85.84 109.671 87.07C109.761 87.62 109.791 88.18 109.811 88.7201C109.851 89.6701 109.881 90.5701 110.321 91.2501C111.121 92.5001 113.081 92.6301 114.601 92.1201C116.161 91.5901 117.411 90.58 118.021 89.35C118.681 88.01 118.531 86.3801 117.651 85.39C117.321 85.0201 116.891 84.7201 116.431 84.4001C116.081 84.16 115.731 83.91 115.391 83.6101C114.521 82.84 113.701 81.48 114.231 80.14C114.611 79.19 115.481 78.7101 116.331 78.3001C121.631 75.7401 127.101 73.09 132.281 70.24C126.461 58.78 121.221 46.43 116.701 33.5C110.511 35.71 104.511 38.03 99.9212 39.82C99.7612 39.88 99.5813 39.89 99.4113 39.84C98.4613 39.54 97.7613 38.59 97.6413 37.43C97.5513 36.6101 97.7313 35.8601 97.9013 35.1301L97.9512 34.93C98.2012 33.84 98.4313 32.57 98.2313 31.34C98.0313 30.15 97.4013 29.17 96.5513 28.71C95.9413 28.38 95.1312 28.2601 94.1312 28.3601C91.8112 28.5901 89.7013 29.87 88.6213 31.6901C87.4913 33.6 87.5913 36.16 88.8613 37.78C89.1213 38.11 89.4213 38.41 89.7513 38.73C90.1513 39.13 90.5713 39.5401 90.9313 40.0401C91.4713 40.8001 91.9913 42.03 91.6913 43.01C91.5313 43.52 91.1713 43.92 90.6513 44.1101C84.5313 46.4601 78.5213 49.23 72.7613 52.3601C74.4413 55.8101 75.9513 59.3 77.5513 62.9701C78.0613 64.1501 78.5813 65.3401 79.1113 66.5501C81.0413 65.0901 83.6313 64.5701 85.8613 65.2601C88.5913 66.1101 90.5812 68.7201 90.6012 71.4801C90.6112 72.2501 90.4613 73.38 89.7513 74.34C89.1213 75.18 88.1312 75.7901 86.7412 76.18C85.6512 76.4901 84.5313 76.63 83.3713 76.6C85.9213 80.73 87.9513 85.3501 89.4113 90.3701C91.2713 89.6601 93.1413 88.9301 94.9613 88.2301C98.4013 86.8901 101.961 85.5 105.461 84.27C105.791 84.08 106.171 83.9701 106.561 83.9701Z" fill="#252424"/>
<path d="M78.191 63.8601C78.181 63.8601 78.171 63.8601 78.161 63.8601C78.021 63.8401 77.921 63.7101 77.941 63.5801C78.541 58.9201 79.021 54.1801 79.381 49.5001C79.391 49.3601 79.501 49.2601 79.651 49.2701C79.791 49.2801 79.891 49.4001 79.881 49.5401C79.521 54.2301 79.041 58.9801 78.441 63.6501C78.431 63.7701 78.321 63.8601 78.191 63.8601Z" fill="#252424"/>
<path d="M83.9811 64.0501H83.9711C83.8311 64.0401 83.7211 63.9201 83.7311 63.7801L84.5611 47.9601C84.5711 47.8201 84.6911 47.7001 84.8311 47.7201C84.9711 47.7301 85.0811 47.8501 85.0711 47.9901L84.2411 63.8101C84.2311 63.9501 84.1111 64.0501 83.9811 64.0501Z" fill="#252424"/>
<path d="M88.6911 65.13C88.6811 65.13 88.6811 65.13 88.6711 65.13C88.5311 65.12 88.4311 65 88.4411 64.86L90.0411 45.64C90.0511 45.5 90.1811 45.41 90.3111 45.41C90.4511 45.42 90.5511 45.54 90.5411 45.68L88.9411 64.9C88.9411 65.03 88.8211 65.13 88.6911 65.13Z" fill="#252424"/>
<path d="M90.8014 37.7201H90.7914C90.6514 37.7101 90.5414 37.5901 90.5514 37.4501L90.8714 31.2201C90.8814 31.0801 90.9914 30.9801 91.1214 30.9801H91.1314C91.2714 30.9901 91.3814 31.1101 91.3714 31.2501L91.0514 37.4801C91.0514 37.6201 90.9314 37.7201 90.8014 37.7201Z" fill="#252424"/>
<path d="M93.4411 87.0801H93.4311C93.2911 87.0701 93.1811 86.9501 93.1911 86.8101L96.2511 31.9401C96.2611 31.8001 96.3711 31.6901 96.5211 31.7001C96.6611 31.7101 96.7711 31.8301 96.7611 31.9701L93.7011 86.8401C93.6911 86.9701 93.5811 87.0801 93.4411 87.0801Z" fill="#252424"/>
<path d="M98.4811 85.0101C98.3311 85.0101 98.2211 84.8901 98.2311 84.7501C98.6111 70.4401 99.2211 55.9501 100.071 41.6801C100.081 41.5401 100.191 41.4301 100.341 41.4401C100.481 41.4501 100.591 41.5701 100.581 41.7101C99.7411 55.9801 99.1211 70.4601 98.7411 84.7701C98.7311 84.9001 98.6211 85.0101 98.4811 85.0101Z" fill="#252424"/>
<path d="M103.091 82.9001C102.941 82.8901 102.831 82.7801 102.841 82.6401C103.371 68.2601 103.811 53.7001 104.141 39.3601C104.141 39.2201 104.251 39.1201 104.401 39.1101C104.541 39.1101 104.651 39.2301 104.651 39.3701C104.321 53.7101 103.891 68.2801 103.351 82.6601C103.341 82.8001 103.231 82.9001 103.091 82.9001Z" fill="#252424"/>
<path d="M107.761 81.1101C107.751 81.1101 107.751 81.1101 107.761 81.1101C107.611 81.1101 107.501 80.9901 107.511 80.8501L108.791 37.7301C108.791 37.5901 108.901 37.4901 109.051 37.4801C109.191 37.4801 109.301 37.6001 109.301 37.7401L108.021 80.8601C108.011 81.0001 107.891 81.1101 107.761 81.1101Z" fill="#252424"/>
<path d="M111.891 91.7801C111.761 91.7801 111.641 91.6801 111.641 91.5401C111.001 80.0601 111.731 68.3901 112.431 57.1001C112.851 50.2901 113.291 43.2501 113.421 36.3201C113.421 36.1801 113.541 36.0701 113.671 36.0701C113.671 36.0701 113.671 36.0701 113.681 36.0701C113.821 36.0701 113.931 36.1901 113.931 36.3301C113.801 43.2701 113.361 50.3101 112.931 57.1301C112.231 68.4001 111.511 80.0601 112.141 91.5101C112.151 91.6501 112.041 91.7701 111.901 91.7801H111.891Z" fill="#252424"/>
<path d="M116.351 75.91C116.341 75.91 116.351 75.91 116.351 75.91C116.201 75.91 116.091 75.79 116.101 75.65C116.371 65.01 117.241 54.27 118.691 43.72C118.711 43.58 118.841 43.49 118.981 43.5C119.121 43.52 119.221 43.65 119.201 43.79C117.751 54.31 116.881 65.04 116.611 75.66C116.601 75.8 116.481 75.91 116.351 75.91Z" fill="#252424"/>
<path d="M120.571 73.7601H120.561C120.421 73.7501 120.311 73.6301 120.321 73.4901C120.661 66.6601 121.271 59.7501 122.141 52.9601C122.161 52.8201 122.291 52.7201 122.421 52.7401C122.561 52.7601 122.661 52.8901 122.641 53.0201C121.771 59.8001 121.161 66.6901 120.831 73.5101C120.821 73.6601 120.711 73.7601 120.571 73.7601Z" fill="#252424"/>
<path d="M125.342 72.16C125.332 72.16 125.332 72.16 125.322 72.16C125.182 72.15 125.082 72.03 125.092 71.89C125.342 68.54 125.702 65.15 126.162 61.82C126.182 61.68 126.312 61.59 126.452 61.6C126.592 61.62 126.692 61.75 126.672 61.89C126.212 65.21 125.852 68.59 125.602 71.93C125.582 72.06 125.472 72.16 125.342 72.16Z" fill="#252424"/>
<g opacity="0.1294">
<path d="M107.711 81.45C107.721 81.45 107.721 81.45 107.731 81.45C107.791 81.46 107.851 81.46 107.911 81.47C107.841 81.47 107.751 81.45 107.711 81.45Z" fill="#252424"/>
</g>
<g opacity="0.1294">
<path d="M109.941 83.68C109.921 83.29 109.801 82.89 109.581 82.56C109.481 82.44 109.481 82.43 109.571 82.55C109.791 82.82 109.091 81.95 109.291 82.23C109.381 82.35 109.371 82.34 109.281 82.21C108.971 81.8 108.481 81.56 107.981 81.48C107.971 81.48 107.971 81.48 107.951 81.47C107.941 81.47 107.921 81.47 107.911 81.46C107.931 81.46 107.941 81.47 107.961 81.47C107.881 81.46 107.811 81.44 107.731 81.44C107.161 81.37 106.591 81.47 106.031 81.59C104.641 81.85 103.321 82.34 102.041 82.94C100.961 83.35 98.9413 84.34 96.0113 85.35C94.1113 85.91 92.2613 86.62 90.4213 87.33C89.6913 87.65 88.7413 87.73 88.3113 88.48C87.5913 89.63 88.7813 91.19 90.0813 90.79C93.8213 89.49 97.6313 88.38 101.241 86.73C102.001 86.51 105.551 84.7 106.831 84.11C106.841 84.11 106.841 84.11 106.851 84.1C107.201 83.96 107.591 83.93 107.921 83.75C107.961 83.73 108.011 83.71 108.051 83.69C108.291 83.92 108.571 84.11 108.881 84.24C108.861 84.23 108.841 84.22 108.831 84.22C108.871 84.24 108.951 84.27 108.991 84.29C109.041 84.35 109.081 84.42 109.121 84.48C109.251 84.72 109.591 84.81 109.821 84.66C110.341 84.32 109.911 83.78 109.941 83.68Z" fill="#252424"/>
</g>
<g opacity="0.1294">
<path d="M132.481 68.31C132.311 67.85 132.171 67.37 132.051 66.9C131.841 66.93 131.641 67.01 131.481 67.17C131.201 67.42 131.211 67.8 131.091 68.13C130.691 68.9 130.811 68.68 130.101 69.39C127.581 71.65 122.631 73.58 119.501 75C119.171 75.13 118.461 75.43 118.241 75.51C117.371 75.97 116.151 76 115.581 76.87C114.901 77.95 116.021 79.41 117.241 79.03C121.011 77.67 124.601 75.87 128.001 73.76C129.771 72.63 131.761 71.53 132.741 69.59C132.781 69.5 132.821 69.4 132.861 69.3C132.731 68.97 132.601 68.64 132.481 68.31Z" fill="#252424"/>
</g>
<path d="M112.891 93.9201C111.381 93.9201 109.881 93.4001 109.031 92.0701C108.381 91.0401 108.331 89.89 108.291 88.78C108.271 88.2701 108.251 87.7801 108.171 87.3301C108.051 86.6101 107.471 85.8301 106.891 85.5801C106.551 85.43 106.351 85.5301 106.221 85.6201C106.171 85.6601 106.111 85.69 106.041 85.71C102.541 86.94 98.9613 88.34 95.5113 89.68C93.4413 90.4901 91.2912 91.3201 89.1712 92.1201C88.9712 92.1901 88.7512 92.18 88.5612 92.09C88.3712 91.9901 88.2312 91.8201 88.1712 91.6201C86.5812 85.9001 84.2513 80.7001 81.2513 76.1601C81.0813 75.9101 81.0812 75.5801 81.2412 75.3301C81.4012 75.0801 81.7013 74.94 82.0013 74.99C83.5313 75.23 84.9513 75.1501 86.3213 74.7601C87.3813 74.4601 88.1012 74.0401 88.5312 73.4701C88.8913 72.9901 89.0913 72.3 89.0813 71.5401C89.0613 69.4601 87.4913 67.4101 85.4113 66.7601C83.3813 66.1301 80.9512 66.78 79.3812 68.38C79.2012 68.56 78.9512 68.64 78.7012 68.6C78.4512 68.55 78.2413 68.3901 78.1413 68.1601C77.4613 66.6301 76.8113 65.1201 76.1613 63.6301C74.4713 59.7401 72.8713 56.0601 71.0813 52.43C70.9013 52.06 71.0413 51.6201 71.4013 51.43C77.4113 48.1301 83.7113 45.2001 90.1213 42.7401C90.2113 42.7001 90.2313 42.67 90.2513 42.62C90.3513 42.29 90.1012 41.5301 89.7012 40.9701C89.4212 40.5801 89.0713 40.2301 88.6913 39.8601C88.3513 39.5201 87.9913 39.17 87.6813 38.7701C86.0113 36.64 85.8713 33.43 87.3313 30.96C88.6513 28.73 91.2113 27.17 94.0013 26.89C95.3013 26.76 96.4113 26.93 97.2913 27.41C98.5513 28.09 99.4712 29.48 99.7412 31.13C99.9912 32.62 99.7313 34.0801 99.4413 35.3101L99.3913 35.51C99.2413 36.15 99.1013 36.75 99.1613 37.3C99.2013 37.67 99.3713 38.1001 99.6712 38.3101C104.411 36.4601 110.591 34.08 116.911 31.83C117.101 31.76 117.311 31.7701 117.491 31.8601C117.671 31.9501 117.811 32.1 117.881 32.3C122.521 45.67 127.941 58.4301 133.971 70.2301C134.161 70.6001 134.021 71.04 133.661 71.24C128.261 74.24 122.531 77.0101 116.991 79.6901C116.381 79.9801 115.821 80.2901 115.641 80.7301C115.421 81.2901 115.871 82.03 116.391 82.49C116.661 82.73 116.971 82.94 117.291 83.17C117.801 83.53 118.331 83.8901 118.771 84.4001C120.041 85.84 120.291 88.16 119.361 90.0401C118.571 91.6301 117.011 92.9201 115.061 93.5801C114.401 93.7901 113.651 93.9201 112.891 93.9201ZM106.561 83.9701C106.861 83.9701 107.181 84.04 107.481 84.17C108.541 84.62 109.461 85.84 109.671 87.07C109.761 87.62 109.791 88.18 109.811 88.7201C109.851 89.6701 109.881 90.5701 110.321 91.2501C111.121 92.5001 113.081 92.6301 114.601 92.1201C116.161 91.5901 117.411 90.58 118.021 89.35C118.681 88.01 118.531 86.3801 117.651 85.39C117.321 85.0201 116.891 84.7201 116.431 84.4001C116.081 84.16 115.731 83.91 115.391 83.6101C114.521 82.84 113.701 81.48 114.231 80.14C114.611 79.19 115.481 78.7101 116.331 78.3001C121.631 75.7401 127.101 73.09 132.281 70.24C126.461 58.78 121.221 46.43 116.701 33.5C110.511 35.71 104.511 38.03 99.9212 39.82C99.7612 39.88 99.5813 39.89 99.4113 39.84C98.4613 39.54 97.7613 38.59 97.6413 37.43C97.5513 36.6101 97.7313 35.8601 97.9013 35.1301L97.9512 34.93C98.2012 33.84 98.4313 32.57 98.2313 31.34C98.0313 30.15 97.4013 29.17 96.5513 28.71C95.9413 28.38 95.1312 28.2601 94.1312 28.3601C91.8112 28.5901 89.7013 29.87 88.6213 31.6901C87.4913 33.6 87.5913 36.16 88.8613 37.78C89.1213 38.11 89.4213 38.41 89.7513 38.73C90.1513 39.13 90.5713 39.5401 90.9313 40.0401C91.4713 40.8001 91.9913 42.03 91.6913 43.01C91.5313 43.52 91.1713 43.92 90.6513 44.1101C84.5313 46.4601 78.5213 49.23 72.7613 52.3601C74.4413 55.8101 75.9513 59.3 77.5513 62.9701C78.0613 64.1501 78.5813 65.3401 79.1113 66.5501C81.0413 65.0901 83.6313 64.5701 85.8613 65.2601C88.5913 66.1101 90.5812 68.7201 90.6012 71.4801C90.6112 72.2501 90.4613 73.38 89.7513 74.34C89.1213 75.18 88.1312 75.7901 86.7412 76.18C85.6512 76.4901 84.5313 76.63 83.3713 76.6C85.9213 80.73 87.9513 85.3501 89.4113 90.3701C91.2713 89.6601 93.1413 88.9301 94.9613 88.2301C98.4013 86.8901 101.961 85.5 105.461 84.27C105.791 84.08 106.171 83.9701 106.561 83.9701Z" fill="#252424"/>
<path d="M57.4623 96.03C58.7323 94.6 57.9723 92.39 58.0423 90.49C58.2123 86.31 63.5523 83.47 67.2923 85.37C71.0223 87.27 72.0723 92.8 69.5923 96.17C69.0723 96.88 68.4023 97.8 68.9023 98.53C69.1223 98.85 69.5223 99 69.8923 99.13C75.7723 101.18 81.6423 103.24 87.5223 105.29C85.7423 110.49 83.6923 115.6 81.3823 120.6C79.0523 118.25 75.1523 117.22 72.3323 118.96C69.5123 120.69 68.9923 125.5 71.8023 127.24C73.7223 128.43 76.2023 127.89 78.4723 128.07C77.8223 133.98 75.9423 139.75 72.5823 144.38C67.5723 142.23 62.5523 140.07 57.5423 137.92C57.2323 137.79 56.9123 137.65 56.6723 137.4C56.0723 136.79 56.2123 135.74 56.6723 135.02C57.1323 134.3 57.8323 133.76 58.3523 133.08C60.0723 130.86 59.4023 127.29 57.1323 125.64C54.8723 123.99 51.4723 124.31 49.3723 126.16C47.2623 128.01 46.4823 131.13 47.1823 133.84C41.7823 130.78 35.9223 128.54 28.9023 127.4C32.8123 115.15 36.7223 102.9 40.5123 90.58C46.2323 92.43 51.9423 94.3 57.4623 96.03Z" fill="#6BA8C9"/>
<g opacity="0.1294">
<path d="M86.5223 104.58C85.8823 104.3 85.2423 104 84.6223 103.68C83.9423 103.96 83.4123 104.59 83.4223 105.48C83.3423 106.53 82.9823 108.58 82.3123 110.85C81.4523 113.37 81.2223 113.64 80.3523 115.78C80.1623 116.37 79.9723 116.96 79.7623 117.54C79.6423 117.89 79.4923 118.25 79.5923 118.62C79.6523 119.58 80.7423 120.26 81.6423 119.99C82.9923 119.41 82.7023 118.72 83.0723 118.22C84.1423 116.27 84.8823 114.15 85.5723 112.04C86.0623 110.33 86.9423 108.74 87.2023 106.96C87.2723 106.3 87.5023 105.59 87.3223 104.94C87.0523 104.82 86.7923 104.7 86.5223 104.58Z" fill="#252424"/>
</g>
<g opacity="0.1294">
<path d="M77.6117 127.24C77.0917 127.25 76.5617 127.25 76.0517 127.25C75.9817 127.25 75.9117 127.24 75.8417 127.22C75.4717 127.47 75.2117 127.87 75.2117 128.41C75.1317 130.05 75.0717 130.16 74.5617 132.1C73.5217 136.28 73.1817 136.87 71.4117 140.17C71.3717 140.25 71.3317 140.34 71.2817 140.42C70.0617 139.84 68.7217 139.54 67.4217 139.18C64.4817 138.32 61.4817 137.66 58.5317 136.8C58.2417 136.71 57.9117 136.55 57.6217 136.74C57.1317 137.01 57.2317 137.81 57.7817 137.94C58.8617 138.36 60.3817 138.67 60.9517 138.98C64.7217 140.65 67.0717 141.72 69.8917 142.75C69.9717 142.78 70.0417 142.81 70.1217 142.84C70.5717 143.07 71.0717 143.19 71.5517 143.36C71.5517 143.36 71.5617 143.36 71.5617 143.37C72.0417 143.68 72.7117 143.86 73.1717 143.43C73.5517 143.17 73.6917 142.68 73.6017 142.25C73.9817 141.79 74.2617 141.22 74.5617 140.73C76.3217 137.97 76.9017 134.7 77.7517 131.59C77.9517 130.8 78.0617 129.98 78.1317 129.17C78.1417 128.73 78.2817 128.24 78.0517 127.83C77.9417 127.58 77.7917 127.38 77.6117 127.24Z" fill="#252424"/>
</g>
<path d="M72.5919 145.12C72.4919 145.12 72.3919 145.1 72.2919 145.06L57.2519 138.6C56.9119 138.45 56.4819 138.27 56.1319 137.92C55.2119 136.98 55.4419 135.54 56.0319 134.6C56.3419 134.12 56.7119 133.73 57.0819 133.35C57.3319 133.1 57.5619 132.86 57.7519 132.6C58.4119 131.75 58.6819 130.62 58.5119 129.41C58.3319 128.11 57.6619 126.95 56.6919 126.24C54.7719 124.84 51.7819 125.04 49.8819 126.71C48.0619 128.31 47.2719 131.09 47.9319 133.63C48.0119 133.93 47.9019 134.24 47.6619 134.43C47.4219 134.62 47.0919 134.64 46.8219 134.49C41.0419 131.22 35.3119 129.2 28.8019 128.14C28.5819 128.1 28.3919 127.98 28.2719 127.79C28.1519 127.6 28.1319 127.37 28.1919 127.16C32.0319 115.13 35.9919 102.7 39.8019 90.35C39.8619 90.15 40.0019 89.99 40.1819 89.9C40.3619 89.81 40.5719 89.79 40.7719 89.85C46.1919 91.63 51.7819 93.46 57.1519 95.15C57.5319 94.4 57.4519 93.37 57.3619 92.29C57.3119 91.69 57.2619 91.07 57.2819 90.46C57.3719 88.33 58.6719 86.32 60.7519 85.1C62.9519 83.81 65.5919 83.65 67.6319 84.69C69.5219 85.65 70.9119 87.51 71.4519 89.79C72.0319 92.21 71.5619 94.77 70.2019 96.62C69.8919 97.04 69.3319 97.81 69.5219 98.09C69.6119 98.22 69.9319 98.33 70.1419 98.41L87.7719 104.57C88.1719 104.71 88.3719 105.14 88.2419 105.54C86.4619 110.75 84.3819 115.93 82.0719 120.92C81.9719 121.15 81.7619 121.31 81.5119 121.35C81.2619 121.39 81.0119 121.31 80.8419 121.14C78.9019 119.17 75.3919 117.97 72.7319 119.61C71.5019 120.37 70.7019 121.91 70.7019 123.55C70.7019 124.9 71.2519 126.01 72.2119 126.6C73.3819 127.33 74.8819 127.3 76.4619 127.28C77.1419 127.27 77.8519 127.26 78.5419 127.31C78.7519 127.33 78.9419 127.42 79.0719 127.58C79.2019 127.74 79.2619 127.94 79.2419 128.15C78.5219 134.61 76.4419 140.37 73.2119 144.82C73.0619 145.01 72.8319 145.12 72.5919 145.12ZM53.6919 123.8C55.1019 123.8 56.4819 124.2 57.5919 125.01C58.8919 125.96 59.7819 127.49 60.0219 129.19C60.2519 130.81 59.8719 132.35 58.9619 133.53C58.7119 133.85 58.4419 134.13 58.1819 134.4C57.8519 134.74 57.5519 135.05 57.3219 135.4C57.0319 135.86 56.9119 136.53 57.2219 136.84C57.3619 136.98 57.6119 137.09 57.8519 137.19L72.3219 143.41C75.0619 139.43 76.8919 134.4 77.6219 128.77C77.2519 128.76 76.8719 128.77 76.4819 128.77C74.7519 128.79 72.9619 128.82 71.4119 127.86C69.9919 126.98 69.1819 125.4 69.1819 123.51C69.1819 121.36 70.2719 119.31 71.9419 118.28C74.9219 116.45 78.6819 117.39 81.1319 119.32C83.1419 114.89 84.9619 110.33 86.5619 105.74L69.6519 99.83C69.2519 99.69 68.6619 99.48 68.2819 98.94C67.4719 97.76 68.4119 96.47 68.9819 95.7C70.0819 94.21 70.4519 92.12 69.9819 90.13C69.5419 88.28 68.4419 86.79 66.9519 86.03C65.3719 85.23 63.2919 85.37 61.5319 86.4C59.8919 87.36 58.8819 88.89 58.8119 90.5C58.7919 91.01 58.8319 91.56 58.8819 92.14C59.0019 93.61 59.1419 95.27 58.0319 96.52C57.8319 96.74 57.5219 96.83 57.2319 96.74C51.9219 95.08 46.4019 93.27 41.0319 91.51C37.3819 103.34 33.5919 115.23 29.9119 126.76C35.6719 127.79 41.0319 129.64 46.2019 132.39C46.0319 129.79 47.0219 127.19 48.8819 125.55C50.2119 124.4 51.9719 123.8 53.6919 123.8Z" fill="#252424"/>
<path d="M57.4623 96.03C58.7323 94.6 57.9723 92.39 58.0423 90.49C58.2123 86.31 63.5523 83.47 67.2923 85.37C71.0223 87.27 72.0723 92.8 69.5923 96.17C69.0723 96.88 68.4023 97.8 68.9023 98.53C69.1223 98.85 69.5223 99 69.8923 99.13C75.7723 101.18 81.6423 103.24 87.5223 105.29C85.7423 110.49 83.6923 115.6 81.3823 120.6C79.0523 118.25 75.1523 117.22 72.3323 118.96C69.5123 120.69 68.9923 125.5 71.8023 127.24C73.7223 128.43 76.2023 127.89 78.4723 128.07C77.8223 133.98 75.9423 139.75 72.5823 144.38C67.5723 142.23 62.5523 140.07 57.5423 137.92C57.2323 137.79 56.9123 137.65 56.6723 137.4C56.0723 136.79 56.2123 135.74 56.6723 135.02C57.1323 134.3 57.8323 133.76 58.3523 133.08C60.0723 130.86 59.4023 127.29 57.1323 125.64C54.8723 123.99 51.4723 124.31 49.3723 126.16C47.2623 128.01 46.4823 131.13 47.1823 133.84C41.7823 130.78 35.9223 128.54 28.9023 127.4C32.8123 115.15 36.7223 102.9 40.5123 90.58C46.2323 92.43 51.9423 94.3 57.4623 96.03Z" fill="#6BA8C9"/>
<g opacity="0.1294">
<path d="M86.5223 104.58C85.8823 104.3 85.2423 104 84.6223 103.68C83.9423 103.96 83.4123 104.59 83.4223 105.48C83.3423 106.53 82.9823 108.58 82.3123 110.85C81.4523 113.37 81.2223 113.64 80.3523 115.78C80.1623 116.37 79.9723 116.96 79.7623 117.54C79.6423 117.89 79.4923 118.25 79.5923 118.62C79.6523 119.58 80.7423 120.26 81.6423 119.99C82.9923 119.41 82.7023 118.72 83.0723 118.22C84.1423 116.27 84.8823 114.15 85.5723 112.04C86.0623 110.33 86.9423 108.74 87.2023 106.96C87.2723 106.3 87.5023 105.59 87.3223 104.94C87.0523 104.82 86.7923 104.7 86.5223 104.58Z" fill="#252424"/>
</g>
<g opacity="0.1294">
<path d="M77.6117 127.24C77.0917 127.25 76.5617 127.25 76.0517 127.25C75.9817 127.25 75.9117 127.24 75.8417 127.22C75.4717 127.47 75.2117 127.87 75.2117 128.41C75.1317 130.05 75.0717 130.16 74.5617 132.1C73.5217 136.28 73.1817 136.87 71.4117 140.17C71.3717 140.25 71.3317 140.34 71.2817 140.42C70.0617 139.84 68.7217 139.54 67.4217 139.18C64.4817 138.32 61.4817 137.66 58.5317 136.8C58.2417 136.71 57.9117 136.55 57.6217 136.74C57.1317 137.01 57.2317 137.81 57.7817 137.94C58.8617 138.36 60.3817 138.67 60.9517 138.98C64.7217 140.65 67.0717 141.72 69.8917 142.75C69.9717 142.78 70.0417 142.81 70.1217 142.84C70.5717 143.07 71.0717 143.19 71.5517 143.36C71.5517 143.36 71.5617 143.36 71.5617 143.37C72.0417 143.68 72.7117 143.86 73.1717 143.43C73.5517 143.17 73.6917 142.68 73.6017 142.25C73.9817 141.79 74.2617 141.22 74.5617 140.73C76.3217 137.97 76.9017 134.7 77.7517 131.59C77.9517 130.8 78.0617 129.98 78.1317 129.17C78.1417 128.73 78.2817 128.24 78.0517 127.83C77.9417 127.58 77.7917 127.38 77.6117 127.24Z" fill="#252424"/>
</g>
<path d="M72.5919 145.12C72.4919 145.12 72.3919 145.1 72.2919 145.06L57.2519 138.6C56.9119 138.45 56.4819 138.27 56.1319 137.92C55.2119 136.98 55.4419 135.54 56.0319 134.6C56.3419 134.12 56.7119 133.73 57.0819 133.35C57.3319 133.1 57.5619 132.86 57.7519 132.6C58.4119 131.75 58.6819 130.62 58.5119 129.41C58.3319 128.11 57.6619 126.95 56.6919 126.24C54.7719 124.84 51.7819 125.04 49.8819 126.71C48.0619 128.31 47.2719 131.09 47.9319 133.63C48.0119 133.93 47.9019 134.24 47.6619 134.43C47.4219 134.62 47.0919 134.64 46.8219 134.49C41.0419 131.22 35.3119 129.2 28.8019 128.14C28.5819 128.1 28.3919 127.98 28.2719 127.79C28.1519 127.6 28.1319 127.37 28.1919 127.16C32.0319 115.13 35.9919 102.7 39.8019 90.35C39.8619 90.15 40.0019 89.99 40.1819 89.9C40.3619 89.81 40.5719 89.79 40.7719 89.85C46.1919 91.63 51.7819 93.46 57.1519 95.15C57.5319 94.4 57.4519 93.37 57.3619 92.29C57.3119 91.69 57.2619 91.07 57.2819 90.46C57.3719 88.33 58.6719 86.32 60.7519 85.1C62.9519 83.81 65.5919 83.65 67.6319 84.69C69.5219 85.65 70.9119 87.51 71.4519 89.79C72.0319 92.21 71.5619 94.77 70.2019 96.62C69.8919 97.04 69.3319 97.81 69.5219 98.09C69.6119 98.22 69.9319 98.33 70.1419 98.41L87.7719 104.57C88.1719 104.71 88.3719 105.14 88.2419 105.54C86.4619 110.75 84.3819 115.93 82.0719 120.92C81.9719 121.15 81.7619 121.31 81.5119 121.35C81.2619 121.39 81.0119 121.31 80.8419 121.14C78.9019 119.17 75.3919 117.97 72.7319 119.61C71.5019 120.37 70.7019 121.91 70.7019 123.55C70.7019 124.9 71.2519 126.01 72.2119 126.6C73.3819 127.33 74.8819 127.3 76.4619 127.28C77.1419 127.27 77.8519 127.26 78.5419 127.31C78.7519 127.33 78.9419 127.42 79.0719 127.58C79.2019 127.74 79.2619 127.94 79.2419 128.15C78.5219 134.61 76.4419 140.37 73.2119 144.82C73.0619 145.01 72.8319 145.12 72.5919 145.12ZM53.6919 123.8C55.1019 123.8 56.4819 124.2 57.5919 125.01C58.8919 125.96 59.7819 127.49 60.0219 129.19C60.2519 130.81 59.8719 132.35 58.9619 133.53C58.7119 133.85 58.4419 134.13 58.1819 134.4C57.8519 134.74 57.5519 135.05 57.3219 135.4C57.0319 135.86 56.9119 136.53 57.2219 136.84C57.3619 136.98 57.6119 137.09 57.8519 137.19L72.3219 143.41C75.0619 139.43 76.8919 134.4 77.6219 128.77C77.2519 128.76 76.8719 128.77 76.4819 128.77C74.7519 128.79 72.9619 128.82 71.4119 127.86C69.9919 126.98 69.1819 125.4 69.1819 123.51C69.1819 121.36 70.2719 119.31 71.9419 118.28C74.9219 116.45 78.6819 117.39 81.1319 119.32C83.1419 114.89 84.9619 110.33 86.5619 105.74L69.6519 99.83C69.2519 99.69 68.6619 99.48 68.2819 98.94C67.4719 97.76 68.4119 96.47 68.9819 95.7C70.0819 94.21 70.4519 92.12 69.9819 90.13C69.5419 88.28 68.4419 86.79 66.9519 86.03C65.3719 85.23 63.2919 85.37 61.5319 86.4C59.8919 87.36 58.8819 88.89 58.8119 90.5C58.7919 91.01 58.8319 91.56 58.8819 92.14C59.0019 93.61 59.1419 95.27 58.0319 96.52C57.8319 96.74 57.5219 96.83 57.2319 96.74C51.9219 95.08 46.4019 93.27 41.0319 91.51C37.3819 103.34 33.5919 115.23 29.9119 126.76C35.6719 127.79 41.0319 129.64 46.2019 132.39C46.0319 129.79 47.0219 127.19 48.8819 125.55C50.2119 124.4 51.9719 123.8 53.6919 123.8Z" fill="#252424"/>
<path d="M23.012 108.63C22.842 108.63 22.672 108.57 22.532 108.46C14.812 102.18 10.222 92.49 10.262 82.54C10.262 82.12 10.602 81.78 11.022 81.78C11.442 81.78 11.782 82.12 11.782 82.54C11.742 92.04 16.122 101.28 23.492 107.27C23.822 107.54 23.872 108.01 23.602 108.34C23.452 108.53 23.232 108.63 23.012 108.63Z" fill="#252424"/>
<path d="M23.0315 109.05C22.9815 109.05 22.9215 109.04 22.8715 109.03C20.0315 108.42 17.2215 107.58 14.5215 106.52C14.1315 106.37 13.9315 105.92 14.0915 105.53C14.2415 105.14 14.6815 104.95 15.0815 105.1C17.3915 106 19.7815 106.75 22.2015 107.31C22.0015 105.06 21.5215 102.84 20.7815 100.7C20.6415 100.3 20.8515 99.87 21.2515 99.73C21.6515 99.6 22.0815 99.8 22.2215 100.2C23.1115 102.79 23.6415 105.49 23.7915 108.23C23.8015 108.47 23.7015 108.7 23.5215 108.85C23.3815 108.99 23.2115 109.05 23.0315 109.05Z" fill="#252424"/>
<path d="M100.232 123.96C99.9416 123.96 99.6616 123.79 99.5316 123.51C99.3616 123.13 99.5316 122.68 99.9216 122.5C109.012 118.44 116.012 109.89 118.182 100.17C118.272 99.7601 118.682 99.5001 119.092 99.5901C119.502 99.6801 119.762 100.09 119.672 100.5C117.402 110.68 110.072 119.64 100.552 123.89C100.442 123.93 100.342 123.96 100.232 123.96Z" fill="#252424"/>
<path d="M120.292 107.59C119.872 107.59 119.532 107.25 119.532 106.83C119.532 104.99 119.282 103.17 118.772 101.41C117.322 102.63 115.752 103.72 114.122 104.68C113.762 104.89 113.292 104.77 113.082 104.41C112.872 104.05 112.992 103.58 113.352 103.37C115.232 102.27 117.012 100.98 118.632 99.52C118.822 99.35 119.082 99.2901 119.332 99.3501C119.582 99.4101 119.772 99.5901 119.862 99.8301C120.662 102.09 121.062 104.44 121.062 106.84C121.052 107.25 120.712 107.59 120.292 107.59Z" fill="#252424"/>
<path d="M66.0314 16.34C65.7914 16.34 65.5514 16.22 65.4014 16C65.1614 15.65 65.2614 15.18 65.6014 14.94C73.4414 9.64998 84.0014 8.89998 92.5114 13.04C92.8914 13.22 93.0514 13.68 92.8614 14.06C92.6814 14.44 92.2214 14.6 91.8414 14.41C83.8114 10.51 73.8514 11.21 66.4514 16.21C66.3314 16.3 66.1814 16.34 66.0314 16.34Z" fill="#252424"/>
<path d="M72.5516 16.77C72.5316 16.77 72.5016 16.77 72.4816 16.77C70.2216 16.56 67.9316 16.49 65.6616 16.55C65.3716 16.57 65.1016 16.4 64.9616 16.14C64.8316 15.88 64.8516 15.57 65.0316 15.33L69.1516 9.81997C69.4016 9.47997 69.8816 9.40997 70.2216 9.66997C70.5616 9.91997 70.6316 10.4 70.3716 10.74L67.1816 15C67.2216 15 67.2616 15 67.2916 15C69.0716 15 70.8516 15.08 72.6216 15.25C73.0416 15.29 73.3516 15.66 73.3116 16.08C73.2716 16.47 72.9416 16.77 72.5516 16.77Z" fill="#252424"/>
<path d="M97.7118 6.79C97.5718 6.79 97.4418 6.75 97.3118 6.68C91.9218 3.35 85.4618 1.52 79.1218 1.52C79.1118 1.52 79.1118 1.52 79.1018 1.52C78.6818 1.52 78.3418 1.18 78.3418 0.76C78.3418 0.33 78.6818 0 79.1318 0C85.8418 0 92.4018 1.86 98.1218 5.38C98.4818 5.6 98.5918 6.07 98.3718 6.43C98.2118 6.66 97.9618 6.79 97.7118 6.79Z" fill="#252424"/>
<path d="M105.232 134.85C104.962 134.85 104.702 134.71 104.562 134.45C104.362 134.08 104.502 133.62 104.872 133.42C110.382 130.44 115.142 125.81 118.262 120.38C118.472 120.01 118.942 119.89 119.302 120.1C119.662 120.31 119.792 120.78 119.582 121.14C116.272 126.9 111.432 131.61 105.592 134.77C105.482 134.82 105.352 134.85 105.232 134.85Z" fill="#252424"/>
<path d="M6.85161 100.33C6.62161 100.33 6.40161 100.23 6.25161 100.03C2.15161 94.72 -0.0683937 88.1 0.00160627 81.4C0.00160627 80.98 0.341606 80.65 0.761606 80.65C0.761606 80.65 0.761606 80.65 0.771606 80.65C1.19161 80.65 1.53161 81 1.52161 81.42C1.46161 87.78 3.57161 94.06 7.45161 99.1C7.71161 99.43 7.65161 99.91 7.31161 100.17C7.18161 100.28 7.01161 100.33 6.85161 100.33Z" fill="#252424"/>
</svg>
