<svg width="124" height="125" viewBox="0 0 124 125" fill="none" xmlns="http://www.w3.org/2000/svg">
<path d="M102.29 86.74C101.77 86.1 102.18 85.12 102.74 84.51C103.3 83.9 104.03 83.36 104.21 82.55C104.49 81.29 103.31 80.22 102.25 79.46C102.4 78.07 102.57 76.63 103.34 75.46C103.6 75.07 103.93 74.71 104.06 74.26C104.3 73.47 103.9 72.64 103.87 71.58C109.58 65.63 112.34 57.53 114.91 49.85C112.77 49.76 110.68 48.88 108.54 49.07C108 49.12 107.47 49.23 106.93 49.24C105.62 49.26 104.35 48.63 102.96 48.62C101.92 40.27 102.67 31.75 101.26 23.45C101.17 22.92 101.06 22.37 100.71 21.97C100.44 21.66 100.06 21.48 99.6604 21.38C98.1804 21 96.4804 21.86 95.9104 23.28C94.8404 23.11 93.7604 23 92.6704 22.95C92.4604 21.4 91.2304 19.95 89.6704 19.79C88.1104 19.62 86.4904 21.04 86.7704 22.5C85.7704 22.39 84.7704 22.28 83.7704 22.17C83.8604 21.64 83.5904 21.1 83.1804 20.76C82.7704 20.42 82.2204 20.27 81.6904 20.24C80.6004 20.18 79.3904 20.7 79.0304 21.73C77.9204 21.56 76.8004 21.51 75.6804 21.57C74.7604 20.52 73.1804 20.09 71.6104 20.21C64.8804 15.5 57.4404 11.8 49.5804 9.44001C49.4004 6.85001 49.5004 4.24001 49.8904 1.67001C43.8604 0.850015 37.8004 0.0200148 31.7104 1.47966e-05C28.4904 -0.0099852 25.0904 0.260015 22.3104 2.50001C21.7904 9.28001 21.9004 16.11 22.6104 23.04C21.6504 23.68 20.9604 24.77 20.9704 25.92C20.9804 27.07 21.7904 28.22 22.9204 28.44C22.7504 29.46 22.7004 30.49 22.7804 31.52C21.4004 31.62 20.3004 32.78 19.7304 34.05C19.3104 34.98 19.1504 36.2 19.8904 36.9C20.5604 37.54 21.6404 37.43 22.4504 37.78C22.3804 38.6 22.3004 39.41 22.2304 40.23C21.1804 40.63 20.4104 41.67 20.3404 42.79C20.2704 43.91 20.9104 45.05 21.9004 45.57C21.7004 46.71 21.6004 47.87 21.6004 49.02C20.6004 50.07 20.1804 51.66 20.4004 53.36C15.5304 59.88 11.8004 67.25 9.43041 75.03C6.94041 75.18 4.44041 75.32 1.88041 75.63C0.81041 77.49 0.46041 79.66 0.26041 81.79C-0.40959 88.62 0.21041 95.57 2.21041 102.46C9.12041 102.29 16.0404 102.12 22.9504 101.96C23.4904 102.98 24.6304 103.66 25.7904 103.64C26.9504 103.62 28.0704 102.92 28.5804 101.88C29.4504 102.24 30.4204 102.34 31.3404 102.18C31.5004 103.83 32.9604 105.27 34.6204 105.39C36.2804 105.52 37.9404 104.32 38.3304 102.74C38.9404 102.72 39.5504 102.71 40.1504 102.69C40.5504 103.88 41.6904 104.77 42.9304 104.88C44.1704 104.99 45.4504 104.3 46.0504 103.2C47.4804 103.31 48.8804 103.68 50.1804 104.28C50.8904 104.61 51.8404 104.96 52.2604 104.25C59.4604 108.77 66.7704 113.34 74.7704 115.97C74.6904 118.44 74.4604 120.9 73.9204 123.47C76.8604 124.34 79.9804 124.38 83.0504 124.42C84.7104 124.44 86.3604 124.46 88.0204 124.48C92.7904 124.53 97.7004 124.57 102.25 122.52C102.25 122.52 101.27 101.91 101.51 101.56C102.34 100.67 103.24 99.52 102.88 98.36C102.53 97.21 101.05 96.57 100.95 95.37C100.87 94.44 101.68 93.68 102.49 93.2C103.3 92.73 104.23 92.33 104.7 91.52C105.2 90.66 105.02 89.53 104.49 88.69C103.97 87.88 103.13 87.27 102.29 86.74ZM74.1304 70.19C72.7704 70.55 71.4004 70.88 70.0404 71.24C68.7104 71.59 67.4104 72.08 66.1104 72.5C63.4204 73.37 60.7204 74.24 58.0004 75.02C57.5704 75.14 57.2004 75.07 56.9204 74.88C56.2104 75.47 54.9204 75.41 54.6004 74.25C52.9304 68.15 51.1004 62.09 48.6604 56.25C48.4204 55.68 48.8204 54.94 49.3104 54.65C49.5804 54.49 49.8704 54.44 50.1504 54.48C50.2404 54.4 50.3604 54.33 50.5004 54.29C53.3504 53.44 56.1804 52.52 59.0504 51.69C60.4904 51.28 61.9304 50.86 63.3704 50.46C63.9004 50.32 64.4404 50.16 64.9904 50.02C65.5304 49.77 66.0704 49.52 66.6204 49.27C66.8004 49.14 67.0104 49.04 67.2804 48.98C67.8204 48.86 68.3104 49.08 68.6304 49.44C68.7504 49.42 68.8804 49.43 69.0004 49.46C69.2104 49.51 69.4204 49.68 69.5304 49.87C69.5704 49.95 69.6104 50.05 69.6304 50.15C69.6404 50.16 69.6404 50.17 69.6504 50.17C69.9804 50.18 70.2904 50.38 70.3804 50.82C71.4904 56.44 73.1504 61.98 75.1204 67.36C75.2504 67.71 75.1404 67.98 74.9204 68.15C75.3204 68.86 75.1104 69.94 74.1304 70.19Z" fill="white"/>
<path d="M78.1408 113.26C78.0708 113.26 78.0108 113.23 77.9608 113.18C77.8608 113.08 77.8708 112.92 77.9708 112.82C80.6308 110.24 83.4608 107.77 86.3908 105.49C86.5008 105.4 86.6608 105.42 86.7508 105.53C86.8408 105.64 86.8208 105.8 86.7108 105.89C83.8008 108.16 80.9808 110.61 78.3308 113.18C78.2608 113.24 78.2008 113.26 78.1408 113.26Z" fill="#252424"/>
<path d="M77.9607 120.26C77.9007 120.26 77.8407 120.24 77.7907 120.19C77.6907 120.1 77.6807 119.94 77.7707 119.83C82.4507 114.67 87.5007 109.75 92.8007 105.23C92.9107 105.14 93.0707 105.15 93.1607 105.26C93.2507 105.37 93.2407 105.53 93.1307 105.62C87.8507 110.13 82.8107 115.02 78.1507 120.17C78.1007 120.24 78.0307 120.26 77.9607 120.26Z" fill="#252424"/>
<path d="M82.8709 122.47C82.8109 122.47 82.7509 122.45 82.7109 122.41C82.6009 122.32 82.5909 122.16 82.6809 122.05C87.4509 116.38 92.6909 111.02 98.2609 106.12C98.3609 106.03 98.5309 106.04 98.6209 106.14C98.7109 106.25 98.7009 106.41 98.6009 106.5C93.0509 111.38 87.8309 116.73 83.0709 122.38C83.0209 122.44 82.9509 122.47 82.8709 122.47Z" fill="#252424"/>
<path d="M88.9409 122.07C88.8809 122.07 88.8109 122.05 88.7609 122C88.6609 121.9 88.6509 121.74 88.7509 121.64L98.6809 111.22C98.7809 111.12 98.9409 111.12 99.0409 111.21C99.1409 111.31 99.1509 111.47 99.0509 111.57L89.1209 121.99C89.0709 122.04 89.0109 122.07 88.9409 122.07Z" fill="#252424"/>
<path d="M95.6706 122.67C95.6106 122.67 95.5506 122.65 95.5006 122.61C95.4006 122.52 95.3906 122.36 95.4806 122.25L100.171 116.99C100.261 116.89 100.421 116.88 100.531 116.97C100.631 117.06 100.641 117.22 100.551 117.33L95.8606 122.59C95.8106 122.64 95.7406 122.67 95.6706 122.67Z" fill="#252424"/>
<path d="M77.3709 108.42C77.3109 108.42 77.2609 108.4 77.2109 108.36C77.1009 108.27 77.0909 108.11 77.1809 108C78.0909 106.91 79.0809 105.89 80.1509 104.95C80.2609 104.86 80.4209 104.87 80.5109 104.97C80.6009 105.08 80.5909 105.24 80.4909 105.33C79.4509 106.24 78.4709 107.25 77.5809 108.32C77.5209 108.39 77.4409 108.42 77.3709 108.42Z" fill="#252424"/>
<path d="M25.6504 19.8801C25.5104 19.8801 25.4004 19.7601 25.4004 19.6201L25.4904 2.94006C25.4904 2.80006 25.6004 2.69006 25.7404 2.69006C25.8804 2.69006 25.9904 2.81006 25.9904 2.95006L25.9004 19.6301C25.9004 19.7701 25.7904 19.8801 25.6504 19.8801Z" fill="#252424"/>
<path d="M29.9104 19.29C29.7704 19.29 29.6604 19.18 29.6604 19.04L29.3604 2.91002C29.3604 2.77002 29.4704 2.65002 29.6104 2.65002C29.7504 2.65002 29.8604 2.76002 29.8604 2.90002L30.1504 19.03C30.1604 19.18 30.0504 19.29 29.9104 19.29Z" fill="#252424"/>
<path d="M34.4704 20.26C34.3304 20.26 34.2204 20.15 34.2204 20.01L34.1504 2.62C34.1504 2.48 34.2604 2.37 34.4004 2.37C34.5404 2.37 34.6504 2.48 34.6504 2.62L34.7304 20C34.7304 20.15 34.6104 20.25 34.4704 20.26Z" fill="#252424"/>
<path d="M39.0507 18.73C38.9107 18.73 38.8007 18.62 38.8007 18.49C38.6107 13.55 38.6107 8.52999 38.8007 3.57999C38.8107 3.43999 38.9007 3.32999 39.0607 3.33999C39.2007 3.34999 39.3107 3.45999 39.3007 3.59999C39.1107 8.53999 39.1107 13.54 39.3007 18.47C39.3107 18.61 39.2007 18.73 39.0507 18.73Z" fill="#252424"/>
<path d="M43.2105 19.6201C43.0705 19.6201 42.9505 19.5001 42.9605 19.3601L43.1905 3.31006C43.1905 3.17006 43.3105 3.06006 43.4405 3.06006C43.5805 3.06006 43.6905 3.18006 43.6905 3.32006L43.4605 19.3701C43.4605 19.5101 43.3505 19.6201 43.2105 19.6201Z" fill="#252424"/>
<path d="M46.4302 19.65C46.2902 19.65 46.1802 19.54 46.1802 19.4L46.1602 5.13C46.1602 4.99 46.2702 4.88 46.4102 4.88C46.5502 4.88 46.6602 4.99 46.6602 5.13L46.6802 19.4C46.6802 19.53 46.5702 19.65 46.4302 19.65Z" fill="#252424"/>
<path d="M122.37 22.34C115.36 23.07 108.29 23.3 101.25 23.05C102.08 31.63 102.69 40.22 103.07 48.83C109.7 49.25 116.33 49.66 122.97 50.08C123.48 41.03 123.39 31.94 122.37 22.34Z" fill="#6BA8C9"/>
<g opacity="0.1294">
<path d="M106.27 47.05C106.53 44.48 106.21 41.88 106.01 39.32C105.78 36.57 105.67 33.8 105.55 31.04C105.44 28.71 105.42 26.31 104.68 24.08C103.98 21.77 100.56 22.7 101.14 25.06C102.64 29.6 102.18 36.64 102.48 43.78C102.55 44.54 102.6 45.3 102.74 46.06C102.77 46.44 102.8 46.82 102.92 47.19C102.98 47.87 102.85 47.52 103.08 48.11C103.71 49.77 106.27 49.24 106.25 47.47C106.15 48.2 106.25 47.53 106.27 47.05Z" fill="#252424"/>
</g>
<g opacity="0.1294">
<path d="M115.201 49.76C115.041 48.11 112.601 47.96 112.181 49.55C111.781 51.07 110.971 53.5 110.731 53.9C109.491 56.53 107.921 58.98 106.601 61.57C105.301 63.86 103.641 65.94 102.531 68.34C102.151 69.19 101.951 69.12 101.761 69.63C101.481 69.46 101.171 69.32 100.841 69.25C100.661 69.22 100.491 69.23 100.331 69.27C101.011 70.06 101.381 71.15 101.111 72.14C101.041 72.25 100.991 72.37 100.961 72.53C100.881 72.74 100.601 73.44 100.191 73.98C100.131 74.05 100.061 74.14 100.021 74.18C99.9607 74.23 99.9107 74.29 99.8707 74.35C99.8607 74.35 99.8607 74.36 99.8507 74.36C99.7107 74.46 99.1607 74.72 98.9607 74.82C97.4707 75.37 96.1107 75.67 95.9107 76.2C95.6007 76.69 95.8907 77.29 96.3507 77.5C96.4807 78.2 97.0407 78.83 97.9007 78.82C98.4307 78.83 98.9507 78.82 99.4807 78.82C99.4607 78.95 99.4607 79.08 99.4907 79.2C99.5007 79.2 99.5107 79.2 99.5307 79.21C99.7507 79.3 99.9507 79.41 100.141 79.54C100.091 79.82 100.181 80.12 100.481 80.28C100.651 80.39 100.801 80.51 100.941 80.64C100.971 80.75 101.001 80.89 101.031 81.07C101.101 81.86 101.041 81.95 100.761 82.78C100.531 83.31 100.471 83.54 99.9507 84.03C99.8807 84.08 99.8107 84.13 99.7507 84.18C99.5807 84.32 99.3507 84.38 99.2307 84.56C98.9107 84.92 99.1307 85.54 99.5907 85.66C99.7507 85.69 99.9007 85.67 100.051 85.62C100.131 85.74 100.251 85.85 100.381 85.91C100.271 86.14 100.291 86.4 100.391 86.63C100.391 86.64 100.381 86.65 100.381 86.66C100.351 86.67 100.311 86.67 100.281 86.68C99.4307 86.98 99.5207 88.32 100.401 88.53C100.521 88.56 100.641 88.59 100.761 88.62C100.771 88.63 100.771 88.63 100.781 88.63C100.881 88.7 101.041 88.88 101.101 88.94C101.151 89.01 101.191 89.09 101.211 89.14C101.261 89.29 101.311 89.49 101.341 89.61C101.341 89.68 101.341 89.75 101.341 89.82C101.331 89.85 101.331 89.88 101.321 89.91C101.251 90.31 101.251 90.46 101.071 90.87C100.731 91.37 100.061 92.06 99.0407 92.54C98.4607 92.77 97.8507 92.92 97.2407 93.01C97.1607 93.03 97.3307 93 97.3707 93C96.7207 93.08 96.0907 93.21 95.4507 93.35C95.1307 93.39 94.7807 93.59 94.7607 93.94C94.7707 94.89 95.5307 94.66 96.0807 94.61C96.5307 94.57 96.9907 94.55 97.4407 94.49C97.4607 94.91 97.6507 95.32 98.0907 95.57C98.4407 95.73 98.8107 95.91 99.2007 96.06C98.8607 96.49 98.8307 97.18 99.4507 97.56C99.4607 97.57 99.4707 97.58 99.4907 97.59C99.4907 97.59 99.5107 97.61 99.5607 97.66C99.6207 97.71 99.6707 97.78 99.7307 97.84C99.7907 97.93 99.8507 98.05 99.8907 98.12C99.9607 98.31 100.011 98.5 100.051 98.7C100.091 99.61 100.141 99.24 99.9307 100.09C99.7207 100.52 99.7407 100.5 99.6407 100.68C99.5507 100.78 99.4507 100.88 99.3507 100.97C98.8707 101.36 99.0807 101.26 98.6207 101.54C98.2007 101.69 98.0107 102.18 98.2107 102.51C98.0007 102.74 97.9007 103.07 98.0107 103.43C98.1807 104.36 98.3307 105.29 98.5407 106.21C98.5507 106.36 98.5907 106.49 98.6407 106.6C98.8007 108.53 98.9507 111.52 98.9807 113.43C99.0907 116.44 98.7207 119.55 99.4607 122.48C99.7507 123.66 101.371 124.09 102.201 123.2C102.791 122.59 102.761 121.66 102.711 120.87C102.461 116.27 102.621 111.66 101.981 107.09C101.921 106.59 101.861 106.08 101.791 105.58C101.991 104.86 101.841 104.94 101.981 104.29C101.931 103.7 102.121 103.06 101.901 102.51C101.881 102.46 101.861 102.42 101.841 102.38C102.141 102.09 102.331 101.68 102.561 101.35C103.421 99.78 103.291 97.61 102.011 96.3C101.871 96.17 101.721 96.04 101.571 95.92C102.031 95.4 102.051 94.52 101.531 94.02C101.261 93.78 100.931 93.61 100.551 93.62C100.541 93.62 100.531 93.62 100.521 93.62C100.411 93.6 100.321 93.58 100.251 93.56C100.461 93.45 100.661 93.33 100.871 93.2C100.991 93.48 101.221 93.72 101.551 93.8C102.191 93.94 102.771 93.5 103.321 93.22C104.991 92.12 105.601 89.65 104.441 87.97C103.861 87.11 102.941 86.37 101.911 86.15C101.881 86 101.821 85.86 101.721 85.75C101.851 85.69 101.981 85.63 102.111 85.58C103.921 84.66 104.711 82.21 103.701 80.42C103.431 79.84 103.001 79.35 102.491 78.96C103.321 78.58 103.801 77.5 103.181 76.55C102.921 76.08 102.461 75.84 101.961 75.73C102.051 75.67 102.151 75.62 102.241 75.56C103.051 74.9 102.971 75.05 103.391 73.95C103.621 73.13 103.541 72.21 103.211 71.41C103.301 71.38 103.381 71.35 103.461 71.3C103.771 71.12 103.951 70.82 104.091 70.51C104.291 70.57 104.501 70.58 104.701 70.52C104.921 70.44 105.121 70.33 105.271 70.15C105.331 70.08 105.701 69.6 105.791 69.45C106.461 68.39 107.121 67.31 107.771 66.23C108.821 64.47 109.931 62.74 110.851 60.9C111.081 60.34 111.581 59.79 111.401 59.14C111.341 58.89 111.201 58.7 111.021 58.56C112.281 56.54 113.621 54.57 114.431 52.31C114.681 51.46 115.291 50.64 115.201 49.76Z" fill="#252424"/>
</g>
<g opacity="0.1294">
<path d="M69.9905 114.14C70.3705 114.12 70.6505 113.81 70.7305 113.46C70.9805 113.56 71.2305 113.65 71.4805 113.75C71.2305 114.13 71.1705 114.62 71.2705 115.06C71.3805 115.11 71.4905 115.16 71.6005 115.2C72.0405 115.4 72.4605 115.66 72.8605 115.92C72.9805 116 73.0905 116.09 73.2105 116.17C74.0705 115.95 74.4505 115.14 74.3405 114.39C74.3705 114.34 74.3905 114.29 74.4105 114.23C74.5305 113.75 74.1705 113.55 73.8205 113.41C73.6105 113.23 73.3305 113.1 72.9905 113.05C71.9705 112.47 70.9205 111.42 70.2405 111.02C69.1405 110.25 67.8705 109.81 66.7305 109.13C66.3805 108.91 66.0505 108.69 65.7205 108.48C65.4405 108.25 65.1005 107.97 64.7105 107.57C61.8705 104.66 60.2705 103.05 59.4905 99.4701C59.6005 99.0101 59.4205 98.4601 59.4305 97.9901C59.4205 97.9001 59.4205 97.8001 59.4105 97.7101C59.2405 96.2001 59.2005 94.6901 59.2205 93.1701C59.1805 93.1101 59.1405 93.0501 59.0905 93.0001C59.0205 91.8801 58.9405 90.7701 58.8605 89.6501C58.8505 85.4901 58.9705 81.2801 57.7305 77.2601C57.3505 76.0101 56.1605 75.7401 55.2605 76.1301C55.0205 75.1901 54.7705 74.2501 54.5005 73.3201C53.3405 69.6001 52.4305 68.0201 51.2005 64.8601C50.2705 62.1701 49.4105 59.4501 48.0605 56.9401C47.5605 56.1501 47.1605 54.9901 46.2005 54.6901C44.9605 54.3001 43.8105 55.7901 44.5005 56.9001C46.4705 59.6001 47.6905 62.7701 49.2205 65.7301C50.0605 67.5601 51.0405 69.3301 51.8405 71.1801C52.3805 72.3901 53.5005 75.7501 54.2205 77.9601C54.2305 78.0501 54.2405 78.1301 54.2605 78.2201C55.5105 83.1401 55.7105 87.3501 55.4605 94.1601C55.4105 96.7501 54.7205 100.27 54.1705 102.31C54.1505 102.31 54.1405 102.31 54.1205 102.31C53.0605 102.27 52.4705 103.69 53.2505 104.42C54.7305 105.59 56.1705 106.81 57.6705 107.96C59.1705 109.03 60.7705 109.93 62.3705 110.85C64.0305 111.76 65.7605 112.55 67.5005 113.29C68.1805 113.58 68.8805 113.84 69.5805 114.09C69.7305 114.16 69.8605 114.17 69.9905 114.14Z" fill="#252424"/>
</g>
<g opacity="0.1294">
<path d="M48.9806 101.49C48.9106 101.16 48.7206 100.84 48.4306 100.66C48.3706 100.61 48.3006 100.56 48.2306 100.52C48.3106 99.9701 48.2006 99.3701 48.2406 98.8101C48.2406 98.4001 48.3006 97.9401 47.9706 97.6301C47.4306 97.0501 46.3706 97.4901 46.4006 98.2801C46.4506 98.9901 46.3406 99.7301 46.4106 100.43C46.1706 100.74 46.1306 101.21 46.5106 101.67C46.5406 101.7 46.5706 101.73 46.5906 101.76C46.5906 101.76 46.5906 101.76 46.5906 101.77C46.5906 101.79 46.5906 101.81 46.5906 101.84C46.6906 103.7 49.4106 103.29 48.9806 101.49Z" fill="#252424"/>
</g>
<g opacity="0.1294">
<path d="M39.4402 99.6801C37.3402 99.7301 37.3402 102.81 39.4402 102.87C41.5402 102.81 41.5402 99.7301 39.4402 99.6801Z" fill="#252424"/>
</g>
<g opacity="0.1294">
<path d="M29.9305 97.5C27.8305 97.55 27.8305 100.63 29.9305 100.69C32.0305 100.64 32.0305 97.56 29.9305 97.5Z" fill="#252424"/>
</g>
<g opacity="0.1294">
<path d="M51.9306 9.69006C51.4506 8.40006 49.4306 8.82006 49.4606 10.1901C49.2106 13.3601 48.9206 16.4801 48.5606 18.7601C48.4906 19.3301 48.1706 19.8401 48.1806 20.4201C48.1206 22.5801 51.1406 22.4501 51.0206 20.2801C51.0106 19.7601 50.9206 20.1101 50.9706 19.3001C51.3106 17.2901 51.5306 15.2601 51.7506 13.2301C51.8406 12.4101 51.9306 11.6001 51.9906 10.7801C52.0106 10.4101 52.1106 10.0201 51.9306 9.69006Z" fill="#252424"/>
</g>
<path d="M75.8508 70.4401C75.5308 70.4401 75.2208 70.2301 75.1208 69.9101C74.4508 67.7701 73.8008 65.7501 73.1808 63.8301C68.7208 49.9701 65.7708 40.8201 68.2508 24.1301C68.4208 22.9801 70.7708 19.7601 71.8708 19.7601H72.1808C73.8908 19.7601 75.8508 19.7501 76.3608 22.5001C76.6508 24.0401 76.8508 25.3901 77.0208 26.6801C77.3408 23.8201 77.9608 21.2701 79.0808 20.3601C80.0608 19.5701 82.4908 18.7801 83.9508 20.4501C84.6108 21.2101 85.1208 22.3001 85.5008 23.5601C85.6308 22.9001 85.7908 22.2601 86.0108 21.5901C86.3308 20.6101 86.9808 18.5801 89.3608 18.6801C91.2108 18.7501 92.9108 20.2001 93.3108 22.0601L93.4408 22.6401C93.6408 23.5801 93.9008 24.7701 94.1608 26.1301C94.4008 25.0201 94.7308 23.9001 95.1608 22.6601C95.7308 21.0101 98.1808 20.1601 99.7908 20.6201C102.411 21.3701 102.511 24.5001 102.561 25.8401C102.761 31.6901 102.871 34.6401 102.991 37.6001C103.101 40.5501 103.221 43.5001 103.421 49.3301C103.431 49.7501 103.111 50.1001 102.681 50.1201C102.271 50.1401 101.911 49.8101 101.891 49.3801C101.691 43.5501 101.581 40.6001 101.461 37.6601C101.341 34.7001 101.231 31.7501 101.031 25.9001C100.961 23.8801 100.651 22.4701 99.3608 22.1001C98.4008 21.8201 96.8508 22.4201 96.5908 23.1701C95.4308 26.5501 95.0508 28.9701 95.0508 33.1401C95.0508 33.5501 94.7208 33.8901 94.3108 33.9001C93.8908 33.9201 93.5508 33.6001 93.5308 33.1901C93.2808 29.0901 92.4408 25.2601 91.9508 22.9701L91.8208 22.3901C91.5708 21.2201 90.4608 20.2601 89.3008 20.2201C88.4908 20.1901 87.9908 20.4701 87.4608 22.0801C86.6108 24.6901 86.6208 26.9701 86.6408 31.5201C86.6408 32.2301 86.6508 32.9901 86.6508 33.8201C86.6508 34.2401 86.3108 34.5801 85.8908 34.5801C85.4708 34.5801 85.1308 34.2401 85.1308 33.8201C85.1308 27.7401 84.2608 23.1201 82.8208 21.4801C82.0408 20.6001 80.5208 21.1901 80.0508 21.5701C78.6608 22.7001 78.0008 29.8201 78.3708 35.2001C78.4008 35.6001 78.1108 35.9501 77.7208 36.0001C77.3208 36.0601 76.9608 35.8001 76.8708 35.4101C76.2808 32.8001 76.0108 30.6901 75.7308 28.4501C75.5108 26.7101 75.2808 24.9201 74.8908 22.7901C74.6208 21.3501 74.0708 21.3001 72.2108 21.2901H72.0408C71.4608 21.6801 69.8908 23.6601 69.7808 24.3601C67.3508 40.7001 70.2508 49.7201 74.6508 63.3701C75.2708 65.3001 75.9208 67.3201 76.5908 69.4601C76.7208 69.8601 76.4908 70.2901 76.0908 70.4101C76.0108 70.4301 75.9308 70.4401 75.8508 70.4401Z" fill="#252424"/>
<path d="M74.4607 123.44C74.4407 123.44 74.4107 123.44 74.3907 123.44C73.9707 123.4 73.6607 123.03 73.7007 122.61C73.8007 121.55 73.9507 119.2 74.1407 116.48C74.4307 112.13 74.7907 106.71 75.1507 102.88C75.1907 102.46 75.5707 102.15 75.9807 102.19C76.4007 102.23 76.7107 102.6 76.6707 103.02C76.3207 106.83 75.9607 112.24 75.6707 116.58C75.4807 119.42 75.3307 121.67 75.2307 122.74C75.1807 123.15 74.8507 123.44 74.4607 123.44Z" fill="#252424"/>
<path d="M104.191 72.6401C104.081 72.6401 103.961 72.6101 103.851 72.5601C103.471 72.3701 103.321 71.9201 103.511 71.5401C104.291 69.9801 105.261 68.4401 106.201 66.9501C106.421 66.6001 106.641 66.2501 106.861 65.9101C109.921 61.0001 112.421 55.7401 114.301 50.2601C114.441 49.8601 114.871 49.6501 115.271 49.7901C115.671 49.9301 115.881 50.3601 115.741 50.7601C113.821 56.3501 111.271 61.7201 108.151 66.7201C107.931 67.0701 107.711 67.4201 107.491 67.7701C106.571 69.2301 105.621 70.7401 104.881 72.2201C104.741 72.4801 104.471 72.6401 104.191 72.6401Z" fill="#252424"/>
<path d="M102.151 123.44C101.741 123.44 101.401 123.12 101.391 122.71C101.291 119.98 101.191 116.06 101.091 112.27C100.991 108.48 100.881 104.56 100.791 101.84C100.781 101.42 101.101 101.07 101.521 101.05C101.961 101.02 102.291 101.36 102.311 101.78C102.411 104.51 102.511 108.43 102.611 112.22C102.711 116.01 102.821 119.93 102.911 122.65C102.921 123.07 102.601 123.42 102.181 123.44C102.171 123.44 102.161 123.44 102.151 123.44Z" fill="#252424"/>
<path d="M101.551 96.1801C101.151 96.1801 100.821 95.8701 100.791 95.4701C100.751 94.7601 100.791 94.0401 100.931 93.3401C101.011 92.9301 101.421 92.6601 101.821 92.7401C102.231 92.8201 102.501 93.2201 102.421 93.6301C102.311 94.2101 102.271 94.7901 102.311 95.3801C102.341 95.8001 102.021 96.1601 101.601 96.1901C101.581 96.1801 101.571 96.1801 101.551 96.1801Z" fill="#252424"/>
<path d="M102.151 86.6101C102.141 86.6101 102.131 86.6101 102.111 86.6101C101.691 86.5901 101.371 86.2301 101.391 85.8101L101.431 84.9001C101.451 84.4801 101.801 84.1601 102.231 84.1801C102.651 84.2001 102.971 84.5601 102.951 84.9801L102.911 85.8901C102.891 86.2901 102.561 86.6101 102.151 86.6101Z" fill="#252424"/>
<path d="M102.67 79.4001H102.66C102.24 79.3901 101.9 79.0501 101.91 78.6301C101.92 77.6701 102.01 76.7001 102.17 75.7601C102.24 75.3501 102.63 75.0601 103.05 75.1301C103.47 75.2001 103.75 75.5901 103.68 76.0101C103.54 76.8801 103.46 77.7701 103.44 78.6601C103.43 79.0701 103.09 79.4001 102.67 79.4001Z" fill="#252424"/>
<path d="M35.5204 57.0101C32.0804 57.0101 28.3604 56.7301 24.1704 56.1001C23.0204 55.9301 19.8004 53.5701 19.8004 52.4801V52.1701C19.7904 50.4501 19.7904 48.5001 22.5404 47.9901C24.0804 47.7001 25.4304 47.5101 26.7204 47.3301C23.8604 47.0101 21.3104 46.3901 20.4004 45.2701C19.6104 44.2901 18.8204 41.8601 20.4904 40.4001C21.2504 39.7401 22.3404 39.2301 23.6004 38.8501C22.9404 38.7201 22.3004 38.5601 21.6304 38.3401C20.6504 38.0201 18.6204 37.3601 18.7204 35.0001C18.7904 33.1501 20.2504 31.4501 22.1004 31.0501L22.6904 30.9201C23.6304 30.7201 24.8204 30.4601 26.1804 30.2001C25.0704 29.9601 23.9504 29.6301 22.7104 29.2001C21.0604 28.6301 20.2104 26.1801 20.6704 24.5701C21.4204 21.9501 24.4404 21.8501 25.8904 21.8001C31.7304 21.6001 34.6804 21.4901 37.6304 21.3701C40.5804 21.2501 43.5304 21.1401 49.3804 20.9401C49.7904 20.9201 50.1504 21.2501 50.1704 21.6801C50.1804 22.1001 49.8604 22.4501 49.4304 22.4701C43.5904 22.6701 40.6404 22.7801 37.6904 22.9001C34.7404 23.0201 31.7904 23.1301 25.9404 23.3301C23.9204 23.4001 22.5104 23.7101 22.1404 25.0001C21.8704 25.9601 22.4704 27.5101 23.2104 27.7701C26.5904 28.9301 29.0104 29.3101 33.1804 29.3101C33.5904 29.3101 33.9304 29.6401 33.9404 30.0501C33.9504 30.4601 33.6404 30.8101 33.2304 30.8301C29.1404 31.0801 25.3104 31.9101 23.0204 32.4101L22.4304 32.5401C21.2604 32.7901 20.3004 33.9001 20.2604 35.0601C20.2304 35.8701 20.5104 36.3701 22.1204 36.9001C24.7304 37.7501 27.0104 37.7401 31.5604 37.7201C32.2704 37.7201 33.0304 37.7101 33.8604 37.7101C34.2804 37.7101 34.6204 38.0501 34.6204 38.4701C34.6204 38.8901 34.2804 39.2301 33.8604 39.2301C27.7804 39.2301 23.1604 40.1001 21.5204 41.5401C20.6404 42.3201 21.2204 43.8401 21.6104 44.3101C22.7404 45.7001 29.8604 46.3601 35.2404 46.0001C35.6504 45.9801 35.9904 46.2601 36.0404 46.6501C36.1004 47.0401 35.8404 47.4101 35.4504 47.5001C32.8404 48.0901 30.7304 48.3601 28.4904 48.6401C26.7504 48.8601 24.9604 49.0901 22.8304 49.4801C21.3904 49.7501 21.3204 50.3001 21.3304 52.1601V52.3301C21.7204 52.9101 23.7004 54.4801 24.4004 54.5901C40.7404 57.0201 49.7604 54.1201 63.4104 49.7201C65.3404 49.1001 67.3604 48.4501 69.5004 47.7801C69.9004 47.6501 70.3304 47.8801 70.4504 48.2801C70.5804 48.6801 70.3504 49.1101 69.9504 49.2301C67.8104 49.9001 65.7904 50.5501 63.8704 51.1701C53.5004 54.5101 45.7604 57.0101 35.5204 57.0101Z" fill="#252424"/>
<path d="M122.731 50.66C122.711 50.66 122.681 50.66 122.661 50.66C121.611 50.56 119.261 50.41 116.551 50.23C112.191 49.94 106.771 49.58 102.931 49.22C102.511 49.18 102.201 48.81 102.241 48.39C102.281 47.97 102.661 47.66 103.071 47.7C106.891 48.05 112.301 48.42 116.651 48.7C119.481 48.89 121.721 49.04 122.801 49.14C123.221 49.18 123.531 49.55 123.491 49.97C123.461 50.37 123.121 50.66 122.731 50.66Z" fill="#252424"/>
<path d="M71.9207 20.93C71.8107 20.93 71.6907 20.9 71.5807 20.85C70.0207 20.08 68.4807 19.1 66.9907 18.16C66.6407 17.94 66.2907 17.72 65.9407 17.5C61.0307 14.44 55.7607 11.94 50.2907 10.06C49.8907 9.92004 49.6807 9.49004 49.8207 9.09004C49.9607 8.69004 50.3907 8.48004 50.7907 8.62004C56.3807 10.54 61.7507 13.09 66.7607 16.21C67.1107 16.43 67.4607 16.65 67.8107 16.87C69.2707 17.79 70.7707 18.74 72.2607 19.48C72.6407 19.67 72.7907 20.12 72.6007 20.5C72.4707 20.78 72.2007 20.93 71.9207 20.93Z" fill="#252424"/>
<path d="M101.861 23.5801C101.451 23.5801 101.111 23.2601 101.101 22.8501C101.091 22.4301 101.411 22.0801 101.831 22.0601C104.561 21.9601 108.481 21.8601 112.271 21.7601C116.061 21.6601 119.981 21.5501 122.701 21.4601C122.711 21.4601 122.721 21.4601 122.731 21.4601C123.141 21.4601 123.481 21.7801 123.491 22.1901C123.501 22.6101 123.181 22.9601 122.761 22.9801C120.031 23.0801 116.111 23.1801 112.321 23.2801C108.531 23.3801 104.611 23.4901 101.891 23.5801C101.881 23.5801 101.871 23.5801 101.861 23.5801Z" fill="#252424"/>
<path d="M94.9906 23.5901C94.4506 23.5901 93.9106 23.5401 93.3806 23.4301C92.9706 23.3501 92.7006 22.9501 92.7806 22.5401C92.8606 22.1301 93.2606 21.8601 93.6706 21.9401C94.2406 22.0501 94.8306 22.0901 95.4206 22.0501C95.8506 22.0301 96.2007 22.3401 96.2307 22.7601C96.2607 23.1801 95.9406 23.5401 95.5206 23.5701C95.3406 23.5801 95.1706 23.5901 94.9906 23.5901Z" fill="#252424"/>
<path d="M85.8906 22.9701C85.8806 22.9701 85.8706 22.9701 85.8506 22.9701L84.9406 22.9301C84.5206 22.9101 84.2006 22.5501 84.2206 22.1301C84.2406 21.7101 84.5806 21.3901 85.0206 21.4101L85.9306 21.4501C86.3506 21.4701 86.6706 21.8301 86.6506 22.2501C86.6406 22.6501 86.3006 22.9701 85.8906 22.9701Z" fill="#252424"/>
<path d="M78.6899 22.45H78.6799C77.7199 22.44 76.7499 22.35 75.7999 22.19C75.3799 22.12 75.0999 21.73 75.1699 21.31C75.2399 20.9 75.6299 20.61 76.0499 20.68C76.9199 20.82 77.8099 20.9 78.6999 20.92C79.1199 20.93 79.4599 21.27 79.4499 21.69C79.4499 22.11 79.1099 22.45 78.6899 22.45Z" fill="#252424"/>
<path d="M35.2007 106.21C35.1507 106.21 35.1007 106.21 35.0407 106.21C33.1907 106.14 31.4907 104.69 31.0907 102.83L30.9607 102.25C30.7607 101.31 30.5007 100.12 30.2407 98.76C30.0007 99.87 29.6707 100.99 29.2407 102.23C28.6707 103.88 26.2207 104.73 24.6107 104.27C21.9907 103.52 21.8907 100.39 21.8407 99.05C21.6407 93.21 21.5307 90.26 21.4107 87.31C21.2907 84.36 21.1807 81.41 20.9807 75.56C20.9707 75.14 21.2907 74.79 21.7207 74.77C22.1507 74.74 22.4907 75.08 22.5107 75.51C22.7107 81.35 22.8207 84.3 22.9407 87.25C23.0507 90.2 23.1707 93.15 23.3707 99C23.4407 101.02 23.7507 102.43 25.0407 102.8C26.0007 103.08 27.5507 102.48 27.8107 101.73C28.9707 98.35 29.3507 95.93 29.3507 91.76C29.3507 91.35 29.6807 91.01 30.0907 91C30.4907 90.98 30.8507 91.3 30.8707 91.71C31.1207 95.8 31.9507 99.64 32.4507 101.92L32.5807 102.51C32.8307 103.68 33.9407 104.64 35.1007 104.68C35.9107 104.71 36.4107 104.43 36.9407 102.82C37.7907 100.21 37.7807 97.93 37.7607 93.38C37.7607 92.67 37.7507 91.91 37.7507 91.08C37.7507 90.66 38.0907 90.32 38.5107 90.32C38.9307 90.32 39.2707 90.66 39.2707 91.08C39.2707 97.16 40.1407 101.78 41.5807 103.42C42.3607 104.31 43.8807 103.71 44.3507 103.33C45.7407 102.2 46.4007 95.08 46.0307 89.7C46.0007 89.3 46.2907 88.95 46.6807 88.9C47.0807 88.84 47.4407 89.1 47.5307 89.49C48.1207 92.1 48.3907 94.21 48.6707 96.45C48.8907 98.19 49.1207 99.98 49.5107 102.11C49.7807 103.55 50.3207 103.61 52.1907 103.61H52.3607C52.9407 103.22 54.5107 101.24 54.6207 100.54C57.0507 84.2 54.1507 75.18 49.7507 61.53C49.1307 59.6 48.4807 57.58 47.8107 55.44C47.6807 55.04 47.9107 54.61 48.3107 54.49C48.7107 54.36 49.1407 54.59 49.2607 54.99C49.9307 57.13 50.5807 59.15 51.2007 61.07C55.6607 74.93 58.6107 84.08 56.1307 100.77C55.9607 101.92 53.6007 105.14 52.5107 105.14H52.2007C50.4907 105.14 48.5307 105.15 48.0207 102.4C47.7307 100.86 47.5307 99.51 47.3607 98.22C47.0407 101.08 46.4207 103.63 45.3007 104.54C44.3207 105.33 41.8907 106.12 40.4307 104.45C39.7707 103.69 39.2607 102.6 38.8807 101.34C38.7507 102 38.5907 102.64 38.3707 103.31C38.0807 104.25 37.4407 106.21 35.2007 106.21Z" fill="#252424"/>
<path d="M48.5105 22.68C48.4905 22.68 48.4605 22.68 48.4405 22.68C48.0205 22.64 47.7105 22.27 47.7505 21.85C48.1005 18.03 48.4705 12.62 48.7505 8.26999C48.9405 5.43999 49.0905 3.19999 49.1905 2.11999C49.2305 1.69999 49.5905 1.38999 50.0205 1.42999C50.4405 1.46999 50.7505 1.83999 50.7105 2.25999C50.6105 3.30999 50.4605 5.65999 50.2805 8.36999C49.9905 12.73 49.6305 18.15 49.2705 21.99C49.2305 22.38 48.9005 22.68 48.5105 22.68Z" fill="#252424"/>
<path d="M9.39033 75.14C9.31033 75.14 9.22033 75.13 9.14033 75.1C8.74033 74.96 8.53033 74.53 8.67033 74.13C10.5903 68.54 13.1403 63.17 16.2603 58.17C16.4803 57.82 16.7003 57.46 16.9303 57.11C17.8503 55.65 18.8003 54.15 19.5403 52.66C19.7303 52.28 20.1903 52.13 20.5603 52.32C20.9403 52.51 21.0903 52.96 20.9003 53.34C20.1303 54.89 19.1603 56.43 18.2203 57.92C18.0003 58.27 17.7803 58.62 17.5603 58.97C14.5003 63.88 12.0003 69.15 10.1203 74.62C10.0003 74.94 9.71033 75.14 9.39033 75.14Z" fill="#252424"/>
<path d="M22.8602 23.8199C22.4502 23.8199 22.1102 23.4999 22.1002 23.0899C22.0002 20.3599 21.9002 16.4399 21.8002 12.6499C21.7002 8.85993 21.5902 4.93993 21.5002 2.21993C21.4902 1.79993 21.8102 1.44993 22.2302 1.42993C22.2402 1.42993 22.2502 1.42993 22.2602 1.42993C22.6702 1.42993 23.0102 1.74993 23.0202 2.15993C23.1202 4.88993 23.2202 8.80993 23.3202 12.5999C23.4202 16.3899 23.5302 20.3099 23.6202 23.0299C23.6302 23.4499 23.3102 23.7999 22.8902 23.8199C22.8802 23.8199 22.8702 23.8199 22.8602 23.8199Z" fill="#252424"/>
<path d="M22.7299 32.15C22.6799 32.15 22.6299 32.15 22.5799 32.14C22.1699 32.06 21.8999 31.66 21.9799 31.25C22.0899 30.67 22.1299 30.09 22.0899 29.5C22.0599 29.08 22.3799 28.72 22.7999 28.69C23.2199 28.67 23.5799 28.98 23.6099 29.4C23.6599 30.11 23.6099 30.83 23.4699 31.54C23.4099 31.9 23.0899 32.15 22.7299 32.15Z" fill="#252424"/>
<path d="M22.2199 40.6999C22.2099 40.6999 22.1999 40.6999 22.1799 40.6999C21.7599 40.6799 21.4399 40.3199 21.4599 39.8999L21.4999 38.9899C21.5199 38.5699 21.8599 38.2499 22.2999 38.2699C22.7199 38.2899 23.0399 38.6499 23.0199 39.0699L22.9799 39.9799C22.9599 40.3799 22.6199 40.6999 22.2199 40.6999Z" fill="#252424"/>
<path d="M21.4902 49.76C21.4502 49.76 21.4102 49.76 21.3702 49.75C20.9502 49.68 20.6702 49.29 20.7402 48.87C20.8802 48 20.9602 47.11 20.9802 46.22C20.9902 45.8 21.3302 45.47 21.7402 45.47H21.7502C22.1702 45.48 22.5102 45.82 22.5002 46.24C22.4902 47.2 22.4002 48.17 22.2402 49.11C22.1802 49.49 21.8602 49.76 21.4902 49.76Z" fill="#252424"/>
<path d="M75.0305 103.92C74.6205 103.92 74.2805 103.6 74.2705 103.18C74.2605 102.76 74.5805 102.41 75.0105 102.39C80.8505 102.19 83.8005 102.08 86.7505 101.96C89.7005 101.85 92.6505 101.73 98.5005 101.53C100.241 101.47 101.911 101.23 102.301 99.8601C102.581 98.9001 101.981 97.3501 101.231 97.0901C97.8505 95.9301 95.4305 95.5501 91.2605 95.5501C90.8505 95.5501 90.5105 95.2201 90.5005 94.8101C90.4905 94.4001 90.8005 94.0501 91.2205 94.0301C95.3105 93.7801 99.1405 92.9501 101.431 92.4501L102.021 92.3201C103.191 92.0701 104.151 90.9601 104.191 89.8001C104.221 88.9901 103.941 88.4901 102.331 87.9601C99.7205 87.1101 97.4405 87.1201 92.8905 87.1401C92.1805 87.1401 91.4205 87.1501 90.5905 87.1501C90.1705 87.1501 89.8305 86.8101 89.8305 86.3901C89.8305 85.9701 90.1705 85.6301 90.5905 85.6301C96.6705 85.6301 101.291 84.7601 102.931 83.3201C103.811 82.5401 103.221 81.0201 102.841 80.5501C101.711 79.1601 94.5905 78.5001 89.2105 78.8601C88.8105 78.8901 88.4605 78.6001 88.4105 78.2101C88.3505 77.8201 88.6105 77.4501 89.0005 77.3601C91.6105 76.7701 93.7205 76.5001 95.9505 76.2201C97.6905 76.0001 99.4805 75.7701 101.611 75.3801C103.051 75.1101 103.111 74.5601 103.111 72.7001V72.5301C102.721 71.9501 100.741 70.3801 100.041 70.2701C83.7005 67.8401 74.6805 70.7401 61.0305 75.1401C59.1005 75.7601 57.0805 76.4101 54.9405 77.0801C54.5405 77.2101 54.1105 76.9801 53.9905 76.5801C53.8605 76.1801 54.0905 75.7501 54.4905 75.6301C56.6305 74.9601 58.6505 74.3101 60.5705 73.6901C74.4305 69.2301 83.5805 66.2801 100.271 68.7601C101.421 68.9301 104.641 71.2901 104.641 72.3801V72.6901C104.651 74.4101 104.651 76.3601 101.901 76.8701C100.361 77.1601 99.0105 77.3601 97.7205 77.5301C100.581 77.8501 103.131 78.4701 104.041 79.5901C104.831 80.5701 105.621 83.0001 103.951 84.4601C103.191 85.1201 102.101 85.6301 100.841 86.0101C101.491 86.1401 102.141 86.3001 102.811 86.5201C103.791 86.8401 105.821 87.5001 105.721 89.8601C105.651 91.7101 104.201 93.4101 102.341 93.8101L101.751 93.9401C100.811 94.1401 99.6305 94.4001 98.2705 94.6601C99.3805 94.9001 100.501 95.2301 101.741 95.6601C103.391 96.2301 104.241 98.6801 103.781 100.29C103.031 102.91 99.9005 103.01 98.5605 103.06C92.7205 103.26 89.7705 103.37 86.8205 103.49C83.8705 103.61 80.9205 103.72 75.0705 103.92C75.0405 103.92 75.0305 103.92 75.0305 103.92Z" fill="#252424"/>
<path d="M21.4007 77.1801C21.3807 77.1801 21.3507 77.1801 21.3307 77.1801C17.5207 76.8301 12.1107 76.4701 7.7607 76.1801C4.9207 75.9901 2.6807 75.8401 1.6007 75.7401C1.1807 75.7001 0.870701 75.3301 0.910701 74.9101C0.950701 74.4901 1.3107 74.1901 1.7407 74.2201C2.7907 74.3201 5.1407 74.4701 7.8607 74.6501C12.2107 74.9401 17.6307 75.3001 21.4707 75.6601C21.8907 75.7001 22.2007 76.0701 22.1607 76.4901C22.1207 76.8801 21.7907 77.1801 21.4007 77.1801Z" fill="#252424"/>
<path d="M73.8707 116.29C73.7907 116.29 73.7007 116.28 73.6207 116.25C68.0307 114.33 62.6607 111.78 57.6607 108.66C57.3107 108.44 56.9607 108.22 56.6007 108C55.1407 107.08 53.6407 106.13 52.1507 105.39C51.7707 105.2 51.6207 104.75 51.8107 104.37C52.0007 103.99 52.4607 103.84 52.8307 104.03C54.3907 104.8 55.9307 105.78 57.4107 106.71C57.7607 106.93 58.1107 107.15 58.4607 107.37C63.3707 110.43 68.6407 112.93 74.1107 114.81C74.5107 114.95 74.7207 115.38 74.5807 115.78C74.4807 116.09 74.1807 116.29 73.8707 116.29Z" fill="#252424"/>
<path d="M1.68113 103.42C1.27113 103.42 0.931127 103.1 0.921127 102.69C0.911127 102.27 1.23113 101.92 1.65113 101.9C4.37113 101.81 8.28113 101.7 12.0611 101.6C15.8611 101.5 19.7911 101.39 22.5211 101.3C22.9511 101.28 23.2911 101.61 23.3111 102.03C23.3211 102.45 23.0011 102.8 22.5811 102.82C19.8511 102.92 15.9111 103.02 12.1111 103.12C8.33113 103.22 4.43113 103.33 1.71113 103.42C1.70113 103.42 1.69113 103.42 1.68113 103.42Z" fill="#252424"/>
<path d="M30.8809 102.95C30.8309 102.95 30.7809 102.95 30.7309 102.94C30.1609 102.83 29.5709 102.79 28.9809 102.83C28.5509 102.86 28.2009 102.54 28.1709 102.12C28.1409 101.7 28.4609 101.34 28.8809 101.31C29.6009 101.26 30.3109 101.31 31.0209 101.45C31.4309 101.53 31.7009 101.93 31.6209 102.34C31.5609 102.7 31.2409 102.95 30.8809 102.95Z" fill="#252424"/>
<path d="M39.4209 103.47C39.4109 103.47 39.4009 103.47 39.3809 103.47L38.4709 103.43C38.0509 103.41 37.7309 103.05 37.7509 102.63C37.7709 102.21 38.1109 101.89 38.5509 101.91L39.4609 101.95C39.8809 101.97 40.2009 102.33 40.1809 102.75C40.1609 103.15 39.8309 103.47 39.4209 103.47Z" fill="#252424"/>
<path d="M48.4812 104.2C48.4412 104.2 48.4012 104.2 48.3612 104.19C47.4912 104.05 46.6012 103.97 45.7112 103.95C45.2912 103.94 44.9512 103.6 44.9612 103.18C44.9712 102.76 45.3112 102.43 45.7212 102.43H45.7312C46.6912 102.44 47.6612 102.53 48.6012 102.69C49.0212 102.76 49.3012 103.15 49.2312 103.57C49.1712 103.93 48.8512 104.2 48.4812 104.2Z" fill="#252424"/>
<path d="M85.4205 16.95C85.2805 16.95 85.1305 16.91 85.0005 16.83L68.9405 6.35002C68.5905 6.12002 68.4905 5.65002 68.7205 5.30002C68.9505 4.95002 69.4205 4.85002 69.7705 5.08002L85.8405 15.56C86.1905 15.79 86.2905 16.26 86.0605 16.61C85.9205 16.83 85.6705 16.95 85.4205 16.95Z" fill="#252424"/>
<path d="M95.4403 14.83C95.2903 14.83 95.1403 14.79 95.0103 14.7L79.8203 4.24997C79.4703 4.00997 79.3903 3.53997 79.6203 3.18997C79.8603 2.83997 80.3303 2.75997 80.6803 2.98997L95.8603 13.44C96.2103 13.68 96.2903 14.15 96.0603 14.5C95.9203 14.72 95.6803 14.83 95.4403 14.83Z" fill="#252424"/>
<path d="M53.9009 117.37C53.8809 117.37 53.8509 117.37 53.8309 117.37C46.2009 116.7 38.6409 115.14 31.3709 112.73C30.9709 112.6 30.7509 112.17 30.8909 111.77C31.0209 111.37 31.4509 111.15 31.8509 111.29C39.0109 113.66 46.4509 115.2 53.9609 115.86C54.3809 115.9 54.6909 116.27 54.6509 116.69C54.6209 117.07 54.2909 117.37 53.9009 117.37Z" fill="#252424"/>
</svg>
