<svg width="146" height="127" fill="none" xmlns="http://www.w3.org/2000/svg"><path d="M125.843 45.902c2.63-1.09 5.75-.39 8.12 1.2 2.37 1.59 4.11 3.94 5.62 6.36 2.68 4.27 4.88 9.06 4.86 14.1-.02 5.04-2.73 10.32-7.44 12.12 2.48 2.15 3.42 5.91 2.24 8.98-1.18 3.07-4.38 5.23-7.67 5.18 2.29 9.94 4.41 20.31 1.7 30.05-.22.8-.55 1.67-1.3 2.02-.75.35-1.67.02-2.25-.57-.58-.59-.9-1.38-1.2-2.15-3.63-9.14-8.06-18.24-15.24-24.96.01 3.43-2.66 6.85-6.15 7.74-3.49.88-7.47-.86-9.18-4.02-5.1 6.09-12.25 10.91-20.18 11.43-7.93.52-16.42-4.16-18.65-11.79-3.26 4.46-9.42 6.57-14.73 5.04-5.31-1.53-9.41-6.59-9.8-12.1-4.26 5.94-13.62 5.21-17.41-.25-3.8-5.46-2.04-13.62 3.02-17.94-7.81-1.38-12.87-11.08-9.53-18.28 3.34-7.2 14.02-9.59 20.11-4.51-2.25-5.46-.42-11.84 2.82-16.77 3.04-4.64 7.52-8.58 12.92-9.83s11.71.7 15.49 4.54c.04-2.67 7.71 1.11 9.66-.73 1.95-1.84-1.89-9.34.69-10 2.04-.53 4.23-.76 6.25-.17 3.94 1.15 6.42 5.11 8.18 8.67 1.36-4.16 5.04-7.28 9.14-8.81 4.1-1.53 8.6-1.64 12.96-1.27 3.45.29 7.15 1.02 9.48 3.58 3.22 3.53 2.58 8.98 1.75 13.68 2.37-1.3 5.69-.46 7.15 1.82 1.46 2.31.84 5.68-1.43 7.64z" fill="#fff"/><path d="M131.313 126.922c-.85 0-1.66-.43-2.2-.97-.71-.71-1.07-1.63-1.39-2.44-3.12-7.85-7.18-16.7-13.79-23.44-.76 3.14-3.38 5.93-6.58 6.74-3.48.88-7.36-.57-9.49-3.42-5.73 6.45-12.97 10.39-20.02 10.86-8.32.54-16.19-4.07-19.02-10.93-3.62 3.89-9.54 5.62-14.66 4.15-5-1.44-9.02-5.88-10.14-10.95-2.04 1.95-4.81 3.04-7.87 3.04h-.09c-3.88-.03-7.55-1.86-9.58-4.78-3.59-5.17-2.61-13.05 2-17.97-3.3-1.07-6.21-3.6-7.99-7.01-2.06-3.95-2.28-8.46-.6-12.08 1.68-3.62 5.28-6.36 9.62-7.34 3.44-.77 6.92-.34 9.75 1.14-.97-4.64.31-10.15 3.62-15.2 3.53-5.39 8.31-9.01 13.44-10.2 5.2-1.2 11.39.43 15.48 4 .98-.76 2.76-.45 4.81-.08 1.63.29 3.86.69 4.46.11.59-.56.19-2.76-.1-4.37-.47-2.6-.96-5.3 1.17-5.84 2.59-.67 4.79-.72 6.71-.16 3.71 1.08 6.13 4.32 7.85 7.46 1.69-3.32 4.91-6.08 8.92-7.58 3.66-1.36 7.9-1.78 13.34-1.32 3.3.28 7.42.97 10.05 3.86 3.02 3.31 2.95 8.09 2.21 12.94 2.52-.57 5.36.47 6.78 2.69 1.26 1.97 1.2 4.57.04 6.7 2.11-.13 4.41.51 6.4 1.85 2.61 1.75 4.43 4.32 5.87 6.62 3.42 5.45 5.01 10.08 4.99 14.57-.02 5.32-2.77 10.23-6.83 12.4 2.04 2.44 2.71 6.04 1.57 9.01-1.17 3.04-4.17 5.3-7.4 5.68 2.32 10.19 4.06 20.11 1.46 29.48-.17.6-.56 2.01-1.76 2.57-.33.14-.68.21-1.03.21zm-18.03-29.55c.22 0 .43.08.59.23 7.6 7.1 12.08 16.76 15.46 25.27.28.72.55 1.4 1.01 1.86.32.33.88.58 1.27.39.43-.2.67-.89.83-1.47 2.58-9.29.67-19.31-1.71-29.63a.86.86 0 01.17-.74c.17-.21.41-.32.69-.32h.11c2.88 0 5.7-1.93 6.74-4.62 1.05-2.73.2-6.1-2-8.02-.23-.2-.34-.5-.28-.8.05-.3.26-.55.54-.66 4.03-1.54 6.86-6.2 6.88-11.32.02-4.15-1.49-8.48-4.73-13.64-1.34-2.14-3.03-4.54-5.37-6.1-2.36-1.58-5.16-2.01-7.31-1.12-.39.16-.85.01-1.07-.35a.872.872 0 01.17-1.11c1.93-1.66 2.5-4.57 1.27-6.48-1.22-1.9-4.03-2.62-6.01-1.53-.29.16-.65.14-.92-.06a.86.86 0 01-.35-.85c.81-4.56 1.43-9.7-1.53-12.95-2.22-2.44-5.93-3.04-8.92-3.3-5.17-.44-9.17-.05-12.59 1.22-4.22 1.57-7.44 4.66-8.62 8.27a.867.867 0 01-1.6.11c-1.6-3.26-3.92-7.14-7.64-8.23-1.62-.47-3.51-.41-5.8.17-.57.15-.14 2.56.1 3.86.42 2.33.86 4.74-.41 5.93-1.24 1.17-3.63.74-5.95.33-1.14-.2-3.03-.54-3.43-.27v.04c-.01.35-.22.66-.54.79a.87.87 0 01-.94-.2c-3.64-3.7-9.68-5.47-14.68-4.31-4.7 1.09-9.1 4.45-12.39 9.46-3.59 5.47-4.61 11.44-2.74 15.97.15.37.03.79-.29 1.03-.32.23-.76.22-1.07-.03-2.66-2.22-6.52-3.03-10.35-2.17-3.82.86-6.97 3.24-8.43 6.38-1.46 3.14-1.25 7.08.56 10.55 1.81 3.47 4.93 5.9 8.33 6.51.33.06.6.3.68.62a.88.88 0 01-.27.89c-4.95 4.22-6.26 11.91-2.87 16.78 1.71 2.46 4.84 4.01 8.17 4.03h.08c3.19 0 6.01-1.38 7.75-3.8.21-.3.59-.43.94-.33.35.1.6.41.63.77.36 5.14 4.22 9.91 9.17 11.33s10.75-.56 13.79-4.72c.19-.27.52-.4.85-.34.32.06.59.29.68.61 1.98 6.79 9.8 11.7 17.76 11.17 6.9-.45 14.03-4.51 19.57-11.12.18-.22.47-.33.75-.31.28.03.54.2.67.45 1.52 2.8 5.12 4.38 8.21 3.6 3.09-.78 5.5-3.81 5.5-6.9 0-.34.2-.66.52-.79.14 0 .26-.03.37-.03z" fill="#252424"/><path d="M77.883 95.272c-1.35 0-2.68-.23-3.92-.69-2.71-1.01-4.88-3.03-6.79-4.82a.858.858 0 01-.04-1.22c.33-.35.87-.37 1.22-.04 1.79 1.67 3.82 3.57 6.21 4.46 2.62.97 5.74.72 8.34-.69 2.47-1.33 4.5-3.7 5.59-6.5.17-.45.67-.67 1.12-.49.45.17.67.67.49 1.12-1.23 3.18-3.55 5.88-6.38 7.4-1.81.97-3.84 1.47-5.84 1.47zm-32.85-5.37c-.69 0-1.38-.09-2.05-.28a.869.869 0 01-.6-1.07c.13-.46.61-.72 1.07-.6 2.33.66 4.99-.21 6.48-2.11 1.49-1.91 1.69-4.7.49-6.8-1.94-3.39-6.48-4.01-8.34-4.13-2.53-.15-5.13.14-7.65.43l-14.55 1.66c-.47.06-.9-.29-.96-.76-.05-.47.29-.9.76-.96l14.55-1.66c2.59-.29 5.27-.6 7.95-.44 4.53.27 8.08 2.09 9.74 5 1.54 2.69 1.28 6.28-.63 8.72-1.48 1.91-3.87 3-6.26 3zm-17.78-22.99c-1.66 0-3.3-.59-4.51-1.7a.867.867 0 01-.05-1.22c.32-.35.87-.37 1.22-.05 1.4 1.29 3.72 1.61 5.51.76 1.76-.83 3.03-2.76 3.17-4.78.14-1.98-.75-4.06-2.32-5.44a.859.859 0 01-.08-1.22c.31-.36.86-.4 1.22-.08 1.98 1.72 3.09 4.35 2.91 6.86-.19 2.67-1.82 5.11-4.16 6.22-.91.44-1.91.65-2.91.65z" fill="#252424"/><path d="M92.673 22.732c-4.82 1.61-9.09 5.02-11.37 9.56-2.28 4.54-2.42 10.19 0 14.66 3.51 6.5 12.24 9.41 19.14 6.77 7.53-2.87 12.1-11.91 9.9-19.65-2.21-7.76-11.07-13.55-17.67-11.34zm9.14 20.31c-.68 1.59-2.21 3.06-3.76 3.82-3.51 1.72-7.51.24-9.59-2.95-2.14-3.28-1.83-7.7.38-10.88 1.1-1.58 2.49-2.82 4.43-3.18 1.79-.33 3.58-.01 4.99 1.13.91.16 1.78.54 2.5 1.14 1.39 1.15 1.99 3.45 2.09 5.19.13 1.89-.29 3.99-1.04 5.73z" fill="#fff"/><path d="M128.933 37.292c-2.01-.61-3.93-1.66-5.25-3.28-1.84-2.27-2.28-5.48-1.53-8.3.75-2.82 2.59-5.27 4.82-7.16-1.98-3.14-4.11-6.08-6.35-8.94-2.72 2.01-5.33 3.92-8.35 4.07-2.91.15-5.73-1.45-7.54-3.73-1.81-2.28-2.71-5.18-3.07-8.07-.1-.28-.25-.33-.36-.34-3.05-.23-6.11-.45-9.16-.68-.55 2.85-1.85 5.4-3.85 7.24-2 1.84-4.7 2.95-7.42 2.86-1.12-.04-2.22-.26-3.31-.5-1.78-.39-3.67-.87-4.93-2.2-2.43 1.65-4.61 3.41-6.71 5.24 1.08.74 1.53 1.75 1.91 2.73.81 2.11 1.43 4.42.92 6.62-.53 2.28-2.25 4.16-4.3 5.29s-4.42 1.57-6.75 1.71c-.65 3.34-.96 6.91-1.07 10.49 1.99.71 3.88 1.31 5.58 2.3 1.7.99 3.22 2.4 3.97 4.22.85 2.04.65 4.43-.24 6.46-.89 2.03-2.41 3.72-4.14 5.11 2.08 3.38 4.08 6.51 6.14 9.61 3.18-2.08 7.18-2.73 10.66-1.61.87.28 1.71.67 2.42 1.24.89.71 1.55 1.68 2.06 2.69 1.23 2.44 1.69 5.25 1.3 7.96 3.71.74 7.3 1.21 10.91 1.5-.22-3.75 1.4-7.51 4.36-9.57 2.96-2.06 7.2-2.19 10.17-.16 1.41.96 2.5 2.33 3.55 3.68 3.25-2.29 6.46-4.64 9.47-7.22-1.68-2.61-3.39-5.24-3.46-8.18-.07-3.07 1.78-6 4.35-7.67 2.57-1.67 5.79-2.17 8.84-1.85 1.05-3.57 1.94-7.05 2.68-10.57-2.21-.18-4.31-.38-6.32-.99zm-19.16 7.85c-1.24 2.74-3.25 5.1-5.67 6.87-1.41 1.03-2.96 1.88-4.63 2.41-6.82 2.19-14.82-1.65-17.99-8.08-2.31-4.69-2.21-10.48.27-15.09 2.48-4.61 7.25-7.89 12.43-8.55 4.64-.59 10.52 1.91 13.87 6.43 3.35 4.52 4.03 10.88 1.72 16.01z" fill="#6BA8C9"/><path d="M113.933 37.682c-.07-.53-.18-1.06-.31-1.58-.06-.12-.11-.25-.18-.37a32.99 32.99 0 00-3.43-5.39c-.22.15-.38.38-.46.63-.13.91.57 1.74.79 2.6.8 2.37 1.32 3.51 1.07 5.68.03.83-1.34 5.42-1.77 5.99-.52 1.01-1.11 1.98-1.8 2.89-.21.25-.28.36-.25.37-.34.27-.64.61-.97.89-.71.6-1.42 1.21-2.14 1.81-.19.14-.5.39-.72.62.12-.17-.2.13-.49.37-.16.1-.87.59-1.23.78-2.5.88-5.09 1.37-6.47 1.45-1.83.17-3.63-.3-5.04-.63-1-.29-1.88-1.29-2.96-1.08-.47.11-.77.47-.9.88.1.11.21.22.32.33.37.3.73.61 1.11.9 1.34.87 2.68 1.75 4.02 2.61 2.22.64 4.61.77 7.45.23-.05 0-.11.01-.17.02 2.99-.63 3.92-1.03 6.11-2.16 1.91-1.14 3.44-2.79 4.62-4.66.03-.05.07-.11.1-.16 0-.01.01-.01.01-.02 1.39-1.74 2.45-3.72 3.18-5.82.75-2.3.74-4.78.51-7.18zm7.28 24.44c-.3.02-.59.09-.85.24-.39.21-.62.56-.86.92-.22.28-.45.57-.65.87-.6.76-.76 1.09-2.08 2.43-.73.78-1.88 1.27-2.36 2.25-.01.02-.01.04-.02.06-.28.16-.56.33-.85.48-.53.33-1.22.49-1.59 1.01-1.15 1.37.63 3.38 2.15 2.45 1.58-.84 3.06-1.83 4.39-3.03.06-.07.13-.13.2-.2 1.04-.83 2.05-1.7 2.97-2.66.34-.36.74-.78 1.07-1.24-.35-.7-.65-1.41-.93-2.14-.21-.49-.41-.97-.59-1.44zm10.28-24.01c-.6 2.31-1.28 4.6-2.02 6.87-.34 1.05-.68 2.11-1.02 3.18.4.5 1.09.78 1.73.58.03-.01.06-.03.09-.04.55.78 1.99.68 2.26-.4.14-.5.34-.99.52-1.5.11-.05.22-.12.31-.2.65-.48.84-1.38 1.08-2.11.36-1.48.56-3 .62-4.53 0-.09.01-.18.02-.27-1.2-.5-2.39-1.03-3.59-1.58z" fill="#252424" opacity=".129"/><path d="M95.313 80.692h-.07c-3.81-.3-7.41-.79-11.01-1.51a.874.874 0 01-.69-.97c.36-2.52-.07-5.17-1.22-7.44-.54-1.07-1.14-1.86-1.83-2.41-.56-.45-1.26-.8-2.15-1.09-3.2-1.03-6.9-.47-9.92 1.51-.4.26-.93.15-1.19-.24-2.03-3.05-4.04-6.2-6.16-9.63a.867.867 0 01.19-1.13c1.84-1.48 3.14-3.09 3.89-4.79.86-1.96.95-4.07.23-5.78-.77-1.86-2.39-3.1-3.61-3.81-1.42-.82-3.01-1.38-4.69-1.97l-.74-.26a.853.853 0 01-.57-.84c.11-3.94.48-7.51 1.08-10.63.08-.39.4-.67.8-.7 2.62-.16 4.71-.68 6.39-1.6 1.99-1.09 3.44-2.86 3.87-4.73.49-2.11-.21-4.38-.89-6.12-.34-.89-.72-1.74-1.59-2.33a.89.89 0 01-.38-.66c-.02-.27.09-.53.29-.7 2.43-2.12 4.59-3.81 6.8-5.31.35-.24.82-.19 1.11.12 1.07 1.13 2.73 1.56 4.48 1.95 1.12.24 2.13.45 3.15.48 2.44.08 4.91-.88 6.8-2.63 1.81-1.67 3.05-4.01 3.58-6.77.08-.43.46-.73.91-.7l9.16.68c.5.04.91.36 1.11.9.02.06.04.13.05.19.4 3.15 1.37 5.72 2.89 7.64 1.76 2.22 4.38 3.53 6.82 3.4 2.8-.14 5.38-2.05 7.88-3.9.38-.28.91-.21 1.2.16 2.51 3.22 4.61 6.16 6.4 9.01.23.37.16.84-.17 1.12-1.62 1.37-3.72 3.64-4.54 6.72-.72 2.72-.2 5.6 1.37 7.54 1.08 1.33 2.75 2.37 4.83 3 1.92.58 3.93.78 6.17.96.25.02.48.15.62.34.15.2.2.45.15.7-.73 3.47-1.61 6.94-2.69 10.64-.12.4-.51.65-.92.62-3.13-.32-6.07.29-8.29 1.72-2.46 1.59-4.02 4.31-3.96 6.92.06 2.67 1.62 5.09 3.27 7.64l.06.09c.23.36.16.84-.16 1.12-3.13 2.68-6.43 5.08-9.54 7.27-.38.26-.9.19-1.18-.17-.94-1.21-2.01-2.58-3.36-3.49-2.62-1.78-6.48-1.72-9.2.16-2.63 1.82-4.2 5.28-3.99 8.8.01.25-.08.49-.26.67-.14.15-.36.24-.58.24zm-9.96-3.06c2.97.57 5.96.98 9.07 1.25.07-3.81 1.84-7.32 4.75-9.34 3.33-2.31 7.92-2.37 11.15-.16 1.3.89 2.36 2.11 3.23 3.21 2.68-1.9 5.49-3.96 8.16-6.21-1.59-2.48-3.12-5.05-3.19-7.99-.07-3.2 1.79-6.5 4.75-8.41 2.37-1.53 5.42-2.25 8.68-2.04.88-3.06 1.63-5.98 2.26-8.87-1.96-.17-3.76-.4-5.55-.94-2.41-.73-4.37-1.97-5.67-3.57-1.91-2.35-2.56-5.83-1.7-9.07.68-2.57 2.24-5.01 4.53-7.1-1.55-2.41-3.32-4.9-5.39-7.58-2.49 1.83-5.09 3.58-8.14 3.74-3 .16-6.16-1.4-8.27-4.06-1.66-2.09-2.73-4.82-3.2-8.11l-8.03-.6c-.68 2.8-2.03 5.19-3.95 6.96-2.22 2.06-5.15 3.18-8.03 3.09-1.17-.04-2.3-.27-3.46-.52-1.71-.37-3.47-.83-4.82-1.94-1.72 1.2-3.44 2.54-5.31 4.14.71.76 1.09 1.63 1.4 2.42.76 1.97 1.55 4.56.96 7.13-.55 2.37-2.27 4.51-4.73 5.85-1.76.96-3.87 1.54-6.44 1.76-.48 2.7-.79 5.74-.91 9.07l.14.05c1.76.62 3.43 1.2 4.99 2.11 1.45.84 3.38 2.33 4.33 4.63.89 2.14.8 4.74-.25 7.14-.77 1.76-2.05 3.42-3.8 4.95 1.8 2.91 3.54 5.62 5.27 8.25 3.31-1.89 7.24-2.37 10.67-1.26 1.09.35 1.97.8 2.69 1.38.89.71 1.64 1.68 2.3 2.98 1.22 2.35 1.73 5.04 1.51 7.66z" fill="#252424"/><path d="M94.903 48.412c-2.73 0-5.5-1.51-7.05-3.95-1.63-2.57-1.89-6.06-.69-9.1.81-2.06 2.21-3.78 3.94-4.86 1.92-1.19 4.2-1.56 6.26-1.01 2.32.63 4.05 1.66 5.15 3.06 1.32 1.69 2.04 3.96 2.03 6.38-.01 1.65-.35 3.07-1.03 4.22-.6 1.01-1.42 1.78-2.16 2.41-1.85 1.57-3.51 2.45-5.22 2.75-.41.07-.82.1-1.23.1zm.55-17.44c-1.17 0-2.39.34-3.44 1-1.42.88-2.57 2.31-3.24 4.02-1 2.54-.79 5.43.54 7.54 1.41 2.23 4.09 3.49 6.52 3.07 1.39-.24 2.79-.99 4.39-2.36.62-.53 1.32-1.18 1.79-1.97.52-.88.79-2.01.79-3.35.01-2.04-.58-3.92-1.66-5.31-.86-1.1-2.29-1.93-4.24-2.46a5.76 5.76 0 00-1.45-.18z" fill="#252424"/><path d="M95.483 55.902c-5.95 0-12.01-3.57-14.77-9.17-2.43-4.94-2.33-11.03.28-15.88 2.61-4.85 7.62-8.3 13.08-9 5.11-.66 11.28 2.2 14.68 6.78 3.56 4.8 4.27 11.42 1.81 16.87-1.26 2.79-3.32 5.28-5.95 7.21-1.57 1.15-3.21 2-4.88 2.54-1.37.44-2.81.65-4.25.65zm.12-32.42c-.44 0-.88.03-1.31.08-4.92.63-9.43 3.73-11.78 8.1-2.35 4.37-2.44 9.85-.25 14.3 3.07 6.22 10.67 9.65 16.95 7.64 1.49-.48 2.96-1.25 4.38-2.29 2.39-1.75 4.26-4.01 5.39-6.53 2.17-4.81 1.52-10.89-1.62-15.13-2.76-3.72-7.52-6.17-11.76-6.17z" fill="#252424"/><path d="M128.933 37.292c-2.01-.61-3.93-1.66-5.25-3.28-1.84-2.27-2.28-5.48-1.53-8.3.75-2.82 2.59-5.27 4.82-7.16-1.98-3.14-4.11-6.08-6.35-8.94-2.72 2.01-5.33 3.92-8.35 4.07-2.91.15-5.73-1.45-7.54-3.73-1.81-2.28-2.71-5.18-3.07-8.07-.1-.28-.25-.33-.36-.34-3.05-.23-6.11-.45-9.16-.68-.55 2.85-1.85 5.4-3.85 7.24-2 1.84-4.7 2.95-7.42 2.86-1.12-.04-2.22-.26-3.31-.5-1.78-.39-3.67-.87-4.93-2.2-2.43 1.65-4.61 3.41-6.71 5.24 1.08.74 1.53 1.75 1.91 2.73.81 2.11 1.43 4.42.92 6.62-.53 2.28-2.25 4.16-4.3 5.29s-4.42 1.57-6.75 1.71c-.65 3.34-.96 6.91-1.07 10.49 1.99.71 3.88 1.31 5.58 2.3 1.7.99 3.22 2.4 3.97 4.22.85 2.04.65 4.43-.24 6.46-.89 2.03-2.41 3.72-4.14 5.11 2.08 3.38 4.08 6.51 6.14 9.61 3.18-2.08 7.18-2.73 10.66-1.61.87.28 1.71.67 2.42 1.24.89.71 1.55 1.68 2.06 2.69 1.23 2.44 1.69 5.25 1.3 7.96 3.71.74 7.3 1.21 10.91 1.5-.22-3.75 1.4-7.51 4.36-9.57 2.96-2.06 7.2-2.19 10.17-.16 1.41.96 2.5 2.33 3.55 3.68 3.25-2.29 6.46-4.64 9.47-7.22-1.68-2.61-3.39-5.24-3.46-8.18-.07-3.07 1.78-6 4.35-7.67 2.57-1.67 5.79-2.17 8.84-1.85 1.05-3.57 1.94-7.05 2.68-10.57-2.21-.18-4.31-.38-6.32-.99zm-19.16 7.85c-1.24 2.74-3.25 5.1-5.67 6.87-1.41 1.03-2.96 1.88-4.63 2.41-6.82 2.19-14.82-1.65-17.99-8.08-2.31-4.69-2.21-10.48.27-15.09 2.48-4.61 7.25-7.89 12.43-8.55 4.64-.59 10.52 1.91 13.87 6.43 3.35 4.52 4.03 10.88 1.72 16.01z" fill="#6BA8C9"/><path d="M113.933 37.682c-.07-.53-.18-1.06-.31-1.58-.06-.12-.11-.25-.18-.37a32.99 32.99 0 00-3.43-5.39c-.22.15-.38.38-.46.63-.13.91.57 1.74.79 2.6.8 2.37 1.32 3.51 1.07 5.68.03.83-1.34 5.42-1.77 5.99-.52 1.01-1.11 1.98-1.8 2.89-.21.25-.28.36-.25.37-.34.27-.64.61-.97.89-.71.6-1.42 1.21-2.14 1.81-.19.14-.5.39-.72.62.12-.17-.2.13-.49.37-.16.1-.87.59-1.23.78-2.5.88-5.09 1.37-6.47 1.45-1.83.17-3.63-.3-5.04-.63-1-.29-1.88-1.29-2.96-1.08-.47.11-.77.47-.9.88.1.11.21.22.32.33.37.3.73.61 1.11.9 1.34.87 2.68 1.75 4.02 2.61 2.22.64 4.61.77 7.45.23-.05 0-.11.01-.17.02 2.99-.63 3.92-1.03 6.11-2.16 1.91-1.14 3.44-2.79 4.62-4.66.03-.05.07-.11.1-.16 0-.01.01-.01.01-.02 1.39-1.74 2.45-3.72 3.18-5.82.75-2.3.74-4.78.51-7.18zm7.28 24.44c-.3.02-.59.09-.85.24-.39.21-.62.56-.86.92-.22.28-.45.57-.65.87-.6.76-.76 1.09-2.08 2.43-.73.78-1.88 1.27-2.36 2.25-.01.02-.01.04-.02.06-.28.16-.56.33-.85.48-.53.33-1.22.49-1.59 1.01-1.15 1.37.63 3.38 2.15 2.45 1.58-.84 3.06-1.83 4.39-3.03.06-.07.13-.13.2-.2 1.04-.83 2.05-1.7 2.97-2.66.34-.36.74-.78 1.07-1.24-.35-.7-.65-1.41-.93-2.14-.21-.49-.41-.97-.59-1.44zm10.28-24.01c-.6 2.31-1.28 4.6-2.02 6.87-.34 1.05-.68 2.11-1.02 3.18.4.5 1.09.78 1.73.58.03-.01.06-.03.09-.04.55.78 1.99.68 2.26-.4.14-.5.34-.99.52-1.5.11-.05.22-.12.31-.2.65-.48.84-1.38 1.08-2.11.36-1.48.56-3 .62-4.53 0-.09.01-.18.02-.27-1.2-.5-2.39-1.03-3.59-1.58z" fill="#252424" opacity=".129"/><path d="M95.313 80.692h-.07c-3.81-.3-7.41-.79-11.01-1.51a.874.874 0 01-.69-.97c.36-2.52-.07-5.17-1.22-7.44-.54-1.07-1.14-1.86-1.83-2.41-.56-.45-1.26-.8-2.15-1.09-3.2-1.03-6.9-.47-9.92 1.51-.4.26-.93.15-1.19-.24-2.03-3.05-4.04-6.2-6.16-9.63a.867.867 0 01.19-1.13c1.84-1.48 3.14-3.09 3.89-4.79.86-1.96.95-4.07.23-5.78-.77-1.86-2.39-3.1-3.61-3.81-1.42-.82-3.01-1.38-4.69-1.97l-.74-.26a.853.853 0 01-.57-.84c.11-3.94.48-7.51 1.08-10.63.08-.39.4-.67.8-.7 2.62-.16 4.71-.68 6.39-1.6 1.99-1.09 3.44-2.86 3.87-4.73.49-2.11-.21-4.38-.89-6.12-.34-.89-.72-1.74-1.59-2.33a.89.89 0 01-.38-.66c-.02-.27.09-.53.29-.7 2.43-2.12 4.59-3.81 6.8-5.31.35-.24.82-.19 1.11.12 1.07 1.13 2.73 1.56 4.48 1.95 1.12.24 2.13.45 3.15.48 2.44.08 4.91-.88 6.8-2.63 1.81-1.67 3.05-4.01 3.58-6.77.08-.43.46-.73.91-.7l9.16.68c.5.04.91.36 1.11.9.02.06.04.13.05.19.4 3.15 1.37 5.72 2.89 7.64 1.76 2.22 4.38 3.53 6.82 3.4 2.8-.14 5.38-2.05 7.88-3.9.38-.28.91-.21 1.2.16 2.51 3.22 4.61 6.16 6.4 9.01.23.37.16.84-.17 1.12-1.62 1.37-3.72 3.64-4.54 6.72-.72 2.72-.2 5.6 1.37 7.54 1.08 1.33 2.75 2.37 4.83 3 1.92.58 3.93.78 6.17.96.25.02.48.15.62.34.15.2.2.45.15.7-.73 3.47-1.61 6.94-2.69 10.64-.12.4-.51.65-.92.62-3.13-.32-6.07.29-8.29 1.72-2.46 1.59-4.02 4.31-3.96 6.92.06 2.67 1.62 5.09 3.27 7.64l.06.09c.23.36.16.84-.16 1.12-3.13 2.68-6.43 5.08-9.54 7.27-.38.26-.9.19-1.18-.17-.94-1.21-2.01-2.58-3.36-3.49-2.62-1.78-6.48-1.72-9.2.16-2.63 1.82-4.2 5.28-3.99 8.8.01.25-.08.49-.26.67-.14.15-.36.24-.58.24zm-9.96-3.06c2.97.57 5.96.98 9.07 1.25.07-3.81 1.84-7.32 4.75-9.34 3.33-2.31 7.92-2.37 11.15-.16 1.3.89 2.36 2.11 3.23 3.21 2.68-1.9 5.49-3.96 8.16-6.21-1.59-2.48-3.12-5.05-3.19-7.99-.07-3.2 1.79-6.5 4.75-8.41 2.37-1.53 5.42-2.25 8.68-2.04.88-3.06 1.63-5.98 2.26-8.87-1.96-.17-3.76-.4-5.55-.94-2.41-.73-4.37-1.97-5.67-3.57-1.91-2.35-2.56-5.83-1.7-9.07.68-2.57 2.24-5.01 4.53-7.1-1.55-2.41-3.32-4.9-5.39-7.58-2.49 1.83-5.09 3.58-8.14 3.74-3 .16-6.16-1.4-8.27-4.06-1.66-2.09-2.73-4.82-3.2-8.11l-8.03-.6c-.68 2.8-2.03 5.19-3.95 6.96-2.22 2.06-5.15 3.18-8.03 3.09-1.17-.04-2.3-.27-3.46-.52-1.71-.37-3.47-.83-4.82-1.94-1.72 1.2-3.44 2.54-5.31 4.14.71.76 1.09 1.63 1.4 2.42.76 1.97 1.55 4.56.96 7.13-.55 2.37-2.27 4.51-4.73 5.85-1.76.96-3.87 1.54-6.44 1.76-.48 2.7-.79 5.74-.91 9.07l.14.05c1.76.62 3.43 1.2 4.99 2.11 1.45.84 3.38 2.33 4.33 4.63.89 2.14.8 4.74-.25 7.14-.77 1.76-2.05 3.42-3.8 4.95 1.8 2.91 3.54 5.62 5.27 8.25 3.31-1.89 7.24-2.37 10.67-1.26 1.09.35 1.97.8 2.69 1.38.89.71 1.64 1.68 2.3 2.98 1.22 2.35 1.73 5.04 1.51 7.66z" fill="#252424"/><path d="M94.903 48.412c-2.73 0-5.5-1.51-7.05-3.95-1.63-2.57-1.89-6.06-.69-9.1.81-2.06 2.21-3.78 3.94-4.86 1.92-1.19 4.2-1.56 6.26-1.01 2.32.63 4.05 1.66 5.15 3.06 1.32 1.69 2.04 3.96 2.03 6.38-.01 1.65-.35 3.07-1.03 4.22-.6 1.01-1.42 1.78-2.16 2.41-1.85 1.57-3.51 2.45-5.22 2.75-.41.07-.82.1-1.23.1zm.55-17.44c-1.17 0-2.39.34-3.44 1-1.42.88-2.57 2.31-3.24 4.02-1 2.54-.79 5.43.54 7.54 1.41 2.23 4.09 3.49 6.52 3.07 1.39-.24 2.79-.99 4.39-2.36.62-.53 1.32-1.18 1.79-1.97.52-.88.79-2.01.79-3.35.01-2.04-.58-3.92-1.66-5.31-.86-1.1-2.29-1.93-4.24-2.46a5.76 5.76 0 00-1.45-.18z" fill="#252424"/><path d="M95.483 55.902c-5.95 0-12.01-3.57-14.77-9.17-2.43-4.94-2.33-11.03.28-15.88 2.61-4.85 7.62-8.3 13.08-9 5.11-.66 11.28 2.2 14.68 6.78 3.56 4.8 4.27 11.42 1.81 16.87-1.26 2.79-3.32 5.28-5.95 7.21-1.57 1.15-3.21 2-4.88 2.54-1.37.44-2.81.65-4.25.65zm.12-32.42c-.44 0-.88.03-1.31.08-4.92.63-9.43 3.73-11.78 8.1-2.35 4.37-2.44 9.85-.25 14.3 3.07 6.22 10.67 9.65 16.95 7.64 1.49-.48 2.96-1.25 4.38-2.29 2.39-1.75 4.26-4.01 5.39-6.53 2.17-4.81 1.52-10.89-1.62-15.13-2.76-3.72-7.52-6.17-11.76-6.17zm-68.48 71.71c-.03 0-.06 0-.09-.01-2.66-.88-4.81-3.24-5.46-6.02-.65-2.74.15-5.76 2.07-7.88.11-.12.29-.13.41-.02s.13.29.02.41c-1.8 1.98-2.54 4.8-1.94 7.36.61 2.58 2.6 4.78 5.08 5.6.15.05.23.21.18.36-.04.12-.15.2-.27.2zm4.369-2.66c-.04 0-.08-.01-.12-.03-1.41-.66-2.5-2.02-2.83-3.54-.34-1.52.07-3.21 1.06-4.41.1-.12.28-.14.41-.04.12.1.14.28.04.41a4.665 4.665 0 00-.95 3.92c.3 1.35 1.26 2.55 2.52 3.14.14.07.21.24.14.38-.06.11-.16.17-.27.17zm-12.829-22.14c-.07 0-.14-.02-.19-.07-1.61-1.46-2.7-3.3-3.08-5.19-.43-2.12.07-4.31 1.32-5.87.96-1.2 2.36-2 3.48-2.65.14-.08.31-.03.39.1.08.14.03.31-.1.39-1.08.62-2.42 1.4-3.32 2.52-1.14 1.42-1.59 3.43-1.2 5.39.35 1.77 1.39 3.5 2.9 4.88.12.11.13.29.02.41-.07.06-.14.09-.22.09zm19.8-17.76c-.13 0-.26-.1-.28-.23-.68-3.46-.18-7.11 1.42-10.26 1.59-3.15 4.23-5.72 7.42-7.22.14-.07.32-.01.38.14.07.14.01.32-.14.38a15.363 15.363 0 00-7.15 6.96 15.447 15.447 0 00-1.37 9.89c.03.16-.07.31-.23.34h-.05zm8.84 47.57c-.99 0-1.99-.29-2.78-.89-1.25-.94-1.93-2.39-2.53-3.67a.277.277 0 01.14-.38c.14-.07.32-.01.38.14.57 1.22 1.22 2.6 2.35 3.45 1.63 1.22 4.17.98 5.54-.52.11-.12.29-.13.41-.02s.12.29.02.41c-.89.97-2.21 1.48-3.53 1.48zm29.479 6.74c-1.65 0-3.36-.45-4.94-1.33-2.07-1.15-3.87-2.98-5.36-5.43a.293.293 0 01.1-.4c.13-.08.31-.04.4.1 1.44 2.36 3.17 4.12 5.15 5.23 2.29 1.28 4.87 1.6 7.07.89.15-.05.31.03.36.19.05.15-.03.31-.19.36-.83.25-1.7.39-2.59.39zm10.091-2.83c-2.31 0-4.47-1.39-6.49-2.84a.288.288 0 01.33-.47c2.19 1.57 4.54 3.07 6.98 2.67.16-.03.31.08.33.24a.28.28 0 01-.24.33c-.3.04-.61.07-.91.07zm19.97-3.34c-1.07 0-2.17-.36-3.12-1.06-1.25-.91-2.05-2.24-2.18-3.64-.01-.16.1-.3.26-.31.16-.01.3.1.31.26.11 1.24.82 2.41 1.94 3.23 1.12.81 2.46 1.12 3.67.85.16-.04.31.06.34.22.04.15-.06.31-.22.34-.32.07-.66.11-1 .11zm23.97-11.24a.288.288 0 01-.06-.57c1-.22 1.63-1.24 2.14-2.18.31-.58.61-1.19.43-1.74-.11-.36-.42-.64-.74-.93-.31-.28-.62-.57-.82-.96a.296.296 0 01.13-.39c.14-.07.32-.01.39.13.15.3.41.54.69.79.36.33.74.68.9 1.18.24.76-.12 1.53-.48 2.18-.62 1.13-1.35 2.21-2.52 2.47-.02.02-.04.02-.06.02zm2.63-12.6c-.08 0-.17-.04-.23-.11a.29.29 0 01.05-.41c2.76-2.21 4.54-5.63 4.78-9.15.24-3.52-1.08-7.15-3.51-9.71-.11-.11-.11-.3.01-.41.12-.11.3-.11.41.01 2.55 2.67 3.92 6.46 3.67 10.15-.25 3.68-2.11 7.26-4.99 9.57a.38.38 0 01-.19.06zm-4.81-1.1c-.07 0-.13-.02-.18-.07a.297.297 0 01-.04-.41c1.02-1.22 2.08-2.49 2.74-3.96.72-1.59.84-3.24.33-4.54-.06-.15.01-.32.16-.37.15-.06.32.01.37.16.58 1.46.46 3.23-.34 4.99-.7 1.54-1.78 2.83-2.83 4.09-.04.07-.12.11-.21.11z" fill="#252424"/><path d="M1.702 70.922c-2.27.04-2.27 3.42 0 3.46 2.27-.04 2.27-3.42 0-3.46zm132.03-23.33c-.44.1-.75.41-1.06.72-.02.01-.03.02-.05.03-4.13 1.25-9.6 1.6-11.71 5.95-1.11 2.39-.99 5.2-.18 7.66.56 1.65 1.59 3.06 2.47 4.54-.93.79-2.64 2.15-4.47 3.17-1.43 1.01-2.86 2.01-4.4 2.84-.47-.81-1.4-1.24-2.28-1.56-2.41-.93-4.96-1.72-7.57-1.69-4.46.29-7.44 3.31-8.66 7.46-.36 1.59-.45 2.35-.51 2.9-1.73-.21-3.46-.34-5.19-.54-2.41-.33-1.89-.23-4.05-.56-.17-.04-.34-.07-.51-.09-.23-.92-.38-1.87-.61-2.79-.65-3.28-2.58-6.19-5.38-8.02-1.48-.96-3.19-1.55-4.95-1.69-.61-.06-.22-.02.16.03-1-.19-1.98-.09-2.99 0-.79.1-1.67-.03-2.41.27-1.95.75-1.33 3.75.75 3.72 1.05-.04 2.11-.08 3.16.01l.36.06c.31.04 1.13.33 1.44.43 3.19 1.69 4.07 2.93 4.79 4.89.72 1.94.63 4.37 1.72 6.12.58.86 1.62 1.09 2.53.83.15.08.31.15.48.19 3.31.67 6.62 1.3 9.99 1.55 2.09.28 4.45.22 4.98-2.27.26-1.58.54-3.17 1.12-4.66.12-.22.48-.94.69-1.19.08-.12.17-.24.26-.35.03-.03.05-.06.09-.1.19-.22.4-.41.62-.6.06-.04.12-.08.21-.13.3-.13.07-.18 1.52-.57.13-.03.26-.05.38-.08.35-.02.7-.01 1.05.03.28.04.71.11.94.16.58.1 1.18.25 1.76.43 1.02.61 2.49 1.64 2.34 1.52.67.57 1.57 1.53 2.47 1.12.43.07.92.01 1.47-.23 2.12-1.06 4.22-2.15 6.12-3.59 2.01-1.25 4.05-2.57 5.75-4.23.98-.38 1.65-1.57 1-2.67-1.29-3.24-2.92-4.7-3.24-7.29-.28-3.7.38-4.9 6.54-6.66 1.58-.53 3.47-.57 4.68-1.85 1.53-1.25.31-3.72-1.62-3.22zm-79.68 53.42c-1.11-.3-2.11.54-3.19.67-1.71.28-1.85.38-4.38-.3-1.64-.59-1.27-.29-2.99-1.39-.03-.02-.06-.05-.09-.07-.22-.18-.71-.59-.88-.75-.24-.16-.93-.98-1.22-1.33-.58-.78-1.13-1.58-1.68-2.39a1.61 1.61 0 00-.97-.74c-1.34-.42-2.57 1.19-1.82 2.37 2.02 3.2 4.34 6.6 8.08 7.91 2.22.94 4.66 1.16 7 .61.77-.16 1.51-.41 2.23-.72a2 2 0 001.12-.9c.68-1.09.04-2.63-1.21-2.97zm40.401-.51c-.19.05-.35.14-.5.25.08-.07-.4.31-.61.49-1.26.98-.76.67-2.88 2.2-3.75 2.28-5.94 3.52-9.47 4.45-1.76.32-4.18.73-7.24.37-1.48-.25-6.12-1.71-7.2-3.03-1.44-1.37-1.18-1.14-2.3-2.8-.39-.52-.62-1.2-1.15-1.58-1.47-1.21-3.58.65-2.6 2.28 1.4 2.39 2.97 4.77 5.29 6.36 1.98 1.33 4.28 2.19 6.59 2.73 3.49.68 7.14.25 10.54-.7 3.89-1.4 7.58-3.44 10.78-6.07.89-.87 2.01-1.71 2.64-2.78.59-1.17-.65-2.54-1.89-2.17zm11.459-.01l-.24.03c-.78.13-1.56.11-2.35.03-.09-.01-.18-.03-.27-.04-.23-.02-.74-.2-1-.29-.3-.14-.58-.31-.85-.49-.4-.24-.78-.59-1.27-.59-2.01-.35-2.97 2.5-1.21 3.5 1.82 1.31 4.09 1.8 6.31 1.68 1.21-.11 2.98-.26 3.1-1.8.23-1.22-1.05-2.33-2.22-2.03zm-17.36-12.24c-.73.58-2.35 2.62-3.95 3.97-.15.13-.31.25-.46.38-.74.54-1.54 1-2.37 1.38-.65.25-1.34.4-2.03.51-.08.01-.17.01-.25.02-1.12.28-4.71-.45-6.93-1.86-1.17-.76-.63-.4-1.56-1.15-.29-.29-.69-.46-1.1-.45-1.33-.05-2.07 1.73-1.1 2.65 1.99 1.96 4.53 3.31 7.17 4.18 6.29 2.07 11.79-2.1 14.7-7.45.86-1.35-.74-3-2.12-2.18zm47.98-3.91c-.27-1.43-.38-3.01-1.1-4.28-1.01-1.44-3.36-.25-2.87 1.43.56 2.17.61 2.53.72 4.15-.01 1.7.15 1.03-.38 2.64-.46 1.54 1.32 2.9 2.69 2.07 1.75-1.34 1.2-4.12.94-6.01zm-2.58 23.22c-.3-2.83-1-5.59-1.85-8.3-.32-1.09-.67-2.18-1.04-3.25-.12-.42-.4-.79-.78-1.01-1.24-.78-2.92.51-2.49 1.91 2.36 7 3.12 12.09 2.51 19.6-.22 2.5-.41 3.25-.59 4.89-.03.24-.05.48-.08.72-.02.09-.03.17-.03.26v.04c0-.01 0-.03.01-.04 0 .1 0 .2.03.29.01.25.08.47.22.69.57 1.03 2.08 1.21 2.89.37.41-.38.51-.91.58-1.44.18-.93.32-1.87.46-2.81.68-3.94.62-7.97.16-11.92zm8.89-42.48c-.19-1.72-.52-3.42-1.1-5.06-.22-.63-.35-1.38-1-1.72-1.19-.75-2.8.49-2.38 1.83 1.1 3.44 1.27 6.5.77 9.18-.64 3.22-1.28 3.48-1.53 4.72-.26 1.22 1.07 2.32 2.23 1.96 1.01-.28 1.34-1.34 1.75-2.19 1.17-2.71 1.61-5.79 1.26-8.72z" fill="#252424" opacity=".129"/></svg>