<svg width="124" height="125" fill="none" xmlns="http://www.w3.org/2000/svg"><path d="M102.29 86.74c-.52-.64-.11-1.62.45-2.23.56-.61 1.29-1.15 1.47-1.96.28-1.26-.9-2.33-1.96-3.09.15-1.39.32-2.83 1.09-4 .26-.39.59-.75.72-1.2.24-.79-.16-1.62-.19-2.68 5.71-5.95 8.47-14.05 11.04-21.73-2.14-.09-4.23-.97-6.37-.78-.54.05-1.07.16-1.61.17-1.31.02-2.58-.61-3.97-.62-1.04-8.35-.29-16.87-1.7-25.17-.09-.53-.2-1.08-.55-1.48-.27-.31-.65-.49-1.05-.59-1.48-.38-3.18.48-3.75 1.9-1.07-.17-2.15-.28-3.24-.33-.21-1.55-1.44-3-3-3.16-1.56-.17-3.18 1.25-2.9 2.71l-3-.33c.09-.53-.18-1.07-.59-1.41-.41-.34-.96-.49-1.49-.52-1.09-.06-2.3.46-2.66 1.49a16.33 16.33 0 00-3.35-.16c-.92-1.05-2.5-1.48-4.07-1.36-6.73-4.71-14.17-8.41-22.03-10.77-.18-2.59-.08-5.2.31-7.77C43.86.85 37.8.02 31.71 0c-3.22-.01-6.62.26-9.4 2.5-.52 6.78-.41 13.61.3 20.54-.96.64-1.65 1.73-1.64 2.88.01 1.15.82 2.3 1.95 2.52-.17 1.02-.22 2.05-.14 3.08-1.38.1-2.48 1.26-3.05 2.53-.42.93-.58 2.15.16 2.85.67.64 1.75.53 2.56.88-.07.82-.15 1.63-.22 2.45-1.05.4-1.82 1.44-1.89 2.56-.07 1.12.57 2.26 1.56 2.78-.2 1.14-.3 2.3-.3 3.45-1 1.05-1.42 2.64-1.2 4.34A70.765 70.765 0 009.43 75.03c-2.49.15-4.99.29-7.55.6C.81 77.49.46 79.66.26 81.79c-.67 6.83-.05 13.78 1.95 20.67 6.91-.17 13.83-.34 20.74-.5.54 1.02 1.68 1.7 2.84 1.68 1.16-.02 2.28-.72 2.79-1.76.87.36 1.84.46 2.76.3.16 1.65 1.62 3.09 3.28 3.21 1.66.13 3.32-1.07 3.71-2.65.61-.02 1.22-.03 1.82-.05.4 1.19 1.54 2.08 2.78 2.19 1.24.11 2.52-.58 3.12-1.68 1.43.11 2.83.48 4.13 1.08.71.33 1.66.68 2.08-.03 7.2 4.52 14.51 9.09 22.51 11.72-.08 2.47-.31 4.93-.85 7.5 2.94.87 6.06.91 9.13.95l4.97.06c4.77.05 9.68.09 14.23-1.96 0 0-.98-20.61-.74-20.96.83-.89 1.73-2.04 1.37-3.2-.35-1.15-1.83-1.79-1.93-2.99-.08-.93.73-1.69 1.54-2.17.81-.47 1.74-.87 2.21-1.68.5-.86.32-1.99-.21-2.83-.52-.81-1.36-1.42-2.2-1.95zM74.13 70.19c-1.36.36-2.73.69-4.09 1.05-1.33.35-2.63.84-3.93 1.26-2.69.87-5.39 1.74-8.11 2.52-.43.12-.8.05-1.08-.14-.71.59-2 .53-2.32-.63-1.67-6.1-3.5-12.16-5.94-18-.24-.57.16-1.31.65-1.6.27-.16.56-.21.84-.17.09-.08.21-.15.35-.19 2.85-.85 5.68-1.77 8.55-2.6 1.44-.41 2.88-.83 4.32-1.23.53-.14 1.07-.3 1.62-.44.54-.25 1.08-.5 1.63-.75.18-.13.39-.23.66-.29.54-.12 1.03.1 1.35.46.12-.02.25-.01.37.02.21.05.42.22.53.41.04.08.08.18.1.28.01.01.01.02.02.02.33.01.64.21.73.65 1.11 5.62 2.77 11.16 4.74 16.54.13.35.02.62-.2.79.4.71.19 1.79-.79 2.04z" fill="#fff"/><path d="M78.14 113.26a.25.25 0 01-.18-.08c-.1-.1-.09-.26.01-.36 2.66-2.58 5.49-5.05 8.42-7.33.11-.09.27-.07.36.04.09.11.07.27-.04.36-2.91 2.27-5.73 4.72-8.38 7.29-.07.06-.13.08-.19.08zm-.18 7c-.06 0-.12-.02-.17-.07a.263.263 0 01-.02-.36c4.68-5.16 9.73-10.08 15.03-14.6.11-.09.27-.08.36.03.09.11.08.27-.03.36-5.28 4.51-10.32 9.4-14.98 14.55-.05.07-.12.09-.19.09zm4.91 2.21c-.06 0-.12-.02-.16-.06a.254.254 0 01-.03-.36c4.77-5.67 10.01-11.03 15.58-15.93.1-.09.27-.08.36.02.09.11.08.27-.02.36a149.278 149.278 0 00-15.53 15.88c-.05.06-.12.09-.2.09zm6.07-.4c-.06 0-.13-.02-.18-.07-.1-.1-.11-.26-.01-.36l9.93-10.42c.1-.1.26-.1.36-.01.1.1.11.26.01.36l-9.93 10.42a.25.25 0 01-.18.08zm6.73.6c-.06 0-.12-.02-.17-.06a.263.263 0 01-.02-.36l4.691-5.26c.09-.1.25-.11.36-.02.1.09.11.25.02.36l-4.69 5.26c-.05.05-.12.08-.19.08zm-18.3-14.25a.254.254 0 01-.19-.42c.91-1.09 1.9-2.11 2.97-3.05.11-.09.27-.08.36.02.09.11.08.27-.02.36-1.04.91-2.02 1.92-2.91 2.99-.06.07-.14.1-.21.1zM25.65 19.88c-.14 0-.25-.12-.25-.26l.09-16.68c0-.14.11-.25.25-.25s.25.12.25.26l-.09 16.68c0 .14-.11.25-.25.25zm4.26-.59c-.14 0-.25-.11-.25-.25l-.3-16.13c0-.14.11-.26.25-.26s.25.11.25.25l.29 16.13c.01.15-.1.26-.24.26zm4.56.97c-.14 0-.25-.11-.25-.25l-.07-17.39c0-.14.11-.25.25-.25s.25.11.25.25L34.73 20c0 .15-.12.25-.26.26zm4.58-1.53c-.14 0-.25-.11-.25-.24-.19-4.94-.19-9.96 0-14.91.01-.14.1-.25.26-.24.14.01.25.12.24.26-.19 4.94-.19 9.94 0 14.87.01.14-.1.26-.25.26zm4.16.89a.25.25 0 01-.25-.26l.23-16.05c0-.14.12-.25.25-.25.14 0 .25.12.25.26l-.23 16.05c0 .14-.11.25-.25.25zm3.22.03c-.14 0-.25-.11-.25-.25l-.02-14.27c0-.14.11-.25.25-.25s.25.11.25.25l.02 14.27c0 .13-.11.25-.25.25z" fill="#252424"/><path d="M122.37 22.34c-7.01.73-14.08.96-21.12.71.83 8.58 1.44 17.17 1.82 25.78 6.63.42 13.26.83 19.9 1.25.51-9.05.42-18.14-.6-27.74z" fill="#6BA8C9"/><path d="M106.27 47.05c.26-2.57-.06-5.17-.26-7.73-.23-2.75-.34-5.52-.46-8.28-.11-2.33-.13-4.73-.87-6.96-.7-2.31-4.12-1.38-3.54.98 1.5 4.54 1.04 11.58 1.34 18.72.07.76.12 1.52.26 2.28.03.38.06.76.18 1.13.06.68-.07.33.16.92.63 1.66 3.19 1.13 3.17-.64-.1.73 0 .06.02-.42zm8.931 2.71c-.16-1.65-2.6-1.8-3.02-.21-.4 1.52-1.21 3.95-1.45 4.35-1.24 2.63-2.81 5.08-4.13 7.67-1.3 2.29-2.96 4.37-4.07 6.77-.38.85-.58.78-.77 1.29-.28-.17-.59-.31-.92-.38a1.24 1.24 0 00-.51.02c.68.79 1.05 1.88.78 2.87-.07.11-.12.23-.15.39-.08.21-.36.91-.77 1.45-.06.07-.13.16-.17.2a.79.79 0 00-.15.17c-.01 0-.01.01-.02.01-.14.1-.69.36-.89.46-1.49.55-2.85.85-3.05 1.38-.31.49-.02 1.09.44 1.3.13.7.69 1.33 1.55 1.32.53.01 1.05 0 1.58 0-.02.13-.02.26.01.38.01 0 .02 0 .04.01.22.09.42.2.61.33-.05.28.04.58.34.74.17.11.32.23.46.36.03.11.06.25.09.43.07.79.01.88-.27 1.71-.23.53-.29.76-.81 1.25-.07.05-.14.1-.2.15-.17.14-.4.2-.52.38-.32.36-.1.98.36 1.1.16.03.31.01.46-.04.08.12.2.23.33.29-.11.23-.09.49.01.72 0 .01-.01.02-.01.03-.03.01-.07.01-.1.02-.85.3-.76 1.64.12 1.85l.36.09c.01.01.01.01.02.01.1.07.26.25.32.31.05.07.09.15.11.2.05.15.1.35.13.47v.21c-.01.03-.01.06-.02.09-.07.4-.07.55-.25.96-.34.5-1.01 1.19-2.03 1.67-.58.23-1.19.38-1.8.47-.08.02.09-.01.13-.01-.65.08-1.28.21-1.92.35-.32.04-.67.24-.69.59.01.95.77.72 1.32.67.45-.04.91-.06 1.36-.12.02.42.21.83.65 1.08.35.16.72.34 1.11.49-.34.43-.37 1.12.25 1.5.01.01.02.02.04.03l.07.07c.06.05.11.12.17.18.06.09.12.21.16.28.07.19.12.38.16.58.04.91.09.54-.12 1.39-.21.43-.19.41-.29.59-.09.1-.19.2-.29.29-.48.39-.27.29-.73.57-.42.15-.61.64-.41.97a.93.93 0 00-.2.92c.17.93.32 1.86.53 2.78.01.15.05.28.1.39.16 1.93.31 4.92.34 6.83.11 3.01-.26 6.12.48 9.05.29 1.18 1.91 1.61 2.74.72.59-.61.56-1.54.51-2.33-.25-4.6-.09-9.21-.73-13.78-.06-.5-.12-1.01-.19-1.51.2-.72.05-.64.19-1.29-.05-.59.14-1.23-.08-1.78-.02-.05-.04-.09-.06-.13.3-.29.49-.7.72-1.03.86-1.57.73-3.74-.55-5.05a7.99 7.99 0 00-.44-.38c.46-.52.48-1.4-.04-1.9-.27-.24-.6-.41-.98-.4h-.03c-.11-.02-.2-.04-.27-.06.21-.11.41-.23.62-.36.12.28.35.52.68.6.64.14 1.22-.3 1.77-.58 1.67-1.1 2.28-3.57 1.12-5.25-.58-.86-1.5-1.6-2.53-1.82a.828.828 0 00-.19-.4c.13-.06.26-.12.39-.17 1.81-.92 2.6-3.37 1.59-5.16-.27-.58-.7-1.07-1.21-1.46.83-.38 1.31-1.46.69-2.41-.26-.47-.72-.71-1.22-.82.09-.06.19-.11.28-.17.81-.66.73-.51 1.15-1.61.23-.82.15-1.74-.18-2.54.09-.03.17-.06.25-.11.31-.18.49-.48.63-.79.2.06.41.07.61.01.22-.08.42-.19.57-.37.06-.07.43-.55.52-.7.67-1.06 1.33-2.14 1.98-3.22 1.05-1.76 2.16-3.49 3.08-5.33.23-.56.73-1.11.55-1.76-.06-.25-.2-.44-.38-.58 1.26-2.02 2.6-3.99 3.41-6.25.25-.85.86-1.67.77-2.55zM69.99 114.14c.38-.02.66-.33.74-.68.25.1.5.19.75.29-.25.38-.31.87-.21 1.31.11.05.22.1.33.14.44.2.86.46 1.26.72.12.08.23.17.35.25.86-.22 1.24-1.03 1.13-1.78.03-.05.05-.1.07-.16.12-.48-.24-.68-.59-.82-.21-.18-.49-.31-.83-.36-1.02-.58-2.07-1.63-2.75-2.03-1.1-.77-2.37-1.21-3.51-1.89-.35-.22-.68-.44-1.01-.65-.28-.23-.62-.51-1.01-.91-2.84-2.91-4.44-4.52-5.22-8.1.11-.46-.07-1.01-.06-1.48-.01-.09-.01-.19-.02-.28-.17-1.51-.21-3.02-.19-4.54-.04-.06-.08-.12-.13-.17-.07-1.12-.15-2.23-.23-3.35-.01-4.16.11-8.37-1.13-12.39-.38-1.25-1.57-1.52-2.47-1.13-.24-.94-.49-1.88-.76-2.81-1.16-3.72-2.07-5.3-3.3-8.46-.93-2.69-1.79-5.41-3.14-7.92-.5-.79-.9-1.95-1.86-2.25-1.24-.39-2.39 1.1-1.7 2.21 1.97 2.7 3.19 5.87 4.72 8.83.84 1.83 1.82 3.6 2.62 5.45.54 1.21 1.66 4.57 2.38 6.78.01.09.02.17.04.26 1.25 4.92 1.45 9.13 1.2 15.94-.05 2.59-.74 6.11-1.29 8.15h-.05c-1.06-.04-1.65 1.38-.87 2.11 1.48 1.17 2.92 2.39 4.42 3.54 1.5 1.07 3.1 1.97 4.7 2.89 1.66.91 3.39 1.7 5.13 2.44.68.29 1.38.55 2.08.8.15.07.28.08.41.05zm-21.01-12.65c-.07-.33-.26-.65-.55-.83-.06-.05-.13-.1-.2-.14.08-.55-.03-1.15.01-1.71 0-.41.06-.87-.27-1.18-.54-.58-1.6-.14-1.57.65.05.71-.06 1.45.01 2.15-.24.31-.28.78.1 1.24.03.03.06.06.08.09v.08c.1 1.86 2.82 1.45 2.39-.35zm-9.54-1.81c-2.1.05-2.1 3.13 0 3.19 2.1-.06 2.1-3.14 0-3.19zm-9.51-2.18c-2.1.05-2.1 3.13 0 3.19 2.1-.05 2.1-3.13 0-3.19zm22-87.81c-.48-1.29-2.5-.87-2.47.5-.25 3.17-.54 6.29-.9 8.57-.07.57-.39 1.08-.38 1.66-.06 2.16 2.96 2.03 2.84-.14-.01-.52-.1-.17-.05-.98.34-2.01.56-4.04.78-6.07.09-.82.18-1.63.24-2.45.02-.37.12-.76-.06-1.09z" fill="#252424" opacity=".129"/><path d="M75.85 70.44c-.32 0-.63-.21-.73-.53a705.1 705.1 0 00-1.94-6.08c-4.46-13.86-7.41-23.01-4.93-39.7.17-1.15 2.52-4.37 3.62-4.37h.31c1.71 0 3.67-.01 4.18 2.74.29 1.54.49 2.89.66 4.18.32-2.86.94-5.41 2.06-6.32.98-.79 3.41-1.58 4.87.09.66.76 1.17 1.85 1.55 3.11.13-.66.29-1.3.51-1.97.32-.98.97-3.01 3.35-2.91 1.85.07 3.55 1.52 3.95 3.38l.13.58c.2.94.46 2.13.72 3.49.24-1.11.57-2.23 1-3.47.57-1.65 3.02-2.5 4.63-2.04 2.621.75 2.721 3.88 2.771 5.22.2 5.85.31 8.8.43 11.76.11 2.95.23 5.9.43 11.73.01.42-.31.77-.74.79a.768.768 0 01-.79-.74c-.2-5.83-.31-8.78-.43-11.72-.12-2.96-.23-5.91-.43-11.76-.07-2.02-.38-3.43-1.67-3.8-.96-.28-2.51.32-2.77 1.07-1.16 3.38-1.54 5.8-1.54 9.97 0 .41-.33.75-.74.76-.42.02-.76-.3-.78-.71-.25-4.1-1.09-7.93-1.58-10.22l-.13-.58c-.25-1.17-1.36-2.13-2.52-2.17-.81-.03-1.31.25-1.84 1.86-.85 2.61-.84 4.89-.82 9.44 0 .71.01 1.47.01 2.3a.76.76 0 11-1.52 0c0-6.08-.87-10.7-2.31-12.34-.78-.88-2.3-.29-2.77.09-1.39 1.13-2.05 8.25-1.68 13.63.03.4-.26.75-.65.8-.4.06-.76-.2-.85-.59-.59-2.61-.86-4.72-1.14-6.96-.22-1.74-.45-3.53-.84-5.66-.27-1.44-.82-1.49-2.68-1.5h-.17c-.58.39-2.15 2.37-2.26 3.07-2.43 16.34.47 25.36 4.87 39.01.62 1.93 1.27 3.95 1.94 6.09.13.4-.1.83-.5.95-.08.02-.16.03-.24.03zm-1.39 53h-.07a.763.763 0 01-.69-.83c.1-1.06.25-3.41.44-6.13.29-4.35.65-9.77 1.01-13.6a.763.763 0 111.52.14c-.35 3.81-.71 9.22-1 13.56-.19 2.84-.34 5.09-.44 6.16-.05.41-.38.7-.77.7zm29.731-50.8c-.11 0-.23-.03-.34-.08a.754.754 0 01-.34-1.02c.78-1.56 1.75-3.1 2.69-4.59.22-.35.44-.7.66-1.04a76.627 76.627 0 007.44-15.65c.14-.4.57-.61.97-.47s.61.57.47.97a78.114 78.114 0 01-7.59 15.96l-.66 1.05c-.92 1.46-1.87 2.97-2.61 4.45-.14.26-.41.42-.69.42zm-2.04 50.8c-.41 0-.75-.32-.76-.73-.1-2.73-.2-6.65-.3-10.44-.1-3.79-.21-7.71-.3-10.43-.01-.42.31-.77.73-.79.44-.03.77.31.79.73.1 2.73.2 6.65.3 10.44.1 3.79.21 7.71.3 10.43.01.42-.31.77-.73.79h-.03zm-.6-27.26c-.4 0-.73-.31-.76-.71-.04-.71 0-1.43.14-2.13.08-.41.49-.68.89-.6.41.08.68.48.6.89-.11.58-.15 1.16-.11 1.75.03.42-.29.78-.71.81-.02-.01-.03-.01-.05-.01zm.6-9.57h-.04a.76.76 0 01-.72-.8l.04-.91c.02-.42.37-.74.8-.72.42.02.74.38.72.8l-.04.91c-.02.4-.35.72-.76.72zm.519-7.21h-.01a.76.76 0 01-.75-.77c.01-.96.1-1.93.26-2.87.07-.41.46-.7.88-.63.42.07.7.46.63.88-.14.87-.22 1.76-.24 2.65-.01.41-.35.74-.77.74z" fill="#252424"/><path d="M35.52 57.01c-3.44 0-7.16-.28-11.35-.91-1.15-.17-4.37-2.53-4.37-3.62v-.31c-.01-1.72-.01-3.67 2.74-4.18 1.54-.29 2.89-.48 4.18-.66-2.86-.32-5.41-.94-6.32-2.06-.79-.98-1.58-3.41.09-4.87.76-.66 1.85-1.17 3.11-1.55-.66-.13-1.3-.29-1.97-.51-.98-.32-3.01-.98-2.91-3.34.07-1.85 1.53-3.55 3.38-3.95l.59-.13c.94-.2 2.13-.46 3.49-.72-1.11-.24-2.23-.57-3.47-1-1.65-.57-2.5-3.02-2.04-4.63.75-2.62 3.77-2.72 5.22-2.77 5.84-.2 8.79-.31 11.74-.43 2.95-.12 5.9-.23 11.75-.43.41-.02.77.31.79.74.01.42-.31.77-.74.79-5.84.2-8.79.31-11.74.43-2.95.12-5.9.23-11.75.43-2.02.07-3.43.38-3.8 1.67-.27.96.33 2.51 1.07 2.77 3.38 1.16 5.8 1.54 9.97 1.54.41 0 .75.33.76.74.01.41-.3.76-.71.78-4.09.25-7.92 1.08-10.21 1.58l-.59.13c-1.17.25-2.13 1.36-2.17 2.52-.03.81.25 1.31 1.86 1.84 2.61.85 4.89.84 9.44.82.71 0 1.47-.01 2.3-.01a.76.76 0 110 1.52c-6.08 0-10.7.87-12.34 2.31-.88.78-.3 2.3.09 2.77 1.13 1.39 8.25 2.05 13.63 1.69.41-.02.75.26.8.65.06.39-.2.76-.59.85-2.61.59-4.72.86-6.96 1.14-1.74.22-3.53.45-5.66.84-1.44.27-1.51.82-1.5 2.68v.17c.39.58 2.37 2.15 3.07 2.26 16.34 2.43 25.36-.47 39.01-4.87 1.93-.62 3.95-1.27 6.09-1.94.4-.13.83.1.95.5.13.4-.1.83-.5.95a705.1 705.1 0 00-6.08 1.94c-10.37 3.34-18.11 5.84-28.35 5.84zm87.211-6.35h-.07c-1.05-.1-3.4-.25-6.11-.43-4.36-.29-9.78-.65-13.62-1.01a.763.763 0 11.14-1.52c3.82.35 9.23.72 13.58 1 2.83.19 5.07.34 6.15.44.42.04.73.41.69.83-.03.4-.37.69-.76.69zM71.92 20.93c-.11 0-.23-.03-.34-.08-1.56-.77-3.1-1.75-4.59-2.69l-1.05-.66a76.877 76.877 0 00-15.65-7.44.758.758 0 01-.47-.97c.14-.4.57-.61.97-.47a78.442 78.442 0 0115.97 7.59l1.05.66c1.46.92 2.96 1.87 4.45 2.61.38.19.53.64.34 1.02a.74.74 0 01-.68.43zm29.941 2.65c-.41 0-.75-.32-.76-.73-.01-.42.31-.77.73-.79 2.73-.1 6.65-.2 10.44-.3 3.79-.1 7.71-.21 10.43-.3h.03c.41 0 .75.32.76.73.01.42-.31.77-.73.79-2.73.1-6.65.2-10.44.3-3.79.1-7.71.21-10.43.3h-.03zm-6.871.01c-.54 0-1.08-.05-1.61-.16a.76.76 0 01-.6-.89.76.76 0 01.89-.6c.57.11 1.16.15 1.75.11a.762.762 0 01.1 1.52c-.18.01-.35.02-.53.02zm-9.1-.62h-.04l-.91-.04a.76.76 0 01-.72-.8c.02-.42.36-.74.8-.72l.91.04c.42.02.74.38.72.8-.01.4-.35.72-.76.72zm-7.2-.52h-.01c-.96-.01-1.93-.1-2.88-.26a.761.761 0 01-.63-.88c.07-.41.46-.7.88-.63.87.14 1.76.22 2.65.24.42.01.76.35.75.77 0 .42-.34.76-.76.76z" fill="#252424"/><path d="M35.2 106.21h-.16c-1.85-.07-3.55-1.52-3.95-3.38l-.13-.58c-.2-.94-.46-2.13-.72-3.49-.24 1.11-.57 2.23-1 3.47-.57 1.65-3.02 2.5-4.63 2.04-2.62-.75-2.72-3.88-2.77-5.22-.2-5.84-.31-8.79-.43-11.74-.12-2.95-.23-5.9-.43-11.75-.01-.42.31-.77.74-.79.43-.03.77.31.79.74.2 5.84.31 8.79.43 11.74.11 2.95.23 5.9.43 11.75.07 2.02.38 3.43 1.67 3.8.96.28 2.51-.32 2.77-1.07 1.16-3.38 1.54-5.8 1.54-9.97 0-.41.33-.75.74-.76.4-.02.76.3.78.71.25 4.09 1.08 7.93 1.58 10.21l.13.59c.25 1.17 1.36 2.13 2.52 2.17.81.03 1.31-.25 1.84-1.86.85-2.61.84-4.89.82-9.44 0-.71-.01-1.47-.01-2.3a.76.76 0 111.52 0c0 6.08.87 10.7 2.31 12.34.78.89 2.3.29 2.77-.09 1.39-1.13 2.05-8.25 1.68-13.63a.75.75 0 01.65-.8c.4-.06.76.2.85.59.59 2.61.86 4.72 1.14 6.96.22 1.74.45 3.53.84 5.66.27 1.44.81 1.5 2.68 1.5h.17c.58-.39 2.15-2.37 2.26-3.07 2.43-16.34-.47-25.36-4.87-39.01-.62-1.93-1.27-3.95-1.94-6.09-.13-.4.1-.83.5-.95.4-.13.83.1.95.5a705.1 705.1 0 001.94 6.08c4.46 13.86 7.41 23.01 4.93 39.7-.17 1.15-2.53 4.37-3.62 4.37h-.31c-1.71 0-3.67.01-4.18-2.74-.29-1.54-.49-2.89-.66-4.18-.32 2.86-.94 5.41-2.06 6.32-.98.79-3.41 1.58-4.87-.09-.66-.76-1.17-1.85-1.55-3.11-.13.66-.29 1.3-.51 1.97-.29.94-.93 2.9-3.17 2.9zm13.31-83.53h-.07a.763.763 0 01-.69-.83c.35-3.82.72-9.23 1-13.58.19-2.83.34-5.07.44-6.15.04-.42.4-.73.83-.69.42.04.73.41.69.83-.1 1.05-.25 3.4-.43 6.11-.29 4.36-.65 9.78-1.01 13.62-.04.39-.37.69-.76.69zM9.39 75.14a.759.759 0 01-.72-1.01 78.112 78.112 0 017.59-15.96c.22-.35.44-.71.67-1.06.92-1.46 1.87-2.96 2.61-4.45.19-.38.65-.53 1.02-.34.38.19.53.64.34 1.02-.77 1.55-1.74 3.09-2.68 4.58l-.66 1.05a76.877 76.877 0 00-7.44 15.65c-.12.32-.41.52-.73.52zm13.47-51.32c-.41 0-.75-.32-.76-.73-.1-2.73-.2-6.65-.3-10.44-.1-3.79-.21-7.71-.3-10.43-.01-.42.31-.77.73-.79h.03c.41 0 .75.32.76.73.1 2.73.2 6.65.3 10.44.1 3.79.21 7.71.3 10.43.01.42-.31.77-.73.79h-.03zm-.13 8.33c-.05 0-.1 0-.15-.01a.76.76 0 01-.6-.89c.11-.58.15-1.16.11-1.75-.03-.42.29-.78.71-.81.42-.02.78.29.81.71.05.71 0 1.43-.14 2.14-.06.36-.38.61-.74.61zm-.51 8.55h-.04a.76.76 0 01-.72-.8l.04-.91c.02-.42.36-.74.8-.72.42.02.74.38.72.8l-.04.91c-.02.4-.36.72-.76.72zm-.73 9.06c-.04 0-.08 0-.12-.01a.761.761 0 01-.63-.88c.14-.87.22-1.76.24-2.65.01-.42.35-.75.76-.75h.01c.42.01.76.35.75.77-.01.96-.1 1.93-.26 2.87-.06.38-.38.65-.75.65z" fill="#252424"/><path d="M75.03 103.92c-.41 0-.75-.32-.76-.74-.01-.42.31-.77.74-.79 5.84-.2 8.79-.31 11.74-.43 2.95-.11 5.9-.23 11.75-.43 1.741-.06 3.411-.3 3.801-1.67.28-.96-.32-2.51-1.07-2.77-3.38-1.16-5.8-1.54-9.97-1.54-.41 0-.75-.33-.76-.74-.01-.41.3-.76.72-.78 4.09-.25 7.92-1.08 10.21-1.58l.59-.13c1.17-.25 2.13-1.36 2.17-2.52.03-.81-.25-1.31-1.86-1.84-2.61-.85-4.89-.84-9.44-.82-.71 0-1.47.01-2.3.01a.76.76 0 110-1.52c6.08 0 10.7-.87 12.34-2.31.88-.78.29-2.3-.09-2.77-1.13-1.39-8.25-2.05-13.63-1.69a.75.75 0 01-.8-.65c-.06-.39.2-.76.59-.85 2.61-.59 4.72-.86 6.95-1.14 1.74-.22 3.53-.45 5.66-.84 1.44-.27 1.5-.82 1.5-2.68v-.17c-.39-.58-2.37-2.15-3.07-2.26-16.34-2.43-25.36.47-39.01 4.87-1.93.62-3.95 1.27-6.09 1.94-.4.13-.83-.1-.95-.5-.13-.4.1-.83.5-.95a705.1 705.1 0 006.08-1.94c13.86-4.46 23.01-7.41 39.7-4.93 1.15.17 4.37 2.53 4.37 3.62v.31c.01 1.72.01 3.67-2.74 4.18-1.54.29-2.89.49-4.18.66 2.86.32 5.41.94 6.32 2.06.79.98 1.58 3.41-.09 4.87-.76.66-1.85 1.17-3.11 1.55.65.13 1.3.29 1.97.51.98.32 3.01.98 2.91 3.34-.07 1.85-1.52 3.55-3.38 3.95l-.59.13c-.94.2-2.12.46-3.48.72 1.11.24 2.23.57 3.47 1 1.65.57 2.5 3.02 2.04 4.63-.75 2.62-3.88 2.72-5.22 2.77-5.84.2-8.79.31-11.74.43-2.95.12-5.9.23-11.75.43h-.04zM21.4 77.18h-.07c-3.81-.35-9.22-.71-13.57-1-2.84-.19-5.08-.34-6.16-.44a.763.763 0 11.14-1.52c1.05.1 3.4.25 6.12.43 4.35.29 9.77.65 13.61 1.01.42.04.73.41.69.83-.04.39-.37.69-.76.69zm52.47 39.11c-.08 0-.17-.01-.25-.04a78.114 78.114 0 01-15.96-7.59c-.35-.22-.7-.44-1.06-.66-1.46-.92-2.96-1.87-4.45-2.61a.754.754 0 01-.34-1.02c.19-.38.65-.53 1.02-.34 1.56.77 3.1 1.75 4.58 2.68l1.05.66a76.877 76.877 0 0015.65 7.44c.4.14.61.57.47.97-.1.31-.4.51-.71.51zM1.681 103.42c-.41 0-.75-.32-.76-.73-.01-.42.31-.77.73-.79 2.72-.09 6.63-.2 10.41-.3 3.8-.1 7.73-.21 10.46-.3.43-.02.77.31.79.73.01.42-.31.77-.73.79-2.73.1-6.67.2-10.47.3-3.78.1-7.68.21-10.4.3h-.03zm29.199-.47c-.05 0-.1 0-.15-.01-.57-.11-1.16-.15-1.75-.11a.755.755 0 01-.81-.71c-.03-.42.29-.78.71-.81.72-.05 1.43 0 2.14.14.41.08.68.48.6.89-.06.36-.38.61-.74.61zm8.54.52h-.04l-.91-.04a.76.76 0 01-.72-.8c.02-.42.36-.74.8-.72l.91.04a.76.76 0 01-.04 1.52zm9.061.73c-.04 0-.08 0-.12-.01-.87-.14-1.76-.22-2.65-.24a.76.76 0 01.01-1.52h.01c.96.01 1.93.1 2.87.26.42.07.7.46.63.88-.06.36-.38.63-.75.63zM85.42 16.95c-.14 0-.29-.04-.42-.12L68.94 6.35a.759.759 0 01.83-1.27l16.07 10.48c.35.23.45.7.22 1.05-.14.22-.39.34-.64.34zm10.02-2.12c-.15 0-.3-.04-.43-.13L79.82 4.25a.768.768 0 01-.2-1.06c.24-.35.71-.43 1.06-.2l15.18 10.45c.35.24.43.71.2 1.06-.14.22-.38.33-.62.33zM53.9 117.37h-.07a99.006 99.006 0 01-22.46-4.64.75.75 0 01-.48-.96c.13-.4.56-.62.96-.48 7.16 2.37 14.6 3.91 22.11 4.57.42.04.73.41.69.83a.75.75 0 01-.75.68z" fill="#252424"/></svg>