<svg width="146" height="127" viewBox="0 0 146 127" fill="none" xmlns="http://www.w3.org/2000/svg">
<path d="M125.843 45.9022C128.473 44.8122 131.593 45.5122 133.963 47.1022C136.333 48.6922 138.073 51.0422 139.583 53.4622C142.263 57.7322 144.463 62.5222 144.443 67.5622C144.423 72.6022 141.713 77.8822 137.003 79.6822C139.483 81.8322 140.423 85.5922 139.243 88.6622C138.063 91.7322 134.863 93.8922 131.573 93.8422C133.863 103.782 135.983 114.152 133.273 123.892C133.053 124.692 132.723 125.562 131.973 125.912C131.223 126.262 130.303 125.932 129.723 125.342C129.143 124.752 128.823 123.962 128.523 123.192C124.893 114.052 120.463 104.952 113.283 98.2322C113.293 101.662 110.623 105.082 107.133 105.972C103.643 106.852 99.6625 105.112 97.9525 101.952C92.8525 108.042 85.7025 112.862 77.7725 113.382C69.8425 113.902 61.3525 109.222 59.1225 101.592C55.8625 106.052 49.7025 108.162 44.3925 106.632C39.0825 105.102 34.9825 100.042 34.5925 94.5322C30.3325 100.472 20.9725 99.7422 17.1825 94.2822C13.3825 88.8222 15.1425 80.6622 20.2025 76.3422C12.3925 74.9622 7.33255 65.2622 10.6725 58.0622C14.0125 50.8622 24.6925 48.4722 30.7825 53.5522C28.5325 48.0922 30.3625 41.7122 33.6025 36.7822C36.6425 32.1422 41.1225 28.2022 46.5225 26.9522C51.9226 25.7022 58.2325 27.6522 62.0125 31.4922C62.0525 28.8222 69.7225 32.6022 71.6725 30.7622C73.6225 28.9222 69.7825 21.4222 72.3625 20.7622C74.4025 20.2322 76.5926 20.0022 78.6125 20.5922C82.5526 21.7422 85.0325 25.7022 86.7925 29.2622C88.1525 25.1022 91.8326 21.9822 95.9325 20.4522C100.033 18.9222 104.533 18.8122 108.893 19.1822C112.343 19.4722 116.043 20.2022 118.373 22.7622C121.593 26.2922 120.953 31.7422 120.123 36.4422C122.493 35.1422 125.813 35.9822 127.273 38.2622C128.733 40.5722 128.113 43.9422 125.843 45.9022Z" fill="white"/>
<path d="M131.313 126.922C130.463 126.922 129.653 126.492 129.113 125.952C128.403 125.242 128.043 124.322 127.723 123.512C124.603 115.662 120.543 106.812 113.933 100.072C113.173 103.212 110.553 106.002 107.353 106.812C103.873 107.692 99.9928 106.242 97.8628 103.392C92.1328 109.842 84.8928 113.782 77.8428 114.252C69.5228 114.792 61.6528 110.182 58.8228 103.322C55.2028 107.212 49.2828 108.942 44.1628 107.472C39.1628 106.032 35.1428 101.592 34.0228 96.5221C31.9828 98.4721 29.2128 99.5621 26.1528 99.5621C26.1228 99.5621 26.0928 99.5621 26.0628 99.5621C22.1828 99.5321 18.5128 97.7021 16.4828 94.7821C12.8928 89.6121 13.8728 81.7321 18.4828 76.8121C15.1828 75.7421 12.2728 73.2121 10.4928 69.8021C8.43278 65.8521 8.21278 61.3421 9.89278 57.7221C11.5728 54.1021 15.1728 51.3621 19.5128 50.3821C22.9528 49.6121 26.4328 50.0421 29.2628 51.5221C28.2928 46.8821 29.5728 41.3721 32.8828 36.3221C36.4128 30.9321 41.1928 27.3121 46.3228 26.1221C51.5228 24.9221 57.7128 26.5521 61.8028 30.1221C62.7828 29.3621 64.5628 29.6721 66.6128 30.0421C68.2428 30.3321 70.4728 30.7321 71.0728 30.1521C71.6628 29.5921 71.2628 27.3921 70.9728 25.7821C70.5028 23.1821 70.0128 20.4821 72.1428 19.9421C74.7328 19.2721 76.9328 19.2221 78.8528 19.7821C82.5628 20.8621 84.9828 24.1021 86.7028 27.2421C88.3928 23.9221 91.6128 21.1621 95.6228 19.6621C99.2828 18.3021 103.523 17.8821 108.963 18.3421C112.263 18.6221 116.383 19.3121 119.013 22.2021C122.033 25.5121 121.963 30.2921 121.223 35.1421C123.743 34.5721 126.583 35.6121 128.003 37.8321C129.263 39.8021 129.203 42.4021 128.043 44.5321C130.153 44.4021 132.453 45.0421 134.443 46.3821C137.053 48.1321 138.873 50.7021 140.313 53.0021C143.733 58.4521 145.323 63.0821 145.303 67.5721C145.283 72.8921 142.533 77.8021 138.473 79.9721C140.513 82.4121 141.183 86.0121 140.043 88.9821C138.873 92.0221 135.873 94.2821 132.643 94.6621C134.963 104.852 136.703 114.772 134.103 124.142C133.933 124.742 133.543 126.152 132.343 126.712C132.013 126.852 131.663 126.922 131.313 126.922ZM113.283 97.3721C113.503 97.3721 113.713 97.4521 113.873 97.6021C121.473 104.702 125.953 114.362 129.333 122.872C129.613 123.592 129.883 124.272 130.343 124.732C130.663 125.062 131.223 125.312 131.613 125.122C132.043 124.922 132.283 124.232 132.443 123.652C135.023 114.362 133.113 104.342 130.733 94.0221C130.673 93.7621 130.733 93.4921 130.903 93.2821C131.073 93.0721 131.313 92.9621 131.593 92.9621C131.633 92.9621 131.663 92.9621 131.703 92.9621C134.583 92.9621 137.403 91.0321 138.443 88.3421C139.493 85.6121 138.643 82.2421 136.443 80.3221C136.213 80.1221 136.103 79.8221 136.163 79.5221C136.213 79.2221 136.423 78.9721 136.703 78.8621C140.733 77.3221 143.563 72.6621 143.583 67.5421C143.603 63.3921 142.093 59.0621 138.853 53.9021C137.513 51.7621 135.823 49.3621 133.483 47.8021C131.123 46.2221 128.323 45.7921 126.173 46.6821C125.783 46.8421 125.323 46.6921 125.103 46.3321C124.883 45.9721 124.953 45.5021 125.273 45.2221C127.203 43.5621 127.773 40.6521 126.543 38.7421C125.323 36.8421 122.513 36.1221 120.533 37.2121C120.243 37.3721 119.883 37.3521 119.613 37.1521C119.343 36.9621 119.203 36.6221 119.263 36.3021C120.073 31.7421 120.693 26.6021 117.733 23.3521C115.513 20.9121 111.803 20.3121 108.813 20.0521C103.643 19.6121 99.6428 20.0021 96.2228 21.2721C92.0028 22.8421 88.7828 25.9321 87.6028 29.5421C87.4928 29.8721 87.1928 30.1121 86.8428 30.1321C86.5028 30.1621 86.1628 29.9721 86.0028 29.6521C84.4028 26.3921 82.0828 22.5121 78.3628 21.4221C76.7428 20.9521 74.8528 21.0121 72.5628 21.5921C71.9928 21.7421 72.4228 24.1521 72.6628 25.4521C73.0828 27.7821 73.5228 30.1921 72.2528 31.3821C71.0128 32.5521 68.6228 32.1221 66.3028 31.7121C65.1628 31.5121 63.2728 31.1721 62.8728 31.4421C62.8728 31.4521 62.8728 31.4621 62.8728 31.4821C62.8628 31.8321 62.6528 32.1421 62.3328 32.2721C62.0128 32.4021 61.6428 32.3221 61.3928 32.0721C57.7528 28.3721 51.7128 26.6021 46.7128 27.7621C42.0128 28.8521 37.6128 32.2121 34.3228 37.2221C30.7328 42.6921 29.7128 48.6621 31.5828 53.1921C31.7328 53.5621 31.6128 53.9821 31.2928 54.2221C30.9728 54.4521 30.5328 54.4421 30.2228 54.1921C27.5628 51.9721 23.7028 51.1621 19.8728 52.0221C16.0528 52.8821 12.9028 55.2621 11.4428 58.4021C9.98278 61.5421 10.1928 65.4821 12.0028 68.9521C13.8128 72.4221 16.9328 74.8521 20.3328 75.4621C20.6628 75.5221 20.9328 75.7621 21.0128 76.0821C21.1028 76.4021 20.9928 76.7521 20.7428 76.9721C15.7928 81.1921 14.4828 88.8821 17.8728 93.7521C19.5828 96.2121 22.7128 97.7621 26.0428 97.7821C26.0728 97.7821 26.0928 97.7821 26.1228 97.7821C29.3128 97.7821 32.1328 96.4021 33.8728 93.9821C34.0828 93.6821 34.4628 93.5521 34.8128 93.6521C35.1628 93.7521 35.4128 94.0621 35.4428 94.4221C35.8028 99.5621 39.6628 104.332 44.6128 105.752C49.5628 107.172 55.3628 105.192 58.4028 101.032C58.5928 100.762 58.9228 100.632 59.2528 100.692C59.5728 100.752 59.8428 100.982 59.9328 101.302C61.9128 108.092 69.7328 113.002 77.6928 112.472C84.5928 112.022 91.7228 107.962 97.2628 101.352C97.4428 101.132 97.7328 101.022 98.0128 101.042C98.2928 101.072 98.5528 101.242 98.6828 101.492C100.203 104.292 103.803 105.872 106.893 105.092C109.983 104.312 112.393 101.282 112.393 98.1921C112.393 97.8521 112.593 97.5321 112.913 97.4021C113.053 97.4021 113.173 97.3721 113.283 97.3721Z" fill="#252424"/>
<path d="M77.883 95.2721C76.533 95.2721 75.203 95.0421 73.963 94.5821C71.253 93.5721 69.083 91.5521 67.173 89.7621C66.823 89.4321 66.803 88.8921 67.133 88.5421C67.463 88.1921 68.003 88.1721 68.353 88.5021C70.143 90.1721 72.173 92.0721 74.563 92.9621C77.183 93.9321 80.303 93.6821 82.903 92.2721C85.373 90.9421 87.403 88.5721 88.493 85.7721C88.663 85.3221 89.163 85.1021 89.613 85.2821C90.063 85.4521 90.283 85.9521 90.103 86.4021C88.873 89.5821 86.553 92.2821 83.723 93.8021C81.913 94.7721 79.883 95.2721 77.883 95.2721Z" fill="#252424"/>
<path d="M45.0328 89.9021C44.3428 89.9021 43.6528 89.8121 42.9828 89.6221C42.5228 89.4921 42.2528 89.0121 42.3828 88.5521C42.5128 88.0921 42.9928 87.8321 43.4528 87.9521C45.7828 88.6121 48.4428 87.7421 49.9328 85.8421C51.4228 83.9321 51.6228 81.1421 50.4228 79.0421C48.4828 75.6521 43.9429 75.0321 42.0828 74.9121C39.5528 74.7621 36.9528 75.0521 34.4328 75.3421L19.8828 77.0021C19.4128 77.0621 18.9828 76.7121 18.9228 76.2421C18.8728 75.7721 19.2128 75.3421 19.6828 75.2821L34.2328 73.6221C36.8228 73.3321 39.5028 73.0221 42.1828 73.1821C46.7128 73.4521 50.2628 75.2721 51.9228 78.1821C53.4628 80.8721 53.2028 84.4621 51.2928 86.9021C49.8128 88.8121 47.4228 89.9021 45.0328 89.9021Z" fill="#252424"/>
<path d="M27.2528 66.9121C25.5928 66.9121 23.9528 66.3221 22.7428 65.2121C22.3928 64.8921 22.3728 64.3421 22.6928 63.9921C23.0128 63.6421 23.5628 63.6221 23.9128 63.9421C25.3128 65.2321 27.6328 65.5521 29.4228 64.7021C31.1828 63.8721 32.4528 61.9421 32.5928 59.9221C32.7328 57.9421 31.8428 55.8621 30.2728 54.4821C29.9128 54.1721 29.8728 53.6221 30.1928 53.2621C30.5028 52.9021 31.0528 52.8621 31.4128 53.1821C33.3928 54.9021 34.5028 57.5321 34.3228 60.0421C34.1328 62.7121 32.5028 65.1521 30.1628 66.2621C29.2528 66.7021 28.2528 66.9121 27.2528 66.9121Z" fill="#252424"/>
<path d="M92.6729 22.7321C87.8529 24.3421 83.5829 27.7521 81.3029 32.2921C79.0229 36.8321 78.8829 42.4821 81.3029 46.9521C84.8129 53.4521 93.5429 56.3621 100.443 53.7221C107.973 50.8521 112.543 41.8121 110.343 34.0721C108.133 26.3121 99.2729 20.5221 92.6729 22.7321ZM101.813 43.0421C101.133 44.6321 99.6029 46.1021 98.0529 46.8621C94.5429 48.5821 90.5429 47.1021 88.4629 43.9121C86.3229 40.6321 86.6329 36.2121 88.8429 33.0321C89.9429 31.4521 91.3329 30.2121 93.2729 29.8521C95.0629 29.5221 96.8529 29.8421 98.2629 30.9821C99.1729 31.1421 100.043 31.5221 100.763 32.1221C102.153 33.2721 102.753 35.5721 102.853 37.3121C102.983 39.2021 102.563 41.3021 101.813 43.0421Z" fill="white"/>
<path d="M128.933 37.2921C126.923 36.6821 125.003 35.6321 123.683 34.0121C121.843 31.7421 121.403 28.5321 122.153 25.7121C122.903 22.8921 124.743 20.4421 126.973 18.5521C124.993 15.4121 122.863 12.4721 120.623 9.61206C117.903 11.6221 115.293 13.5321 112.273 13.6821C109.363 13.8321 106.543 12.2321 104.733 9.95206C102.923 7.67206 102.023 4.77206 101.663 1.88206C101.563 1.60206 101.413 1.55206 101.303 1.54206C98.2528 1.31206 95.1928 1.09206 92.1428 0.862061C91.5928 3.71206 90.2928 6.26206 88.2928 8.10206C86.2928 9.94206 83.5928 11.0521 80.8728 10.9621C79.7528 10.9221 78.6528 10.7021 77.5628 10.4621C75.7828 10.0721 73.8928 9.59206 72.6328 8.26206C70.2028 9.91206 68.0228 11.6721 65.9228 13.5021C67.0028 14.2421 67.4528 15.2521 67.8328 16.2321C68.6428 18.3421 69.2628 20.6521 68.7528 22.8521C68.2228 25.1321 66.5028 27.0121 64.4528 28.1421C62.4028 29.2721 60.0328 29.7121 57.7028 29.8521C57.0528 33.1921 56.7428 36.7621 56.6328 40.3421C58.6228 41.0521 60.5128 41.6521 62.2128 42.6421C63.9128 43.6321 65.4328 45.0421 66.1828 46.8621C67.0328 48.9021 66.8328 51.2921 65.9428 53.3221C65.0528 55.3521 63.5328 57.0421 61.8028 58.4321C63.8828 61.8121 65.8828 64.9421 67.9428 68.0421C71.1228 65.9621 75.1228 65.3121 78.6028 66.4321C79.4728 66.7121 80.3128 67.1021 81.0228 67.6721C81.9128 68.3821 82.5728 69.3521 83.0828 70.3621C84.3128 72.8021 84.7728 75.6121 84.3828 78.3221C88.0928 79.0621 91.6828 79.5321 95.2928 79.8221C95.0728 76.0721 96.6928 72.3121 99.6528 70.2521C102.613 68.1921 106.853 68.0621 109.823 70.0921C111.233 71.0521 112.323 72.4221 113.373 73.7721C116.623 71.4821 119.833 69.1321 122.843 66.5521C121.163 63.9421 119.453 61.3121 119.383 58.3721C119.313 55.3021 121.163 52.3721 123.733 50.7021C126.303 49.0321 129.523 48.5321 132.573 48.8521C133.623 45.2821 134.513 41.8021 135.253 38.2821C133.043 38.1021 130.943 37.9021 128.933 37.2921ZM109.773 45.1421C108.533 47.8821 106.523 50.2421 104.103 52.0121C102.693 53.0421 101.143 53.8921 99.4728 54.4221C92.6528 56.6121 84.6528 52.7721 81.4828 46.3421C79.1728 41.6521 79.2728 35.8621 81.7528 31.2521C84.2328 26.6421 89.0028 23.3621 94.1828 22.7021C98.8228 22.1121 104.703 24.6121 108.053 29.1321C111.403 33.6521 112.083 40.0121 109.773 45.1421Z" fill="#6BA8C9"/>
<g opacity="0.1294">
<path d="M113.933 37.682C113.863 37.152 113.753 36.622 113.623 36.102C113.563 35.982 113.513 35.852 113.443 35.732C112.483 33.832 111.323 32.022 110.013 30.342C109.793 30.492 109.633 30.722 109.553 30.972C109.423 31.882 110.123 32.712 110.343 33.572C111.143 35.942 111.663 37.082 111.413 39.252C111.443 40.082 110.073 44.672 109.643 45.242C109.123 46.252 108.533 47.222 107.843 48.132C107.633 48.382 107.563 48.492 107.593 48.502C107.253 48.772 106.953 49.112 106.623 49.392C105.913 49.992 105.203 50.602 104.483 51.202C104.293 51.342 103.983 51.592 103.763 51.822C103.883 51.652 103.563 51.952 103.273 52.192C103.113 52.292 102.403 52.782 102.043 52.972C99.5429 53.852 96.9529 54.342 95.5729 54.422C93.7429 54.592 91.9429 54.122 90.5329 53.792C89.5329 53.502 88.6529 52.502 87.5729 52.712C87.1029 52.822 86.8029 53.182 86.6729 53.592C86.7729 53.702 86.8829 53.812 86.9929 53.922C87.3629 54.222 87.7229 54.532 88.1029 54.822C89.4429 55.692 90.7829 56.572 92.1229 57.432C94.3429 58.072 96.7329 58.202 99.5729 57.662C99.5229 57.662 99.4629 57.672 99.4029 57.682C102.393 57.052 103.323 56.652 105.513 55.522C107.423 54.382 108.953 52.732 110.133 50.862C110.163 50.812 110.203 50.752 110.233 50.702C110.233 50.692 110.243 50.692 110.243 50.682C111.633 48.942 112.693 46.962 113.423 44.862C114.173 42.562 114.163 40.082 113.933 37.682Z" fill="#252424"/>
</g>
<g opacity="0.1294">
<path d="M121.213 62.1221C120.913 62.1421 120.623 62.2121 120.363 62.3621C119.973 62.5721 119.743 62.9221 119.503 63.2821C119.283 63.5621 119.053 63.8521 118.853 64.1521C118.253 64.9121 118.093 65.2421 116.773 66.5821C116.043 67.3621 114.893 67.8521 114.413 68.8321C114.403 68.8521 114.403 68.8721 114.393 68.8921C114.113 69.0521 113.833 69.2221 113.543 69.3721C113.013 69.7021 112.323 69.8621 111.953 70.3821C110.803 71.7521 112.583 73.7621 114.103 72.8321C115.683 71.9921 117.163 71.0021 118.493 69.8021C118.553 69.7321 118.623 69.6721 118.693 69.6021C119.733 68.7721 120.743 67.9021 121.663 66.9421C122.003 66.5821 122.403 66.1621 122.733 65.7021C122.383 65.0021 122.083 64.2921 121.803 63.5621C121.593 63.0721 121.393 62.5921 121.213 62.1221Z" fill="#252424"/>
</g>
<g opacity="0.1294">
<path d="M131.493 38.1121C130.893 40.4221 130.213 42.7121 129.473 44.9821C129.133 46.0321 128.793 47.0921 128.453 48.1621C128.853 48.6621 129.543 48.9421 130.183 48.7421C130.213 48.7321 130.243 48.7121 130.273 48.7021C130.823 49.4821 132.263 49.3821 132.533 48.3021C132.673 47.8021 132.873 47.3121 133.053 46.8021C133.163 46.7521 133.273 46.6821 133.363 46.6021C134.013 46.1221 134.203 45.2221 134.443 44.4921C134.803 43.0121 135.003 41.4921 135.063 39.9621C135.063 39.8721 135.073 39.7821 135.083 39.6921C133.883 39.1921 132.693 38.6621 131.493 38.1121Z" fill="#252424"/>
</g>
<path d="M95.3126 80.6921C95.2926 80.6921 95.2626 80.6921 95.2426 80.6921C91.4326 80.3921 87.8326 79.9021 84.2326 79.1821C83.7826 79.0921 83.4826 78.6621 83.5426 78.2121C83.9026 75.6921 83.4726 73.0421 82.3226 70.7721C81.7826 69.7021 81.1826 68.9121 80.4926 68.3621C79.9326 67.9121 79.2326 67.5621 78.3426 67.2721C75.1426 66.2421 71.4426 66.8021 68.4226 68.7821C68.0226 69.0421 67.4927 68.9321 67.2326 68.5421C65.2027 65.4921 63.1926 62.3421 61.0726 58.9121C60.8426 58.5421 60.9226 58.0621 61.2626 57.7821C63.1026 56.3021 64.4026 54.6921 65.1526 52.9921C66.0126 51.0321 66.1026 48.9221 65.3826 47.2121C64.6126 45.3521 62.9926 44.1121 61.7726 43.4021C60.3526 42.5821 58.7626 42.0221 57.0826 41.4321L56.3426 41.1721C55.9926 41.0421 55.7526 40.7121 55.7726 40.3321C55.8826 36.3921 56.2526 32.8221 56.8526 29.7021C56.9326 29.3121 57.2526 29.0321 57.6526 29.0021C60.2726 28.8421 62.3626 28.3221 64.0426 27.4021C66.0326 26.3121 67.4826 24.5421 67.9127 22.6721C68.4026 20.5621 67.7026 18.2921 67.0226 16.5521C66.6826 15.6621 66.3026 14.8121 65.4326 14.2221C65.2126 14.0721 65.0726 13.8221 65.0526 13.5621C65.0326 13.2921 65.1426 13.0321 65.3426 12.8621C67.7726 10.7421 69.9326 9.05206 72.1426 7.55206C72.4926 7.31206 72.9626 7.36206 73.2526 7.67206C74.3226 8.80206 75.9826 9.23206 77.7326 9.62206C78.8526 9.86206 79.8626 10.0721 80.8826 10.1021C83.3226 10.1821 85.7926 9.22206 87.6826 7.47206C89.4926 5.80206 90.7327 3.46206 91.2626 0.702065C91.3427 0.272065 91.7226 -0.0279354 92.1726 0.00206464L101.333 0.682065C101.833 0.722065 102.243 1.04206 102.443 1.58206C102.463 1.64206 102.483 1.71206 102.493 1.77206C102.893 4.92206 103.863 7.49206 105.383 9.41206C107.143 11.6321 109.763 12.9421 112.203 12.8121C115.003 12.6721 117.583 10.7621 120.083 8.91206C120.463 8.63206 120.993 8.70206 121.283 9.07206C123.793 12.2921 125.893 15.2321 127.683 18.0821C127.913 18.4521 127.843 18.9221 127.513 19.2021C125.893 20.5721 123.793 22.8421 122.973 25.9221C122.253 28.6421 122.773 31.5221 124.343 33.4621C125.423 34.7921 127.093 35.8321 129.173 36.4621C131.093 37.0421 133.103 37.2421 135.343 37.4221C135.593 37.4421 135.823 37.5721 135.963 37.7621C136.113 37.9621 136.163 38.2121 136.113 38.4621C135.383 41.9321 134.503 45.4021 133.423 49.1021C133.303 49.5021 132.913 49.7521 132.503 49.7221C129.373 49.4021 126.433 50.0121 124.213 51.4421C121.753 53.0321 120.193 55.7521 120.253 58.3621C120.313 61.0321 121.873 63.4521 123.523 66.0021L123.583 66.0921C123.813 66.4521 123.743 66.9321 123.423 67.2121C120.293 69.8921 116.993 72.2921 113.883 74.4821C113.503 74.7421 112.983 74.6721 112.703 74.3121C111.763 73.1021 110.693 71.7321 109.343 70.8221C106.723 69.0421 102.863 69.1021 100.143 70.9821C97.5126 72.8021 95.9426 76.2621 96.1526 79.7821C96.1626 80.0321 96.0726 80.2721 95.8926 80.4521C95.7526 80.6021 95.5326 80.6921 95.3126 80.6921ZM85.3526 77.6321C88.3226 78.2021 91.3126 78.6121 94.4226 78.8821C94.4926 75.0721 96.2626 71.5621 99.1726 69.5421C102.503 67.2321 107.093 67.1721 110.323 69.3821C111.623 70.2721 112.683 71.4921 113.553 72.5921C116.233 70.6921 119.043 68.6321 121.713 66.3821C120.123 63.9021 118.593 61.3321 118.523 58.3921C118.453 55.1921 120.313 51.8921 123.273 49.9821C125.643 48.4521 128.693 47.7321 131.953 47.9421C132.833 44.8821 133.583 41.9621 134.213 39.0721C132.253 38.9021 130.453 38.6721 128.663 38.1321C126.253 37.4021 124.293 36.1621 122.993 34.5621C121.083 32.2121 120.433 28.7321 121.293 25.4921C121.973 22.9221 123.533 20.4821 125.823 18.3921C124.273 15.9821 122.503 13.4921 120.433 10.8121C117.943 12.6421 115.343 14.3921 112.293 14.5521C109.293 14.7121 106.133 13.1521 104.023 10.4921C102.363 8.40206 101.293 5.67206 100.823 2.38206L92.7926 1.78206C92.1126 4.58206 90.7626 6.97206 88.8426 8.74206C86.6226 10.8021 83.6926 11.9221 80.8126 11.8321C79.6426 11.7921 78.5126 11.5621 77.3526 11.3121C75.6426 10.9421 73.8826 10.4821 72.5326 9.37206C70.8126 10.5721 69.0926 11.9121 67.2226 13.5121C67.9326 14.2721 68.3126 15.1421 68.6226 15.9321C69.3826 17.9021 70.1726 20.4921 69.5826 23.0621C69.0326 25.4321 67.3126 27.5721 64.8526 28.9121C63.0926 29.8721 60.9826 30.4521 58.4126 30.6721C57.9326 33.3721 57.6226 36.4121 57.5026 39.7421L57.6426 39.7921C59.4026 40.4121 61.0726 40.9921 62.6326 41.9021C64.0826 42.7421 66.0126 44.2321 66.9626 46.5321C67.8526 48.6721 67.7626 51.2721 66.7126 53.6721C65.9426 55.4321 64.6626 57.0921 62.9126 58.6221C64.7126 61.5321 66.4526 64.2421 68.1826 66.8721C71.4926 64.9821 75.4226 64.5021 78.8526 65.6121C79.9426 65.9621 80.8226 66.4121 81.5426 66.9921C82.4326 67.7021 83.1826 68.6721 83.8426 69.9721C85.0626 72.3221 85.5726 75.0121 85.3526 77.6321Z" fill="#252424"/>
<path d="M94.9031 48.412C92.1731 48.412 89.4031 46.902 87.8531 44.462C86.2231 41.892 85.9631 38.402 87.1631 35.362C87.9731 33.302 89.3731 31.582 91.1031 30.502C93.0231 29.312 95.3031 28.942 97.3631 29.492C99.6831 30.122 101.413 31.152 102.513 32.552C103.833 34.242 104.553 36.512 104.543 38.932C104.533 40.582 104.193 42.002 103.513 43.152C102.913 44.162 102.093 44.932 101.353 45.562C99.5031 47.132 97.8431 48.012 96.1331 48.312C95.7231 48.382 95.3131 48.412 94.9031 48.412ZM95.4531 30.972C94.2831 30.972 93.0631 31.312 92.0131 31.972C90.5931 32.852 89.4431 34.282 88.7731 35.992C87.7731 38.532 87.9831 41.422 89.3131 43.532C90.7231 45.762 93.4031 47.022 95.8331 46.602C97.2231 46.362 98.6231 45.612 100.223 44.242C100.843 43.712 101.543 43.062 102.013 42.272C102.533 41.392 102.803 40.262 102.803 38.922C102.813 36.882 102.223 35.002 101.143 33.612C100.283 32.512 98.8531 31.682 96.9031 31.152C96.4431 31.032 95.9531 30.972 95.4531 30.972Z" fill="#252424"/>
<path d="M95.4827 55.902C89.5327 55.902 83.4726 52.332 80.7126 46.732C78.2826 41.792 78.3826 35.702 80.9926 30.852C83.6026 26.002 88.6126 22.552 94.0726 21.852C99.1826 21.192 105.353 24.052 108.753 28.632C112.313 33.432 113.023 40.052 110.563 45.502C109.303 48.292 107.243 50.782 104.613 52.712C103.043 53.862 101.403 54.712 99.7327 55.252C98.3626 55.692 96.9227 55.902 95.4827 55.902ZM95.6026 23.482C95.1626 23.482 94.7226 23.512 94.2926 23.562C89.3726 24.192 84.8627 27.292 82.5127 31.662C80.1627 36.032 80.0727 41.512 82.2627 45.962C85.3327 52.182 92.9326 55.612 99.2126 53.602C100.703 53.122 102.173 52.352 103.593 51.312C105.983 49.562 107.853 47.302 108.983 44.782C111.153 39.972 110.503 33.892 107.363 29.652C104.603 25.932 99.8426 23.482 95.6026 23.482Z" fill="#252424"/>
<path d="M128.933 37.2921C126.923 36.6821 125.003 35.6321 123.683 34.0121C121.843 31.7421 121.403 28.5321 122.153 25.7121C122.903 22.8921 124.743 20.4421 126.973 18.5521C124.993 15.4121 122.863 12.4721 120.623 9.61206C117.903 11.6221 115.293 13.5321 112.273 13.6821C109.363 13.8321 106.543 12.2321 104.733 9.95206C102.923 7.67206 102.023 4.77206 101.663 1.88206C101.563 1.60206 101.413 1.55206 101.303 1.54206C98.2528 1.31206 95.1928 1.09206 92.1428 0.862061C91.5928 3.71206 90.2928 6.26206 88.2928 8.10206C86.2928 9.94206 83.5928 11.0521 80.8728 10.9621C79.7528 10.9221 78.6528 10.7021 77.5628 10.4621C75.7828 10.0721 73.8928 9.59206 72.6328 8.26206C70.2028 9.91206 68.0228 11.6721 65.9228 13.5021C67.0028 14.2421 67.4528 15.2521 67.8328 16.2321C68.6428 18.3421 69.2628 20.6521 68.7528 22.8521C68.2228 25.1321 66.5028 27.0121 64.4528 28.1421C62.4028 29.2721 60.0328 29.7121 57.7028 29.8521C57.0528 33.1921 56.7428 36.7621 56.6328 40.3421C58.6228 41.0521 60.5128 41.6521 62.2128 42.6421C63.9128 43.6321 65.4328 45.0421 66.1828 46.8621C67.0328 48.9021 66.8328 51.2921 65.9428 53.3221C65.0528 55.3521 63.5328 57.0421 61.8028 58.4321C63.8828 61.8121 65.8828 64.9421 67.9428 68.0421C71.1228 65.9621 75.1228 65.3121 78.6028 66.4321C79.4728 66.7121 80.3128 67.1021 81.0228 67.6721C81.9128 68.3821 82.5728 69.3521 83.0828 70.3621C84.3128 72.8021 84.7728 75.6121 84.3828 78.3221C88.0928 79.0621 91.6828 79.5321 95.2928 79.8221C95.0728 76.0721 96.6928 72.3121 99.6528 70.2521C102.613 68.1921 106.853 68.0621 109.823 70.0921C111.233 71.0521 112.323 72.4221 113.373 73.7721C116.623 71.4821 119.833 69.1321 122.843 66.5521C121.163 63.9421 119.453 61.3121 119.383 58.3721C119.313 55.3021 121.163 52.3721 123.733 50.7021C126.303 49.0321 129.523 48.5321 132.573 48.8521C133.623 45.2821 134.513 41.8021 135.253 38.2821C133.043 38.1021 130.943 37.9021 128.933 37.2921ZM109.773 45.1421C108.533 47.8821 106.523 50.2421 104.103 52.0121C102.693 53.0421 101.143 53.8921 99.4728 54.4221C92.6528 56.6121 84.6528 52.7721 81.4828 46.3421C79.1728 41.6521 79.2728 35.8621 81.7528 31.2521C84.2328 26.6421 89.0028 23.3621 94.1828 22.7021C98.8228 22.1121 104.703 24.6121 108.053 29.1321C111.403 33.6521 112.083 40.0121 109.773 45.1421Z" fill="#6BA8C9"/>
<g opacity="0.1294">
<path d="M113.933 37.682C113.863 37.152 113.753 36.622 113.623 36.102C113.563 35.982 113.513 35.852 113.443 35.732C112.483 33.832 111.323 32.022 110.013 30.342C109.793 30.492 109.633 30.722 109.553 30.972C109.423 31.882 110.123 32.712 110.343 33.572C111.143 35.942 111.663 37.082 111.413 39.252C111.443 40.082 110.073 44.672 109.643 45.242C109.123 46.252 108.533 47.222 107.843 48.132C107.633 48.382 107.563 48.492 107.593 48.502C107.253 48.772 106.953 49.112 106.623 49.392C105.913 49.992 105.203 50.602 104.483 51.202C104.293 51.342 103.983 51.592 103.763 51.822C103.883 51.652 103.563 51.952 103.273 52.192C103.113 52.292 102.403 52.782 102.043 52.972C99.5429 53.852 96.9529 54.342 95.5729 54.422C93.7429 54.592 91.9429 54.122 90.5329 53.792C89.5329 53.502 88.6529 52.502 87.5729 52.712C87.1029 52.822 86.8029 53.182 86.6729 53.592C86.7729 53.702 86.8829 53.812 86.9929 53.922C87.3629 54.222 87.7229 54.532 88.1029 54.822C89.4429 55.692 90.7829 56.572 92.1229 57.432C94.3429 58.072 96.7329 58.202 99.5729 57.662C99.5229 57.662 99.4629 57.672 99.4029 57.682C102.393 57.052 103.323 56.652 105.513 55.522C107.423 54.382 108.953 52.732 110.133 50.862C110.163 50.812 110.203 50.752 110.233 50.702C110.233 50.692 110.243 50.692 110.243 50.682C111.633 48.942 112.693 46.962 113.423 44.862C114.173 42.562 114.163 40.082 113.933 37.682Z" fill="#252424"/>
</g>
<g opacity="0.1294">
<path d="M121.213 62.1221C120.913 62.1421 120.623 62.2121 120.363 62.3621C119.973 62.5721 119.743 62.9221 119.503 63.2821C119.283 63.5621 119.053 63.8521 118.853 64.1521C118.253 64.9121 118.093 65.2421 116.773 66.5821C116.043 67.3621 114.893 67.8521 114.413 68.8321C114.403 68.8521 114.403 68.8721 114.393 68.8921C114.113 69.0521 113.833 69.2221 113.543 69.3721C113.013 69.7021 112.323 69.8621 111.953 70.3821C110.803 71.7521 112.583 73.7621 114.103 72.8321C115.683 71.9921 117.163 71.0021 118.493 69.8021C118.553 69.7321 118.623 69.6721 118.693 69.6021C119.733 68.7721 120.743 67.9021 121.663 66.9421C122.003 66.5821 122.403 66.1621 122.733 65.7021C122.383 65.0021 122.083 64.2921 121.803 63.5621C121.593 63.0721 121.393 62.5921 121.213 62.1221Z" fill="#252424"/>
</g>
<g opacity="0.1294">
<path d="M131.493 38.1121C130.893 40.4221 130.213 42.7121 129.473 44.9821C129.133 46.0321 128.793 47.0921 128.453 48.1621C128.853 48.6621 129.543 48.9421 130.183 48.7421C130.213 48.7321 130.243 48.7121 130.273 48.7021C130.823 49.4821 132.263 49.3821 132.533 48.3021C132.673 47.8021 132.873 47.3121 133.053 46.8021C133.163 46.7521 133.273 46.6821 133.363 46.6021C134.013 46.1221 134.203 45.2221 134.443 44.4921C134.803 43.0121 135.003 41.4921 135.063 39.9621C135.063 39.8721 135.073 39.7821 135.083 39.6921C133.883 39.1921 132.693 38.6621 131.493 38.1121Z" fill="#252424"/>
</g>
<path d="M95.3126 80.6921C95.2926 80.6921 95.2626 80.6921 95.2426 80.6921C91.4326 80.3921 87.8326 79.9021 84.2326 79.1821C83.7826 79.0921 83.4826 78.6621 83.5426 78.2121C83.9026 75.6921 83.4726 73.0421 82.3226 70.7721C81.7826 69.7021 81.1826 68.9121 80.4926 68.3621C79.9326 67.9121 79.2326 67.5621 78.3426 67.2721C75.1426 66.2421 71.4426 66.8021 68.4226 68.7821C68.0226 69.0421 67.4927 68.9321 67.2326 68.5421C65.2027 65.4921 63.1926 62.3421 61.0726 58.9121C60.8426 58.5421 60.9226 58.0621 61.2626 57.7821C63.1026 56.3021 64.4026 54.6921 65.1526 52.9921C66.0126 51.0321 66.1026 48.9221 65.3826 47.2121C64.6126 45.3521 62.9926 44.1121 61.7726 43.4021C60.3526 42.5821 58.7626 42.0221 57.0826 41.4321L56.3426 41.1721C55.9926 41.0421 55.7526 40.7121 55.7726 40.3321C55.8826 36.3921 56.2526 32.8221 56.8526 29.7021C56.9326 29.3121 57.2526 29.0321 57.6526 29.0021C60.2726 28.8421 62.3626 28.3221 64.0426 27.4021C66.0326 26.3121 67.4826 24.5421 67.9127 22.6721C68.4026 20.5621 67.7026 18.2921 67.0226 16.5521C66.6826 15.6621 66.3026 14.8121 65.4326 14.2221C65.2126 14.0721 65.0726 13.8221 65.0526 13.5621C65.0326 13.2921 65.1426 13.0321 65.3426 12.8621C67.7726 10.7421 69.9326 9.05206 72.1426 7.55206C72.4926 7.31206 72.9626 7.36206 73.2526 7.67206C74.3226 8.80206 75.9826 9.23206 77.7326 9.62206C78.8526 9.86206 79.8626 10.0721 80.8826 10.1021C83.3226 10.1821 85.7926 9.22206 87.6826 7.47206C89.4926 5.80206 90.7327 3.46206 91.2626 0.702065C91.3427 0.272065 91.7226 -0.0279354 92.1726 0.00206464L101.333 0.682065C101.833 0.722065 102.243 1.04206 102.443 1.58206C102.463 1.64206 102.483 1.71206 102.493 1.77206C102.893 4.92206 103.863 7.49206 105.383 9.41206C107.143 11.6321 109.763 12.9421 112.203 12.8121C115.003 12.6721 117.583 10.7621 120.083 8.91206C120.463 8.63206 120.993 8.70206 121.283 9.07206C123.793 12.2921 125.893 15.2321 127.683 18.0821C127.913 18.4521 127.843 18.9221 127.513 19.2021C125.893 20.5721 123.793 22.8421 122.973 25.9221C122.253 28.6421 122.773 31.5221 124.343 33.4621C125.423 34.7921 127.093 35.8321 129.173 36.4621C131.093 37.0421 133.103 37.2421 135.343 37.4221C135.593 37.4421 135.823 37.5721 135.963 37.7621C136.113 37.9621 136.163 38.2121 136.113 38.4621C135.383 41.9321 134.503 45.4021 133.423 49.1021C133.303 49.5021 132.913 49.7521 132.503 49.7221C129.373 49.4021 126.433 50.0121 124.213 51.4421C121.753 53.0321 120.193 55.7521 120.253 58.3621C120.313 61.0321 121.873 63.4521 123.523 66.0021L123.583 66.0921C123.813 66.4521 123.743 66.9321 123.423 67.2121C120.293 69.8921 116.993 72.2921 113.883 74.4821C113.503 74.7421 112.983 74.6721 112.703 74.3121C111.763 73.1021 110.693 71.7321 109.343 70.8221C106.723 69.0421 102.863 69.1021 100.143 70.9821C97.5126 72.8021 95.9426 76.2621 96.1526 79.7821C96.1626 80.0321 96.0726 80.2721 95.8926 80.4521C95.7526 80.6021 95.5326 80.6921 95.3126 80.6921ZM85.3526 77.6321C88.3226 78.2021 91.3126 78.6121 94.4226 78.8821C94.4926 75.0721 96.2626 71.5621 99.1726 69.5421C102.503 67.2321 107.093 67.1721 110.323 69.3821C111.623 70.2721 112.683 71.4921 113.553 72.5921C116.233 70.6921 119.043 68.6321 121.713 66.3821C120.123 63.9021 118.593 61.3321 118.523 58.3921C118.453 55.1921 120.313 51.8921 123.273 49.9821C125.643 48.4521 128.693 47.7321 131.953 47.9421C132.833 44.8821 133.583 41.9621 134.213 39.0721C132.253 38.9021 130.453 38.6721 128.663 38.1321C126.253 37.4021 124.293 36.1621 122.993 34.5621C121.083 32.2121 120.433 28.7321 121.293 25.4921C121.973 22.9221 123.533 20.4821 125.823 18.3921C124.273 15.9821 122.503 13.4921 120.433 10.8121C117.943 12.6421 115.343 14.3921 112.293 14.5521C109.293 14.7121 106.133 13.1521 104.023 10.4921C102.363 8.40206 101.293 5.67206 100.823 2.38206L92.7926 1.78206C92.1126 4.58206 90.7626 6.97206 88.8426 8.74206C86.6226 10.8021 83.6926 11.9221 80.8126 11.8321C79.6426 11.7921 78.5126 11.5621 77.3526 11.3121C75.6426 10.9421 73.8826 10.4821 72.5326 9.37206C70.8126 10.5721 69.0926 11.9121 67.2226 13.5121C67.9326 14.2721 68.3126 15.1421 68.6226 15.9321C69.3826 17.9021 70.1726 20.4921 69.5826 23.0621C69.0326 25.4321 67.3126 27.5721 64.8526 28.9121C63.0926 29.8721 60.9826 30.4521 58.4126 30.6721C57.9326 33.3721 57.6226 36.4121 57.5026 39.7421L57.6426 39.7921C59.4026 40.4121 61.0726 40.9921 62.6326 41.9021C64.0826 42.7421 66.0126 44.2321 66.9626 46.5321C67.8526 48.6721 67.7626 51.2721 66.7126 53.6721C65.9426 55.4321 64.6626 57.0921 62.9126 58.6221C64.7126 61.5321 66.4526 64.2421 68.1826 66.8721C71.4926 64.9821 75.4226 64.5021 78.8526 65.6121C79.9426 65.9621 80.8226 66.4121 81.5426 66.9921C82.4326 67.7021 83.1826 68.6721 83.8426 69.9721C85.0626 72.3221 85.5726 75.0121 85.3526 77.6321Z" fill="#252424"/>
<path d="M94.9031 48.412C92.1731 48.412 89.4031 46.902 87.8531 44.462C86.2231 41.892 85.9631 38.402 87.1631 35.362C87.9731 33.302 89.3731 31.582 91.1031 30.502C93.0231 29.312 95.3031 28.942 97.3631 29.492C99.6831 30.122 101.413 31.152 102.513 32.552C103.833 34.242 104.553 36.512 104.543 38.932C104.533 40.582 104.193 42.002 103.513 43.152C102.913 44.162 102.093 44.932 101.353 45.562C99.5031 47.132 97.8431 48.012 96.1331 48.312C95.7231 48.382 95.3131 48.412 94.9031 48.412ZM95.4531 30.972C94.2831 30.972 93.0631 31.312 92.0131 31.972C90.5931 32.852 89.4431 34.282 88.7731 35.992C87.7731 38.532 87.9831 41.422 89.3131 43.532C90.7231 45.762 93.4031 47.022 95.8331 46.602C97.2231 46.362 98.6231 45.612 100.223 44.242C100.843 43.712 101.543 43.062 102.013 42.272C102.533 41.392 102.803 40.262 102.803 38.922C102.813 36.882 102.223 35.002 101.143 33.612C100.283 32.512 98.8531 31.682 96.9031 31.152C96.4431 31.032 95.9531 30.972 95.4531 30.972Z" fill="#252424"/>
<path d="M95.4827 55.902C89.5327 55.902 83.4726 52.332 80.7126 46.732C78.2826 41.792 78.3826 35.702 80.9926 30.852C83.6026 26.002 88.6126 22.552 94.0726 21.852C99.1826 21.192 105.353 24.052 108.753 28.632C112.313 33.432 113.023 40.052 110.563 45.502C109.303 48.292 107.243 50.782 104.613 52.712C103.043 53.862 101.403 54.712 99.7327 55.252C98.3626 55.692 96.9227 55.902 95.4827 55.902ZM95.6026 23.482C95.1626 23.482 94.7226 23.512 94.2926 23.562C89.3726 24.192 84.8627 27.292 82.5127 31.662C80.1627 36.032 80.0727 41.512 82.2627 45.962C85.3327 52.182 92.9326 55.612 99.2126 53.602C100.703 53.122 102.173 52.352 103.593 51.312C105.983 49.562 107.853 47.302 108.983 44.782C111.153 39.972 110.503 33.892 107.363 29.652C104.603 25.932 99.8426 23.482 95.6026 23.482Z" fill="#252424"/>
<path d="M27.123 95.192C27.093 95.192 27.063 95.192 27.033 95.182C24.373 94.302 22.223 91.942 21.573 89.162C20.923 86.422 21.723 83.402 23.643 81.282C23.753 81.162 23.933 81.152 24.053 81.262C24.173 81.372 24.183 81.552 24.073 81.672C22.273 83.652 21.533 86.472 22.133 89.032C22.743 91.612 24.733 93.812 27.213 94.632C27.363 94.682 27.443 94.842 27.393 94.992C27.353 95.112 27.243 95.192 27.123 95.192Z" fill="#252424"/>
<path d="M31.4925 92.532C31.4525 92.532 31.4125 92.522 31.3725 92.502C29.9625 91.842 28.8725 90.482 28.5425 88.962C28.2025 87.442 28.6125 85.752 29.6025 84.552C29.7025 84.432 29.8825 84.412 30.0125 84.512C30.1325 84.612 30.1525 84.792 30.0525 84.922C29.1625 85.992 28.8025 87.492 29.1025 88.842C29.4025 90.192 30.3625 91.392 31.6225 91.982C31.7625 92.052 31.8325 92.222 31.7625 92.362C31.7025 92.472 31.6025 92.532 31.4925 92.532Z" fill="#252424"/>
<path d="M18.6626 70.392C18.5926 70.392 18.5226 70.372 18.4726 70.322C16.8626 68.862 15.7726 67.022 15.3926 65.132C14.9626 63.012 15.4626 60.822 16.7126 59.262C17.6726 58.062 19.0726 57.262 20.1926 56.612C20.3326 56.532 20.5026 56.582 20.5826 56.712C20.6626 56.852 20.6126 57.022 20.4826 57.102C19.4026 57.722 18.0626 58.502 17.1626 59.622C16.0226 61.042 15.5726 63.052 15.9626 65.012C16.3126 66.782 17.3526 68.512 18.8626 69.892C18.9826 70.002 18.9926 70.182 18.8826 70.302C18.8126 70.362 18.7426 70.392 18.6626 70.392Z" fill="#252424"/>
<path d="M38.4626 52.632C38.3326 52.632 38.2026 52.532 38.1826 52.402C37.5026 48.942 38.0026 45.292 39.6026 42.142C41.1926 38.992 43.8326 36.422 47.0226 34.922C47.1626 34.852 47.3426 34.912 47.4026 35.062C47.4726 35.202 47.4126 35.382 47.2626 35.442C44.1826 36.892 41.6426 39.362 40.1126 42.402C38.5726 45.442 38.0926 48.952 38.7426 52.292C38.7726 52.452 38.6726 52.602 38.5126 52.632C38.5026 52.632 38.4826 52.632 38.4626 52.632Z" fill="#252424"/>
<path d="M47.303 100.202C46.313 100.202 45.313 99.912 44.523 99.312C43.273 98.372 42.593 96.922 41.993 95.642C41.923 95.502 41.983 95.322 42.133 95.262C42.273 95.192 42.453 95.252 42.513 95.402C43.083 96.622 43.733 98.002 44.863 98.852C46.493 100.072 49.033 99.832 50.403 98.332C50.513 98.212 50.693 98.202 50.813 98.312C50.933 98.422 50.933 98.602 50.833 98.722C49.943 99.692 48.623 100.202 47.303 100.202Z" fill="#252424"/>
<path d="M76.7822 106.942C75.1322 106.942 73.4222 106.492 71.8422 105.612C69.7722 104.462 67.9722 102.632 66.4822 100.182C66.4022 100.042 66.4422 99.8721 66.5822 99.7821C66.7122 99.7021 66.8922 99.7421 66.9822 99.8821C68.4222 102.242 70.1522 104.002 72.1322 105.112C74.4222 106.392 77.0022 106.712 79.2022 106.002C79.3522 105.952 79.5122 106.032 79.5622 106.192C79.6122 106.342 79.5322 106.502 79.3722 106.552C78.5422 106.802 77.6722 106.942 76.7822 106.942Z" fill="#252424"/>
<path d="M86.8725 104.112C84.5625 104.112 82.4025 102.722 80.3825 101.272C80.2525 101.182 80.2225 101.002 80.3125 100.872C80.4025 100.742 80.5825 100.712 80.7125 100.802C82.9025 102.372 85.2525 103.872 87.6925 103.472C87.8525 103.442 88.0025 103.552 88.0225 103.712C88.0525 103.872 87.9425 104.022 87.7825 104.042C87.4825 104.082 87.1725 104.112 86.8725 104.112Z" fill="#252424"/>
<path d="M106.843 100.772C105.773 100.772 104.673 100.412 103.723 99.7121C102.473 98.8021 101.673 97.4721 101.543 96.0721C101.533 95.9121 101.643 95.7721 101.803 95.7621C101.963 95.7521 102.103 95.8621 102.113 96.0221C102.223 97.2621 102.933 98.4321 104.053 99.2521C105.173 100.062 106.513 100.372 107.723 100.102C107.883 100.062 108.033 100.162 108.063 100.322C108.103 100.472 108.003 100.632 107.843 100.662C107.523 100.732 107.183 100.772 106.843 100.772Z" fill="#252424"/>
<path d="M130.813 89.5321C130.683 89.5321 130.563 89.4421 130.533 89.3021C130.503 89.1421 130.603 88.9921 130.753 88.9621C131.753 88.7421 132.383 87.7221 132.893 86.7821C133.203 86.2021 133.503 85.5921 133.323 85.0421C133.213 84.6821 132.903 84.4021 132.583 84.1121C132.273 83.8321 131.963 83.5421 131.763 83.1521C131.693 83.0121 131.753 82.8321 131.893 82.7621C132.033 82.6921 132.213 82.7521 132.283 82.8921C132.433 83.1921 132.693 83.4321 132.973 83.6821C133.333 84.0121 133.713 84.3621 133.873 84.8621C134.113 85.6221 133.753 86.3921 133.393 87.0421C132.773 88.1721 132.043 89.2521 130.873 89.5121C130.853 89.5321 130.833 89.5321 130.813 89.5321Z" fill="#252424"/>
<path d="M133.443 76.9321C133.363 76.9321 133.273 76.8921 133.213 76.8221C133.113 76.7021 133.133 76.5121 133.263 76.4121C136.023 74.2021 137.803 70.7821 138.043 67.2621C138.283 63.7421 136.963 60.1121 134.533 57.5521C134.423 57.4421 134.423 57.2521 134.543 57.1421C134.663 57.0321 134.843 57.0321 134.953 57.1521C137.503 59.8221 138.873 63.6121 138.623 67.3021C138.373 70.9821 136.513 74.5621 133.633 76.8721C133.563 76.9121 133.503 76.9321 133.443 76.9321Z" fill="#252424"/>
<path d="M128.633 75.8321C128.563 75.8321 128.503 75.8121 128.453 75.7621C128.333 75.6621 128.313 75.4821 128.413 75.3521C129.433 74.1321 130.493 72.8621 131.153 71.3921C131.873 69.8021 131.993 68.1521 131.483 66.8521C131.423 66.7021 131.493 66.5321 131.643 66.4821C131.793 66.4221 131.963 66.4921 132.013 66.6421C132.593 68.1021 132.473 69.8721 131.673 71.6321C130.973 73.1721 129.893 74.4621 128.843 75.7221C128.803 75.7921 128.723 75.8321 128.633 75.8321Z" fill="#252424"/>
<g opacity="0.1294">
<path d="M1.7025 70.9221C-0.5675 70.9621 -0.5675 74.3421 1.7025 74.3821C3.9725 74.3421 3.9725 70.9621 1.7025 70.9221Z" fill="#252424"/>
</g>
<g opacity="0.1294">
<path d="M133.732 47.592C133.292 47.692 132.982 48.002 132.672 48.312C132.652 48.322 132.642 48.332 132.622 48.342C128.492 49.592 123.022 49.942 120.912 54.292C119.802 56.682 119.922 59.492 120.732 61.952C121.292 63.602 122.322 65.012 123.202 66.492C122.272 67.282 120.562 68.642 118.732 69.662C117.302 70.672 115.872 71.672 114.332 72.502C113.862 71.692 112.932 71.262 112.052 70.942C109.642 70.012 107.092 69.222 104.482 69.252C100.022 69.542 97.0424 72.562 95.8224 76.712C95.4624 78.302 95.3724 79.062 95.3124 79.612C93.5824 79.402 91.8524 79.272 90.1224 79.072C87.7124 78.742 88.2324 78.842 86.0724 78.512C85.9024 78.472 85.7324 78.442 85.5624 78.422C85.3324 77.502 85.1824 76.552 84.9524 75.632C84.3024 72.352 82.3724 69.442 79.5724 67.612C78.0924 66.652 76.3824 66.062 74.6224 65.922C74.0124 65.862 74.4024 65.902 74.7824 65.952C73.7824 65.762 72.8024 65.862 71.7924 65.952C71.0024 66.052 70.1224 65.922 69.3824 66.222C67.4324 66.972 68.0524 69.972 70.1324 69.942C71.1824 69.902 72.2424 69.862 73.2924 69.952C73.4124 69.972 73.5324 69.992 73.6524 70.012C73.9624 70.052 74.7824 70.342 75.0924 70.442C78.2824 72.132 79.1624 73.372 79.8824 75.332C80.6024 77.272 80.5124 79.702 81.6024 81.452C82.1824 82.312 83.2224 82.542 84.1324 82.282C84.2824 82.362 84.4424 82.432 84.6124 82.472C87.9224 83.142 91.2324 83.772 94.6024 84.022C96.6924 84.302 99.0524 84.242 99.5824 81.752C99.8424 80.172 100.122 78.582 100.702 77.092C100.822 76.872 101.182 76.152 101.392 75.902C101.472 75.782 101.562 75.662 101.652 75.552C101.682 75.522 101.702 75.492 101.742 75.452C101.932 75.232 102.142 75.042 102.362 74.852C102.422 74.812 102.482 74.772 102.572 74.722C102.872 74.592 102.642 74.542 104.092 74.152C104.222 74.122 104.352 74.102 104.472 74.072C104.822 74.052 105.172 74.062 105.522 74.102C105.802 74.142 106.232 74.212 106.462 74.262C107.042 74.362 107.642 74.512 108.222 74.692C109.242 75.302 110.712 76.332 110.562 76.212C111.232 76.782 112.132 77.742 113.032 77.332C113.462 77.402 113.952 77.342 114.502 77.102C116.622 76.042 118.722 74.952 120.622 73.512C122.632 72.262 124.672 70.942 126.372 69.282C127.352 68.902 128.022 67.712 127.372 66.612C126.082 63.372 124.452 61.912 124.132 59.322C123.852 55.622 124.512 54.422 130.672 52.662C132.252 52.132 134.142 52.092 135.352 50.812C136.882 49.562 135.662 47.092 133.732 47.592Z" fill="#252424"/>
</g>
<g opacity="0.1294">
<path d="M54.0524 101.012C52.9424 100.712 51.9424 101.552 50.8624 101.682C49.1524 101.962 49.0124 102.062 46.4824 101.382C44.8424 100.792 45.2124 101.092 43.4924 99.9921C43.4624 99.9721 43.4324 99.9421 43.4024 99.9221C43.1824 99.7421 42.6924 99.3321 42.5224 99.1721C42.2824 99.0121 41.5924 98.1921 41.3024 97.8421C40.7224 97.0621 40.1724 96.2621 39.6224 95.4521C39.4124 95.0921 39.0624 94.8221 38.6524 94.7121C37.3124 94.2921 36.0824 95.9021 36.8324 97.0821C38.8524 100.282 41.1724 103.682 44.9124 104.992C47.1324 105.932 49.5724 106.152 51.9124 105.602C52.6824 105.442 53.4224 105.192 54.1424 104.882C54.6124 104.732 55.0124 104.412 55.2624 103.982C55.9424 102.892 55.3024 101.352 54.0524 101.012Z" fill="#252424"/>
</g>
<g opacity="0.1294">
<path d="M94.4526 100.502C94.2626 100.552 94.1026 100.642 93.9526 100.752C94.0326 100.682 93.5526 101.062 93.3426 101.242C92.0826 102.222 92.5826 101.912 90.4626 103.442C86.7126 105.722 84.5226 106.962 80.9926 107.892C79.2326 108.212 76.8126 108.622 73.7526 108.262C72.2726 108.012 67.6326 106.552 66.5526 105.232C65.1126 103.862 65.3726 104.092 64.2526 102.432C63.8626 101.912 63.6326 101.232 63.1026 100.852C61.6326 99.642 59.5226 101.502 60.5026 103.132C61.9026 105.522 63.4726 107.902 65.7926 109.492C67.7726 110.822 70.0726 111.682 72.3826 112.222C75.8726 112.902 79.5226 112.472 82.9226 111.522C86.8126 110.122 90.5026 108.082 93.7026 105.452C94.5926 104.582 95.7126 103.742 96.3426 102.672C96.9326 101.502 95.6926 100.132 94.4526 100.502Z" fill="#252424"/>
</g>
<g opacity="0.1294">
<path d="M105.912 100.492C105.832 100.502 105.752 100.512 105.672 100.522C104.892 100.652 104.112 100.632 103.322 100.552C103.232 100.542 103.142 100.522 103.052 100.512C102.822 100.492 102.312 100.312 102.052 100.222C101.752 100.082 101.472 99.912 101.202 99.732C100.802 99.492 100.422 99.142 99.9321 99.142C97.9221 98.792 96.9621 101.642 98.7221 102.642C100.542 103.952 102.812 104.442 105.032 104.322C106.242 104.212 108.012 104.062 108.132 102.522C108.362 101.302 107.082 100.192 105.912 100.492Z" fill="#252424"/>
</g>
<g opacity="0.1294">
<path d="M88.552 88.2521C87.822 88.8321 86.202 90.8721 84.602 92.2221C84.452 92.3521 84.292 92.4721 84.142 92.6021C83.402 93.1421 82.602 93.6021 81.772 93.9821C81.122 94.2321 80.432 94.3821 79.742 94.4921C79.662 94.5021 79.572 94.5021 79.492 94.5121C78.372 94.7921 74.782 94.0621 72.562 92.6521C71.392 91.8921 71.932 92.2521 71.002 91.5021C70.712 91.2121 70.312 91.0421 69.902 91.0521C68.572 91.0021 67.832 92.7821 68.802 93.7021C70.792 95.6621 73.332 97.0121 75.972 97.8821C82.262 99.9521 87.762 95.7821 90.672 90.4321C91.532 89.0821 89.932 87.4321 88.552 88.2521Z" fill="#252424"/>
</g>
<g opacity="0.1294">
<path d="M136.532 84.342C136.262 82.912 136.152 81.332 135.432 80.062C134.422 78.622 132.072 79.812 132.562 81.492C133.122 83.662 133.172 84.022 133.282 85.642C133.272 87.342 133.432 86.672 132.902 88.282C132.442 89.822 134.222 91.182 135.592 90.352C137.342 89.012 136.792 86.232 136.532 84.342Z" fill="#252424"/>
</g>
<g opacity="0.1294">
<path d="M133.952 107.562C133.652 104.732 132.952 101.972 132.102 99.262C131.782 98.172 131.432 97.082 131.062 96.012C130.942 95.592 130.662 95.2221 130.282 95.0021C129.042 94.2221 127.362 95.512 127.792 96.912C130.152 103.912 130.912 109.002 130.302 116.512C130.082 119.012 129.892 119.762 129.712 121.402C129.682 121.642 129.662 121.882 129.632 122.122C129.612 122.212 129.602 122.292 129.602 122.382C129.602 122.392 129.602 122.412 129.602 122.422C129.602 122.412 129.602 122.392 129.612 122.382C129.612 122.482 129.612 122.582 129.642 122.672C129.652 122.922 129.722 123.142 129.862 123.362C130.432 124.392 131.942 124.572 132.752 123.732C133.162 123.352 133.262 122.822 133.332 122.292C133.512 121.362 133.652 120.422 133.792 119.482C134.472 115.542 134.412 111.512 133.952 107.562Z" fill="#252424"/>
</g>
<g opacity="0.1294">
<path d="M142.842 65.082C142.652 63.362 142.322 61.662 141.742 60.022C141.522 59.392 141.392 58.642 140.742 58.302C139.552 57.552 137.942 58.792 138.362 60.132C139.462 63.572 139.632 66.632 139.132 69.312C138.492 72.532 137.852 72.792 137.602 74.032C137.342 75.252 138.672 76.352 139.832 75.992C140.842 75.712 141.172 74.652 141.582 73.802C142.752 71.092 143.192 68.012 142.842 65.082Z" fill="#252424"/>
</g>
</svg>
