<svg width="136" height="134" fill="none" xmlns="http://www.w3.org/2000/svg"><path d="M65.3 133.53c-3.28 0-6.44-.9-9.23-2.69-5.55-3.57-8.81-8.62-12.26-13.96-1.3-2.01-2.64-4.1-4.12-6.09-2.45-3.31-5.84-6.12-9.55-7.9a.864.864 0 01-.37-.34c-2.72-4.63-5.81-9.87-10.65-12.84-.97-.59-2.04-1.02-3.17-1.46-1.47-.58-2.99-1.18-4.3-2.2C4.68 80.64.9 75.05.09 68.94c-.69-5.19 2.53-20.6 13.86-24.53 5.18-1.8 6.84-3.39 8.31-4.79.93-.88 1.8-1.72 3.34-2.47 4.19-2.06 6.3-5.3 8.52-8.73 1.94-2.99 3.95-6.08 7.42-8.27 2.77-1.75 4.63-4.47 6.6-7.36 1.04-1.52 2.11-3.1 3.33-4.52 4-4.65 9.67-7.63 15.56-8.18 6.1-.58 12.32 1.53 16.63 5.62 2.31 2.19 4.05 4.88 5.73 7.48 1.12 1.73 2.28 3.53 3.59 5.13 2.56 3.13 5.83 5.71 9.01 8.22 3.32 2.62 6.74 5.32 9.45 8.69.74.92 1.3 2.05 1.85 3.14.65 1.29 1.32 2.63 2.23 3.49.31.3.6.57.86.83 1.78 1.72 2.67 2.58 6.95 4.63 3.85 1.85 9.49 8.25 10.78 12.23 3.63 11.19-1.39 23.35-11.67 28.3-1.17.56-2.67 1.06-4.13 1.55-1.4.47-2.85.95-3.92 1.47-3.45 1.66-5.76 4.92-8.03 8.4-.04.07-.09.13-.15.18l-11.3 9.97c-1.65 1.46-3.36 2.96-4.7 4.71-1.08 1.41-1.91 2.95-2.79 4.59-.35.65-.7 1.3-1.06 1.94-3.28 5.74-7.26 8.44-12.6 10.94-2.81 1.28-5.68 1.93-8.46 1.93zm-34.18-32.09c3.92 1.93 7.36 4.8 9.96 8.32 1.51 2.04 2.87 4.15 4.18 6.18 3.35 5.18 6.51 10.08 11.74 13.45 4.71 3.03 10.39 3.25 16.01.62 5.17-2.41 8.76-4.86 11.83-10.23.36-.63.7-1.26 1.04-1.9.88-1.62 1.78-3.3 2.94-4.82 1.44-1.88 3.21-3.45 4.93-4.96l11.21-9.89c2.29-3.51 4.85-7.08 8.66-8.91 1.17-.56 2.67-1.06 4.13-1.55 1.4-.47 2.85-.95 3.92-1.47 9.5-4.57 14.14-15.84 10.78-26.21-1.16-3.57-6.42-9.54-9.88-11.2-4.52-2.17-5.55-3.16-7.4-4.95-.26-.25-.54-.52-.85-.81-1.12-1.06-1.87-2.54-2.58-3.97-.53-1.06-1.04-2.06-1.66-2.84-2.58-3.22-5.93-5.86-9.17-8.42-3.24-2.56-6.6-5.2-9.27-8.48-1.37-1.67-2.55-3.51-3.7-5.28-1.7-2.63-3.3-5.11-5.46-7.16-3.96-3.75-9.67-5.68-15.28-5.15-5.45.52-10.71 3.28-14.41 7.59-1.16 1.35-2.21 2.88-3.22 4.36-1.98 2.91-4.03 5.91-7.11 7.85-3.15 1.98-4.97 4.78-6.89 7.74-2.26 3.47-4.59 7.07-9.21 9.34-1.3.64-2.04 1.35-2.91 2.17-1.6 1.52-3.41 3.25-8.94 5.17C4.6 49.48 1.11 63.49 1.8 68.71c.75 5.63 4.31 10.85 10.9 15.96 1.11.86 2.46 1.39 3.88 1.95 1.15.46 2.34.93 3.44 1.6 5.12 3.15 8.3 8.47 11.1 13.22z" fill="#252424"/><path d="M108.639 31.45c-11.76-13.09-30.55-19.15-47.91-16.32-17.37 2.83-32.95 14.14-41.87 29.31-2.54 4.31-4.59 8.98-5.41 13.91-.94 5.67-.22 11.51 1.21 17.07 3.17 12.33 9.49 22.83 19.2 30.39 8.36 6.52 18.66 11.62 29.21 12.66 10.55 1.04 21.59-1.2 30.28-7.28 3.29-2.3 6.16-5.32 7.44-6.76 6.51-7.26 13.07-14.75 16.8-23.76 6.74-16.24 2.8-36.13-8.95-49.22zM88.189 85.8c-.6.6-21.61 18.26-39.44.43-14.35-14.35-8.99-26.26-5.38-32.59 3.85-6.75 13.54-14.45 21.36-15.51 7.82-1.07 18.83 2.09 24.32 8.16 11.7 12.96 8.19 30.46-.86 39.51z" fill="#fff"/><path d="M68.13 119.6c-1.7 0-3.42-.08-5.14-.25-9.73-.96-20.26-5.52-29.66-12.84-9.6-7.48-16.16-17.86-19.5-30.86-1.69-6.55-2.09-12.25-1.23-17.43.75-4.53 2.56-9.18 5.52-14.21 9.3-15.79 25.18-26.9 42.48-29.72 17.9-2.92 37.02 3.59 48.689 16.59 12.24 13.63 15.9 33.78 9.11 50.15-3.94 9.5-11.16 17.54-16.96 24.01-1.42 1.58-4.3 4.58-7.59 6.89-7.19 5.01-16.17 7.67-25.72 7.67zm1.06-104.28c-2.78 0-5.57.22-8.32.67-16.8 2.74-32.23 13.54-41.27 28.89-2.85 4.85-4.59 9.3-5.3 13.62-.82 4.94-.43 10.4 1.2 16.71 3.25 12.62 9.6 22.69 18.89 29.93 9.14 7.13 19.36 11.56 28.77 12.49 11.03 1.09 21.57-1.44 29.7-7.13 3.15-2.2 5.92-5.1 7.299-6.63 5.71-6.36 12.82-14.29 16.65-23.51 6.54-15.77 3-35.19-8.8-48.33-9.51-10.58-24.1-16.71-38.82-16.71zm-2.46 79.73c-5.95 0-12.45-2.06-18.6-8.21-14.1-14.1-9.9-25.95-5.52-33.63 3.87-6.78 13.63-14.8 21.99-15.94 7.64-1.04 19.11 1.83 25.08 8.44 11.829 13.1 8.84 30.98-.88 40.7-.14.14-9.99 8.64-22.07 8.64zm1.04-56.25c-1.03 0-2.02.06-2.93.19-7.74 1.06-17.14 8.8-20.72 15.09-4.1 7.19-8.02 18.28 5.24 31.55 17.43 17.43 37.99-.2 38.22-.43 9.15-9.15 11.96-25.99.82-38.32-4.79-5.32-13.74-8.08-20.63-8.08z" fill="#252424"/><path d="M91.57 20.4c-5.19 6.01-8.69 12.15-11.47 18.8-.31.74-.79 1.6-.24 2.36.26.37.68.59 1.07.81 5.6 3.1 9.88 7.79 12.92 13.95 5.1 1.17 16.81-7.53 23.35-12.64-.49-3.46-2.26-5.93-5.31-9.18-5.63-6.01-10.67-12.52-17.89-15.2-.95-.36-1.54.07-2.43 1.1z" fill="#6BA8C9"/><path d="M94.87 57.29c-.44 0-.85-.04-1.22-.13a.87.87 0 01-.58-.46c-2.98-6.04-7.21-10.61-12.56-13.57-.45-.25-.98-.54-1.35-1.06-.77-1.08-.28-2.21.05-2.96l.1-.24c3.07-7.36 6.76-13.41 11.61-19.04.86-1 1.84-1.93 3.39-1.35 6.289 2.33 10.819 7.31 15.629 12.59.86.94 1.72 1.89 2.59 2.82 3.1 3.31 5 5.95 5.53 9.65a.87.87 0 01-.32.8c-11.24 8.79-18.58 12.95-22.87 12.95zm-.45-1.75c3.53.42 10.879-3.7 21.839-12.23-.56-3.01-2.22-5.25-5-8.23-.88-.94-1.75-1.89-2.61-2.84-4.66-5.12-9.05-9.95-14.95-12.14-.33-.12-.55-.2-1.47.86-4.73 5.48-8.33 11.38-11.33 18.57l-.11.26c-.29.67-.41 1.01-.23 1.26.14.2.44.36.76.54 5.57 3.1 9.97 7.78 13.1 13.95z" fill="#252424"/><path d="M44.97 112.39c5.27-6.1 8.85-12.3 11.69-19.03.32-.75.81-1.61.26-2.38-.26-.37-.68-.59-1.07-.8-5.62-3.08-10.2-7.48-13.21-13.65-5.12-1.14-16.7 7.42-23.32 12.61.47 3.49 2.24 5.96 5.28 9.21 5.62 6.01 10.66 12.54 17.91 15.18.95.34 1.55-.09 2.46-1.14z" fill="#6BA8C9"/><path d="M43.12 114.51c-.28 0-.58-.05-.9-.17-6.32-2.3-10.85-7.29-15.65-12.58-.86-.94-1.72-1.89-2.59-2.82-3.1-3.32-5-5.97-5.51-9.69-.04-.3.08-.61.32-.8 12.12-9.5 19.98-13.68 24.04-12.78.26.06.47.23.59.46 2.75 5.65 7.08 10.11 12.85 13.27.46.25.99.54 1.36 1.06.77 1.08.27 2.22-.06 2.98l-.1.24c-3.15 7.44-6.91 13.56-11.84 19.26-.7.82-1.46 1.57-2.51 1.57zm-22.86-25c.54 3.03 2.19 5.27 4.98 8.25.88.94 1.75 1.89 2.61 2.84 4.65 5.12 9.05 9.96 14.97 12.11.34.12.56.2 1.51-.89 4.81-5.56 8.48-11.53 11.55-18.8l.11-.26c.31-.7.41-1.03.24-1.28-.14-.2-.44-.36-.75-.53C49.5 87.67 45 83.09 42.08 77.3c-2.59-.26-8.48 1.79-21.82 12.21z" fill="#252424"/><path d="M20.76 40.93c1.74 2.39 4.34 4.16 6.71 5.93 4.51 3.36 8.43 5.33 13.33 7.33.87.36 1.69 1.21 2.88.68 2.6-4.31 8.26-9.79 12.72-12.11.61-2.02-.25-3.98-1.1-5.72-2.28-4.65-4.63-9.27-7.03-13.84-.8-1.52-1.62-3.06-2.95-4.48-1.97-.33-4 1.08-5.7 2.44-6.12 4.9-11.88 10.29-17.19 16.09-.93 1-2.47 2.58-1.67 3.68z" fill="#6BA8C9"/><path d="M42.92 55.91c-.77 0-1.39-.35-1.89-.63-.2-.11-.39-.22-.56-.28-4.69-1.91-8.78-3.9-13.52-7.44l-.82-.6c-2.19-1.62-4.45-3.29-6.07-5.51-1.18-1.62.56-3.51 1.59-4.64l.13-.14c5.32-5.82 11.14-11.26 17.28-16.18 1.98-1.59 4.13-3.01 6.39-2.62.19.03.36.12.49.26 1.43 1.54 2.31 3.2 3.08 4.67 2.4 4.56 4.77 9.23 7.04 13.86.96 1.96 1.85 4.07 1.16 6.35-.07.22-.22.41-.43.52-4.23 2.21-9.79 7.5-12.38 11.8a.86.86 0 01-.39.34c-.39.17-.76.24-1.1.24zM21.46 40.42c1.47 2.01 3.62 3.6 5.7 5.14l.82.61c4.59 3.42 8.57 5.36 13.13 7.22.27.11.51.25.75.38.57.32.88.46 1.23.39 2.73-4.36 8.22-9.6 12.56-11.98.33-1.57-.35-3.14-1.14-4.75-2.27-4.62-4.63-9.27-7.02-13.82-.68-1.29-1.45-2.75-2.6-4.06-1.52-.09-3.24 1.1-4.74 2.3a151.106 151.106 0 00-17.09 15.99l-.13.14c-.54.58-1.82 1.96-1.47 2.44z" fill="#252424"/><path d="M89.3 114.37c-2.19-1.84-3.69-4.48-5.22-6.9-2.89-4.61-4.47-8.55-5.99-13.46-.27-.88-1.03-1.72-.41-2.85 4.47-2.3 10.36-7.53 13.04-11.77 2.04-.48 3.88.47 5.51 1.41 4.36 2.5 8.68 5.06 12.95 7.67 1.42.87 2.86 1.76 4.13 3.14.15 1.95-1.42 3.85-2.91 5.44a157.482 157.482 0 01-17.35 15.91c-1.05.84-2.74 2.25-3.75 1.41z" fill="#6BA8C9"/><path d="M90.02 115.5c-.44 0-.87-.13-1.27-.47-2.05-1.72-3.48-4.03-4.87-6.27l-.52-.83c-3.04-4.84-4.63-8.97-6.08-13.67-.05-.17-.14-.35-.23-.55-.31-.69-.79-1.74-.11-2.97.08-.15.21-.27.36-.35 4.46-2.3 10.16-7.44 12.71-11.46.12-.19.31-.33.53-.38 2.3-.55 4.3.44 6.14 1.5 4.35 2.5 8.72 5.08 12.97 7.69 1.37.84 2.93 1.79 4.32 3.29.13.14.21.33.23.52.17 2.23-1.41 4.25-3.14 6.1a158.28 158.28 0 01-17.44 16l-.15.12c-.89.68-2.22 1.73-3.45 1.73zm-.16-1.79c.42.35 1.95-.86 2.53-1.32l.15-.12a157.67 157.67 0 0017.25-15.82c1.31-1.4 2.63-3.01 2.69-4.5-1.17-1.2-2.53-2.02-3.73-2.76-4.24-2.59-8.59-5.17-12.93-7.66-1.5-.86-2.99-1.61-4.55-1.38-2.73 4.11-8.38 9.2-12.91 11.62-.11.33 0 .64.26 1.21.11.24.22.49.3.76 1.41 4.57 2.95 8.57 5.89 13.26l.52.84c1.33 2.13 2.69 4.32 4.53 5.87zM21.27 78.93c-.1 0-.2-.05-.25-.15-3.07-5.67-4.11-12.55-2.84-18.87.03-.16.18-.26.34-.23.16.03.26.18.23.34-1.24 6.19-.23 12.93 2.78 18.49.08.14.02.31-.12.39a.32.32 0 01-.14.03zm3.82-2.31c-.09 0-.19-.05-.24-.13a12.66 12.66 0 01-1.99-7c0-.16.13-.29.29-.28.16 0 .29.13.28.29-.05 2.34.63 4.71 1.89 6.68.09.13.05.31-.09.4-.03.03-.08.04-.14.04zm5.01-1.28c-.11 0-.22-.06-.26-.17-.57-1.26-1.01-2.58-1.31-3.93-.03-.16.06-.31.22-.34.16-.03.31.06.34.22.29 1.31.72 2.6 1.27 3.82.07.15 0 .32-.14.38-.04.01-.08.02-.12.02zm37.33 39.95c-3.84 0-7.65-.47-11.39-1.42-1.94-.49-4.13-1.19-5.74-2.69a.287.287 0 01-.01-.41c.11-.12.29-.12.41-.01 1.52 1.41 3.63 2.09 5.49 2.56a46.052 46.052 0 0015.29 1.22c.15-.01.3.1.31.26.01.16-.1.3-.26.31-1.37.13-2.74.18-4.1.18zm-2.8-4.69h-.01c-3.99-.16-7.91-.96-11.65-2.37a.293.293 0 01-.17-.37c.06-.15.22-.23.37-.17a36.9 36.9 0 0011.47 2.33c.16.01.28.14.28.3 0 .15-.13.28-.29.28zm-4.57-4.82c-.03 0-.05 0-.08-.01l-3.44-1.03a.289.289 0 01-.19-.36c.05-.15.2-.24.36-.19l3.44 1.03c.15.05.24.21.19.36-.04.12-.15.2-.28.2zm50.909-21.61a.291.291 0 01-.25-.44c2.12-3.46 3.61-7.22 4.45-11.19.03-.16.19-.26.34-.22.16.03.26.19.22.34-.85 4.03-2.37 7.86-4.52 11.38-.04.08-.14.13-.24.13zM107 81.74c-.04 0-.08-.01-.12-.03-.15-.06-.21-.24-.15-.38l2.01-4.51c.06-.15.24-.21.38-.15.15.07.21.24.15.38l-2.01 4.51c-.05.12-.15.18-.26.18zm-4.811-.42a.284.284 0 01-.25-.42l1.68-3.2c.07-.14.25-.19.39-.12s.2.25.12.39l-1.68 3.2c-.06.09-.16.15-.26.15z" fill="#252424"/><path d="M120.729 66.43c-.19-.56-.79-.92-1.37-.92-1.11.02-1.53.97-1.56 1.94-.15 1.04-.34 2.08-.64 3.1-.46 1.61-1.19 3.13-1.76 4.7-1.46 4.32-2.26 6.54-4.64 10.55-4.61 7.48-6.84 11.3-14.2 17.05-1.41 1.11-7.72 5.79-11.3 7.2-1.42.86-5.84 2.03-9.1 2.63-4.28.71-7.38 1.24-13.22 1.03-2.37-.24-1.31-.16-4.74-.69-1.91-.28-3.83-.5-5.7-.99-1.98-.54-3.9-1.27-5.8-2.03-2.71-1.04-3.29-1.19-5.91-2.58a71.34 71.34 0 01-3.41-1.94 1.58 1.58 0 00-1.24-.16c-.86.21-1.27 1.1-1.13 1.89-.57.6-.6 1.72.27 2.21 2.24 1.34 4.48 2.84 6.92 3.75.52.11.99-.14 1.28-.53 2.35 1.1 4.69 2.05 6.09 2.49 2.96.94 5.36 1.16 6.96 1.38.14.23.37.42.7.52 3.85.86 7.8 1.63 11.75 1.63 5.72-.37 13.39-2.07 17.47-4.23.15-.1.25-.24.33-.38.48-.19.96-.4 1.44-.63.22.61.8 1.09 1.49 1.09.95-.03 1.62-.88 2.39-1.35 4.04-3.06 7.06-5.18 11.25-8.8 1.92-1.87 2.3-2.35 3.91-3.99 2.25-2.39 4.62-4.96 5.63-8.13.13-.71-.18-1.28-.66-1.62 1.09-1.86 2.12-3.75 3.14-5.63 1.56-3.1 2.41-6.47 3.45-9.76.83-2.36 1.69-4.72 1.92-7.23.04-.53.24-1.08-.01-1.57z" fill="#252424" opacity=".129"/></svg>