<svg width="92" height="118" viewBox="0 0 92 118" fill="none" xmlns="http://www.w3.org/2000/svg">
<path d="M23.7896 0.929961C42.6796 1.23996 61.5596 1.54996 80.4496 1.85996C83.5896 1.90996 87.6996 2.79996 88.5996 6.33996C89.9996 38.11 90.5996 69.91 90.3996 101.71C90.3696 106.47 89.9296 111.99 85.9396 114.6C82.5996 115.72 79.0096 115.8 75.4896 115.87C56.3896 116.26 37.2796 116.65 18.1796 117.05C13.1296 117.15 7.51959 117.06 3.72959 113.33C1.84959 109.83 1.75959 105.67 1.71959 101.69C1.42959 72.69 1.13959 43.68 0.849588 14.67C0.819588 12.07 1.13959 9.48996 1.76959 6.95996C3.45959 0.0799613 16.7296 0.819961 23.7896 0.929961Z" fill="white"/>
<path d="M16.38 117.93C11.5 117.93 6.62998 117.38 3.12998 113.94C3.06998 113.88 3.01998 113.81 2.97998 113.74C0.949977 109.97 0.909977 105.58 0.869977 101.7L-2.29765e-05 14.68C-0.030023 12.07 0.289977 9.41001 0.939977 6.76001C2.68998 -0.349994 14.55 -0.109994 22.41 0.0600057C22.9 0.0700057 23.36 0.0800057 23.8 0.0900057L80.46 1.02001C83.33 1.07001 88.31 1.80001 89.42 6.15001C89.43 6.21001 89.44 6.26001 89.45 6.32001C90.84 37.96 91.45 70.06 91.25 101.73C91.22 107.17 90.6 112.59 86.4 115.33C86.34 115.37 86.27 115.4 86.2 115.42C82.71 116.59 79.04 116.66 75.5 116.74L74.92 116.75L18.19 117.92C17.59 117.92 16.98 117.93 16.38 117.93ZM4.41998 112.81C7.87998 116.13 12.9 116.31 18.16 116.2L75.47 115.02C78.85 114.95 82.34 114.88 85.56 113.83C89.01 111.5 89.52 106.63 89.55 101.71C89.75 70.1 89.15 38.06 87.76 6.48001C86.89 3.30001 82.81 2.76001 80.45 2.72001L23.77 1.79001C23.33 1.78001 22.86 1.77001 22.37 1.76001C15.51 1.62001 4.01998 1.38001 2.59998 7.17001C1.97998 9.68001 1.67998 12.2 1.70998 14.67L2.56998 101.69C2.60998 105.32 2.64998 109.44 4.41998 112.81Z" fill="#252424"/>
<path d="M13.2798 13.9501C11.0498 14.3501 11.1698 15.5901 11.2398 17.2701C11.3898 21.3001 11.5398 25.3301 11.6998 29.3601C11.7198 29.9401 11.7498 30.5301 12.1098 31.0501C12.8298 32.0901 14.6198 32.4501 16.2098 32.6001C18.5698 32.8201 20.9598 32.8301 23.3498 32.8401C40.2598 32.8901 57.2298 32.9401 74.0198 31.4101C74.8498 31.3301 75.7298 31.2401 76.3898 30.8701C77.3598 30.3201 77.5998 29.3501 77.7298 28.4601C78.2698 24.9001 78.2998 21.3001 77.7998 17.7301C77.6198 16.4401 77.2898 15.0401 75.9798 14.1701C74.8498 13.4201 73.2298 13.2201 71.6998 13.0901C67.9098 12.7701 64.0898 12.6701 60.2798 12.7801C55.9798 12.9001 24.1998 11.9801 13.2798 13.9501Z" fill="white"/>
<path d="M32.2096 33.7C29.2396 33.7 26.2796 33.69 23.3396 33.68C20.9696 33.67 18.5296 33.67 16.1196 33.44C14.5596 33.29 12.3696 32.93 11.3996 31.52C10.8996 30.79 10.8696 29.98 10.8396 29.38L10.3796 17.13C10.3196 15.57 10.2396 13.63 13.1296 13.11C21.6996 11.57 42.6296 11.78 53.8796 11.89C57.0296 11.92 59.3096 11.94 60.2496 11.92C64.0796 11.81 67.9496 11.91 71.7696 12.23C73.3496 12.36 75.1396 12.58 76.4496 13.45C78.0196 14.49 78.4396 16.14 78.6396 17.61C79.1496 21.25 79.1196 24.95 78.5696 28.58C78.4596 29.3 78.2296 30.8 76.7996 31.6C76.0196 32.04 75.1096 32.16 74.0896 32.25C60.2096 33.51 46.0796 33.7 32.2096 33.7ZM13.4396 14.79C12.0096 15.05 12.0296 15.47 12.0896 17.07L12.5496 29.33C12.5696 29.88 12.5996 30.27 12.8096 30.56C13.0996 30.98 13.9396 31.53 16.2896 31.75C18.6196 31.97 21.0196 31.98 23.3496 31.98C39.9796 32.03 57.1696 32.08 73.9396 30.56C74.6096 30.5 75.4396 30.42 75.9696 30.12C76.5596 29.79 76.7596 29.19 76.8896 28.32C77.4196 24.84 77.4496 21.32 76.9596 17.84C76.7696 16.51 76.4596 15.5 75.5096 14.87C74.5396 14.22 72.9996 14.05 71.6296 13.93C67.8796 13.62 64.0696 13.51 60.3096 13.62C59.3396 13.65 57.0496 13.63 53.8696 13.59C42.6696 13.48 21.8496 13.27 13.4396 14.79Z" fill="#252424"/>
<path d="M14.6699 50.69C14.8099 53.91 14.9399 57.14 15.0799 60.36C15.0899 60.72 15.1299 61.11 15.4399 61.36C15.7599 61.61 16.2499 61.59 16.6799 61.56C19.9499 61.33 23.2499 61.41 26.5199 61.8C27.1399 61.87 27.9399 61.88 28.1599 61.38C28.2399 61.2 28.2199 60.99 28.1899 60.8C27.8099 58.36 28.2899 52.13 26.9399 50.71C23.1799 50.54 19.4299 50.36 14.6699 50.69Z" fill="white"/>
<path d="M27.0496 62.6901C26.8496 62.6901 26.6396 62.6801 26.4096 62.6501C23.1996 62.2701 19.9496 62.1801 16.7296 62.4101C16.2696 62.4401 15.4996 62.5001 14.8996 62.0301C14.2596 61.5301 14.2296 60.7701 14.2096 60.4001L13.7996 50.7301C13.7796 50.2701 14.1296 49.8801 14.5896 49.8401C19.4096 49.5101 23.2396 49.6901 26.9496 49.8601C27.1696 49.8701 27.3796 49.9701 27.5296 50.1301C28.5796 51.2401 28.7296 53.8601 28.8196 57.4601C28.8496 58.7301 28.8896 59.9301 28.9996 60.6801C29.0396 60.9001 29.0996 61.3201 28.9096 61.7501C28.6396 62.3801 28.0096 62.6901 27.0496 62.6901ZM20.2896 60.5801C22.3996 60.5801 24.5196 60.7101 26.6096 60.9601C26.9996 61.0101 27.2196 60.9901 27.3396 60.9701C27.3396 60.9601 27.3396 60.9501 27.3396 60.9401C27.2096 60.0801 27.1696 58.8301 27.1396 57.5001C27.0896 55.5101 27.0096 52.5901 26.4796 51.5501C23.1596 51.3901 19.7196 51.2501 15.5496 51.4901L15.9196 60.3301C15.9296 60.5401 15.9496 60.6601 15.9696 60.7101C16.0196 60.7301 16.2396 60.7401 16.6096 60.7201C17.8296 60.6301 19.0596 60.5801 20.2896 60.5801Z" fill="#252424"/>
<path d="M38.3594 50.7499C38.5194 53.9699 38.6794 57.1999 38.8394 60.4199C38.8594 60.7799 38.8994 61.1699 39.2094 61.4099C39.5294 61.6599 40.0194 61.6399 40.4494 61.6099C43.7194 61.3599 47.0194 61.4199 50.2894 61.7799C50.9094 61.8499 51.7094 61.8499 51.9294 61.3499C52.0094 61.1699 51.9894 60.9599 51.9494 60.7699C51.5494 58.3299 51.9794 52.0999 50.6294 50.6899C46.8694 50.5399 43.1194 50.3899 38.3594 50.7499Z" fill="white"/>
<path d="M50.7898 62.6699C50.5998 62.6699 50.3998 62.6599 50.1898 62.6299C46.9798 62.2699 43.7198 62.2099 40.5098 62.4599C40.0498 62.4999 39.2798 62.5599 38.6798 62.0899C38.0398 61.5899 37.9998 60.8299 37.9798 60.4699L37.4998 50.7999C37.4798 50.3399 37.8298 49.9399 38.2898 49.9099C43.1098 49.5399 46.9398 49.6999 50.6498 49.8399C50.8698 49.8499 51.0798 49.9399 51.2298 50.0999C52.2898 51.1999 52.4498 53.8299 52.5698 57.4199C52.6098 58.6899 52.6498 59.8899 52.7798 60.6399C52.8198 60.8699 52.8798 61.2899 52.6898 61.7099C52.4098 62.3499 51.7698 62.6699 50.7898 62.6699ZM44.4398 60.6099C46.4198 60.6099 48.4098 60.7199 50.3798 60.9399C50.7698 60.9799 50.9898 60.9599 51.1098 60.9399C51.1098 60.9299 51.1098 60.9099 51.0998 60.9099C50.9598 60.0599 50.9198 58.7999 50.8698 57.4699C50.7998 55.4799 50.6998 52.5599 50.1698 51.5199C46.8498 51.3899 43.4098 51.2699 39.2398 51.5399L39.6798 60.3799C39.6898 60.6399 39.7198 60.7299 39.7298 60.7599C39.7798 60.7799 39.9998 60.7899 40.3698 60.7599C41.7298 60.6599 43.0798 60.6099 44.4398 60.6099Z" fill="#252424"/>
<path d="M62.1201 50.7499C62.2801 53.9699 62.4401 57.1999 62.6001 60.4199C62.6201 60.7799 62.6601 61.1699 62.9701 61.4099C63.2901 61.6599 63.7801 61.6399 64.2101 61.6099C67.4801 61.3599 70.7801 61.4199 74.0501 61.7799C74.6701 61.8499 75.4701 61.8499 75.6901 61.3499C75.7701 61.1699 75.7401 60.9599 75.7101 60.7699C75.3101 58.3299 75.7401 52.0999 74.3901 50.6899C70.6401 50.5399 66.8901 50.3899 62.1201 50.7499Z" fill="white"/>
<path d="M74.5603 62.6699C74.3703 62.6699 74.1703 62.6599 73.9603 62.6299C70.7503 62.2699 67.4903 62.2099 64.2803 62.4599C63.8203 62.4999 63.0503 62.5599 62.4503 62.0899C61.8103 61.5899 61.7703 60.8299 61.7503 60.4699L61.2703 50.7999C61.2503 50.3399 61.6003 49.9399 62.0603 49.9099C66.8803 49.5399 70.7103 49.6999 74.4203 49.8399C74.6403 49.8499 74.8503 49.9399 75.0003 50.0999C76.0603 51.1999 76.2203 53.8299 76.3403 57.4199C76.3803 58.6899 76.4204 59.8899 76.5504 60.6399C76.5904 60.8699 76.6603 61.2899 76.4603 61.7099C76.1803 62.3499 75.5403 62.6699 74.5603 62.6699ZM68.2103 60.6099C70.1903 60.6099 72.1803 60.7199 74.1503 60.9399C74.5403 60.9799 74.7603 60.9599 74.8803 60.9399C74.8803 60.9299 74.8804 60.9199 74.8703 60.9099C74.7303 60.0499 74.6903 58.7999 74.6403 57.4699C74.5703 55.4799 74.4703 52.5599 73.9403 51.5199C70.6203 51.3899 67.1803 51.2699 63.0103 51.5399L63.4503 60.3799C63.4603 60.6399 63.4903 60.7299 63.5003 60.7599C63.5503 60.7799 63.7703 60.7899 64.1403 60.7599C65.4903 60.6599 66.8503 60.6099 68.2103 60.6099Z" fill="#252424"/>
<path d="M15.8301 70.3399C15.9701 73.5599 16.1001 76.7899 16.2401 80.0099C16.2501 80.3699 16.2901 80.7599 16.6001 81.0099C16.9201 81.2599 17.4101 81.2399 17.8401 81.2099C21.1101 80.9799 24.4101 81.0599 27.6801 81.4499C28.3001 81.5199 29.1001 81.5299 29.3201 81.0299C29.4001 80.8499 29.3801 80.6399 29.3501 80.4499C28.9701 78.0099 29.4501 71.7799 28.1001 70.3599C24.3501 70.1899 20.6001 70.0099 15.8301 70.3399Z" fill="white"/>
<path d="M28.2098 82.34C28.0098 82.34 27.7998 82.33 27.5698 82.3C24.3598 81.92 21.0998 81.84 17.8898 82.06C17.4298 82.09 16.6598 82.15 16.0598 81.68C15.4198 81.18 15.3898 80.42 15.3698 80.05L14.9598 70.38C14.9398 69.92 15.2898 69.53 15.7498 69.49C20.5698 69.16 24.4098 69.34 28.1098 69.51C28.3298 69.52 28.5398 69.62 28.6898 69.78C29.7398 70.89 29.8898 73.51 29.9798 77.11C30.0098 78.38 30.0498 79.58 30.1598 80.33C30.1898 80.55 30.2598 80.97 30.0698 81.4C29.7998 82.03 29.1698 82.34 28.2098 82.34ZM21.4498 80.23C23.5598 80.23 25.6798 80.36 27.7798 80.61C28.1698 80.66 28.3898 80.64 28.5098 80.62C28.5098 80.61 28.5098 80.6 28.5098 80.59C28.3798 79.73 28.3398 78.48 28.3098 77.15C28.2598 75.16 28.1798 72.24 27.6498 71.2C24.3398 71.05 20.8898 70.9 16.7198 71.14L17.0898 79.98C17.0998 80.19 17.1198 80.31 17.1398 80.36C17.1898 80.38 17.4098 80.39 17.7798 80.37C18.9998 80.28 20.2198 80.23 21.4498 80.23Z" fill="#252424"/>
<path d="M39.5195 70.3999C39.6795 73.6199 39.8395 76.8499 39.9995 80.0699C40.0195 80.4299 40.0595 80.8199 40.3695 81.0599C40.6895 81.3099 41.1795 81.2899 41.6095 81.2599C44.8795 81.0099 48.1795 81.0699 51.4495 81.4299C52.0695 81.4999 52.8695 81.4999 53.0895 80.9999C53.1695 80.8199 53.1495 80.6099 53.1095 80.4199C52.7095 77.9799 53.1395 71.7499 51.7895 70.3399C48.0395 70.1899 44.2895 70.0399 39.5195 70.3999Z" fill="white"/>
<path d="M51.9598 82.32C51.7698 82.32 51.5698 82.31 51.3598 82.28C48.1498 81.92 44.8898 81.86 41.6798 82.11C41.2198 82.15 40.4498 82.21 39.8498 81.74C39.2098 81.24 39.1698 80.48 39.1498 80.12L38.6698 70.45C38.6498 69.99 38.9998 69.59 39.4598 69.56C44.2798 69.2 48.1098 69.35 51.8198 69.49C52.0398 69.5 52.2498 69.59 52.3998 69.75C53.4598 70.85 53.6198 73.48 53.7398 77.07C53.7798 78.34 53.8198 79.54 53.9498 80.29C53.9898 80.52 54.0598 80.94 53.8598 81.36C53.5798 82 52.9398 82.32 51.9598 82.32ZM45.5998 80.26C47.5798 80.26 49.5698 80.37 51.5398 80.59C51.9298 80.63 52.1498 80.61 52.2698 80.59C52.2698 80.58 52.2698 80.56 52.2598 80.56C52.1198 79.7 52.0798 78.45 52.0298 77.12C51.9598 75.13 51.8598 72.21 51.3298 71.17C48.0098 71.04 44.5698 70.92 40.3998 71.19L40.8398 80.03C40.8498 80.29 40.8798 80.38 40.8898 80.41C40.9398 80.43 41.1598 80.44 41.5298 80.41C42.8898 80.31 44.2398 80.26 45.5998 80.26Z" fill="#252424"/>
<path d="M17.4199 89.99C17.5599 93.21 17.6899 96.44 17.8299 99.66C17.8499 100.02 17.8799 100.41 18.1899 100.66C18.5099 100.91 18.9999 100.89 19.4299 100.86C22.6999 100.63 25.9999 100.71 29.2699 101.1C29.8899 101.17 30.6899 101.18 30.9099 100.68C30.9899 100.5 30.9699 100.29 30.9399 100.1C30.5599 97.66 31.0399 91.43 29.6899 90.01C25.9399 89.83 22.1899 89.66 17.4199 89.99Z" fill="white"/>
<path d="M29.7996 101.99C29.5996 101.99 29.3896 101.98 29.1596 101.95C25.9496 101.57 22.6896 101.49 19.4796 101.71C19.0196 101.74 18.2496 101.8 17.6496 101.33C17.0096 100.83 16.9796 100.07 16.9596 99.7L16.5496 90.03C16.5296 89.57 16.8796 89.18 17.3396 89.14C22.1496 88.81 25.9796 88.99 29.6896 89.16C29.9096 89.17 30.1296 89.27 30.2796 89.43C31.3296 90.54 31.4796 93.17 31.5696 96.76C31.5996 98.03 31.6396 99.23 31.7496 99.98C31.7796 100.2 31.8496 100.62 31.6496 101.05C31.3996 101.67 30.7596 101.99 29.7996 101.99ZM23.0396 99.88C25.1496 99.88 27.2696 100.01 29.3596 100.26C29.7496 100.31 29.9696 100.29 30.0896 100.27C30.0896 100.26 30.0896 100.25 30.0896 100.24C29.9596 99.38 29.9196 98.13 29.8896 96.8C29.8396 94.81 29.7596 91.89 29.2296 90.85C25.9096 90.7 22.4696 90.55 18.2996 90.79L18.6696 99.63C18.6796 99.84 18.6996 99.96 18.7196 100.01C18.7696 100.03 18.9896 100.04 19.3596 100.02C20.5896 99.93 21.8196 99.88 23.0396 99.88Z" fill="#252424"/>
<path d="M41.1094 90.05C41.2694 93.27 41.4294 96.5 41.5894 99.72C41.6094 100.08 41.6494 100.47 41.9594 100.71C42.2794 100.96 42.7694 100.94 43.1994 100.91C46.4694 100.66 49.7694 100.72 53.0394 101.08C53.6594 101.15 54.4594 101.15 54.6794 100.65C54.7594 100.47 54.7294 100.26 54.6994 100.07C54.2994 97.63 54.7294 91.4 53.3794 89.99C49.6294 89.84 45.8794 89.69 41.1094 90.05Z" fill="white"/>
<path d="M53.5496 101.97C53.3596 101.97 53.1596 101.96 52.9496 101.93C49.7396 101.57 46.4796 101.51 43.2696 101.76C42.8096 101.8 42.0396 101.85 41.4396 101.39C40.7996 100.89 40.7596 100.13 40.7396 99.76L40.2596 90.09C40.2396 89.63 40.5896 89.23 41.0496 89.2C45.8696 88.84 49.6996 88.99 53.4096 89.13C53.6296 89.14 53.8396 89.23 53.9896 89.39C55.0496 90.49 55.2096 93.12 55.3296 96.71C55.3696 97.98 55.4096 99.18 55.5396 99.93C55.5796 100.16 55.6396 100.57 55.4496 101C55.1696 101.65 54.5296 101.97 53.5496 101.97ZM47.1996 99.91C49.1796 99.91 51.1696 100.02 53.1396 100.24C53.5296 100.28 53.7496 100.27 53.8696 100.24C53.8696 100.23 53.8696 100.22 53.8596 100.21C53.7196 99.35 53.6796 98.1 53.6296 96.77C53.5596 94.78 53.4596 91.86 52.9296 90.82C49.6096 90.69 46.1696 90.57 41.9996 90.84L42.4396 99.68C42.4496 99.89 42.4696 100.01 42.4896 100.06C42.5396 100.08 42.7596 100.09 43.1296 100.06C44.4796 99.96 45.8396 99.91 47.1996 99.91Z" fill="#252424"/>
<path d="M63.1699 70.48C63.5299 80.57 63.5899 90.67 63.8699 101.27C67.5799 101 71.3099 101.01 74.7899 100.98C75.1399 90.67 74.2799 82.03 74.6799 70.15C71.1399 70.11 66.9899 69.82 63.1699 70.48Z" fill="#6BA8C9"/>
<path d="M63.8703 102.13C63.6603 102.13 63.4503 102.05 63.3003 101.91C63.1303 101.75 63.0303 101.53 63.0203 101.3C62.9103 96.96 62.8303 92.66 62.7503 88.5C62.6403 82.31 62.5303 76.4699 62.3203 70.52C62.3003 70.09 62.6103 69.72 63.0303 69.65C66.1703 69.1 69.5402 69.19 72.5202 69.27C73.2602 69.29 73.9902 69.31 74.7002 69.32C74.9302 69.32 75.1502 69.42 75.3102 69.58C75.4702 69.75 75.5503 69.97 75.5503 70.2C75.3403 76.32 75.4703 81.58 75.6003 86.67C75.7203 91.48 75.8303 96.03 75.6603 101.03C75.6403 101.49 75.2703 101.85 74.8203 101.85L73.2803 101.86C70.2403 101.89 67.0903 101.91 63.9503 102.14C63.9103 102.13 63.8903 102.13 63.8703 102.13ZM64.0503 71.2C64.2503 76.91 64.3503 82.52 64.4603 88.46C64.5303 92.33 64.6002 96.33 64.7002 100.36C67.5902 100.19 70.4602 100.16 73.2402 100.14L73.9603 100.13C74.0903 95.5 73.9803 91.21 73.8703 86.69C73.7503 81.82 73.6303 76.79 73.7903 70.99C73.3503 70.98 72.9103 70.97 72.4603 70.96C69.6803 70.89 66.8103 70.82 64.0503 71.2Z" fill="#252424"/>
<path d="M34.7004 28.66C34.6604 28.66 34.6104 28.65 34.5704 28.63C34.4304 28.56 34.3804 28.38 34.4504 28.25C36.8004 23.85 39.4404 19.54 42.3004 15.45C42.3904 15.32 42.5704 15.29 42.7004 15.38C42.8304 15.47 42.8604 15.65 42.7704 15.78C39.9204 19.85 37.2904 24.13 34.9504 28.52C34.9004 28.6 34.8104 28.66 34.7004 28.66Z" fill="#252424"/>
<path d="M40.8697 29.5599C40.8197 29.5599 40.7697 29.5499 40.7297 29.5199C40.5897 29.4399 40.5497 29.2699 40.6197 29.1299C43.2697 24.4899 46.1597 19.9199 49.2197 15.5399C49.3097 15.4099 49.4897 15.3799 49.6197 15.4699C49.7497 15.5599 49.7797 15.7399 49.6897 15.8699C46.6397 20.2399 43.7597 24.7999 41.1197 29.4199C41.0697 29.4999 40.9697 29.5599 40.8697 29.5599Z" fill="#252424"/>
<path d="M52.6495 29.7901C52.5995 29.7901 52.5595 29.78 52.5095 29.75C52.3695 29.67 52.3195 29.5001 52.3995 29.3601L59.4095 16.6901C59.4895 16.5501 59.6595 16.5 59.7995 16.58C59.9395 16.66 59.9895 16.83 59.9095 16.97L52.8995 29.65C52.8495 29.74 52.7495 29.7901 52.6495 29.7901Z" fill="#252424"/>
<g opacity="0.1294">
<path d="M77.4396 16.51C77.3196 15.16 74.3196 13.97 73.2896 13.82C65.9696 12.66 58.5296 13.14 51.1496 13.13C48.9496 13.1 46.7596 13.18 44.5696 13.29C40.3996 13.2 36.2396 12.83 32.0596 12.86C28.0996 12.9 24.1496 13.3 20.1896 13.36C18.3996 13.52 16.5896 13.71 14.8596 14.19C14.2696 14.37 13.5796 14.51 13.0496 14.85C12.5796 14.56 11.8796 14.66 11.5896 15.19C11.2396 16.15 11.3896 17.24 11.3496 18.25C11.3796 19.8 11.4496 21.36 11.5796 22.91C11.9296 25.77 12.0796 28.73 13.0596 31.45C13.7096 32.61 15.2596 31.99 15.1296 30.71C15.0196 28 14.8696 25.3 14.5296 22.61C14.4196 21.84 14.3396 21.07 14.2496 20.3C14.5096 19.31 14.7996 18.33 15.1296 17.36C23.1796 17.29 31.2196 16.45 39.2796 16.46C47.2096 16.29 55.1196 16.78 63.0396 17.07C66.9696 17.2 70.8796 17.79 74.8096 17.95C75.6796 17.96 75.7996 17.97 76.2896 18.03C76.3196 18.04 76.3396 18.04 76.3496 18.04C76.6296 18.14 76.9496 18.13 77.2096 17.97C77.7796 17.62 77.7796 16.94 77.4396 16.51Z" fill="#252424"/>
</g>
<g opacity="0.1294">
<path d="M90.8999 80.41C90.9299 77.01 90.5999 73.62 90.3699 70.22C90.2499 63.02 89.9999 55.82 89.8699 48.61C89.5899 38.46 89.0199 28.32 88.6699 18.17C88.5099 14.78 88.4099 11.38 88.0199 8.01001C87.8999 6.86001 87.6999 5.71001 87.4999 4.56001C87.4399 4.34001 87.2899 4.16001 87.0999 4.04001C86.8899 3.91001 86.6499 3.90001 86.4399 3.97001C86.4299 3.96001 86.4199 3.95001 86.3999 3.94001C86.1799 3.81001 85.9299 3.80001 85.7099 3.87001C85.0699 3.24001 84.3699 2.66001 83.6099 2.17001C83.2499 1.94001 82.8799 1.58001 82.4199 1.72001C81.7199 1.89001 81.5899 2.91001 82.2199 3.25001C82.2299 3.35001 82.2599 3.45001 82.3099 3.54001C85.2799 7.29001 85.5599 11.31 85.8199 15.93C85.9499 17.63 86.0899 19.33 86.2199 21.04C86.2099 22.19 86.1799 23.35 86.1799 24.5C86.2599 27.89 86.2999 31.27 86.2199 34.66C86.1599 40.26 86.6599 45.84 86.8199 51.43C87.0199 54.63 87.0699 57.83 87.0399 61.04C87.0599 63.81 87.1599 66.59 87.0299 69.36C86.8899 73.63 87.0199 77.9 87.0499 82.17C87.0399 85.46 86.8799 88.75 87.0399 92.03C87.0699 95.16 87.6099 98.28 87.4599 101.41C86.9799 105.42 87.1799 108.34 85.8399 111.89C85.8199 111.94 85.7999 112 85.7799 112.05C85.8199 111.95 85.8599 111.89 85.7899 112.04C85.7899 112.05 85.7799 112.06 85.7799 112.07C85.7699 112.1 85.7499 112.14 85.7399 112.17C85.7499 112.14 85.7599 112.11 85.7699 112.08C85.6599 112.33 85.5199 112.57 85.3799 112.8C85.3299 112.88 85.2099 113.05 85.1399 113.15C85.0999 113.19 85.0699 113.24 85.0399 113.28C85.0699 113.22 84.8199 113.51 84.7999 113.64C84.4499 114.33 85.1999 115.19 85.9399 114.95C86.4199 114.81 87.1799 113.96 87.6299 112.98C88.9899 109.99 89.0199 106.65 89.3599 103.44C89.3999 103.13 89.4399 102.83 89.4699 102.52C89.7899 102.49 90.0999 102.3 90.2699 102.02C90.5499 101.31 90.4599 100.49 90.5299 99.74C90.7399 96.94 90.3299 94.15 90.3499 91.35C90.3699 87.7 90.8799 84.07 90.8999 80.41Z" fill="#252424"/>
</g>
<g opacity="0.1294">
<path d="M85.7698 112.06C85.7698 112.07 85.7598 112.08 85.7598 112.09V112.08C85.7598 112.08 85.7698 112.07 85.7698 112.06Z" fill="#252424"/>
</g>
<g opacity="0.1294">
<path d="M76.4099 63.8501C76.3999 63.8501 76.3899 63.8601 76.3799 63.8601C76.4199 63.8501 76.4399 63.8501 76.4099 63.8501Z" fill="#252424"/>
</g>
<g opacity="0.1294">
<path d="M77.4302 53.1801C77.3002 52.2801 77.3802 52.3501 76.9102 51.5201C76.8002 51.3901 76.7102 51.1801 76.4702 51.0301C76.4602 51.0101 76.4402 51.0001 76.4302 50.9801C76.4102 50.9601 76.3902 50.9301 76.3702 50.9101C76.3102 50.8401 76.4702 51.0401 76.4502 51.0201C76.3502 50.8601 76.1902 50.7301 76.0102 50.6801C75.3302 50.4801 74.8102 51.3201 75.2402 51.8701C75.2602 51.9501 75.2802 52.0201 75.3102 52.0901C75.0602 52.2701 74.8902 52.6101 74.9602 53.0201C75.3902 55.6201 75.9202 58.6501 75.7202 60.7901C75.7202 60.7901 75.7202 60.8001 75.7102 60.8101C75.6602 60.9201 75.6002 61.0201 75.5302 61.1201C75.5202 61.1301 75.5102 61.1401 75.5002 61.1601C75.4502 61.1901 75.3902 61.2201 75.3402 61.2501C75.3202 61.2601 75.3102 61.2601 75.2902 61.2701C75.2402 61.2801 75.1802 61.2901 75.1302 61.3101C75.0802 61.3201 75.0202 61.3301 74.9702 61.3401C74.9302 61.3401 74.9102 61.3401 74.9002 61.3501C74.8802 61.3501 74.8502 61.3501 74.8302 61.3601C74.8002 61.3601 74.7602 61.3701 74.7202 61.3701C74.6202 61.3801 74.5202 61.3901 74.4202 61.4101C74.5802 61.3901 74.8002 61.3601 74.5102 61.3901C74.3802 61.4001 74.3102 61.4101 74.2802 61.4201C73.3402 61.4301 72.3902 61.6401 71.4502 61.6301C69.0002 61.8501 66.4902 61.6501 64.0602 61.8801C63.7102 61.5501 63.4702 61.0401 62.9502 61.0501C62.2502 61.0201 61.8602 61.9601 62.3702 62.4401C62.5802 62.6901 62.8002 62.9401 63.0502 63.1501C63.1702 63.5701 63.5102 63.9301 64.0402 63.9201C64.1702 63.9201 64.3102 63.9101 64.4402 63.9101C65.5002 64.2501 66.8502 64.4301 67.1202 64.4801C69.0702 64.7301 68.8902 64.7401 71.0302 64.6801C72.9802 64.6701 73.5302 64.6301 75.3602 64.2101C75.6702 64.1501 75.9702 64.0501 76.2602 63.9301H76.2502C76.2502 63.9301 76.2602 63.9301 76.2602 63.9201C76.3002 63.9001 76.3502 63.8901 76.3902 63.8701C76.3702 63.8801 76.3402 63.8901 76.3202 63.9001C76.6302 63.7701 76.8702 63.5501 77.0602 63.2801C77.8202 61.6101 77.6102 59.6701 77.6902 57.8701C77.7202 56.3001 77.5702 54.7401 77.4302 53.1801Z" fill="#252424"/>
</g>
<g opacity="0.1294">
<path d="M77.4402 93.42C77.1502 89.95 77.2502 86.46 77.0602 82.98C76.8602 78.93 76.9002 74.88 76.7702 70.82C76.7502 69.46 74.7002 69.43 74.6802 70.82C74.7902 77.48 75.0002 84.14 75.2002 90.81C75.2602 93.08 75.5602 95.33 75.5802 97.59C75.6402 99.62 75.4302 100.61 75.3802 100.99C75.3502 101.12 75.3302 101.25 75.3202 101.38C75.3302 101.34 75.3302 101.29 75.3402 101.26C75.3502 101.24 75.3502 101.24 75.3402 101.26C75.3402 101.22 75.3402 101.2 75.3202 101.28C75.3102 101.31 75.3002 101.33 75.2902 101.35C75.2902 101.36 75.2802 101.37 75.2802 101.37C74.7902 101.29 74.3302 101.1 73.8402 100.98C73.1502 100.8 72.4402 100.86 71.7402 100.93C70.6202 101.04 69.5102 101.18 68.4002 101.36C67.7302 101.44 67.0602 101.48 66.3802 101.49C66.1302 101.47 65.8502 101.49 65.6002 101.57C65.3402 101.43 65.0802 101.25 64.5702 101.08C63.7302 100.92 63.3002 102.17 64.0502 102.57C64.3002 102.75 64.5502 102.89 64.8202 103.02C64.9202 103.24 65.1102 103.41 65.3702 103.48C66.5402 103.74 67.6902 104.1 68.8902 104.2C70.0702 104.3 71.2602 104.18 72.4302 104.07C73.6202 103.97 74.7802 103.7 75.8702 103.2C76.2802 103.01 76.8002 102.73 76.9202 102.26C76.9902 102.14 77.0502 102.02 77.1002 101.89C77.1102 101.88 77.1202 101.85 77.1502 101.78C77.6302 100.68 77.6802 99.46 77.6802 98.28C77.6602 96.66 77.5802 95.04 77.4402 93.42Z" fill="#252424"/>
</g>
<g opacity="0.1294">
<path d="M55.9898 92.95C55.6698 92.19 55.6298 91.25 54.4998 91.66C53.8398 92.22 54.1398 92.43 54.2298 93.06C54.4398 94.02 54.4498 94.03 54.5098 94.63C54.7198 95.96 54.7598 97.1 54.7298 98.94C54.7398 100.34 54.6698 100.72 54.4298 100.96C54.3998 100.99 54.3698 101.02 54.3398 101.05C54.3298 101.06 54.3198 101.06 54.3298 101.06C54.3198 101.06 54.3198 101.07 54.3098 101.07H54.2998C54.2498 101.09 54.1998 101.1 54.1498 101.12C53.2198 101.3 47.0198 101.05 45.3698 100.81C45.1298 100.79 43.8598 100.65 42.9098 100.06C42.5798 99.89 42.2298 99.66 41.8398 99.79C41.0698 99.98 40.9198 101.11 41.6198 101.49C43.7198 102.8 46.2498 103.04 48.6698 103.14C49.8398 103.17 51.0098 103.26 52.1798 103.22C53.3298 103.13 53.3598 103.08 53.9998 102.96C54.5598 102.8 54.6398 102.87 55.3198 102.37C54.9598 102.64 55.3998 102.34 55.5198 102.22C55.7598 102 55.9598 101.73 56.0998 101.43C56.5798 100.4 56.5198 99.22 56.6098 98.1C56.7498 96.38 56.4998 94.62 55.9898 92.95Z" fill="#252424"/>
</g>
<g opacity="0.1294">
<path d="M54.5096 75.2201C54.3296 74.5901 54.4396 73.5301 53.5896 73.4301C53.0896 73.3301 52.6296 73.8101 52.6796 74.3001C52.7296 75.5801 53.7296 79.0401 53.1696 80.7301C53.1596 80.7401 53.1596 80.7401 53.1496 80.7501C53.1096 80.7801 53.0596 80.8001 53.0296 80.8201C52.9196 80.8501 52.8096 80.8801 52.7796 80.8901C51.2096 81.1601 47.3996 80.7401 44.9596 80.7401C43.9296 80.7601 42.8996 80.7701 41.8796 80.7401C41.3796 80.7701 40.8296 80.6101 40.3596 80.8001C39.3196 81.1901 39.6496 82.8301 40.7596 82.8001C43.8496 82.8601 46.9296 82.8301 50.0196 83.0001C52.9396 83.0001 54.8396 82.7801 55.0296 79.9901C55.1796 78.3901 54.7696 76.8001 54.5096 75.2201Z" fill="#252424"/>
</g>
<g opacity="0.1294">
<path d="M54.0401 59.58C53.9101 58.49 53.8901 57.4 53.8001 56.31C53.7601 55.47 53.6401 54.63 53.4401 53.8C53.2401 53.16 53.3601 53.37 53.1401 53.04C53.0201 52.85 52.7901 52.72 52.5701 52.71C52.1501 52.63 51.7301 52.93 51.6101 53.33C51.5101 53.73 51.7201 54.11 51.7701 54.5C51.9501 55.47 51.9301 55.31 51.9901 56.38C52.0501 57.31 51.9501 58.24 52.0001 59.18C52.0201 59.81 52.1301 60.44 52.0701 61.06C52.0501 61.16 52.0201 61.25 51.9901 61.34C51.9801 61.37 51.9601 61.4 51.9401 61.43C51.9301 61.44 51.9301 61.45 51.9201 61.46C51.9001 61.49 51.8701 61.51 51.8501 61.54C51.8001 61.57 51.7601 61.59 51.7101 61.62C50.7501 61.95 49.2701 61.83 47.6101 61.81C45.7701 61.76 43.9201 61.86 42.0801 61.65C41.8201 61.62 42.1401 61.66 42.2401 61.67C41.1401 61.61 39.8901 60.88 38.9301 60.86C37.8201 60.96 37.7101 62.63 38.7901 62.9C41.3601 63.94 44.1301 63.91 46.8501 63.88C48.7901 63.84 50.8801 64.23 52.7101 63.44C54.1301 62.73 54.2601 60.98 54.0401 59.58Z" fill="#252424"/>
</g>
<g opacity="0.1294">
<path d="M30.7301 58.4C30.6201 57.27 30.4501 56.15 30.2001 55.04C30.0701 54.5 29.5001 52.88 29.6401 53.29C29.3201 52.6 29.2601 51.76 28.1501 52.15C27.5101 52.7 27.7701 52.91 27.8601 53.43C27.9301 53.7 27.9801 53.98 28.1101 54.74C28.3601 56.74 28.6401 57.31 28.6701 59.58C28.6501 60.3 28.5201 60.78 28.2601 61.28C28.2501 61.3 28.2301 61.32 28.2201 61.34C28.1501 61.43 28.0701 61.51 27.9801 61.59C27.9601 61.6 27.9501 61.61 27.9201 61.63C27.9001 61.64 27.8701 61.65 27.8501 61.66C27.7501 61.69 27.5301 61.77 27.3801 61.8C25.0901 61.97 20.9301 62.01 19.7201 61.76C18.2901 61.6 16.9001 61 15.4701 60.96C14.3601 61.06 14.2501 62.73 15.3301 63C17.0701 63.28 18.7501 63.83 20.5201 63.94C22.9301 64.13 25.3801 64.03 27.7801 63.84C30.3601 63.5 30.9701 60.58 30.7301 58.4Z" fill="#252424"/>
</g>
<g opacity="0.1294">
<path d="M31.6103 77.42C31.5603 75.71 31.1103 73.23 30.6003 72.42C30.5903 72.4 30.5803 72.39 30.5703 72.37C30.5603 72.35 30.5503 72.32 30.5303 72.3C30.4903 72.23 30.4403 72.17 30.3903 72.11C30.3703 72.09 30.3503 72.06 30.3303 72.04C30.3403 72.05 30.3403 72.06 30.3503 72.07C30.1503 71.83 29.8003 71.73 29.5003 71.81C28.6703 72.19 28.8803 72.7 28.9603 73.11C28.9603 73.1 28.9603 73.08 28.9503 73.06C29.0003 73.36 29.1803 73.99 29.1803 74.17C29.3103 75.13 29.5403 77.01 29.6103 79.12C29.6303 80.24 29.6903 80.09 29.4203 80.94C29.3703 81.03 29.3103 81.16 29.2503 81.24C29.0103 81.52 28.7403 81.89 28.2603 81.95C26.7803 82.08 21.7103 82.23 20.1503 81.89C19.1103 81.72 18.4903 81 17.0303 80.48C15.9303 80.28 15.3903 81.87 16.3603 82.41C17.5003 83 18.6103 83.74 19.9003 83.96C22.4703 84.35 25.1003 84.12 27.7003 84.1C28.3503 84.05 29.0203 84 29.6003 83.68C30.4303 83.19 31.1103 82.41 31.4403 81.49C31.8903 80.16 31.6303 78.77 31.6103 77.42Z" fill="#252424"/>
</g>
<g opacity="0.1294">
<path d="M33.7596 98.5899C33.7196 97.2799 33.6996 95.9599 33.4096 94.6799C33.0396 93.4899 33.0696 92.1099 31.6596 92.3299C30.2796 92.7999 31.2396 94.2399 31.3896 95.2099C31.6096 96.0499 31.6096 97.0799 31.6696 98.5599C31.6396 100.11 31.6196 100.39 31.1196 100.95C29.9996 101.24 27.8896 101.3 26.0296 101.32C24.6896 101.33 23.3496 101.49 22.0096 101.3C21.6196 101.3 20.6996 101 20.3896 100.82C19.9196 100.64 19.5196 100.24 19.0196 100.16C17.9196 99.9599 17.3796 101.55 18.3496 102.09C20.2496 103.35 22.5596 103.62 24.7996 103.44C26.9096 103.39 29.0196 103.39 31.1096 103.09C33.2796 102.89 33.8596 100.4 33.7596 98.5899Z" fill="#252424"/>
</g>
</svg>
