<svg width="141" height="122" fill="none" xmlns="http://www.w3.org/2000/svg"><path d="M26.8 1.32c.25 37.6-.41 76.29-.16 113.89h24.73l1-113.89H26.8z" fill="#fff"/><path d="M51.38 116.06H26.65a.85.85 0 01-.85-.85c-.12-18.8-.02-38.19.08-56.94.1-18.76.2-38.15.08-56.95a.857.857 0 01.85-.86h25.57c.23 0 .45.09.61.25.16.16.25.38.25.61l-.99 113.89a.88.88 0 01-.87.85zm-23.89-1.7h23.04l.98-112.19H27.66c.12 18.54.01 37.64-.08 56.12-.1 18.46-.2 37.54-.09 56.07z" fill="#252424"/><path d="M26.85 30.01l25.27-.16-.46 52.63-25.05.07.24-52.54z" fill="#fff"/><path d="M26.61 83.41a.84.84 0 01-.6-.25.862.862 0 01-.25-.61l.23-52.54c0-.47.38-.85.85-.85L52.12 29c.22-.01.45.09.61.25.16.16.25.38.25.61l-.46 52.62c0 .47-.38.84-.85.85l-25.06.08zm1.09-52.55l-.23 50.84 23.35-.07.44-50.92-23.56.15z" fill="#252424"/><path d="M34.86 98.52c0-2.46 1.99-4.45 4.45-4.45s4.45 1.99 4.45 4.45-1.99 4.45-4.45 4.45-4.45-1.99-4.45-4.45z" fill="#fff"/><path d="M39.31 103.82c-2.93 0-5.31-2.38-5.31-5.31 0-2.93 2.38-5.31 5.31-5.31 2.93 0 5.31 2.38 5.31 5.31 0 2.93-2.38 5.31-5.31 5.31zm0-8.91c-1.99 0-3.6 1.62-3.6 3.6s1.62 3.6 3.6 3.6c1.99 0 3.6-1.62 3.6-3.6s-1.61-3.6-3.6-3.6z" fill="#252424"/><path d="M57.5 1.32c.25 37.6-.41 76.29-.16 113.89h24.73l1-113.89H57.5z" fill="#fff"/><path d="M82.08 116.06H57.35a.85.85 0 01-.85-.85c-.13-18.81-.02-38.2.08-56.96.1-18.75.2-38.14.08-56.94a.857.857 0 01.85-.86h25.57c.23 0 .45.09.61.25.16.16.25.38.25.61l-.99 113.89c-.02.48-.4.86-.87.86zm-23.89-1.7h23.04l.98-112.19H58.36c.12 18.54.02 37.63-.08 56.1s-.2 37.56-.09 56.09z" fill="#252424"/><path d="M57.55 30.01l25.27-.16-.46 52.63-25.05.07.24-52.54z" fill="#6BA8C9"/><path d="M57.31 83.41a.84.84 0 01-.6-.25.862.862 0 01-.25-.61l.23-52.54c0-.47.38-.85.85-.85L82.82 29c.24-.01.45.09.61.25.16.16.25.38.25.61l-.46 52.62c0 .47-.38.84-.85.85l-25.06.08c.01 0 0 0 0 0zm1.09-52.55l-.23 50.84 23.35-.07.44-50.92-23.56.15z" fill="#252424"/><path d="M65.56 98.52c0-2.46 1.99-4.45 4.45-4.45s4.45 1.99 4.45 4.45-1.99 4.45-4.45 4.45-4.45-1.99-4.45-4.45z" fill="#fff"/><path d="M70.01 103.82c-2.93 0-5.31-2.38-5.31-5.31 0-2.93 2.38-5.31 5.31-5.31 2.93 0 5.31 2.38 5.31 5.31 0 2.93-2.38 5.31-5.31 5.31zm0-8.91c-1.99 0-3.6 1.62-3.6 3.6s1.62 3.6 3.6 3.6c1.99 0 3.6-1.62 3.6-3.6s-1.61-3.6-3.6-3.6z" fill="#252424"/><path d="M88.2 1.32c.25 37.6-.41 76.29-.16 113.89h24.73l.99-113.89H88.2z" fill="#fff"/><path d="M112.78 116.06H88.05a.85.85 0 01-.85-.85c-.13-18.81-.02-38.2.08-56.96.1-18.75.2-38.14.08-56.94 0-.23.09-.45.25-.61.16-.16.38-.25.61-.25h25.57c.23 0 .45.09.61.25.16.16.25.38.25.61l-.99 113.89c-.03.48-.41.86-.88.86zm-23.89-1.7h23.04l.98-112.19H89.06c.12 18.54.01 37.63-.08 56.1-.1 18.47-.2 37.56-.09 56.09z" fill="#252424"/><path d="M88.25 30.01l25.27-.16-.46 52.63-25.05.07.24-52.54z" fill="#fff"/><path d="M88.01 83.41a.84.84 0 01-.6-.25.862.862 0 01-.25-.61l.23-52.54c0-.47.38-.85.85-.85l25.28-.16h.01c.23 0 .44.09.6.25.16.16.25.38.25.61l-.46 52.62c0 .47-.38.84-.85.85l-25.06.08c.01 0 0 0 0 0zm1.09-52.55l-.23 50.84 23.35-.07.44-50.92-23.56.15z" fill="#252424"/><path d="M96.26 98.52c0-2.46 1.99-4.45 4.451-4.45 2.46 0 4.45 1.99 4.45 4.45s-1.99 4.45-4.45 4.45-4.45-1.99-4.45-4.45z" fill="#fff"/><path d="M100.71 103.82c-2.93 0-5.31-2.38-5.31-5.31 0-2.93 2.38-5.31 5.31-5.31 2.93 0 5.31 2.38 5.31 5.31 0 2.93-2.38 5.31-5.31 5.31zm0-8.91c-1.99 0-3.6 1.62-3.6 3.6s1.62 3.6 3.6 3.6c1.99 0 3.6-1.62 3.6-3.6s-1.61-3.6-3.6-3.6zm13.3 26.42c-37.7 0-75.65-.44-113.17-1.32a.85.85 0 11.04-1.7c45.87 1.07 92.39 1.49 138.29 1.25.47 0 .85.38.85.85s-.38.85-.85.86c-8.37.04-16.76.06-25.16.06zM91.33 40.37c-.05 0-.11-.02-.16-.05-.13-.09-.17-.26-.08-.39 1.8-2.68 3.72-5.33 5.71-7.88.1-.12.28-.14.4-.05.12.1.14.28.05.4-1.99 2.53-3.9 5.17-5.69 7.84-.05.09-.14.13-.23.13zm-.67 9.32c-.05 0-.11-.02-.16-.05-.13-.09-.17-.26-.08-.39l11.39-17.18c.09-.13.26-.16.39-.08.13.09.17.26.08.39L90.89 49.57c-.05.08-.14.12-.23.12zm.32 7.42c-.06 0-.11-.02-.16-.05a.277.277 0 01-.07-.39l16.51-24.23a.29.29 0 01.39-.08c.13.09.16.27.07.39L91.21 56.98c-.05.08-.14.13-.23.13zm.35 7.72a.286.286 0 01-.22-.46c6.69-8.78 13.14-17.92 19.17-27.16.09-.13.26-.17.39-.08.13.09.17.26.08.39-6.04 9.25-12.5 18.4-19.2 27.19-.05.08-.14.12-.22.12zm-.5 9.29c-.06 0-.12-.02-.17-.05-.13-.09-.15-.27-.06-.4l18.9-25.82c.09-.13.27-.15.4-.06s.15.27.06.4L91.06 74c-.05.08-.14.12-.23.12zm1.22 5.54a.286.286 0 01-.22-.46l17.68-22.86c.1-.12.28-.15.4-.05.12.1.15.27.05.4L92.27 79.55c-.05.08-.14.11-.22.11zm4.94.86a.3.3 0 01-.18-.06.285.285 0 01-.04-.4l12.61-15.58c.1-.12.28-.14.4-.04s.14.28.04.4l-12.6 15.57c-.06.07-.14.11-.23.11zm5.97-.25a.284.284 0 01-.22-.47l7.55-8.7a.284.284 0 01.43.37l-7.55 8.7c-.05.06-.13.1-.21.1zm5.56-.16a.3.3 0 01-.18-.06.285.285 0 01-.04-.4l2.29-2.8c.1-.12.28-.14.4-.04s.14.28.04.4l-2.29 2.8c-.06.06-.14.1-.22.1z" fill="#252424"/><path d="M47.53 113.48c0-.02 0-.04-.01-.05 0 .02.01.04.01.07v-.02c0 .01 0 0 0 0z" fill="#252424" opacity=".129"/><path d="M52.24 10.02c-.03-2.83-.02-5.67-.04-8.5 0-.41-.16-.79-.45-1.08-.9-.94-2.65-.25-2.61 1.08-.03 14.43-.41 28.85-.7 43.27-.27 5.9-.41 11.79-.68 17.69-.02 5.53-.12 11.06-.17 16.59-.16 6.14-.16 12.3-.48 18.43-.22 3.89.1 7.79.14 11.68.07 2.04.08 3.04.27 4.25 0-.04-.01-.07-.01-.11.01.05.02.11.02.16v.01c0 .02.01.04.01.05 0 .03.01.07.01.1-.01-.03-.01-.09-.02-.15v.26c0 .21-.02.42-.03.64-.05.54.11 1.1.5 1.49 1.06 1.12 3.12.24 3-1.32-.01-.18-.03-.38-.09-.57-.04-.25-.08-.49-.13-.74-.02-.21-.06-.59-.06-.78v-.11c0-.05.01-.09.01-.14.28-3.81.17-7.64.1-11.45.06-3.85-.03-7.69-.03-11.54.17-12.6.3-25.21.69-37.8.25-5.51.68-11 .61-16.52.2-8.3.27-16.6.14-24.89zm30.53-2.53c-.01-1.87-.01-3.75-.02-5.62 0-.44-.18-.86-.49-1.17-.97-1.02-2.88-.27-2.83 1.17-.06 12.38-.02 24.76-.24 37.14.01 4.11.23 8.21.28 12.32.01 3.5-.23 7-.25 10.49 0 6.87-.36 13.73-.9 20.58-.23 6.83-.32 13.66-.24 20.49 0 2.91-.05 5.82-.01 8.73.08 1.5.1 1.41.53 3.37.09.49.36.94.79 1.18 1.17.72 2.75-.47 2.34-1.8-.49-2.01-.47-1.8-.44-3.69.03-11.49-.25-23.02.75-34.47.3-5.03.2-10.07.32-15.1.42-6.02.27-12.06.2-18.09.24-11.83.32-23.68.21-35.53zM40.04 95.16c.05-1.38-1.79-2.13-2.73-1.13-1.49 1.48-2.75 3.44-2.49 5.63.03 2.12 3.19 2.12 3.23 0-.2-1.42.48-2.04.73-2.48.48-.63 1.28-1.14 1.26-2.02zM70 94.2c-1.92.7-3.59 2.21-4.08 4.25-.17.88-.44 1.98.29 2.68.84.88 2.44.46 2.73-.72.37-1.5.14-1.04.76-2.01.01-.02.03-.03.05-.05.14-.15.3-.28.46-.41.64-.46 1.55-.54 2.02-1.19 1.19-1.45-.64-3.51-2.23-2.55zm29.45-.01c-1.07 1.35-2.16 2.75-2.53 4.47-.49 2.31 2.87 2.81 3.17.47.33-.97.21-.75 1.07-2.02.38-.64 1.11-1.15 1.19-1.92.3-1.65-2.09-2.46-2.9-1zm13.03 7.83c.04-7.13-.04-14.27-.02-21.41-.01-3.48-.06-6.96-.18-10.44-.09-.77.04-1.59-.04-2.36.03-1.24.06-2.48.11-3.72.01-6.57 0-13.15.32-19.71.34-7.54.27-15.1.37-22.65.04-4.15.39-8.29.31-12.43-.05-1.9-.1-3.79-.19-5.69-.11-.89.14-1.93-.55-2.62-.96-1.01-2.85-.27-2.8 1.16.37 6.49-.12 12.98-.3 19.47-.12 5.58.07 11.16-.08 16.74-.26 8.33-.29 16.66-.25 24.99-.04 1.17-.06 2.33-.09 3.5-.16.25-.26.55-.25.91.05 2.71.1 5.42.13 8.13 0 2.73.04 5.47.09 8.2.08 10.18.03 20.36-.22 30.53-.03 1.1 1.11 1.95 2.16 1.64.36-.1.61-.28.8-.5.28-.05.54-.17.74-.39.98-1.02.43-4.33.3-7.54-.17-1.94-.29-3.87-.36-5.81z" fill="#252424" opacity=".129"/></svg>