<svg width="136" height="134" viewBox="0 0 136 134" fill="none" xmlns="http://www.w3.org/2000/svg">
<path d="M65.2996 133.53C62.0196 133.53 58.8596 132.63 56.0696 130.84C50.5196 127.27 47.2596 122.22 43.8096 116.88C42.5096 114.87 41.1696 112.78 39.6896 110.79C37.2396 107.48 33.8496 104.67 30.1396 102.89C29.9896 102.82 29.8596 102.7 29.7696 102.55C27.0496 97.9199 23.9596 92.6799 19.1196 89.7099C18.1496 89.1199 17.0796 88.6899 15.9496 88.2499C14.4796 87.6699 12.9596 87.0699 11.6496 86.0499C4.6796 80.6399 0.899602 75.0499 0.0896025 68.9399C-0.600398 63.7499 2.6196 48.3399 13.9496 44.4099C19.1296 42.6099 20.7896 41.0199 22.2596 39.6199C23.1896 38.7399 24.0596 37.8999 25.5996 37.1499C29.7896 35.0899 31.8996 31.8499 34.1196 28.4199C36.0596 25.4299 38.0696 22.3399 41.5396 20.1499C44.3096 18.3999 46.1696 15.6799 48.1396 12.7899C49.1796 11.2699 50.2496 9.68994 51.4696 8.26994C55.4696 3.61994 61.1396 0.63994 67.0296 0.0899402C73.1296 -0.49006 79.3496 1.61994 83.6596 5.70994C85.9696 7.89994 87.7096 10.5899 89.3896 13.1899C90.5096 14.9199 91.6696 16.7199 92.9796 18.3199C95.5396 21.4499 98.8096 24.0299 101.99 26.5399C105.31 29.1599 108.73 31.8599 111.44 35.2299C112.18 36.1499 112.74 37.2799 113.29 38.3699C113.94 39.6599 114.61 40.9999 115.52 41.8599C115.83 42.1599 116.12 42.4299 116.38 42.6899C118.16 44.4099 119.05 45.2699 123.33 47.3199C127.18 49.1699 132.82 55.5699 134.11 59.5499C137.74 70.7399 132.72 82.8999 122.44 87.8499C121.27 88.4099 119.77 88.9099 118.31 89.3999C116.91 89.8699 115.46 90.3499 114.39 90.8699C110.94 92.5299 108.63 95.7899 106.36 99.2699C106.32 99.3399 106.27 99.3999 106.21 99.4499L94.9096 109.42C93.2596 110.88 91.5496 112.38 90.2096 114.13C89.1296 115.54 88.2996 117.08 87.4196 118.72C87.0696 119.37 86.7196 120.02 86.3596 120.66C83.0796 126.4 79.0996 129.1 73.7596 131.6C70.9496 132.88 68.0796 133.53 65.2996 133.53ZM31.1196 101.44C35.0396 103.37 38.4796 106.24 41.0796 109.76C42.5896 111.8 43.9496 113.91 45.2596 115.94C48.6096 121.12 51.7696 126.02 56.9996 129.39C61.7096 132.42 67.3896 132.64 73.0096 130.01C78.1796 127.6 81.7696 125.15 84.8396 119.78C85.1996 119.15 85.5396 118.52 85.8796 117.88C86.7596 116.26 87.6596 114.58 88.8196 113.06C90.2596 111.18 92.0296 109.61 93.7496 108.1L104.96 98.2099C107.25 94.6999 109.81 91.1299 113.62 89.2999C114.79 88.7399 116.29 88.2399 117.75 87.7499C119.15 87.2799 120.6 86.7999 121.67 86.2799C131.17 81.7099 135.81 70.4399 132.45 60.0699C131.29 56.4999 126.03 50.5299 122.57 48.8699C118.05 46.6999 117.02 45.7099 115.17 43.9199C114.91 43.6699 114.63 43.3999 114.32 43.1099C113.2 42.0499 112.45 40.5699 111.74 39.1399C111.21 38.0799 110.7 37.0799 110.08 36.2999C107.5 33.0799 104.15 30.4399 100.91 27.8799C97.6696 25.3199 94.3096 22.6799 91.6396 19.3999C90.2696 17.7299 89.0896 15.8899 87.9396 14.1199C86.2396 11.4899 84.6396 9.00994 82.4796 6.95994C78.5196 3.20994 72.8096 1.27994 67.1996 1.80994C61.7496 2.32994 56.4896 5.08994 52.7896 9.39994C51.6296 10.7499 50.5796 12.2799 49.5696 13.7599C47.5896 16.6699 45.5396 19.6699 42.4596 21.6099C39.3096 23.5899 37.4896 26.3899 35.5696 29.3499C33.3096 32.8199 30.9796 36.4199 26.3596 38.6899C25.0596 39.3299 24.3196 40.0399 23.4496 40.8599C21.8496 42.3799 20.0396 44.1099 14.5096 46.0299C4.5996 49.4799 1.1096 63.4899 1.7996 68.7099C2.5496 74.3399 6.1096 79.5599 12.6996 84.6699C13.8096 85.5299 15.1596 86.0599 16.5796 86.6199C17.7296 87.0799 18.9196 87.5499 20.0196 88.2199C25.1396 91.3699 28.3196 96.6899 31.1196 101.44Z" fill="#252424"/>
<path d="M108.639 31.4499C96.8793 18.3599 78.0893 12.2999 60.7293 15.1299C43.3593 17.9599 27.7793 29.2699 18.8593 44.4399C16.3193 48.7499 14.2693 53.4199 13.4493 58.3499C12.5093 64.0199 13.2293 69.8599 14.6593 75.4199C17.8293 87.7499 24.1493 98.2499 33.8593 105.81C42.2193 112.33 52.5193 117.43 63.0693 118.47C73.6193 119.51 84.6593 117.27 93.3493 111.19C96.6393 108.89 99.5093 105.87 100.789 104.43C107.299 97.1699 113.859 89.6799 117.589 80.6699C124.329 64.4299 120.389 44.5399 108.639 31.4499ZM88.1893 85.7999C87.5893 86.3999 66.5793 104.06 48.7493 86.2299C34.3993 71.8799 39.7593 59.9699 43.3693 53.6399C47.2193 46.8899 56.9093 39.1899 64.7293 38.1299C72.5493 37.0599 83.5593 40.2199 89.0493 46.2899C100.749 59.2499 97.2393 76.7499 88.1893 85.7999Z" fill="white"/>
<path d="M68.1292 119.6C66.4292 119.6 64.7092 119.52 62.9892 119.35C53.2592 118.39 42.7292 113.83 33.3292 106.51C23.7292 99.0299 17.1692 88.6499 13.8292 75.6499C12.1392 69.0999 11.7392 63.3999 12.5992 58.2199C13.3492 53.6899 15.1592 49.0399 18.1192 44.0099C27.4192 28.2199 43.2992 17.1099 60.5992 14.2899C78.4992 11.3699 97.6192 17.8799 109.289 30.8799C121.529 44.5099 125.189 64.6599 118.399 81.0299C114.459 90.5299 107.239 98.5699 101.439 105.04C100.019 106.62 97.1392 109.62 93.8492 111.93C86.6592 116.94 77.6792 119.6 68.1292 119.6ZM69.1892 15.3199C66.4092 15.3199 63.6192 15.5399 60.8692 15.9899C44.0692 18.7299 28.6392 29.5299 19.5992 44.8799C16.7492 49.7299 15.0092 54.1799 14.2992 58.4999C13.4792 63.4399 13.8692 68.8999 15.4992 75.2099C18.7492 87.8299 25.0992 97.8999 34.3892 105.14C43.5292 112.27 53.7492 116.7 63.1592 117.63C74.1892 118.72 84.7292 116.19 92.8592 110.5C96.0092 108.3 98.7792 105.4 100.159 103.87C105.869 97.5099 112.979 89.5799 116.809 80.3599C123.349 64.5899 119.809 45.1699 108.009 32.0299C98.4992 21.4499 83.9092 15.3199 69.1892 15.3199ZM66.7292 95.0499C60.7792 95.0499 54.2792 92.9899 48.1292 86.8399C34.0292 72.7399 38.2292 60.8899 42.6092 53.2099C46.4792 46.4299 56.2392 38.4099 64.5992 37.2699C72.2392 36.2299 83.7092 39.0999 89.6792 45.7099C101.509 58.8099 98.5192 76.6899 88.7992 86.4099C88.6592 86.5499 78.8092 95.0499 66.7292 95.0499ZM67.7692 38.7999C66.7392 38.7999 65.7492 38.8599 64.8392 38.9899C57.0992 40.0499 47.6992 47.7899 44.1192 54.0799C40.0192 61.2699 36.0992 72.3599 49.3592 85.6299C66.7892 103.06 87.3492 85.4299 87.5792 85.1999C96.7292 76.0499 99.5392 59.2099 88.3992 46.8799C83.6092 41.5599 74.6592 38.7999 67.7692 38.7999Z" fill="#252424"/>
<path d="M91.5695 20.3999C86.3795 26.4099 82.8795 32.5499 80.0995 39.1999C79.7895 39.9399 79.3095 40.7999 79.8595 41.5599C80.1195 41.9299 80.5395 42.1499 80.9295 42.3699C86.5295 45.4699 90.8095 50.1599 93.8495 56.3199C98.9495 57.4899 110.66 48.7899 117.2 43.6799C116.71 40.2199 114.94 37.7499 111.89 34.4999C106.26 28.4899 101.22 21.9799 93.9995 19.2999C93.0495 18.9399 92.4595 19.3699 91.5695 20.3999Z" fill="#6BA8C9"/>
<path d="M94.8692 57.2899C94.4292 57.2899 94.0192 57.2499 93.6492 57.1599C93.3992 57.0999 93.1792 56.9299 93.0692 56.6999C90.0892 50.6599 85.8592 46.0899 80.5092 43.1299C80.0592 42.8799 79.5292 42.5899 79.1592 42.0699C78.3892 40.9899 78.8792 39.8599 79.2092 39.1099L79.3092 38.8699C82.3792 31.5099 86.0692 25.4599 90.9192 19.8299C91.7792 18.8299 92.7592 17.8999 94.3092 18.4799C100.599 20.8099 105.129 25.7899 109.939 31.0699C110.799 32.0099 111.659 32.9599 112.529 33.8899C115.629 37.1999 117.529 39.8399 118.059 43.5399C118.099 43.8499 117.979 44.1499 117.739 44.3399C106.499 53.1299 99.1592 57.2899 94.8692 57.2899ZM94.4192 55.5399C97.9492 55.9599 105.299 51.8399 116.259 43.3099C115.699 40.2999 114.039 38.0599 111.259 35.0799C110.379 34.1399 109.509 33.1899 108.649 32.2399C103.989 27.1199 99.5992 22.2899 93.6992 20.0999C93.3692 19.9799 93.1492 19.8999 92.2292 20.9599C87.4992 26.4399 83.8992 32.3399 80.8992 39.5299L80.7892 39.7899C80.4992 40.4599 80.3792 40.7999 80.5592 41.0499C80.6992 41.2499 80.9992 41.4099 81.3192 41.5899C86.8892 44.6899 91.2892 49.3699 94.4192 55.5399Z" fill="#252424"/>
<path d="M44.9693 112.39C50.2393 106.29 53.8193 100.09 56.6593 93.3599C56.9793 92.6099 57.4693 91.7499 56.9193 90.9799C56.6593 90.6099 56.2393 90.3899 55.8493 90.1799C50.2293 87.0999 45.6493 82.6999 42.6393 76.5299C37.5193 75.3899 25.9393 83.9499 19.3193 89.1399C19.7893 92.6299 21.5593 95.0999 24.5993 98.3499C30.2193 104.36 35.2593 110.89 42.5093 113.53C43.4593 113.87 44.0593 113.44 44.9693 112.39Z" fill="#6BA8C9"/>
<path d="M43.1195 114.51C42.8395 114.51 42.5395 114.46 42.2195 114.34C35.8995 112.04 31.3695 107.05 26.5695 101.76C25.7095 100.82 24.8495 99.87 23.9795 98.94C20.8795 95.62 18.9795 92.97 18.4695 89.25C18.4295 88.95 18.5495 88.64 18.7895 88.45C30.9095 78.95 38.7695 74.77 42.8295 75.67C43.0895 75.73 43.2995 75.9 43.4195 76.13C46.1695 81.78 50.4995 86.24 56.2695 89.4C56.7295 89.65 57.2595 89.94 57.6295 90.46C58.3995 91.54 57.8995 92.68 57.5695 93.44L57.4695 93.68C54.3195 101.12 50.5595 107.24 45.6295 112.94C44.9295 113.76 44.1695 114.51 43.1195 114.51ZM20.2595 89.51C20.7995 92.54 22.4495 94.78 25.2395 97.76C26.1195 98.7 26.9895 99.65 27.8495 100.6C32.4995 105.72 36.8995 110.56 42.8195 112.71C43.1595 112.83 43.3795 112.91 44.3295 111.82C49.1395 106.26 52.8095 100.29 55.8795 93.02L55.9895 92.76C56.2995 92.06 56.3995 91.73 56.2295 91.48C56.0895 91.28 55.7895 91.12 55.4795 90.95C49.4995 87.67 44.9995 83.09 42.0795 77.3C39.4895 77.04 33.5995 79.09 20.2595 89.51Z" fill="#252424"/>
<path d="M20.7591 40.93C22.4991 43.32 25.0991 45.09 27.4691 46.86C31.9791 50.22 35.8991 52.19 40.7991 54.19C41.6691 54.55 42.4891 55.4 43.6791 54.87C46.2791 50.56 51.9391 45.08 56.3991 42.76C57.0091 40.74 56.1491 38.78 55.2991 37.04C53.0191 32.39 50.6691 27.77 48.2691 23.2C47.4691 21.68 46.6491 20.14 45.3191 18.72C43.3491 18.39 41.3191 19.8 39.6191 21.16C33.4991 26.06 27.7391 31.45 22.4291 37.25C21.4991 38.25 19.9591 39.83 20.7591 40.93Z" fill="#6BA8C9"/>
<path d="M42.9193 55.9099C42.1493 55.9099 41.5293 55.5599 41.0293 55.2799C40.8293 55.1699 40.6393 55.0599 40.4693 54.9999C35.7793 53.0899 31.6893 51.0999 26.9493 47.5599L26.1293 46.9599C23.9393 45.3399 21.6793 43.6699 20.0593 41.4499C18.8793 39.8299 20.6193 37.9399 21.6493 36.8099L21.7793 36.6699C27.0993 30.8499 32.9193 25.4099 39.0593 20.4899C41.0393 18.8999 43.1893 17.4799 45.4493 17.8699C45.6393 17.8999 45.8093 17.9899 45.9393 18.1299C47.3693 19.6699 48.2493 21.3299 49.0193 22.7999C51.4193 27.3599 53.7893 32.0299 56.0593 36.6599C57.0193 38.6199 57.9093 40.7299 57.2193 43.0099C57.1493 43.2299 56.9993 43.4199 56.7893 43.5299C52.5593 45.7399 46.9993 51.0299 44.4093 55.3299C44.3193 55.4799 44.1793 55.5999 44.0193 55.6699C43.6293 55.8399 43.2593 55.9099 42.9193 55.9099ZM21.4593 40.4199C22.9293 42.4299 25.0793 44.0199 27.1593 45.5599L27.9793 46.1699C32.5693 49.5899 36.5493 51.5299 41.1093 53.3899C41.3793 53.4999 41.6193 53.6399 41.8593 53.7699C42.4293 54.0899 42.7393 54.2299 43.0893 54.1599C45.8193 49.7999 51.3093 44.5599 55.6493 42.1799C55.9793 40.6099 55.2993 39.0399 54.5093 37.4299C52.2393 32.8099 49.8793 28.1599 47.4893 23.6099C46.8093 22.3199 46.0393 20.8599 44.8893 19.5499C43.3693 19.4599 41.6493 20.6499 40.1493 21.8499C34.0693 26.7099 28.3193 32.0899 23.0593 37.8399L22.9293 37.9799C22.3893 38.5599 21.1093 39.9399 21.4593 40.4199Z" fill="#252424"/>
<path d="M89.2997 114.37C87.1097 112.53 85.6097 109.89 84.0797 107.47C81.1897 102.86 79.6097 98.9199 78.0897 94.0099C77.8197 93.1299 77.0597 92.2899 77.6797 91.1599C82.1497 88.8599 88.0397 83.6299 90.7197 79.3899C92.7597 78.9099 94.5997 79.8599 96.2297 80.7999C100.59 83.2999 104.91 85.8599 109.18 88.4699C110.6 89.3399 112.04 90.2299 113.31 91.6099C113.46 93.5599 111.89 95.4599 110.4 97.0499C105.03 102.77 99.2197 108.1 93.0497 112.96C91.9997 113.8 90.3097 115.21 89.2997 114.37Z" fill="#6BA8C9"/>
<path d="M90.0195 115.5C89.5795 115.5 89.1495 115.37 88.7495 115.03C86.6995 113.31 85.2695 111 83.8795 108.76L83.3595 107.93C80.3195 103.09 78.7295 98.9599 77.2795 94.2599C77.2295 94.0899 77.1395 93.9099 77.0495 93.7099C76.7395 93.0199 76.2595 91.9699 76.9395 90.7399C77.0195 90.5899 77.1495 90.4699 77.2995 90.3899C81.7595 88.0899 87.4595 82.9499 90.0095 78.9299C90.1295 78.7399 90.3195 78.5999 90.5395 78.5499C92.8395 77.9999 94.8395 78.9899 96.6795 80.0499C101.03 82.5499 105.4 85.1299 109.65 87.7399C111.02 88.5799 112.58 89.5299 113.97 91.0299C114.1 91.1699 114.18 91.3599 114.2 91.5499C114.37 93.7799 112.79 95.7999 111.06 97.6499C105.68 103.39 99.8095 108.77 93.6195 113.65L93.4695 113.77C92.5795 114.45 91.2495 115.5 90.0195 115.5ZM89.8595 113.71C90.2795 114.06 91.8095 112.85 92.3895 112.39L92.5395 112.27C98.6595 107.44 104.47 102.12 109.79 96.4499C111.1 95.0499 112.42 93.4399 112.48 91.9499C111.31 90.7499 109.95 89.9299 108.75 89.1899C104.51 86.5999 100.16 84.0199 95.8195 81.5299C94.3195 80.6699 92.8295 79.9199 91.2695 80.1499C88.5395 84.2599 82.8895 89.3499 78.3595 91.7699C78.2495 92.0999 78.3595 92.4099 78.6195 92.9799C78.7295 93.2199 78.8395 93.4699 78.9195 93.7399C80.3295 98.3099 81.8695 102.31 84.8095 107L85.3295 107.84C86.6595 109.97 88.0195 112.16 89.8595 113.71Z" fill="#252424"/>
<path d="M21.27 78.93C21.17 78.93 21.07 78.88 21.02 78.78C17.95 73.11 16.91 66.23 18.18 59.91C18.21 59.75 18.36 59.65 18.52 59.68C18.68 59.71 18.78 59.86 18.75 60.02C17.51 66.21 18.52 72.95 21.53 78.51C21.61 78.65 21.55 78.82 21.41 78.9C21.37 78.92 21.32 78.93 21.27 78.93Z" fill="#252424"/>
<path d="M25.09 76.6199C25 76.6199 24.9 76.5699 24.85 76.4899C23.52 74.4299 22.82 71.9399 22.86 69.4899C22.86 69.3299 22.99 69.1999 23.15 69.2099C23.31 69.2099 23.44 69.3399 23.43 69.4999C23.38 71.8399 24.06 74.2099 25.32 76.1799C25.41 76.3099 25.37 76.4899 25.23 76.5799C25.2 76.6099 25.15 76.6199 25.09 76.6199Z" fill="#252424"/>
<path d="M30.0992 75.3399C29.9892 75.3399 29.8792 75.2799 29.8392 75.1699C29.2692 73.9099 28.8292 72.5899 28.5292 71.2399C28.4992 71.0799 28.5892 70.9299 28.7492 70.8999C28.9092 70.8699 29.0592 70.9599 29.0892 71.1199C29.3792 72.4299 29.8092 73.7199 30.3592 74.9399C30.4292 75.0899 30.3592 75.2599 30.2192 75.3199C30.1792 75.3299 30.1392 75.3399 30.0992 75.3399Z" fill="#252424"/>
<path d="M67.4293 115.29C63.5893 115.29 59.7793 114.82 56.0393 113.87C54.0993 113.38 51.9093 112.68 50.2993 111.18C50.1793 111.07 50.1793 110.89 50.2893 110.77C50.3993 110.65 50.5793 110.65 50.6993 110.76C52.2193 112.17 54.3293 112.85 56.1893 113.32C61.1993 114.58 66.3393 114.99 71.4793 114.54C71.6293 114.53 71.7793 114.64 71.7893 114.8C71.7993 114.96 71.6893 115.1 71.5293 115.11C70.1593 115.24 68.7893 115.29 67.4293 115.29Z" fill="#252424"/>
<path d="M64.6292 110.6H64.6192C60.6292 110.44 56.7092 109.64 52.9692 108.23C52.8192 108.17 52.7492 108.01 52.7992 107.86C52.8592 107.71 53.0192 107.63 53.1692 107.69C56.8492 109.07 60.7092 109.86 64.6392 110.02C64.7992 110.03 64.9192 110.16 64.9192 110.32C64.9192 110.47 64.7892 110.6 64.6292 110.6Z" fill="#252424"/>
<path d="M60.0598 105.78C60.0298 105.78 60.0098 105.78 59.9798 105.77L56.5398 104.74C56.3898 104.69 56.2998 104.53 56.3498 104.38C56.3998 104.23 56.5498 104.14 56.7098 104.19L60.1498 105.22C60.2998 105.27 60.3898 105.43 60.3398 105.58C60.2998 105.7 60.1898 105.78 60.0598 105.78Z" fill="#252424"/>
<path d="M110.969 84.17C110.919 84.17 110.869 84.16 110.819 84.13C110.679 84.05 110.639 83.87 110.719 83.73C112.839 80.27 114.329 76.51 115.169 72.54C115.199 72.38 115.359 72.28 115.509 72.32C115.669 72.35 115.769 72.51 115.729 72.66C114.879 76.69 113.359 80.52 111.209 84.04C111.169 84.12 111.069 84.17 110.969 84.17Z" fill="#252424"/>
<path d="M107 81.74C106.96 81.74 106.92 81.73 106.88 81.71C106.73 81.65 106.67 81.47 106.73 81.33L108.74 76.82C108.8 76.67 108.98 76.61 109.12 76.67C109.27 76.74 109.33 76.91 109.27 77.05L107.26 81.56C107.21 81.68 107.11 81.74 107 81.74Z" fill="#252424"/>
<path d="M102.189 81.32C102.139 81.32 102.099 81.31 102.059 81.29C101.919 81.22 101.859 81.04 101.939 80.9L103.619 77.7C103.689 77.56 103.869 77.51 104.009 77.58C104.149 77.65 104.209 77.83 104.129 77.97L102.449 81.17C102.389 81.26 102.289 81.32 102.189 81.32Z" fill="#252424"/>
<g opacity="0.1294">
<path d="M120.729 66.4299C120.539 65.8699 119.939 65.5099 119.359 65.5099C118.249 65.5299 117.829 66.4799 117.799 67.4499C117.649 68.4899 117.459 69.5299 117.159 70.5499C116.699 72.1599 115.969 73.6799 115.399 75.2499C113.939 79.5699 113.139 81.7899 110.759 85.7999C106.149 93.2799 103.919 97.0999 96.5594 102.85C95.1494 103.96 88.8394 108.64 85.2594 110.05C83.8394 110.91 79.4194 112.08 76.1594 112.68C71.8794 113.39 68.7794 113.92 62.9394 113.71C60.5694 113.47 61.6294 113.55 58.1994 113.02C56.2894 112.74 54.3694 112.52 52.4994 112.03C50.5194 111.49 48.5994 110.76 46.6994 110C43.9894 108.96 43.4094 108.81 40.7894 107.42C39.6294 106.81 38.4994 106.15 37.3794 105.48C37.0094 105.26 36.5594 105.2 36.1394 105.32C35.2794 105.53 34.8694 106.42 35.0094 107.21C34.4394 107.81 34.4094 108.93 35.2794 109.42C37.5194 110.76 39.7594 112.26 42.1994 113.17C42.7194 113.28 43.1894 113.03 43.4794 112.64C45.8294 113.74 48.1694 114.69 49.5694 115.13C52.5294 116.07 54.9294 116.29 56.5294 116.51C56.6694 116.74 56.8994 116.93 57.2294 117.03C61.0794 117.89 65.0294 118.66 68.9794 118.66C74.6994 118.29 82.3694 116.59 86.4494 114.43C86.5994 114.33 86.6994 114.19 86.7794 114.05C87.2594 113.86 87.7394 113.65 88.2194 113.42C88.4394 114.03 89.0194 114.51 89.7094 114.51C90.6594 114.48 91.3294 113.63 92.0994 113.16C96.1394 110.1 99.1594 107.98 103.349 104.36C105.269 102.49 105.649 102.01 107.259 100.37C109.509 97.9799 111.879 95.4099 112.889 92.2399C113.019 91.5299 112.709 90.9599 112.229 90.6199C113.319 88.7599 114.349 86.8699 115.369 84.9899C116.929 81.8899 117.779 78.5199 118.819 75.2299C119.649 72.8699 120.509 70.5099 120.739 67.9999C120.779 67.4699 120.979 66.9199 120.729 66.4299Z" fill="#252424"/>
</g>
</svg>
